<?xml version="1.0" encoding="UTF-8"?>
<svg id="Layer_1" xmlns="http://www.w3.org/2000/svg" version="1.1" viewBox="0 0 753 367">
  <!-- Generator: Adobe Illustrator 29.5.1, SVG Export Plug-In . SVG Version: 2.1.0 Build 141)  -->
  <defs>
    <style>
      .st0 {
        fill: #e8a13b;
      }

      .st1 {
        fill: #dd514c;
      }

      .st2 {
        fill: none;
        stroke: #71a2f3;
        stroke-dasharray: 2 2;
      }

      .st3 {
        fill: #54b684;
      }

      .st4 {
        fill: #a8d8e8;
      }

      .st5 {
        fill: #4e80ed;
      }

      .st6 {
        fill: #fff;
      }

      .st7 {
        fill: #835eed;
      }

      .st8 {
        fill: #3974ad;
      }

      .st9 {
        fill: #da5497;
      }

      .st10 {
        font-family: Arial-Mdm, Arial;
        font-size: 12px;
        font-weight: 500;
        stroke: #221f20;
        stroke-miterlimit: 10;
        stroke-width: .25px;
      }

      .st11 {
        fill: #0b0755;
      }
    </style>
  </defs>
  <rect class="st6" x="-.66" width="753" height="367"/>
  <path class="st11" d="M261.26,183.59l-10-5.77v11.55l10-5.77ZM219.76,183.59v1h32.5v-2h-32.5v1Z"/>
  <path class="st11" d="M525.26,183.59l-10-5.77v11.55l10-5.77ZM483.76,183.59v1h32.5v-2h-32.5v1Z"/>
  <path class="st4" d="M453.26,125.12c12.89,15.55,21.09,34.45,23.65,54.49s-.64,40.39-9.21,58.68c-8.57,18.29-22.17,33.77-39.21,44.62-17.04,10.85-36.81,16.64-57.01,16.68-20.2.04-39.99-5.66-57.08-16.45-17.08-10.78-30.74-26.2-39.39-44.46-8.65-18.25-11.93-38.59-9.45-58.64,2.47-20.05,10.6-38.98,23.42-54.58l12.34,10.14c-10.9,13.26-17.81,29.35-19.91,46.4-2.1,17.04.68,34.33,8.03,49.84,7.35,15.52,18.96,28.62,33.48,37.79,14.52,9.17,31.35,14.01,48.51,13.98,17.17-.04,33.98-4.95,48.46-14.18,14.48-9.23,26.04-22.38,33.32-37.93,7.29-15.55,10-32.85,7.83-49.88-2.17-17.03-9.15-33.09-20.1-46.31l12.3-10.19Z"/>
  <path class="st1" d="M446.42,117.51c2.4,2.34,4.68,4.78,6.85,7.33l-12.18,10.34c-1.84-2.17-3.78-4.25-5.82-6.23l11.15-11.44Z"/>
  <path class="st5" d="M289.12,125.3c2.13-2.58,4.38-5.06,6.74-7.43l11.31,11.28c-2.01,2.01-3.92,4.12-5.73,6.32l-12.32-10.17Z"/>
  <path class="st11" d="M341.24,193.59h-3.09v-8.73h3.12c.88,0,1.63.17,2.27.52.63.35,1.12.85,1.46,1.5.34.65.52,1.43.52,2.34s-.17,1.69-.52,2.34c-.34.65-.83,1.15-1.47,1.5-.64.35-1.4.52-2.28.52ZM339.99,192.01h1.17c.54,0,1-.1,1.38-.29.38-.2.66-.5.84-.91.19-.41.29-.94.29-1.59s-.1-1.17-.29-1.58c-.19-.41-.47-.71-.84-.9-.37-.19-.83-.29-1.38-.29h-1.18v5.57ZM349.82,193.72c-.67,0-1.25-.14-1.74-.41-.48-.28-.86-.66-1.12-1.17-.26-.51-.39-1.1-.39-1.79s.13-1.26.39-1.77c.26-.51.63-.9,1.1-1.19.48-.28,1.04-.43,1.68-.43.43,0,.83.07,1.2.21.38.14.7.34.98.62.28.28.5.62.66,1.04.16.42.23.9.23,1.46v.5h-5.53v-1.12h3.82c0-.26-.06-.49-.17-.7-.11-.2-.27-.36-.47-.47-.2-.12-.43-.18-.7-.18s-.52.06-.73.19c-.21.12-.38.29-.49.51-.12.21-.18.44-.18.7v1.07c0,.32.06.6.18.84.12.24.29.42.51.54.22.13.49.19.79.19.2,0,.39-.03.55-.08.17-.06.31-.14.43-.26.12-.11.21-.25.27-.42l1.68.11c-.08.4-.26.76-.52,1.06-.26.3-.6.53-1.01.7-.41.16-.89.25-1.43.25ZM359.46,188.91l-1.66.1c-.03-.14-.09-.27-.18-.38-.09-.12-.22-.21-.37-.28-.15-.07-.33-.11-.54-.11-.28,0-.52.06-.71.18-.19.12-.29.27-.29.47,0,.16.06.29.19.4s.34.2.64.26l1.18.24c.64.13,1.11.34,1.42.63.31.29.47.67.47,1.14,0,.43-.13.8-.38,1.13-.25.32-.59.58-1.03.76-.44.18-.94.27-1.51.27-.87,0-1.56-.18-2.07-.54-.51-.36-.81-.86-.9-1.48l1.79-.09c.05.26.18.47.39.61.21.14.47.21.8.21s.57-.06.77-.18c.2-.12.29-.29.3-.48,0-.16-.07-.3-.21-.4-.14-.11-.35-.19-.63-.25l-1.13-.23c-.64-.13-1.11-.35-1.43-.66-.31-.32-.46-.72-.46-1.21,0-.42.11-.78.34-1.09.23-.3.55-.54.97-.7.42-.16.91-.25,1.47-.25.83,0,1.48.18,1.95.52.48.35.76.83.83,1.43ZM364.23,187.05v1.36h-3.94v-1.36h3.94ZM361.18,185.48h1.82v6.1c0,.17.03.3.08.39.05.09.12.15.21.19.09.04.2.06.32.06.08,0,.17,0,.26-.02.09-.02.15-.03.2-.04l.29,1.35c-.09.03-.22.06-.38.1-.16.04-.36.06-.6.07-.44.02-.82-.04-1.15-.17-.33-.13-.58-.34-.76-.62-.18-.28-.27-.64-.27-1.07v-6.34ZM365.41,193.59v-6.54h1.82v6.54h-1.82ZM366.32,186.2c-.27,0-.5-.09-.69-.27-.19-.18-.29-.4-.29-.65s.1-.46.29-.64c.19-.18.42-.27.69-.27s.5.09.69.27c.19.18.29.39.29.64s-.1.47-.29.65c-.19.18-.42.27-.69.27ZM370.5,189.81v3.78h-1.81v-6.54h1.73v1.15h.08c.14-.38.39-.68.73-.9.34-.22.76-.34,1.24-.34.45,0,.85.1,1.19.3.34.2.6.48.79.85.19.37.28.8.28,1.31v4.17h-1.82v-3.84c0-.4-.1-.71-.31-.94-.21-.23-.49-.34-.86-.34-.24,0-.46.05-.65.16-.18.11-.33.26-.43.46-.1.2-.15.44-.16.72ZM378.01,193.71c-.42,0-.79-.07-1.12-.22-.33-.15-.59-.37-.78-.65-.19-.29-.28-.65-.28-1.08,0-.36.07-.67.2-.92.13-.25.31-.45.55-.6.23-.15.49-.26.78-.34.3-.08.61-.13.93-.16.38-.04.69-.08.92-.11.23-.04.4-.09.51-.16.11-.07.16-.18.16-.32v-.02c0-.27-.09-.48-.26-.63-.17-.15-.41-.22-.72-.22-.33,0-.59.07-.78.22-.19.14-.32.32-.38.54l-1.68-.14c.08-.4.25-.74.5-1.03.25-.29.57-.52.97-.67.4-.16.86-.24,1.38-.24.36,0,.71.04,1.04.13.33.09.63.22.89.4.26.18.47.41.62.69.15.28.23.61.23,1v4.41h-1.72v-.91h-.05c-.11.21-.24.39-.42.54-.18.15-.39.27-.64.36-.25.08-.53.13-.86.13ZM378.53,192.46c.27,0,.5-.05.71-.16.21-.11.36-.25.48-.43.12-.18.18-.39.18-.62v-.69c-.06.04-.14.07-.24.1-.1.03-.21.06-.33.08-.12.02-.24.04-.37.06-.12.02-.23.03-.33.05-.21.03-.4.08-.56.15-.16.07-.28.16-.37.28-.09.11-.13.26-.13.43,0,.25.09.44.27.57.18.13.41.19.69.19ZM386.59,187.05v1.36h-3.94v-1.36h3.94ZM383.54,185.48h1.82v6.1c0,.17.02.3.08.39.05.09.12.15.21.19.09.04.2.06.32.06.08,0,.17,0,.26-.02.08-.02.15-.03.2-.04l.29,1.35c-.09.03-.22.06-.38.1-.16.04-.36.06-.6.07-.44.02-.82-.04-1.15-.17-.33-.13-.58-.34-.76-.62-.18-.28-.27-.64-.27-1.07v-6.34ZM387.77,193.59v-6.54h1.82v6.54h-1.82ZM388.68,186.2c-.27,0-.5-.09-.7-.27-.19-.18-.29-.4-.29-.65s.1-.46.29-.64c.19-.18.43-.27.7-.27s.5.09.69.27c.19.18.29.39.29.64s-.1.47-.29.65c-.19.18-.42.27-.69.27ZM394,193.72c-.66,0-1.23-.14-1.72-.42-.48-.28-.85-.68-1.11-1.18-.26-.51-.39-1.1-.39-1.77s.13-1.27.39-1.77c.26-.51.63-.9,1.11-1.18.48-.28,1.06-.43,1.72-.43s1.23.14,1.71.43c.48.28.85.68,1.12,1.18.26.51.39,1.1.39,1.77s-.13,1.26-.39,1.77c-.26.51-.63.9-1.12,1.18-.48.28-1.05.42-1.71.42ZM394.01,192.31c.3,0,.55-.09.75-.26.2-.17.35-.41.46-.71.11-.3.16-.64.16-1.02s-.05-.72-.16-1.02c-.1-.3-.25-.54-.46-.71-.2-.17-.45-.26-.75-.26s-.56.09-.77.26c-.2.17-.36.41-.46.71-.1.3-.15.64-.15,1.02s.05.72.15,1.02c.11.3.26.53.46.71.21.17.46.26.77.26ZM400.22,189.81v3.78h-1.82v-6.54h1.73v1.15h.08c.14-.38.39-.68.73-.9.34-.22.75-.34,1.24-.34.45,0,.85.1,1.19.3.34.2.6.48.79.85.19.37.28.8.28,1.31v4.17h-1.82v-3.84c0-.4-.1-.71-.31-.94-.21-.23-.49-.34-.86-.34-.24,0-.46.05-.65.16-.18.11-.33.26-.43.46-.1.2-.15.44-.16.72ZM353.94,199.86l2.11,6.63h.08l2.11-6.63h2.05l-3.01,8.73h-2.38l-3.01-8.73h2.05ZM363.55,208.72c-.67,0-1.25-.14-1.74-.41-.48-.28-.86-.66-1.12-1.17-.26-.51-.39-1.1-.39-1.79s.13-1.26.39-1.77c.26-.51.63-.9,1.1-1.19.48-.28,1.04-.43,1.68-.43.43,0,.83.07,1.21.21.38.14.7.34.98.62.28.28.5.62.66,1.04.16.42.23.9.23,1.46v.5h-5.53v-1.12h3.82c0-.26-.06-.49-.17-.7-.11-.2-.27-.36-.47-.47-.2-.12-.43-.18-.69-.18s-.52.06-.73.19c-.21.12-.38.29-.49.51-.12.21-.18.44-.18.7v1.07c0,.32.06.6.18.84.12.24.29.42.52.54.22.13.48.19.79.19.2,0,.39-.03.55-.08.17-.06.31-.14.43-.26.12-.11.21-.25.27-.42l1.68.11c-.08.4-.26.76-.52,1.06-.26.3-.6.53-1.01.7-.41.16-.89.25-1.43.25ZM370.7,208.72c-.67,0-1.25-.14-1.73-.43-.48-.29-.85-.68-1.11-1.19-.26-.51-.38-1.09-.38-1.76s.13-1.26.39-1.76c.26-.51.63-.9,1.11-1.19.48-.29,1.05-.43,1.71-.43.57,0,1.07.1,1.5.31.43.21.77.5,1.02.87s.39.82.41,1.32h-1.71c-.05-.33-.18-.59-.38-.79-.2-.2-.47-.3-.81-.3-.28,0-.53.08-.74.23-.21.15-.37.37-.49.66-.12.29-.17.64-.17,1.05s.06.77.17,1.07c.12.29.28.51.49.67.21.15.46.23.74.23.21,0,.39-.04.56-.13.17-.08.31-.21.41-.37.11-.16.18-.36.22-.59h1.71c-.03.5-.17.94-.41,1.32-.24.38-.58.67-1,.89-.43.21-.93.32-1.51.32ZM378.26,202.05v1.36h-3.94v-1.36h3.94ZM375.22,200.48h1.82v6.1c0,.17.03.3.08.39.05.09.12.15.21.19.09.04.2.06.32.06.08,0,.17,0,.26-.02.08-.02.15-.03.2-.04l.29,1.35c-.09.03-.22.06-.38.1-.17.04-.36.06-.6.07-.44.02-.82-.04-1.15-.17-.33-.13-.58-.34-.76-.62-.18-.28-.27-.64-.27-1.07v-6.34ZM382.33,208.72c-.66,0-1.23-.14-1.72-.42-.48-.28-.85-.68-1.11-1.18-.26-.51-.39-1.1-.39-1.77s.13-1.27.39-1.77c.26-.51.63-.9,1.11-1.18.48-.28,1.06-.43,1.72-.43s1.23.14,1.71.43c.48.28.86.68,1.12,1.18.26.51.39,1.1.39,1.77s-.13,1.26-.39,1.77c-.26.51-.63.9-1.12,1.18-.48.28-1.05.42-1.71.42ZM382.34,207.31c.3,0,.55-.09.75-.26.2-.17.35-.41.46-.71.11-.3.16-.64.16-1.02s-.05-.72-.16-1.02c-.1-.3-.25-.54-.46-.71-.2-.17-.45-.26-.75-.26s-.56.09-.77.26c-.21.17-.36.41-.47.71-.1.3-.15.64-.15,1.02s.05.72.15,1.02c.11.3.26.53.47.71.21.17.46.26.77.26ZM386.73,208.59v-6.54h1.76v1.14h.07c.12-.41.32-.71.6-.92.28-.21.61-.32.97-.32.09,0,.19,0,.29.02.11.01.2.03.28.05v1.61c-.08-.03-.2-.05-.35-.07-.15-.02-.29-.03-.41-.03-.27,0-.51.06-.72.17-.21.11-.37.27-.49.48-.12.21-.18.44-.18.71v3.7h-1.82Z"/>
  <path class="st11" d="M248.17,64.67l5.19,7.02-1.48,1.1-5.19-7.02,1.48-1.1ZM253.76,66.68l2.25,3.04-1.46,1.08-3.89-5.26,1.39-1.03.69.93.06-.05c-.11-.39-.09-.78.05-1.16.14-.38.41-.72.8-1.01.37-.27.74-.43,1.13-.47.39-.04.77.03,1.14.22.37.18.7.48,1.01.89l2.48,3.35-1.46,1.08-2.29-3.09c-.24-.32-.5-.51-.8-.57-.3-.06-.6.02-.89.24-.2.15-.34.32-.43.51-.09.19-.11.4-.08.63.04.22.14.44.3.67ZM262.15,59.37l-1.28,1.07c-.11-.1-.23-.16-.38-.2-.14-.04-.3-.04-.46,0-.16.03-.33.11-.5.24-.23.17-.38.36-.47.57-.09.21-.07.39.05.55.09.13.22.19.39.21.16.01.39-.05.67-.17l1.09-.51c.59-.27,1.1-.39,1.52-.34.42.05.78.26,1.06.64.26.34.38.72.37,1.13,0,.41-.13.82-.38,1.22-.24.4-.59.77-1.05,1.11-.7.52-1.36.78-1.99.8-.63.01-1.16-.21-1.61-.66l1.38-1.14c.2.18.43.26.68.25.25-.01.5-.12.76-.31.26-.19.43-.39.51-.6.08-.22.07-.41-.05-.56-.1-.13-.24-.2-.41-.2-.17,0-.39.05-.65.18l-1.05.49c-.59.28-1.1.38-1.54.31-.44-.07-.8-.3-1.09-.69-.25-.34-.37-.7-.37-1.08,0-.38.12-.76.36-1.14.24-.38.58-.74,1.03-1.07.66-.49,1.29-.74,1.88-.74.59,0,1.1.21,1.52.65ZM268.44,60.69c-.54.4-1.09.64-1.64.7-.55.07-1.08-.03-1.59-.27-.51-.25-.97-.65-1.38-1.21-.4-.54-.65-1.09-.74-1.66-.09-.56-.03-1.1.18-1.61.21-.51.58-.96,1.1-1.34.35-.26.71-.44,1.09-.55.38-.11.77-.14,1.16-.09.39.05.77.2,1.15.45.37.24.72.58,1.05,1.03l.3.4-4.44,3.29-.67-.9,3.07-2.27c-.16-.21-.34-.36-.55-.46-.21-.09-.43-.13-.66-.1-.23.02-.45.12-.66.27-.22.16-.38.36-.48.59-.1.23-.13.46-.1.7.03.24.12.46.27.67l.64.86c.19.26.41.45.64.57.24.12.48.16.74.13.25-.03.5-.13.75-.31.16-.12.29-.25.4-.4.1-.15.17-.3.19-.46s.02-.33-.03-.5l1.42-.91c.17.38.24.76.21,1.16-.03.4-.17.78-.4,1.17-.23.38-.57.73-1,1.05ZM271.73,58.09l-3.89-5.26,1.41-1.05.68.92.06-.04c-.15-.4-.17-.76-.07-1.1.1-.34.3-.61.59-.83.07-.05.15-.11.25-.16.09-.05.17-.1.25-.13l.96,1.3c-.08.03-.19.08-.32.16-.13.07-.25.15-.35.22-.21.16-.37.35-.47.57-.1.21-.14.44-.11.68.02.24.12.46.28.68l2.2,2.98-1.46,1.08ZM274.85,47.65l.81,1.1-3.17,2.34-.81-1.1,3.17-2.34ZM271.47,48.2l1.46-1.08,3.63,4.91c.1.13.2.22.29.27.1.04.19.05.29.03.1-.03.19-.08.29-.15.07-.05.13-.11.19-.17.06-.06.1-.11.14-.15l1.03.92c-.06.08-.14.18-.25.31-.11.13-.26.27-.44.42-.34.27-.68.46-1.03.54-.34.09-.67.07-.98-.05-.31-.12-.6-.35-.85-.7l-3.77-5.1ZM279.78,41.29l5.19,7.02-1.48,1.1-4.15-5.61-.04.03-.86,2.2-.97-1.32.92-2.38,1.4-1.03Z"/>
  <path class="st11" d="M465.67,42.36l-5.08,7.1-1.5-1.07,5.08-7.1,1.5,1.07ZM465.47,48.3l-2.2,3.08-1.48-1.06,3.81-5.32,1.41,1.01-.67.94.06.04c.34-.23.71-.33,1.12-.31.41.02.81.17,1.2.45.37.26.63.58.79.93.16.36.21.74.14,1.15-.06.41-.24.82-.53,1.23l-2.43,3.39-1.48-1.06,2.24-3.12c.24-.32.33-.64.3-.94-.04-.31-.2-.56-.5-.78-.2-.14-.4-.23-.62-.25-.21-.02-.42.02-.62.12-.2.1-.38.27-.55.49ZM475.01,54.04l-1.41-.88c.06-.13.08-.27.08-.42,0-.15-.06-.3-.14-.44-.08-.15-.21-.28-.38-.4-.23-.16-.46-.25-.68-.27-.23-.02-.39.05-.51.21-.09.13-.12.27-.08.43.04.16.16.36.37.59l.82.88c.44.48.7.92.79,1.34.08.42,0,.82-.28,1.2-.25.35-.57.58-.97.7-.39.12-.82.12-1.28.02-.46-.11-.92-.33-1.38-.66-.7-.5-1.16-1.05-1.37-1.65-.2-.59-.16-1.17.13-1.73l1.51.96c-.11.25-.12.49-.03.72.09.23.27.44.53.63.26.19.5.28.73.3.23.01.41-.06.52-.22.09-.14.12-.29.07-.45-.05-.17-.17-.36-.37-.57l-.79-.84c-.45-.48-.7-.93-.77-1.37-.07-.44.04-.85.32-1.25.24-.34.55-.57.91-.68.36-.11.76-.12,1.2,0,.44.11.88.33,1.34.65.67.48,1.1,1,1.28,1.56.18.56.13,1.11-.15,1.65ZM475.69,60.44c-.55-.39-.94-.84-1.18-1.35-.23-.51-.31-1.04-.23-1.6.08-.56.32-1.13.73-1.69.39-.55.84-.95,1.35-1.21.51-.26,1.04-.37,1.59-.32.55.05,1.09.26,1.61.63.35.25.64.54.86.87.23.33.37.69.44,1.07.07.39.04.8-.07,1.23-.11.43-.33.87-.66,1.32l-.29.41-4.49-3.22.66-.91,3.1,2.22c.15-.21.24-.43.27-.66.02-.23-.01-.45-.11-.66-.09-.21-.25-.39-.46-.55-.22-.16-.46-.25-.71-.27-.24-.02-.48.02-.7.12-.22.1-.41.26-.56.46l-.62.87c-.19.26-.3.53-.34.79-.04.26,0,.51.1.74.11.23.28.44.53.61.16.12.33.2.5.25s.34.07.5.04c.16-.02.32-.08.46-.18l1.3,1.07c-.3.28-.65.46-1.04.55-.39.09-.8.08-1.23-.02-.43-.11-.86-.32-1.3-.63ZM479.17,62.77l3.81-5.32,1.43,1.02-.67.93.06.04c.33-.26.67-.39,1.02-.4.35,0,.67.1.97.31.07.05.15.11.23.19.08.07.14.14.2.2l-.94,1.31c-.05-.07-.14-.16-.25-.26-.11-.1-.22-.19-.32-.26-.22-.16-.45-.25-.68-.27-.24-.03-.46,0-.68.1-.22.1-.4.25-.56.47l-2.16,3.01-1.48-1.06ZM490.07,62.53l-.79,1.11-3.21-2.3.79-1.11,3.2,2.3ZM488.51,59.48l1.48,1.06-3.55,4.96c-.1.14-.15.26-.17.36-.01.1,0,.2.06.28.06.08.13.16.23.23.07.05.14.09.22.13.08.04.14.06.18.08l-.55,1.26c-.09-.03-.21-.08-.37-.14-.16-.06-.33-.16-.53-.29-.36-.24-.64-.51-.83-.81-.19-.3-.27-.62-.26-.95.02-.33.15-.68.4-1.02l3.69-5.15ZM491.99,72.1c-.49-.35-.86-.75-1.12-1.21-.25-.45-.38-.92-.37-1.39,0-.48.15-.92.43-1.34l1.45,1.04c-.18.29-.22.59-.13.92.09.32.29.59.58.8.23.17.48.27.73.29.26.02.51-.02.74-.13.24-.11.45-.29.62-.54.18-.25.28-.51.31-.77.03-.26,0-.51-.12-.75-.11-.24-.28-.44-.52-.62-.21-.15-.44-.25-.7-.31-.26-.05-.49-.05-.7.02l-1.16-1.19,3.02-3.5,4.34,3.11-.88,1.23-3.1-2.22-1.46,1.65.04.03c.25-.09.54-.1.88-.03.33.06.66.21.97.43.43.31.74.68.93,1.12.19.44.26.91.2,1.4-.06.49-.25.96-.58,1.41-.34.48-.76.83-1.24,1.04-.49.21-1.01.28-1.56.21-.55-.07-1.08-.3-1.61-.68Z"/>
  <path class="st11" d="M317.31,105.68l2.39,8.39-1.77.51-2.39-8.39,1.78-.51ZM321.84,109.52l1.04,3.64-1.75.5-1.79-6.29,1.66-.47.32,1.11.07-.02c.03-.41.19-.76.45-1.07.27-.31.63-.53,1.1-.66.44-.12.85-.14,1.23-.04.38.1.71.3.99.6.28.3.49.7.63,1.19l1.14,4.01-1.75.5-1.05-3.7c-.11-.39-.29-.66-.55-.82-.26-.16-.57-.19-.92-.09-.23.07-.43.18-.58.33-.15.15-.25.34-.29.56-.04.22-.03.46.05.74ZM332.27,105.62l-1.57.55c-.07-.13-.16-.24-.28-.32-.12-.09-.27-.14-.43-.16-.16-.03-.35-.01-.55.05-.27.08-.48.2-.63.37-.15.17-.2.34-.15.53.04.15.14.26.29.33.15.07.38.09.69.07l1.21-.1c.65-.05,1.16.02,1.54.22.38.19.63.52.76.97.12.41.1.81-.06,1.19-.15.38-.41.72-.78,1.01-.37.29-.83.51-1.37.67-.83.24-1.55.25-2.14.05-.59-.21-1.02-.6-1.27-1.18l1.69-.58c.12.24.31.4.54.47.24.07.51.07.82-.02.31-.09.53-.22.69-.39.16-.17.21-.36.16-.54-.05-.16-.15-.27-.31-.33-.16-.07-.39-.09-.67-.06l-1.15.09c-.65.05-1.17-.03-1.55-.25-.38-.22-.64-.56-.78-1.03-.12-.4-.11-.78.03-1.14.14-.36.38-.67.74-.94.36-.27.8-.49,1.34-.64.8-.23,1.47-.24,2.02-.03.55.21.95.59,1.19,1.14ZM337.7,109.07c-.65.18-1.24.21-1.78.08-.54-.13-1-.4-1.39-.82-.39-.41-.68-.95-.87-1.62-.18-.65-.22-1.25-.11-1.81.11-.56.36-1.04.74-1.45.38-.4.88-.69,1.5-.87.42-.12.82-.16,1.22-.13.4.03.77.14,1.11.33.35.19.65.46.92.82.26.36.47.8.62,1.34l.14.48-5.32,1.52-.31-1.08,3.67-1.05c-.07-.25-.19-.46-.35-.62-.16-.16-.36-.27-.58-.33-.22-.06-.46-.05-.72.02-.27.08-.48.2-.65.39-.17.18-.28.39-.34.62-.06.23-.05.48.02.73l.29,1.03c.09.31.22.56.4.76.18.19.4.32.64.38.25.06.52.05.81-.03.19-.06.36-.13.51-.23.15-.1.26-.22.34-.36.08-.14.13-.3.15-.48l1.64-.35c.03.41-.04.8-.21,1.16-.17.36-.43.68-.78.95-.35.27-.79.48-1.3.63ZM341.69,107.8l-1.79-6.29,1.69-.48.31,1.1.07-.02c0-.42.11-.77.33-1.05.21-.28.5-.47.85-.57.09-.02.18-.05.29-.06.1-.02.2-.03.28-.03l.44,1.55c-.09,0-.21,0-.36.03-.15.02-.29.05-.41.08-.26.07-.47.19-.64.36-.17.17-.28.36-.34.59-.06.23-.05.47.02.73l1.02,3.56-1.75.5ZM348.28,99.12l.37,1.31-3.79,1.08-.37-1.31,3.79-1.08ZM344.92,98.44l1.75-.5,1.67,5.87c.05.16.11.28.18.36.07.07.16.12.26.13.1,0,.21,0,.33-.04.08-.02.16-.05.24-.09.08-.04.14-.07.18-.09l.65,1.22c-.08.05-.19.12-.34.2-.15.08-.33.16-.56.23-.42.14-.8.19-1.15.15-.35-.04-.65-.17-.9-.39-.25-.22-.44-.54-.55-.95l-1.74-6.1ZM353.87,104.33l-.37-1.28,2.2-3.62c.18-.32.33-.6.45-.85.12-.25.2-.48.23-.69.04-.22.02-.44-.04-.66-.07-.25-.19-.44-.35-.59-.16-.15-.36-.24-.58-.28-.22-.04-.46-.03-.7.04-.26.07-.47.19-.63.35-.16.16-.27.35-.32.57-.05.22-.03.47.04.74l-1.68.48c-.16-.55-.17-1.06-.03-1.54.13-.48.39-.89.78-1.24.39-.35.87-.61,1.45-.77.6-.17,1.15-.21,1.66-.13.51.08.94.28,1.3.58s.6.7.74,1.18c.09.32.12.65.08.99-.03.34-.16.75-.37,1.22-.21.46-.53,1.04-.96,1.73l-.88,1.55.02.06,3.52-1,.41,1.45-5.98,1.71Z"/>
  <path class="st11" d="M350.42,25.95v8.73h-1.85v-8.73h1.85ZM353.72,30.89v3.78h-1.82v-6.55h1.73v1.15h.08c.14-.38.39-.68.73-.9.34-.22.75-.34,1.24-.34.45,0,.85.1,1.19.3.34.2.6.48.79.85.19.37.28.8.28,1.31v4.17h-1.82v-3.84c0-.4-.1-.71-.31-.94-.21-.23-.49-.34-.86-.34-.24,0-.46.05-.65.16-.18.11-.33.26-.43.46-.1.2-.15.44-.16.72ZM364.81,30l-1.66.1c-.03-.14-.09-.27-.18-.38-.09-.12-.22-.21-.37-.28-.15-.07-.33-.11-.54-.11-.28,0-.52.06-.71.18-.19.12-.29.27-.29.47,0,.16.06.29.19.4.12.11.34.19.64.26l1.18.24c.64.13,1.11.34,1.42.63.31.29.47.67.47,1.14,0,.43-.13.81-.38,1.13-.25.32-.59.58-1.03.76-.43.18-.94.27-1.5.27-.87,0-1.56-.18-2.07-.54-.51-.36-.81-.86-.9-1.48l1.79-.09c.05.26.18.47.39.61.21.14.47.2.8.2s.57-.06.77-.18c.2-.12.3-.29.3-.48,0-.16-.07-.3-.21-.4-.14-.11-.35-.19-.63-.25l-1.13-.23c-.64-.13-1.12-.35-1.43-.66-.31-.32-.46-.72-.46-1.21,0-.42.11-.78.34-1.09.23-.3.55-.54.97-.7.42-.16.91-.25,1.47-.25.83,0,1.48.17,1.95.52.48.35.76.83.84,1.43ZM369.09,34.81c-.67,0-1.25-.14-1.74-.41-.48-.28-.86-.66-1.12-1.17-.26-.51-.39-1.1-.39-1.79s.13-1.26.39-1.77c.26-.51.63-.9,1.1-1.19.48-.28,1.04-.43,1.68-.43.43,0,.83.07,1.21.21.38.14.7.34.98.62.28.28.5.62.66,1.04.16.41.23.9.23,1.46v.5h-5.53v-1.12h3.82c0-.26-.06-.49-.17-.69-.11-.2-.27-.36-.47-.47-.2-.12-.43-.17-.7-.17s-.52.06-.73.19c-.21.12-.38.29-.49.51-.12.21-.18.44-.18.7v1.07c0,.32.06.6.18.84.12.24.29.42.52.55.22.13.48.19.79.19.2,0,.39-.03.55-.09.17-.06.31-.14.43-.26.12-.11.21-.25.27-.42l1.68.11c-.09.4-.26.76-.52,1.06-.26.3-.6.53-1.01.7-.41.16-.89.25-1.43.25ZM373.28,34.68v-6.55h1.76v1.14h.07c.12-.41.32-.71.6-.92.28-.21.61-.32.97-.32.09,0,.19,0,.29.02.1.01.2.03.28.05v1.61c-.08-.03-.2-.05-.35-.07-.15-.02-.29-.03-.41-.03-.27,0-.51.06-.72.17-.21.11-.37.27-.49.48-.12.2-.18.44-.18.71v3.7h-1.82ZM382,28.13v1.36h-3.94v-1.36h3.94ZM378.95,26.57h1.82v6.1c0,.17.03.3.08.39.05.09.12.15.21.19.09.04.2.06.32.06.08,0,.17,0,.26-.02.08-.02.15-.03.2-.04l.29,1.35c-.09.03-.22.06-.38.1-.17.04-.36.06-.6.07-.44.02-.82-.04-1.15-.17-.33-.13-.58-.34-.76-.62-.18-.28-.27-.64-.27-1.07v-6.34ZM389.16,34.8c-.64,0-1.2-.11-1.7-.33-.49-.22-.89-.53-1.17-.91-.28-.39-.43-.84-.44-1.35h1.86c.01.21.08.4.21.56.13.16.3.28.52.37.22.09.46.13.73.13s.53-.05.75-.15c.22-.1.38-.24.51-.41s.18-.38.18-.61-.07-.44-.2-.62c-.13-.18-.31-.32-.55-.43-.24-.1-.52-.15-.85-.15h-.81v-1.36h.81c.28,0,.52-.05.74-.14.22-.1.38-.23.5-.4.12-.17.18-.38.18-.61s-.05-.41-.16-.58c-.1-.17-.25-.3-.43-.39-.18-.09-.4-.14-.65-.14s-.48.05-.69.14c-.21.09-.37.21-.5.38-.12.16-.19.36-.2.58h-1.77c0-.5.15-.95.43-1.33.28-.38.65-.68,1.12-.9.48-.22,1.01-.33,1.61-.33s1.13.11,1.58.33c.45.22.8.51,1.05.89.25.37.38.78.38,1.24,0,.49-.15.9-.46,1.22-.3.33-.7.53-1.19.62v.07c.64.08,1.13.31,1.47.67.34.36.51.81.5,1.36,0,.5-.14.94-.43,1.33-.29.39-.68.69-1.19.91-.51.22-1.08.33-1.74.33Z"/>
  <path class="st11" d="M383.87,95.02l-2.03,8.49-1.79-.43,2.03-8.49,1.79.43ZM385.93,100.6l-.88,3.68-1.77-.42,1.52-6.37,1.68.4-.27,1.12.08.02c.23-.34.54-.57.92-.71.38-.14.81-.15,1.29-.04.44.11.8.29,1.09.57.28.27.47.61.57,1.01.1.4.09.85-.03,1.34l-.97,4.05-1.77-.42.89-3.74c.1-.39.07-.72-.08-.98-.15-.27-.4-.45-.75-.53-.24-.06-.46-.06-.67,0-.2.06-.38.17-.53.35-.15.17-.25.39-.32.66ZM396.93,102.31l-1.64-.29c0-.14-.02-.28-.09-.42-.06-.14-.16-.25-.3-.36-.13-.1-.3-.18-.5-.23-.27-.07-.52-.06-.73,0-.21.07-.35.2-.39.39-.04.15,0,.29.09.43.1.13.29.27.57.4l1.1.51c.59.28,1,.59,1.24.94.24.35.3.76.19,1.22-.1.42-.31.75-.63,1.01-.32.26-.71.42-1.18.5-.46.07-.97.04-1.53-.09-.84-.2-1.47-.54-1.89-1.01-.41-.47-.59-1.02-.53-1.65l1.76.32c0,.27.07.5.24.68.17.18.41.31.73.38.31.07.57.07.79,0,.22-.08.35-.21.4-.4.04-.16,0-.31-.11-.44-.11-.14-.29-.27-.56-.39l-1.05-.48c-.59-.27-1-.6-1.23-.98-.23-.38-.29-.81-.17-1.28.1-.41.29-.73.58-.98.29-.24.66-.39,1.1-.46.44-.06.94-.03,1.48.1.8.19,1.4.51,1.78.96.38.45.54.98.48,1.58ZM399.97,107.98c-.65-.16-1.19-.42-1.6-.8-.4-.38-.68-.85-.81-1.4-.14-.55-.12-1.16.04-1.84.16-.65.42-1.2.79-1.63.37-.43.82-.73,1.35-.9.53-.17,1.11-.17,1.73-.02.42.1.8.26,1.12.48.33.22.6.5.81.83.21.33.34.72.4,1.16.05.44.02.93-.11,1.47l-.12.48-5.38-1.29.26-1.09,3.71.89c.06-.25.06-.49,0-.72-.06-.22-.18-.41-.35-.57-.17-.16-.38-.27-.63-.33-.27-.06-.52-.06-.76.02-.23.07-.43.2-.6.38-.16.18-.28.39-.34.64l-.25,1.04c-.08.32-.08.6-.02.86.06.26.19.47.37.65.19.18.43.3.72.37.2.05.38.06.56.05.18-.02.33-.07.48-.15.14-.08.26-.2.36-.34l1.61.5c-.18.37-.43.67-.75.91-.32.23-.71.38-1.15.44-.44.06-.92.03-1.45-.09ZM404.08,108.83l1.52-6.37,1.71.41-.27,1.11.07.02c.21-.37.48-.62.8-.76.32-.14.66-.17,1.02-.08.09.02.18.05.28.08.1.04.19.07.26.11l-.38,1.57c-.08-.04-.19-.09-.33-.15s-.27-.1-.4-.13c-.26-.06-.51-.06-.74,0-.23.06-.42.18-.59.35-.16.17-.28.39-.34.65l-.86,3.6-1.76-.42ZM414.08,104.49l-.32,1.33-3.83-.92.32-1.33,3.83.92ZM411.48,102.25l1.76.42-1.42,5.93c-.04.16-.04.3-.02.4.03.1.08.18.16.24.08.06.18.1.3.13.08.02.17.03.25.04.09,0,.15,0,.2,0l-.04,1.38c-.1,0-.23,0-.4,0-.17,0-.37-.02-.6-.07-.43-.09-.79-.23-1.08-.44-.29-.21-.49-.47-.6-.78-.11-.32-.12-.68-.01-1.1l1.48-6.17ZM416.62,110.25l.34-1.41,4.88-4.73,1.22.29-.47,1.96-.72-.17-3.08,3-.02.07,5.04,1.2-.34,1.44-6.84-1.64ZM420.34,112.72l.46-1.92.18-.62,1.42-5.94,1.68.4-2.03,8.49-1.72-.41Z"/>
  <path class="st4" d="M190.26,114.12c12.89,15.55,21.09,34.45,23.65,54.49,2.56,20.04-.64,40.39-9.21,58.68-8.57,18.29-22.17,33.77-39.21,44.62-17.04,10.85-36.81,16.64-57.01,16.68-20.2.04-39.99-5.66-57.08-16.45-17.08-10.78-30.74-26.2-39.39-44.46C3.37,209.43.09,189.09,2.56,169.05c2.47-20.05,10.6-38.98,23.43-54.58l12.34,10.14c-10.9,13.26-17.81,29.35-19.91,46.4s.68,34.33,8.03,49.84c7.35,15.52,18.96,28.62,33.48,37.79,14.52,9.17,31.34,14.01,48.51,13.98,17.17-.04,33.98-4.95,48.46-14.18,14.48-9.23,26.04-22.38,33.32-37.93,7.29-15.55,10-32.85,7.83-49.88-2.17-17.03-9.15-33.09-20.1-46.31l12.3-10.19Z"/>
  <path class="st11" d="M78.24,182.59h-3.09v-8.73h3.12c.88,0,1.63.17,2.27.52.63.35,1.12.85,1.46,1.5.34.65.52,1.43.52,2.34s-.17,1.69-.52,2.34c-.34.65-.83,1.15-1.47,1.5-.64.35-1.4.52-2.28.52ZM76.99,181.01h1.17c.55,0,1-.1,1.38-.29.38-.2.66-.5.84-.91.19-.41.29-.94.29-1.59s-.1-1.17-.29-1.58c-.19-.41-.47-.71-.84-.9-.37-.19-.83-.29-1.38-.29h-1.18v5.57ZM86.82,182.72c-.67,0-1.25-.14-1.74-.41-.48-.28-.86-.66-1.12-1.17-.26-.51-.39-1.1-.39-1.79s.13-1.26.39-1.77c.26-.51.63-.9,1.1-1.19.48-.28,1.04-.43,1.68-.43.43,0,.83.07,1.21.21.38.14.7.34.98.62.28.28.5.62.66,1.04.16.42.23.9.23,1.46v.5h-5.53v-1.12h3.82c0-.26-.06-.49-.17-.7-.11-.2-.27-.36-.47-.47-.2-.12-.43-.18-.69-.18s-.52.06-.73.19c-.21.12-.38.29-.49.51-.12.21-.18.44-.18.7v1.07c0,.32.06.6.18.84.12.24.29.42.52.54.22.13.48.19.79.19.2,0,.39-.03.55-.08.17-.06.31-.14.43-.26.12-.11.21-.25.27-.42l1.68.11c-.09.4-.26.76-.52,1.06-.26.3-.6.53-1.01.7-.41.16-.89.25-1.43.25ZM96.46,177.91l-1.66.1c-.03-.14-.09-.27-.18-.38-.09-.12-.22-.21-.37-.28-.15-.07-.33-.11-.54-.11-.28,0-.52.06-.71.18-.19.12-.29.27-.29.47,0,.16.06.29.19.4s.34.2.64.26l1.18.24c.64.13,1.11.34,1.42.63.31.29.47.67.47,1.14,0,.43-.13.8-.38,1.13-.25.32-.59.58-1.03.76-.43.18-.94.27-1.5.27-.87,0-1.56-.18-2.07-.54-.51-.36-.81-.86-.9-1.48l1.79-.09c.05.26.18.47.39.61.21.14.47.21.8.21s.57-.06.77-.18c.2-.12.3-.29.3-.48,0-.16-.07-.3-.21-.4-.14-.11-.35-.19-.63-.25l-1.13-.23c-.64-.13-1.12-.35-1.43-.66-.31-.32-.46-.72-.46-1.21,0-.42.11-.78.34-1.09.23-.3.55-.54.97-.7.42-.16.91-.25,1.47-.25.83,0,1.48.18,1.95.52.48.35.76.83.84,1.43ZM101.23,176.05v1.36h-3.94v-1.36h3.94ZM98.18,174.48h1.82v6.1c0,.17.03.3.08.39.05.09.12.15.21.19.09.04.2.06.32.06.09,0,.17,0,.26-.02.09-.02.15-.03.2-.04l.29,1.35c-.09.03-.22.06-.38.1-.16.04-.37.06-.6.07-.44.02-.82-.04-1.15-.17-.33-.13-.58-.34-.76-.62-.18-.28-.27-.64-.27-1.07v-6.34ZM102.41,182.59v-6.54h1.82v6.54h-1.82ZM103.32,175.2c-.27,0-.5-.09-.69-.27-.19-.18-.29-.4-.29-.65s.1-.46.29-.64c.19-.18.42-.27.69-.27s.5.09.69.27c.19.18.29.39.29.64s-.1.47-.29.65c-.19.18-.42.27-.69.27ZM107.5,178.81v3.78h-1.82v-6.54h1.73v1.15h.08c.14-.38.39-.68.73-.9.34-.22.75-.34,1.24-.34.46,0,.85.1,1.19.3.34.2.6.48.79.85.19.37.28.8.28,1.31v4.17h-1.82v-3.84c0-.4-.1-.71-.31-.94-.21-.23-.49-.34-.86-.34-.24,0-.46.05-.65.16-.18.11-.33.26-.43.46-.1.2-.15.44-.16.72ZM115.01,182.71c-.42,0-.79-.07-1.12-.22-.33-.15-.59-.37-.78-.65-.19-.29-.28-.65-.28-1.08,0-.36.07-.67.2-.92.13-.25.32-.45.55-.6.23-.15.49-.26.78-.34.29-.08.6-.13.93-.16.38-.04.69-.08.92-.11.23-.04.4-.09.51-.16.11-.07.16-.18.16-.32v-.02c0-.27-.08-.48-.26-.63-.17-.15-.41-.22-.72-.22-.33,0-.59.07-.78.22-.19.14-.32.32-.38.54l-1.68-.14c.08-.4.25-.74.5-1.03.25-.29.57-.52.97-.67.4-.16.86-.24,1.38-.24.36,0,.71.04,1.04.13.33.09.63.22.89.4.26.18.47.41.62.69.15.28.23.61.23,1v4.41h-1.72v-.91h-.05c-.11.21-.25.39-.42.54-.18.15-.39.27-.63.36-.25.08-.53.13-.86.13ZM115.53,181.46c.27,0,.5-.05.71-.16.21-.11.37-.25.48-.43.12-.18.18-.39.18-.62v-.69c-.06.04-.14.07-.24.1-.1.03-.21.06-.33.08-.12.02-.24.04-.37.06-.12.02-.23.03-.33.05-.21.03-.4.08-.56.15-.16.07-.28.16-.37.28-.09.11-.13.26-.13.43,0,.25.09.44.27.57.18.13.41.19.69.19ZM123.59,176.05v1.36h-3.94v-1.36h3.94ZM120.54,174.48h1.82v6.1c0,.17.03.3.08.39.05.09.12.15.21.19.09.04.2.06.32.06.08,0,.17,0,.26-.02.09-.02.15-.03.2-.04l.28,1.35c-.09.03-.22.06-.38.1-.17.04-.37.06-.6.07-.44.02-.82-.04-1.15-.17-.33-.13-.58-.34-.76-.62-.18-.28-.27-.64-.27-1.07v-6.34ZM124.77,182.59v-6.54h1.81v6.54h-1.81ZM125.68,175.2c-.27,0-.5-.09-.69-.27-.19-.18-.29-.4-.29-.65s.1-.46.29-.64c.19-.18.43-.27.69-.27s.5.09.69.27c.19.18.29.39.29.64s-.1.47-.29.65c-.19.18-.42.27-.69.27ZM131,182.72c-.66,0-1.24-.14-1.72-.42-.48-.28-.85-.68-1.11-1.18-.26-.51-.39-1.1-.39-1.77s.13-1.27.39-1.77c.26-.51.63-.9,1.11-1.18.48-.28,1.06-.43,1.72-.43s1.23.14,1.71.43c.48.28.85.68,1.12,1.18.26.51.39,1.1.39,1.77s-.13,1.26-.39,1.77c-.26.51-.63.9-1.12,1.18-.48.28-1.05.42-1.71.42ZM131.01,181.31c.3,0,.55-.09.75-.26.2-.17.35-.41.46-.71.1-.3.16-.64.16-1.02s-.05-.72-.16-1.02c-.1-.3-.25-.54-.46-.71-.2-.17-.45-.26-.75-.26s-.56.09-.77.26c-.21.17-.36.41-.46.71-.1.3-.15.64-.15,1.02s.05.72.15,1.02c.11.3.26.53.46.71.21.17.46.26.77.26ZM137.22,178.81v3.78h-1.82v-6.54h1.73v1.15h.08c.14-.38.39-.68.73-.9.34-.22.75-.34,1.24-.34.46,0,.85.1,1.19.3.34.2.6.48.79.85.19.37.28.8.28,1.31v4.17h-1.82v-3.84c0-.4-.1-.71-.31-.94-.21-.23-.49-.34-.86-.34-.24,0-.46.05-.65.16-.18.11-.33.26-.43.46-.1.2-.15.44-.16.72ZM90.94,188.86l2.11,6.63h.08l2.11-6.63h2.05l-3.01,8.73h-2.38l-3.01-8.73h2.05ZM100.55,197.72c-.67,0-1.25-.14-1.74-.41-.48-.28-.86-.66-1.12-1.17-.26-.51-.39-1.1-.39-1.79s.13-1.26.39-1.77c.26-.51.63-.9,1.1-1.19.48-.28,1.04-.43,1.68-.43.43,0,.83.07,1.21.21.38.14.7.34.98.62.28.28.5.62.66,1.04.16.42.24.9.24,1.46v.5h-5.53v-1.12h3.82c0-.26-.06-.49-.17-.7-.11-.2-.27-.36-.47-.47-.2-.12-.43-.18-.69-.18s-.52.06-.73.19c-.21.12-.38.29-.49.51-.12.21-.18.44-.18.7v1.07c0,.32.06.6.18.84.12.24.29.42.52.54.22.13.48.19.79.19.2,0,.39-.03.55-.08.17-.06.31-.14.43-.26.12-.11.21-.25.27-.42l1.68.11c-.08.4-.26.76-.52,1.06-.26.3-.6.53-1.01.7-.41.16-.89.25-1.43.25ZM107.7,197.72c-.67,0-1.25-.14-1.73-.43-.48-.29-.85-.68-1.11-1.19-.26-.51-.38-1.09-.38-1.76s.13-1.26.39-1.76c.26-.51.63-.9,1.11-1.19.48-.29,1.05-.43,1.71-.43.57,0,1.07.1,1.5.31.43.21.77.5,1.02.87s.39.82.41,1.32h-1.71c-.05-.33-.18-.59-.38-.79-.2-.2-.47-.3-.81-.3-.28,0-.53.08-.74.23-.21.15-.37.37-.49.66-.12.29-.18.64-.18,1.05s.06.77.17,1.07c.12.29.28.51.49.67.21.15.46.23.74.23.21,0,.39-.04.56-.13.17-.08.31-.21.41-.37.11-.16.18-.36.22-.59h1.71c-.03.5-.17.94-.41,1.32-.24.38-.57.67-1,.89-.43.21-.93.32-1.51.32ZM115.26,191.05v1.36h-3.94v-1.36h3.94ZM112.22,189.48h1.81v6.1c0,.17.03.3.08.39.05.09.12.15.21.19.09.04.2.06.32.06.08,0,.17,0,.26-.02.08-.02.15-.03.2-.04l.29,1.35c-.09.03-.22.06-.38.1-.17.04-.36.06-.6.07-.44.02-.82-.04-1.15-.17-.33-.13-.58-.34-.76-.62-.18-.28-.27-.64-.27-1.07v-6.34ZM119.33,197.72c-.66,0-1.23-.14-1.72-.42-.48-.28-.85-.68-1.11-1.18-.26-.51-.39-1.1-.39-1.77s.13-1.27.39-1.77c.26-.51.63-.9,1.11-1.18.48-.28,1.06-.43,1.72-.43s1.23.14,1.71.43c.48.28.86.68,1.12,1.18.26.51.39,1.1.39,1.77s-.13,1.26-.39,1.77c-.26.51-.63.9-1.12,1.18-.48.28-1.05.42-1.71.42ZM119.34,196.31c.3,0,.55-.09.75-.26.2-.17.35-.41.46-.71.1-.3.16-.64.16-1.02s-.05-.72-.16-1.02c-.1-.3-.25-.54-.46-.71-.2-.17-.45-.26-.75-.26s-.56.09-.77.26c-.2.17-.36.41-.46.71-.1.3-.15.64-.15,1.02s.05.72.15,1.02c.11.3.26.53.46.71.21.17.46.26.77.26ZM123.73,197.59v-6.54h1.76v1.14h.07c.12-.41.32-.71.6-.92.28-.21.61-.32.97-.32.09,0,.19,0,.29.02.11.01.2.03.28.05v1.61c-.08-.03-.2-.05-.35-.07-.15-.02-.29-.03-.41-.03-.27,0-.51.06-.72.17-.21.11-.37.27-.49.48-.12.21-.18.44-.18.71v3.7h-1.82Z"/>
  <path class="st4" d="M740.22,200.13c-4.3,24.99-17.37,47.63-36.87,63.84-19.5,16.21-44.14,24.94-69.5,24.61-25.35-.33-49.76-9.7-68.82-26.42-19.06-16.72-31.54-39.7-35.17-64.79l15.81-2.29c3.09,21.33,13.69,40.86,29.9,55.07,16.2,14.21,36.95,22.18,58.5,22.46,21.55.28,42.5-7.13,59.07-20.91,16.57-13.78,27.68-33.02,31.34-54.27l15.74,2.71Z"/>
  <path class="st8" d="M528.86,177.51c.77-17.92,6.06-35.36,15.37-50.69l13.65,8.29c-7.91,13.03-12.41,27.85-13.06,43.09l-15.96-.69Z"/>
  <path class="st8" d="M555.9,111.08c11.96-13.37,27.11-23.5,44.03-29.45l5.3,15.07c-14.38,5.06-27.26,13.67-37.42,25.03l-11.91-10.65Z"/>
  <path class="st8" d="M611.73,78.22c17.5-3.96,35.71-3.44,52.95,1.51l-4.41,15.35c-14.65-4.21-30.14-4.65-45.01-1.29l-3.53-15.58Z"/>
  <path class="st8" d="M674.26,82.99c16.69,6.57,31.46,17.25,42.92,31.04l-12.29,10.21c-9.74-11.73-22.29-20.81-36.48-26.39l5.85-14.86Z"/>
  <path class="st8" d="M727.85,129.46c8.87,15.59,13.65,33.18,13.91,51.11l-15.97.23c-.22-15.25-4.28-30.19-11.82-43.45l13.89-7.9Z"/>
  <path class="st5" d="M529.89,197.55c-.97-6.63-1.32-13.33-1.03-20.02l15.96.68c-.24,5.69.05,11.38.88,17.02l-15.81,2.32Z"/>
  <path class="st9" d="M544.07,127.07c3.46-5.73,7.45-11.13,11.92-16.11l11.89,10.67c-3.8,4.24-7.2,8.82-10.14,13.7l-13.68-8.25Z"/>
  <path class="st3" d="M592.85,84.4c6.14-2.67,12.52-4.75,19.06-6.22l3.5,15.59c-5.55,1.25-10.98,3.02-16.2,5.29l-6.36-14.65Z"/>
  <path class="st7" d="M716.67,113.42c4.32,5.12,8.14,10.63,11.43,16.47l-13.92,7.83c-2.79-4.96-6.04-9.65-9.71-14l12.21-10.3Z"/>
  <path class="st1" d="M741.74,180.08c.13,6.7-.38,13.39-1.51,19.99l-15.75-2.7c.96-5.61,1.39-11.3,1.28-16.99l15.97-.3Z"/>
  <path class="st0" d="M663.88,79.51c6.45,1.8,12.72,4.2,18.71,7.18l-7.1,14.31c-5.1-2.53-10.42-4.57-15.91-6.1l4.29-15.39Z"/>
  <path class="st11" d="M597.37,189.59v-8.73h5.78v1.52h-3.93v2.08h3.55v1.52h-3.55v3.6h-1.85ZM604.36,189.59v-6.54h1.82v6.54h-1.82ZM605.27,182.2c-.27,0-.5-.09-.69-.27-.19-.18-.29-.4-.29-.65s.1-.46.29-.64c.19-.18.42-.27.69-.27s.5.09.69.27c.19.18.29.39.29.64s-.1.47-.29.65c-.19.18-.42.27-.69.27ZM609.44,185.81v3.78h-1.82v-6.54h1.73v1.15h.08c.15-.38.39-.68.73-.9.34-.22.75-.34,1.24-.34.45,0,.85.1,1.19.3.34.2.6.48.79.85.19.37.28.8.28,1.31v4.17h-1.82v-3.84c0-.4-.1-.71-.31-.94-.21-.23-.49-.34-.86-.34-.24,0-.46.05-.65.16-.18.11-.33.26-.43.46-.1.2-.16.44-.16.72ZM616.96,189.71c-.42,0-.79-.07-1.12-.22-.33-.15-.59-.37-.78-.65-.19-.29-.28-.65-.28-1.08,0-.36.07-.67.2-.92.13-.25.32-.45.55-.6.23-.15.49-.26.78-.34.3-.08.61-.13.93-.16.38-.04.69-.08.92-.11.23-.04.4-.09.51-.16.11-.07.16-.18.16-.32v-.02c0-.27-.09-.48-.26-.63-.17-.15-.41-.22-.71-.22-.33,0-.59.07-.78.22-.19.14-.32.32-.38.54l-1.68-.14c.09-.4.25-.74.5-1.03.25-.29.57-.52.97-.67.4-.16.86-.24,1.38-.24.36,0,.71.04,1.04.13.33.09.63.22.89.4.26.18.47.41.62.69.15.28.23.61.23,1v4.41h-1.72v-.91h-.05c-.1.21-.25.39-.42.54-.18.15-.39.27-.64.36-.25.08-.53.13-.86.13ZM617.48,188.46c.27,0,.5-.05.71-.16.2-.11.36-.25.48-.43.12-.18.17-.39.17-.62v-.69c-.06.04-.14.07-.23.1-.1.03-.21.06-.33.08-.12.02-.24.04-.37.06-.12.02-.23.03-.33.05-.21.03-.4.08-.56.15-.16.07-.28.16-.37.28-.09.11-.13.26-.13.43,0,.25.09.44.27.57.18.13.41.19.69.19ZM623.87,180.86v8.73h-1.82v-8.73h1.82ZM628.13,189.59v-8.73h3.44c.66,0,1.23.13,1.69.38.47.25.82.6,1.07,1.04.25.44.37.96.37,1.53s-.12,1.09-.38,1.53c-.25.44-.61.79-1.09,1.04-.47.25-1.04.37-1.71.37h-2.19v-1.48h1.9c.36,0,.65-.06.88-.18.23-.12.41-.3.52-.52.12-.22.17-.48.17-.76s-.06-.54-.17-.76c-.11-.22-.29-.39-.52-.51-.23-.12-.53-.18-.89-.18h-1.24v7.22h-1.84ZM635.87,189.59v-6.54h1.76v1.14h.07c.12-.41.32-.71.6-.92.28-.21.6-.32.97-.32.09,0,.19,0,.29.02.1.01.2.03.28.05v1.61c-.08-.03-.2-.05-.35-.07-.15-.02-.29-.03-.41-.03-.27,0-.51.06-.72.17-.21.11-.37.27-.49.48-.12.21-.18.44-.18.71v3.7h-1.82ZM643.43,189.72c-.66,0-1.23-.14-1.72-.42-.48-.28-.85-.68-1.11-1.18-.26-.51-.39-1.1-.39-1.77s.13-1.27.39-1.77c.26-.51.63-.9,1.11-1.18.48-.28,1.05-.43,1.72-.43s1.23.14,1.71.43c.48.28.85.68,1.12,1.18.26.51.39,1.1.39,1.77s-.13,1.26-.39,1.77c-.26.51-.63.9-1.12,1.18-.48.28-1.05.42-1.71.42ZM643.44,188.31c.3,0,.55-.09.75-.26.2-.17.35-.41.46-.71.11-.3.16-.64.16-1.02s-.05-.72-.16-1.02c-.1-.3-.25-.54-.46-.71-.2-.17-.45-.26-.75-.26s-.56.09-.77.26c-.21.17-.36.41-.46.71-.1.3-.15.64-.15,1.02s.05.72.15,1.02c.1.3.26.53.46.71.21.17.46.26.77.26ZM650.25,189.7c-.5,0-.95-.13-1.35-.38-.4-.26-.72-.64-.95-1.14-.23-.5-.35-1.12-.35-1.85s.12-1.37.36-1.87c.24-.5.56-.87.96-1.12.4-.25.85-.38,1.33-.38.37,0,.67.06.92.19.25.12.45.27.6.46.15.18.27.36.35.54h.05v-3.28h1.81v8.73h-1.79v-1.05h-.08c-.08.18-.21.36-.36.54-.15.18-.35.32-.6.44-.24.12-.54.17-.9.17ZM650.82,188.25c.29,0,.54-.08.74-.24.2-.16.36-.39.47-.68.11-.29.17-.63.17-1.02s-.05-.73-.16-1.01c-.11-.29-.26-.51-.47-.66-.21-.16-.45-.23-.75-.23s-.55.08-.75.24c-.21.16-.36.39-.46.67-.11.29-.16.62-.16,1s.05.72.16,1.01c.11.29.26.52.46.68.21.16.46.24.75.24ZM659.66,186.8v-3.76h1.82v6.54h-1.74v-1.19h-.07c-.15.38-.39.69-.74.92-.34.23-.76.35-1.25.35-.44,0-.82-.1-1.15-.3-.33-.2-.59-.48-.78-.85-.18-.37-.28-.8-.28-1.32v-4.17h1.82v3.84c0,.39.11.69.31.92.2.22.48.34.82.34.22,0,.42-.05.61-.15.19-.1.34-.25.46-.45.12-.2.18-.44.17-.74ZM665.89,189.72c-.67,0-1.25-.14-1.73-.43-.48-.29-.85-.68-1.11-1.19-.26-.51-.38-1.09-.38-1.76s.13-1.26.39-1.76c.26-.51.63-.9,1.11-1.19.48-.29,1.05-.43,1.71-.43.57,0,1.07.1,1.5.31.43.21.77.5,1.02.87s.39.82.41,1.32h-1.71c-.05-.33-.18-.59-.38-.79-.21-.2-.47-.3-.8-.3-.28,0-.53.08-.74.23-.21.15-.37.37-.48.66-.12.29-.17.64-.17,1.05s.06.77.17,1.07c.12.29.28.51.49.67.21.15.46.23.74.23.21,0,.39-.04.56-.13.17-.08.3-.21.41-.37.11-.16.18-.36.22-.59h1.71c-.03.5-.16.94-.41,1.32-.24.38-.58.67-1,.89-.43.21-.93.32-1.51.32ZM673.45,183.05v1.36h-3.94v-1.36h3.94ZM670.41,181.48h1.82v6.1c0,.17.03.3.08.39.05.09.12.15.21.19.09.04.2.06.32.06.09,0,.17,0,.26-.02.09-.02.15-.03.2-.04l.29,1.35c-.09.03-.22.06-.38.1-.17.04-.37.06-.6.07-.44.02-.82-.04-1.15-.17-.33-.13-.58-.34-.76-.62-.18-.28-.27-.64-.27-1.07v-6.34Z"/>
  <path class="st11" d="M526.25,139.86v8.73h-1.85v-8.73h1.85ZM531.51,139.86v8.73h-1.84v-6.98h-.05l-2,1.25v-1.64l2.16-1.37h1.73Z"/>
  <path class="st11" d="M563.41,85.86v8.73h-1.85v-8.73h1.85ZM564.87,94.59v-1.33l3.11-2.88c.26-.26.49-.49.66-.69.18-.2.32-.4.41-.6.09-.2.14-.41.14-.64,0-.26-.06-.47-.17-.66-.12-.19-.28-.33-.48-.43-.2-.1-.43-.15-.69-.15s-.5.05-.7.16c-.2.11-.35.26-.46.46-.11.2-.16.44-.16.72h-1.75c0-.57.13-1.07.39-1.49.26-.42.62-.75,1.09-.97.47-.23,1-.35,1.61-.35s1.17.11,1.63.33c.47.22.83.52,1.09.91.26.39.39.83.39,1.34,0,.33-.07.65-.2.98-.13.32-.36.68-.69,1.07-.33.39-.79.86-1.39,1.4l-1.27,1.25v.06h3.66v1.51h-6.22Z"/>
  <path class="st11" d="M632.23,63.86v8.73h-1.84v-8.73h1.84ZM636.92,72.71c-.64,0-1.2-.11-1.7-.33-.49-.22-.89-.53-1.17-.91-.28-.39-.43-.84-.44-1.35h1.86c.01.21.08.4.21.56.13.16.3.28.52.37.22.09.46.13.73.13s.53-.05.75-.15c.22-.1.39-.24.51-.41.12-.18.18-.38.18-.61s-.07-.44-.2-.62c-.13-.18-.31-.32-.55-.43-.24-.1-.52-.15-.85-.15h-.81v-1.35h.81c.28,0,.52-.05.74-.15.22-.1.38-.23.5-.4.12-.17.18-.38.18-.61s-.05-.41-.16-.57c-.1-.17-.25-.3-.43-.39-.18-.09-.4-.14-.65-.14s-.48.05-.69.14c-.21.09-.37.22-.5.38-.12.16-.19.36-.2.58h-1.77c0-.5.15-.95.43-1.33.28-.38.65-.68,1.12-.9.47-.22,1.01-.33,1.61-.33s1.13.11,1.58.33c.45.22.8.51,1.05.89.25.37.38.78.38,1.24,0,.49-.15.9-.46,1.22-.3.33-.7.53-1.19.62v.07c.64.08,1.13.31,1.47.67.34.36.51.81.5,1.36,0,.5-.14.94-.43,1.32-.29.39-.68.69-1.19.91-.51.22-1.09.33-1.74.33Z"/>
  <path class="st11" d="M701.12,85.86v8.73h-1.85v-8.73h1.85ZM702.45,93.06v-1.45l3.64-5.74h1.25v2.01h-.74l-2.3,3.64v.07h5.18v1.48h-7.04ZM706.64,94.59v-1.98l.03-.64v-6.11h1.73v8.73h-1.76Z"/>
  <path class="st11" d="M742.32,139.86v8.73h-1.84v-8.73h1.84ZM746.97,148.71c-.6,0-1.14-.11-1.61-.33-.47-.22-.84-.53-1.12-.92-.28-.39-.42-.84-.43-1.34h1.79c.02.34.16.61.43.82.26.21.58.32.94.32.29,0,.55-.06.77-.19.22-.13.4-.31.52-.54.13-.23.19-.5.19-.8s-.07-.58-.2-.81c-.13-.23-.3-.41-.53-.55-.23-.13-.49-.2-.78-.2-.26,0-.5.05-.75.16-.24.1-.42.25-.56.43l-1.64-.29.41-4.6h5.33v1.51h-3.81l-.23,2.19h.05c.15-.22.38-.39.69-.54.31-.14.66-.21,1.04-.21.53,0,1,.12,1.41.37.41.25.74.59.98,1.02.24.43.36.92.35,1.48,0,.59-.13,1.11-.41,1.57-.27.45-.65.81-1.15,1.07-.49.26-1.06.39-1.71.39Z"/>
  <path class="st8" d="M261.27,86.78c9.02-9.54,19.21-17.9,30.32-24.89l9.17,14.57c-9.89,6.22-18.95,13.67-26.98,22.16l-12.51-11.83Z"/>
  <path class="st9" d="M291.58,61.89c3.47-2.18,7.02-4.23,10.65-6.13l8,15.24c-3.23,1.7-6.39,3.52-9.48,5.46l-9.17-14.57Z"/>
  <path class="st5" d="M253.31,95.87c2.58-3.19,5.28-6.27,8.1-9.24l12.49,11.85c-2.51,2.65-4.91,5.39-7.21,8.22l-13.38-10.83Z"/>
  <path class="st8" d="M466.35,97.63c-8.03-8.49-17.1-15.93-26.98-22.16l9.17-14.57c11.11,6.99,21.3,15.36,30.32,24.89l-12.51,11.83Z"/>
  <path class="st7" d="M439.37,75.48c-3.09-1.94-6.25-3.76-9.48-5.46l8-15.24c3.63,1.9,7.18,3.95,10.65,6.13l-9.17,14.57Z"/>
  <path class="st1" d="M473.43,105.72c-2.29-2.84-4.7-5.58-7.21-8.22l12.49-11.85c2.82,2.97,5.52,6.06,8.1,9.24l-13.38,10.83Z"/>
  <path class="st8" d="M350.4,42.39c13.04-1.55,26.22-1.46,39.23.28l-2.28,17.06c-11.58-1.55-23.31-1.63-34.91-.25l-2.03-17.09Z"/>
  <path class="st0" d="M389.62,42.67c4.06.54,8.1,1.24,12.11,2.1l-3.61,16.83c-3.57-.77-7.16-1.39-10.78-1.87l2.28-17.06Z"/>
  <path class="st3" d="M338.46,44.28c4.02-.8,8.07-1.44,12.14-1.91l2.01,17.1c-3.62.43-7.23.99-10.8,1.7l-3.35-16.89Z"/>
  <path class="st8" d="M312.49,83.2c10.65-4.69,21.84-8.03,33.32-9.93l2.49,15.05c-10.22,1.69-20.18,4.66-29.65,8.84l-6.15-13.96Z"/>
  <path class="st3" d="M345.81,73.28c3.58-.59,7.19-1.04,10.81-1.35l1.3,15.2c-3.22.28-6.43.68-9.62,1.21l-2.49-15.05Z"/>
  <path class="st9" d="M302.87,87.9c3.2-1.72,6.47-3.31,9.79-4.77l6.14,13.97c-2.96,1.3-5.87,2.72-8.71,4.24l-7.21-13.44Z"/>
  <path class="st8" d="M421.91,97.16c-9.47-4.18-19.44-7.15-29.65-8.84l2.49-15.05c11.48,1.9,22.67,5.23,33.32,9.93l-6.15,13.96Z"/>
  <path class="st0" d="M392.26,88.33c-3.19-.53-6.4-.93-9.62-1.21l1.3-15.2c3.62.31,7.22.76,10.81,1.35l-2.49,15.05Z"/>
  <path class="st7" d="M430.48,101.34c-2.85-1.53-5.75-2.94-8.71-4.24l6.14-13.97c3.32,1.46,6.59,3.05,9.79,4.77l-7.21,13.44Z"/>
  <line class="st2" x1="253.31" y1="95.87" x2="288.99" y2="125.46"/>
  <line class="st2" x1="486.81" y1="94.89" x2="453.27" y2="124.84"/>
  <text class="st10" transform="translate(40.75 318.01)"><tspan x="0" y="0">Linearized Destination </tspan><tspan x="41.76" y="14.4">Vector</tspan></text>
  <text class="st10" transform="translate(329.14 318.01)"><tspan x="0" y="0">Overlap Directed</tspan><tspan x="17.68" y="14.4">Assembly</tspan></text>
  <text class="st10" transform="translate(592.68 325.21)"><tspan x="0" y="0">Assembled Plasmid</tspan></text>
</svg>