<?xml version="1.0" encoding="UTF-8"?>
<svg id="Layer_1" xmlns="http://www.w3.org/2000/svg" version="1.1" viewBox="0 0 839 367">
  <!-- Generator: Adobe Illustrator 29.5.1, SVG Export Plug-In . SVG Version: 2.1.0 Build 141)  -->
  <defs>
    <style>
      .st0, .st1, .st2 {
        isolation: isolate;
      }

      .st0, .st2 {
        font-family: Arial-Mdm, Arial;
        font-size: 12px;
        font-weight: 500;
      }

      .st3 {
        fill: #e8a13b;
      }

      .st4 {
        fill: #dd514c;
      }

      .st5 {
        fill: #ffeb06;
      }

      .st6 {
        stroke: #71a2f3;
        stroke-dasharray: 2 2;
      }

      .st6, .st2 {
        fill: none;
      }

      .st7 {
        fill: #54b684;
      }

      .st8 {
        fill: #a8d8e8;
      }

      .st9 {
        fill: #4e80ed;
      }

      .st2 {
        stroke: #221f20;
        stroke-miterlimit: 10;
        stroke-width: .25px;
      }

      .st10 {
        fill: #835eed;
      }

      .st11 {
        fill: #3974ad;
      }

      .st12 {
        fill: #da5497;
      }

      .st13 {
        fill: #0b0755;
      }
    </style>
  </defs>
  <path class="st13" d="M275.5,212l-10-5.77v11.55l10-5.77h0ZM234,212v1h32.5v-2h-32.5v1Z"/>
  <path class="st13" d="M571.5,212l-10-5.77v11.55l10-5.77h0ZM530,212v1h32.5v-2h-32.5v1Z"/>
  <path class="st8" d="M504.34,153.62c8.29,16.23,12.28,34.31,11.58,52.52s-6.05,35.93-15.55,51.48-22.84,28.4-38.73,37.32-33.8,13.62-52.02,13.64c-18.22.02-36.15-4.64-52.05-13.52-15.91-8.89-29.27-21.71-38.81-37.23-9.54-15.53-14.93-33.24-15.67-51.45-.74-18.21,3.21-36.3,11.47-52.54l14.24,7.24c-7.02,13.81-10.37,29.19-9.75,44.66.62,15.48,5.21,30.53,13.32,43.73,8.11,13.2,19.47,24.09,32.99,31.65s28.76,11.51,44.24,11.49c15.49-.02,30.71-4.01,44.22-11.59s24.84-18.5,32.92-31.72c8.08-13.22,12.63-28.28,13.22-43.76s-2.8-30.85-9.85-44.64l14.23-7.27h0Z"/>
  <path class="st9" d="M314.16,154.24c1.55-2.96,3.25-5.85,5.07-8.66l13.39,8.72c-1.55,2.38-2.99,4.84-4.31,7.36l-14.15-7.42h0Z"/>
  <path class="st5" d="M499.22,144.87c1.84,2.8,3.55,5.68,5.12,8.63l-14.11,7.49c-1.33-2.51-2.79-4.96-4.35-7.34l13.34-8.78h0Z"/>
  <path class="st13" d="M379.47,204.58h-3.09v-8.73h3.12c.88,0,1.63.17,2.27.52.63.35,1.12.85,1.46,1.49.34.65.52,1.43.52,2.34s-.17,1.69-.52,2.34c-.34.65-.83,1.15-1.47,1.51-.64.35-1.4.52-2.28.52h0ZM378.23,202.99h1.17c.54,0,1-.1,1.38-.29.38-.2.66-.5.84-.91.19-.41.29-.94.29-1.59s-.1-1.17-.29-1.58-.47-.71-.84-.9c-.37-.19-.83-.29-1.38-.29h-1.18v5.57h0ZM388.06,204.7c-.67,0-1.25-.14-1.74-.41-.48-.28-.86-.66-1.12-1.17s-.39-1.1-.39-1.79.13-1.26.39-1.77c.26-.51.63-.9,1.1-1.19.48-.28,1.04-.43,1.68-.43.43,0,.83.07,1.2.21.38.14.7.34.98.62.28.27.5.62.66,1.04.16.41.23.9.23,1.46v.5h-5.53v-1.12h3.82c0-.26-.06-.49-.17-.69-.11-.2-.27-.36-.47-.47-.2-.12-.43-.18-.7-.18s-.52.06-.73.19c-.21.12-.38.29-.49.51-.12.21-.18.45-.18.7v1.07c0,.32.06.6.18.84.12.24.29.42.51.55s.49.19.79.19c.2,0,.39-.03.55-.09.17-.06.31-.14.43-.26.12-.11.21-.25.27-.42l1.68.11c-.08.4-.26.75-.52,1.06-.26.3-.6.53-1.01.7s-.89.25-1.43.25h0ZM397.69,199.9l-1.66.1c-.03-.14-.09-.27-.18-.38-.09-.12-.22-.21-.37-.28-.15-.07-.33-.11-.54-.11-.28,0-.52.06-.71.18s-.29.27-.29.47c0,.16.06.29.19.4s.34.19.64.26l1.18.24c.64.13,1.11.34,1.42.63.31.29.47.67.47,1.14,0,.43-.13.81-.38,1.13s-.59.58-1.03.76-.94.27-1.51.27c-.87,0-1.56-.18-2.07-.54s-.81-.86-.9-1.48l1.79-.09c.05.26.18.47.39.6.21.14.47.2.8.2s.57-.06.77-.18c.2-.12.29-.29.3-.48,0-.17-.07-.3-.21-.4-.14-.11-.35-.19-.63-.25l-1.13-.23c-.64-.13-1.11-.35-1.43-.66-.31-.32-.46-.72-.46-1.21,0-.42.11-.78.34-1.09.23-.3.55-.54.97-.7.42-.17.91-.25,1.47-.25.83,0,1.48.17,1.95.52.48.35.76.83.83,1.43h-.01ZM402.47,198.03v1.36h-3.94v-1.36h3.94ZM399.42,196.46h1.82v6.1c0,.17.03.3.08.39s.12.15.21.19c.09.04.2.06.32.06.08,0,.17,0,.26-.02s.15-.03.2-.04l.29,1.35c-.09.03-.22.06-.38.1-.16.04-.36.06-.6.07-.44.02-.82-.04-1.15-.17s-.58-.34-.76-.62c-.18-.28-.27-.64-.27-1.07v-6.34h-.02ZM403.65,204.58v-6.55h1.82v6.55h-1.82ZM404.56,197.19c-.27,0-.5-.09-.69-.27-.19-.18-.29-.4-.29-.65s.1-.46.29-.64.42-.27.69-.27.5.09.69.27c.19.18.29.39.29.64s-.1.47-.29.65-.42.27-.69.27ZM408.73,200.79v3.78h-1.81v-6.55h1.73v1.15h.08c.14-.38.39-.68.73-.9s.76-.34,1.24-.34c.45,0,.85.1,1.19.3s.6.48.79.85c.19.37.28.8.28,1.31v4.17h-1.82v-3.84c0-.4-.1-.71-.31-.94s-.49-.34-.86-.34c-.24,0-.46.05-.65.16-.18.11-.33.26-.43.46-.1.2-.15.44-.16.72h0ZM416.25,204.7c-.42,0-.79-.07-1.12-.22s-.59-.36-.78-.65-.28-.65-.28-1.08c0-.36.07-.67.2-.92s.31-.45.55-.6c.23-.15.49-.26.78-.34.3-.08.61-.13.93-.16.38-.04.69-.08.92-.11.23-.04.4-.09.51-.16.11-.07.16-.18.16-.32v-.03c0-.27-.09-.48-.26-.63-.17-.15-.41-.22-.72-.22-.33,0-.59.07-.78.22-.19.14-.32.32-.38.54l-1.68-.14c.08-.4.25-.74.5-1.03s.57-.52.97-.67c.4-.16.86-.24,1.38-.24.36,0,.71.04,1.04.13.33.09.63.22.89.4s.47.41.62.69.23.61.23,1v4.42h-1.72v-.91h-.05c-.11.21-.24.38-.42.54-.18.15-.39.27-.64.36s-.53.13-.86.13h0ZM416.77,203.45c.27,0,.5-.05.71-.16s.36-.25.48-.43c.12-.18.18-.39.18-.62v-.69c-.06.04-.14.07-.24.1-.1.03-.21.06-.33.08s-.24.04-.37.06c-.12.02-.23.03-.33.05-.21.03-.4.08-.56.15s-.28.16-.37.28c-.09.11-.13.26-.13.43,0,.25.09.44.27.57s.41.19.69.19h0ZM424.83,198.03v1.36h-3.94v-1.36h3.94ZM421.78,196.46h1.82v6.1c0,.17.02.3.08.39.05.09.12.15.21.19.09.04.2.06.32.06.08,0,.17,0,.26-.02.08-.02.15-.03.2-.04l.29,1.35c-.09.03-.22.06-.38.1-.16.04-.36.06-.6.07-.44.02-.82-.04-1.15-.17s-.58-.34-.76-.62c-.18-.28-.27-.64-.27-1.07v-6.34h-.02ZM426.01,204.58v-6.55h1.82v6.55h-1.82ZM426.92,197.19c-.27,0-.5-.09-.7-.27-.19-.18-.29-.4-.29-.65s.1-.46.29-.64.43-.27.7-.27.5.09.69.27c.19.18.29.39.29.64s-.1.47-.29.65-.42.27-.69.27ZM432.24,204.7c-.66,0-1.23-.14-1.72-.42-.48-.28-.85-.68-1.11-1.18-.26-.51-.39-1.1-.39-1.77s.13-1.27.39-1.77c.26-.51.63-.9,1.11-1.18.48-.28,1.06-.43,1.72-.43s1.23.14,1.71.43c.48.28.85.68,1.12,1.18.26.51.39,1.1.39,1.77s-.13,1.26-.39,1.77c-.26.51-.63.9-1.12,1.18-.48.28-1.05.42-1.71.42ZM432.24,203.3c.3,0,.55-.08.75-.25s.35-.41.46-.71.16-.64.16-1.02-.05-.72-.16-1.02c-.1-.3-.25-.53-.46-.71-.2-.17-.45-.26-.75-.26s-.56.09-.77.26c-.2.17-.36.41-.46.71s-.15.64-.15,1.02.05.72.15,1.02c.11.3.26.53.46.71.21.17.46.25.77.25ZM438.45,200.79v3.78h-1.82v-6.55h1.73v1.15h.08c.14-.38.39-.68.73-.9s.75-.34,1.24-.34c.45,0,.85.1,1.19.3s.6.48.79.85c.19.37.28.8.28,1.31v4.17h-1.82v-3.84c0-.4-.1-.71-.31-.94s-.49-.34-.86-.34c-.24,0-.46.05-.65.16-.18.11-.33.26-.43.46-.1.2-.15.44-.16.72h0ZM392.18,210.85l2.11,6.63h.08l2.11-6.63h2.05l-3.01,8.73h-2.38l-3.01-8.73h2.05ZM401.79,219.7c-.67,0-1.25-.14-1.74-.41-.48-.28-.86-.66-1.12-1.17s-.39-1.1-.39-1.79.13-1.26.39-1.77c.26-.51.63-.9,1.1-1.19.48-.28,1.04-.43,1.68-.43.43,0,.83.07,1.21.21s.7.34.98.62c.28.27.5.62.66,1.04.16.41.23.9.23,1.46v.5h-5.53v-1.12h3.82c0-.26-.06-.49-.17-.69-.11-.2-.27-.36-.47-.47-.2-.12-.43-.18-.69-.18s-.52.06-.73.19c-.21.12-.38.29-.49.51-.12.21-.18.45-.18.7v1.07c0,.32.06.6.18.84.12.24.29.42.52.55.22.13.48.19.79.19.2,0,.39-.03.55-.09.17-.06.31-.14.43-.26.12-.11.21-.25.27-.42l1.68.11c-.08.4-.26.75-.52,1.06-.26.3-.6.53-1.01.7s-.89.25-1.43.25h-.02ZM408.93,219.7c-.67,0-1.25-.14-1.73-.43s-.85-.68-1.11-1.19c-.26-.51-.38-1.09-.38-1.76s.13-1.26.39-1.76c.26-.51.63-.9,1.11-1.19.48-.29,1.05-.43,1.71-.43.57,0,1.07.1,1.5.31.43.21.77.5,1.02.87s.39.82.41,1.32h-1.71c-.05-.33-.18-.59-.38-.79s-.47-.3-.81-.3c-.28,0-.53.08-.74.23s-.37.37-.49.66c-.12.29-.17.64-.17,1.05s.06.77.17,1.07c.12.29.28.52.49.67s.46.23.74.23c.21,0,.39-.04.56-.13.17-.09.31-.21.41-.37.11-.16.18-.36.22-.59h1.71c-.03.5-.17.94-.41,1.32s-.58.67-1,.89c-.43.21-.93.32-1.51.32h0ZM416.5,213.03v1.36h-3.94v-1.36h3.94ZM413.45,211.46h1.82v6.1c0,.17.03.3.08.39s.12.15.21.19c.09.04.2.06.32.06.08,0,.17,0,.26-.02.08-.02.15-.03.2-.04l.29,1.35c-.09.03-.22.06-.38.1-.17.04-.36.06-.6.07-.44.02-.82-.04-1.15-.17s-.58-.34-.76-.62c-.18-.28-.27-.64-.27-1.07v-6.34h-.02ZM420.57,219.7c-.66,0-1.23-.14-1.72-.42-.48-.28-.85-.68-1.11-1.18-.26-.51-.39-1.1-.39-1.77s.13-1.27.39-1.77c.26-.51.63-.9,1.11-1.18.48-.28,1.06-.43,1.72-.43s1.23.14,1.71.43c.48.28.86.68,1.12,1.18.26.51.39,1.1.39,1.77s-.13,1.26-.39,1.77c-.26.51-.63.9-1.12,1.18-.48.28-1.05.42-1.71.42ZM420.58,218.3c.3,0,.55-.08.75-.25s.35-.41.46-.71.16-.64.16-1.02-.05-.72-.16-1.02c-.1-.3-.25-.53-.46-.71-.2-.17-.45-.26-.75-.26s-.56.09-.77.26-.36.41-.47.71c-.1.3-.15.64-.15,1.02s.05.72.15,1.02c.11.3.26.53.47.71.21.17.46.25.77.25ZM424.97,219.58v-6.55h1.76v1.14h.07c.12-.41.32-.71.6-.92.28-.21.61-.32.97-.32.09,0,.19,0,.29.02.11,0,.2.03.28.05v1.61c-.08-.02-.2-.05-.35-.07s-.29-.03-.41-.03c-.27,0-.51.06-.72.18-.21.11-.37.27-.49.48-.12.21-.18.44-.18.71v3.7h-1.82Z"/>
  <path class="st11" d="M299.81,133.03c6.84-10.8,15.39-20.31,25.32-28.17l8.85,11.28c-8.84,7-16.45,15.45-22.54,25.07l-11.63-8.18Z"/>
  <path class="st9" d="M294.5,141.67c2.01-3.57,4.18-7.04,6.51-10.41l11.78,8.17c-2.08,3-4.01,6.09-5.8,9.27l-12.5-7.02h0Z"/>
  <path class="st13" d="M322.99,141.15l6.07,6.27-1.33,1.28-6.07-6.27,1.33-1.28ZM328.79,142.41l2.63,2.72-1.3,1.26-4.55-4.7,1.24-1.2.8.83.06-.05c-.16-.37-.2-.76-.1-1.16.09-.4.31-.77.66-1.1.33-.32.68-.52,1.06-.61s.77-.07,1.16.06.76.38,1.11.75l2.9,3-1.3,1.26-2.67-2.76c-.28-.29-.57-.44-.87-.46-.31-.02-.59.1-.85.35-.18.17-.29.36-.36.56-.06.2-.06.41,0,.63.07.21.19.42.39.63h-.01ZM336.15,134.05l-1.12,1.23c-.12-.08-.25-.13-.4-.15-.15-.02-.3,0-.46.06-.16.05-.31.15-.46.3-.2.2-.33.4-.39.62-.06.22-.02.4.12.54.11.11.24.16.41.15.16,0,.38-.1.64-.26l1.02-.65c.55-.35,1.04-.53,1.46-.54.43,0,.8.16,1.13.49.3.31.47.67.51,1.08.05.41-.03.83-.21,1.26-.19.43-.49.84-.89,1.24-.62.6-1.24.95-1.87,1.05-.62.09-1.18-.05-1.68-.44l1.22-1.31c.22.15.46.21.7.16.24-.05.48-.18.71-.41.23-.22.37-.44.42-.67.05-.23.01-.41-.12-.55-.12-.12-.26-.17-.43-.15-.17.02-.38.1-.62.26l-.97.63c-.55.35-1.04.52-1.49.51-.44,0-.83-.19-1.17-.54-.29-.3-.46-.64-.51-1.02-.05-.38.02-.77.21-1.18.19-.41.48-.81.88-1.2.59-.57,1.18-.9,1.77-.98s1.12.07,1.59.45v.02ZM342.56,134.54c-.48.47-1,.77-1.53.92-.54.14-1.08.12-1.61-.06-.54-.18-1.05-.52-1.53-1.02-.47-.48-.79-1-.95-1.55-.17-.55-.18-1.09-.03-1.62.14-.54.45-1.03.91-1.47.31-.3.65-.53,1.01-.69.36-.16.74-.24,1.13-.24s.79.1,1.19.29c.4.19.79.48,1.18.88l.35.36-3.97,3.84-.78-.81,2.74-2.65c-.18-.19-.38-.31-.61-.38-.22-.07-.45-.07-.67,0-.22.05-.43.17-.62.36-.2.19-.33.41-.39.65-.06.24-.06.47,0,.71.06.23.18.44.36.63l.74.77c.23.23.46.39.71.48.25.08.5.1.75.03.25-.06.48-.2.7-.41.14-.14.26-.29.34-.45s.12-.32.13-.48c0-.16-.02-.33-.09-.49l1.28-1.09c.22.35.34.72.36,1.12s-.06.8-.24,1.21-.47.8-.85,1.17h0ZM345.48,131.53l-4.55-4.7,1.26-1.22.79.82.05-.05c-.2-.37-.27-.73-.21-1.08s.22-.65.48-.9c.06-.06.14-.13.22-.19.08-.06.16-.12.23-.16l1.12,1.16c-.08.04-.18.11-.3.2s-.23.18-.32.27c-.19.19-.32.39-.39.62s-.08.45-.02.69c.06.23.18.44.36.63l2.57,2.66-1.3,1.26h0ZM347.2,120.76l.95.98-2.83,2.74-.95-.98,2.83-2.74ZM343.92,121.75l1.3-1.26,4.24,4.39c.12.12.23.2.33.23.1.03.2.03.29-.01s.18-.1.27-.19c.06-.06.12-.12.17-.19.05-.07.09-.13.11-.16l1.14.77c-.05.08-.12.2-.21.34s-.22.3-.38.47c-.3.32-.62.54-.95.67-.33.13-.66.16-.98.08-.33-.08-.64-.27-.93-.58l-4.41-4.56h.01ZM351.24,113.81l6.07,6.27-1.33,1.28-4.85-5.01-.04.04-.57,2.29-1.14-1.18.6-2.49,1.25-1.21h.01Z"/>
  <path class="st13" d="M301.53,62.74l4.21,7.65-1.62.89-4.21-7.65s1.62-.89,1.62-.89ZM306.8,65.48l1.82,3.32-1.59.87-3.16-5.74,1.52-.83.56,1.01.07-.04c-.06-.4.01-.78.2-1.14s.5-.66.93-.89c.4-.22.79-.32,1.18-.31.39,0,.76.13,1.1.37.34.23.63.57.88,1.01l2.01,3.65-1.59.87-1.85-3.37c-.19-.35-.43-.58-.72-.67-.29-.1-.6-.06-.91.11-.21.12-.38.27-.49.45-.11.18-.16.39-.16.61s.08.46.21.71h-.01ZM316.1,59.35l-1.41.89c-.09-.11-.21-.19-.35-.25s-.29-.08-.46-.06c-.17,0-.34.07-.52.17-.25.14-.43.3-.54.5-.11.2-.12.38-.03.55.08.14.19.22.36.26.16.03.39,0,.69-.08l1.15-.36c.62-.19,1.14-.24,1.55-.13.41.1.73.36.96.77.21.38.28.77.21,1.17-.06.4-.24.79-.54,1.16-.29.37-.69.69-1.19.96-.76.42-1.45.59-2.08.52-.62-.07-1.12-.36-1.5-.87l1.52-.94c.17.21.39.32.63.34.25.02.51-.05.8-.2.28-.15.47-.33.58-.53.11-.2.12-.39.03-.57-.08-.14-.21-.23-.38-.25-.17-.03-.39,0-.67.09l-1.1.35c-.62.2-1.15.23-1.57.11-.42-.13-.75-.4-.99-.83-.2-.37-.28-.74-.22-1.12.05-.38.22-.74.51-1.08.29-.35.68-.65,1.17-.92.73-.4,1.38-.56,1.96-.48.59.08,1.06.36,1.42.85v-.02ZM322.16,61.5c-.59.32-1.16.48-1.72.48s-1.07-.17-1.54-.49c-.47-.32-.88-.78-1.21-1.38-.33-.59-.49-1.17-.51-1.74-.02-.57.12-1.1.39-1.57.28-.48.7-.87,1.27-1.18.38-.21.76-.34,1.16-.4.39-.06.78-.04,1.16.07s.74.3,1.08.59.64.68.91,1.16l.24.44-4.84,2.66-.54-.99,3.35-1.84c-.13-.23-.29-.4-.48-.53-.2-.12-.41-.18-.64-.19-.23,0-.46.05-.69.18-.24.13-.43.31-.55.52s-.19.44-.19.68.06.48.18.7l.51.94c.16.28.34.5.56.65s.46.22.71.23.52-.07.78-.21c.18-.1.33-.21.45-.34.12-.13.2-.27.25-.43s.06-.32.04-.5l1.52-.71c.12.39.14.79.05,1.18-.08.39-.27.75-.55,1.1-.28.34-.66.64-1.13.9l-.02.02ZM325.77,59.37l-3.15-5.74,1.54-.85.55,1,.06-.03c-.09-.41-.06-.78.08-1.1.14-.32.38-.57.7-.74.08-.04.17-.09.27-.13.1-.04.19-.07.26-.09l.78,1.41c-.09.02-.2.06-.34.11-.14.06-.27.11-.38.17-.23.13-.41.29-.54.5-.13.2-.19.42-.2.66,0,.24.06.47.18.71l1.78,3.24-1.59.87h0ZM330.25,49.43l.66,1.19-3.45,1.9-.66-1.19,3.45-1.9ZM326.83,49.53l1.59-.87,2.94,5.35c.08.15.17.25.26.31s.18.08.28.07c.1,0,.2-.05.31-.11.08-.04.15-.09.21-.14.07-.06.12-.1.15-.13l.9,1.05c-.07.07-.16.16-.29.27-.12.11-.29.23-.49.35-.37.23-.74.36-1.09.4s-.67-.02-.97-.18-.54-.43-.75-.8l-3.06-5.56h.01ZM336.86,53.27l-.64-1.17,1.33-4.02c.11-.35.19-.66.25-.93s.09-.51.07-.73c-.01-.22-.08-.43-.19-.63-.12-.22-.28-.39-.47-.49-.19-.11-.4-.16-.63-.15-.23,0-.45.07-.67.2-.23.13-.41.29-.53.48s-.18.4-.18.63.07.47.2.71l-1.53.84c-.27-.5-.4-1-.38-1.49s.18-.95.48-1.38c.3-.43.71-.79,1.25-1.08.55-.3,1.08-.47,1.59-.5s.98.06,1.39.28c.41.22.74.54.98.99.16.29.26.61.3.95.04.34.01.77-.09,1.27s-.28,1.13-.54,1.9l-.52,1.71.03.05,3.21-1.77.73,1.32-5.45,3h.01Z"/>
  <path class="st13" d="M370.68,101.93l1.18,8.65-1.83.25-1.18-8.65,1.83-.25ZM374.62,106.38l.51,3.75-1.8.25-.88-6.49,1.71-.23.16,1.14h.08c.09-.41.29-.74.6-1,.31-.27.7-.44,1.18-.5.45-.06.86-.02,1.22.13.36.15.66.4.9.74s.39.76.46,1.26l.56,4.13-1.8.25-.52-3.81c-.05-.4-.19-.69-.43-.89s-.53-.27-.89-.22c-.24.03-.45.11-.62.24-.17.13-.29.3-.37.51-.07.21-.09.46-.06.73h-.01ZM385.49,104l-1.63.33c-.05-.14-.13-.26-.23-.36-.11-.1-.24-.18-.4-.22-.16-.05-.34-.06-.55-.03-.28.04-.51.13-.68.27-.18.14-.25.31-.22.5.02.15.1.28.24.37.14.09.36.15.67.17l1.21.08c.65.04,1.15.19,1.5.43s.55.6.62,1.07c.06.43-.02.82-.22,1.17s-.51.65-.92.89-.89.39-1.45.47c-.86.12-1.57.03-2.13-.26s-.92-.74-1.09-1.35l1.76-.33c.09.25.25.44.47.55s.5.14.82.1.56-.14.74-.29.25-.32.23-.52c-.02-.16-.11-.29-.26-.37-.15-.09-.37-.14-.66-.16l-1.15-.07c-.65-.04-1.15-.2-1.5-.47-.35-.27-.56-.65-.62-1.13-.06-.42,0-.79.19-1.12s.47-.61.86-.83c.39-.22.86-.37,1.42-.44.82-.11,1.49-.03,2,.26.52.28.86.72,1.02,1.3h-.04ZM390.38,108.18c-.67.09-1.26.03-1.78-.17-.52-.21-.94-.54-1.26-1.01-.33-.47-.54-1.04-.63-1.72-.09-.67-.04-1.27.15-1.81s.5-.98.93-1.33.97-.56,1.61-.65c.43-.06.84-.04,1.22.04.39.08.74.24,1.05.48.32.24.58.55.79.94.21.39.35.86.43,1.41l.07.49-5.48.75-.15-1.11,3.78-.52c-.03-.26-.12-.48-.26-.67-.14-.18-.32-.32-.53-.4-.21-.09-.45-.11-.71-.08-.27.04-.51.13-.7.29-.19.15-.33.34-.42.57-.09.22-.12.46-.09.72l.14,1.06c.04.32.14.59.29.81s.35.37.58.47c.24.1.51.12.81.08.2-.03.38-.08.54-.16s.29-.18.39-.31.17-.28.21-.45l1.68-.12c-.03.41-.16.78-.38,1.12-.22.33-.52.61-.91.83s-.85.36-1.38.44h.01ZM394.51,107.49l-.88-6.49,1.74-.24.15,1.13h.07c.06-.43.22-.76.47-1,.25-.25.56-.39.92-.44.09-.01.19-.02.29-.02h.28l.22,1.6c-.09-.01-.21-.02-.36-.02s-.29,0-.41.03c-.26.04-.49.13-.69.27-.19.14-.33.32-.43.54-.09.22-.12.46-.08.73l.5,3.67-1.8.25h0ZM402.27,99.83l.18,1.35-3.91.53-.18-1.35,3.91-.53ZM399.04,98.68l1.8-.25.82,6.05c.02.17.07.29.13.38.06.08.14.14.24.16.1.02.21.03.33.01.08-.01.17-.03.25-.06s.15-.05.19-.06l.47,1.3c-.09.04-.21.09-.37.15-.16.06-.35.11-.59.15-.43.08-.82.07-1.16-.02s-.62-.26-.84-.51-.35-.59-.41-1.02l-.86-6.28h0ZM410.27,105.46c-.63.09-1.21.05-1.73-.1-.52-.15-.95-.4-1.28-.75s-.54-.77-.62-1.27l1.84-.25c.04.21.14.39.28.53.15.14.34.24.57.3.23.06.47.07.74.03.28-.04.52-.12.72-.25s.35-.29.45-.48.13-.4.1-.63c-.03-.23-.12-.43-.28-.59-.15-.16-.35-.28-.61-.35-.25-.07-.54-.08-.87-.04l-.81.11-.18-1.34.81-.11c.28-.04.51-.12.71-.24.2-.12.35-.28.44-.46.09-.19.13-.4.1-.62s-.11-.4-.23-.55c-.12-.15-.29-.26-.48-.33-.2-.07-.42-.09-.66-.05-.25.03-.47.11-.66.23s-.34.26-.44.44-.14.38-.12.6l-1.75.24c-.06-.5.02-.96.25-1.38.22-.42.56-.77.99-1.04.44-.28.96-.46,1.55-.54.6-.08,1.13-.04,1.61.11.48.16.86.4,1.16.74.3.33.48.73.54,1.18.07.48-.03.91-.29,1.27-.26.36-.62.62-1.09.78v.07c.66,0,1.17.15,1.55.46.38.31.61.74.68,1.27.07.49-.01.95-.25,1.37-.23.42-.58.78-1.05,1.06-.47.29-1.03.48-1.68.56v.02Z"/>
  <path class="st13" d="M420.02,33.88l-1.78,8.54-1.81-.38,1.78-8.54,1.81.38ZM422.24,39.39l-.77,3.7-1.78-.37,1.34-6.41,1.69.35-.24,1.13.07.02c.22-.34.52-.59.9-.74s.81-.18,1.28-.08c.45.09.81.27,1.1.53s.49.6.6,1c.11.4.11.84,0,1.34l-.85,4.08-1.78-.37.78-3.76c.08-.39.05-.72-.11-.98-.16-.26-.41-.43-.77-.51-.24-.05-.46-.04-.67.02-.2.07-.38.19-.52.36-.14.17-.24.4-.3.67l.03.02ZM433.29,40.78l-1.65-.24c0-.14-.03-.28-.1-.41s-.17-.25-.31-.35c-.13-.1-.3-.17-.51-.21-.28-.06-.52-.05-.73.03-.21.07-.34.21-.38.4-.03.15,0,.3.1.43s.29.26.58.39l1.11.48c.6.26,1.02.56,1.26.91.25.35.32.75.23,1.21-.09.42-.29.76-.6,1.03s-.7.44-1.16.53-.97.07-1.53-.04c-.85-.18-1.49-.49-1.92-.95-.43-.46-.62-1.01-.58-1.64l1.77.27c0,.27.09.49.26.67.18.18.42.3.74.36.31.07.57.06.79-.02s.35-.22.39-.41c.03-.16-.01-.31-.12-.44-.11-.13-.3-.26-.57-.37l-1.06-.45c-.6-.26-1.02-.57-1.26-.94-.24-.37-.31-.8-.21-1.28.08-.41.27-.74.55-.99.29-.25.65-.41,1.09-.49s.94-.06,1.49.06c.81.17,1.41.47,1.8.91.4.44.57.96.53,1.57v-.02ZM436.49,46.36c-.66-.14-1.2-.39-1.62-.76-.42-.37-.7-.83-.85-1.37-.15-.55-.16-1.16-.02-1.84.14-.66.39-1.21.75-1.66.36-.44.8-.76,1.32-.94.52-.18,1.1-.21,1.73-.07.42.09.8.24,1.14.45.34.21.62.48.83.8.22.33.36.71.43,1.15.07.44.05.93-.07,1.47l-.1.49-5.41-1.13.23-1.1,3.74.78c.05-.26.05-.49-.02-.71-.07-.22-.19-.41-.37-.56-.17-.15-.39-.26-.64-.31-.27-.06-.52-.04-.76.04-.23.08-.43.21-.59.4-.16.18-.27.4-.32.65l-.22,1.05c-.07.32-.07.6,0,.86.07.26.2.47.39.64s.43.29.73.35c.2.04.38.05.56.03s.33-.08.47-.16c.14-.09.26-.2.35-.35l1.62.45c-.17.38-.41.69-.73.93s-.7.4-1.14.48c-.44.08-.92.06-1.45-.05h.02ZM440.62,47.09l1.34-6.41,1.72.36-.23,1.12h.07c.2-.36.46-.62.78-.76.32-.15.66-.19,1.02-.11.09.02.18.04.28.08.1.03.19.07.26.1l-.33,1.58c-.08-.04-.19-.09-.33-.14-.14-.05-.28-.09-.4-.11-.26-.05-.51-.05-.74.02-.23.07-.42.19-.58.37-.16.18-.27.39-.32.66l-.76,3.63-1.78-.37v-.02ZM450.49,42.46l-.28,1.33-3.86-.8.28-1.33,3.86.8ZM447.83,40.3l1.78.37-1.25,5.97c-.03.16-.04.3,0,.4.03.1.09.18.17.23.09.06.19.1.31.12.08.02.17.03.26.03h.2v1.38c-.09,0-.22.02-.39.02s-.37,0-.6-.05c-.43-.07-.8-.21-1.09-.41s-.5-.45-.62-.76c-.12-.31-.14-.68-.05-1.1l1.3-6.21h-.02ZM453.2,48.15l.3-1.42,4.74-4.88,1.23.26-.41,1.97-.73-.15-2.99,3.09v.07l5.05,1.06-.3,1.45-6.89-1.44h0ZM456.98,50.5l.4-1.94.16-.62,1.25-5.98,1.69.35-1.78,8.54-1.73-.36h.01Z"/>
  <path class="st12" d="M324.95,104.76c3.2-2.56,6.52-4.96,9.94-7.2l7.86,11.99c-3.05,2-6,4.14-8.85,6.41l-8.95-11.2h0Z"/>
  <path class="st13" d="M442.26,102.75l-5.12,7.07-1.5-1.08,5.12-7.07,1.49,1.08h.01ZM442.03,108.69l-2.22,3.07-1.47-1.06,3.84-5.3,1.4,1.01-.68.94.06.05c.34-.22.71-.32,1.12-.3s.81.17,1.2.45c.37.27.63.58.79.94s.2.74.14,1.15-.24.82-.54,1.23l-2.44,3.38-1.47-1.06,2.25-3.11c.24-.32.34-.64.3-.94-.03-.31-.2-.57-.49-.78-.2-.14-.4-.23-.62-.25-.21-.02-.42.02-.62.12-.2.1-.38.26-.55.49v-.03ZM451.55,114.47l-1.41-.89c.06-.13.09-.27.08-.42,0-.15-.05-.3-.14-.44-.08-.15-.21-.28-.38-.4-.23-.16-.45-.26-.68-.27-.23-.02-.39.05-.51.21-.09.13-.12.27-.08.43s.16.36.37.59l.82.89c.44.48.7.93.78,1.35s-.01.82-.29,1.2c-.25.35-.57.58-.97.69-.39.12-.82.12-1.28,0-.46-.11-.92-.33-1.38-.66-.7-.51-1.16-1.06-1.36-1.65-.2-.59-.15-1.17.14-1.73l1.5.97c-.11.25-.12.49-.04.72.09.23.26.44.53.63.26.19.5.29.73.3s.41-.06.52-.22c.09-.14.12-.29.07-.45-.05-.17-.17-.36-.37-.57l-.79-.85c-.44-.48-.7-.94-.77-1.38-.07-.44.04-.85.33-1.25.25-.34.55-.57.91-.68.36-.11.76-.11,1.2,0s.88.33,1.33.66c.67.48,1.09,1.01,1.27,1.57s.13,1.11-.16,1.65h.03ZM452.19,120.87c-.54-.39-.93-.85-1.17-1.35-.23-.51-.3-1.04-.22-1.6s.33-1.12.73-1.68c.4-.55.85-.95,1.36-1.21.51-.26,1.04-.36,1.59-.32.55.05,1.09.26,1.61.64.35.25.63.55.85.88.22.33.37.69.43,1.08.07.39.04.8-.08,1.23s-.34.87-.67,1.32l-.29.4-4.48-3.24.66-.91,3.09,2.24c.15-.21.24-.43.27-.66s0-.45-.11-.66c-.09-.21-.25-.39-.46-.55-.22-.16-.46-.25-.71-.27-.24-.02-.48.02-.7.12-.22.1-.41.25-.56.46l-.63.87c-.19.26-.31.52-.35.78s0,.51.1.74c.1.23.28.44.53.62.16.12.33.2.5.26.17.05.33.07.5.05.16-.02.32-.08.47-.18l1.3,1.07c-.31.28-.65.46-1.04.55-.39.09-.8.08-1.23-.03-.43-.11-.86-.32-1.3-.64h.01ZM455.66,123.22l3.84-5.3,1.43,1.03-.67.93.06.04c.33-.26.68-.39,1.03-.39s.68.1.97.31c.07.05.15.12.23.19.08.07.14.14.2.2l-.95,1.3c-.05-.07-.14-.16-.25-.26s-.22-.19-.32-.27c-.22-.16-.44-.25-.68-.28-.23-.03-.46,0-.68.1s-.4.25-.56.47l-2.17,3-1.47-1.06h0ZM466.56,123.03l-.8,1.1-3.19-2.31.8-1.1,3.19,2.31ZM465.01,119.97l1.47,1.06-3.58,4.94c-.1.14-.15.26-.17.36-.01.1,0,.2.06.28.05.08.13.16.23.23.07.05.14.09.22.13s.14.06.18.08l-.56,1.26c-.09-.03-.21-.08-.37-.15-.16-.06-.33-.16-.53-.29-.36-.24-.64-.51-.83-.82-.19-.3-.27-.62-.25-.95.02-.33.15-.67.41-1.02l3.72-5.14v.03ZM468.43,132.61c-.49-.35-.86-.76-1.11-1.21-.25-.45-.37-.92-.37-1.4s.15-.92.44-1.34l1.45,1.05c-.18.29-.23.59-.14.92s.28.59.58.81c.23.17.48.27.73.29.26.03.51-.02.74-.13.24-.11.45-.29.63-.54s.28-.51.32-.77c.03-.26,0-.52-.11-.75-.11-.24-.28-.45-.51-.62-.21-.15-.44-.25-.7-.31-.25-.05-.49-.05-.7.02l-1.16-1.2,3.03-3.49,4.32,3.13-.88,1.22-3.09-2.24-1.47,1.64.04.03c.25-.08.54-.09.88-.03.33.07.66.21.97.44.43.31.73.68.92,1.12s.25.91.19,1.4c-.06.49-.25.96-.58,1.41-.34.48-.76.82-1.25,1.03-.49.21-1.01.27-1.56.2-.55-.08-1.08-.31-1.61-.69h0Z"/>
  <path class="st13" d="M521.08,84.11l-7.32,4.76-1.01-1.55,7.32-4.76,1.01,1.55ZM518.73,89.57l-3.17,2.06-.99-1.52,5.49-3.57.94,1.45-.97.63.04.06c.4-.09.78-.05,1.16.12.37.16.69.45.96.86.25.38.38.77.4,1.16.02.39-.08.77-.28,1.13-.21.36-.52.67-.95.95l-3.49,2.27-.99-1.52,3.22-2.1c.34-.22.54-.47.62-.77.08-.3.02-.6-.18-.9-.13-.2-.29-.36-.48-.46s-.4-.14-.62-.11c-.22.02-.45.11-.69.26h-.02ZM525.53,98.38l-.99-1.34c.1-.1.18-.22.22-.36.05-.14.06-.3.03-.46-.02-.16-.09-.34-.21-.51-.15-.24-.33-.4-.54-.5-.2-.1-.39-.09-.55.01-.13.09-.21.21-.23.37-.02.16.02.39.13.68l.45,1.12c.24.6.32,1.12.25,1.54-.07.42-.31.76-.7,1.02-.36.23-.74.33-1.15.3s-.81-.18-1.2-.45-.74-.64-1.05-1.11c-.47-.73-.7-1.4-.68-2.03.03-.63.28-1.15.75-1.56l1.05,1.45c-.19.19-.29.41-.29.66s.09.51.26.78.36.45.57.54c.21.1.4.09.57-.01.14-.09.21-.22.23-.4.02-.17-.03-.39-.14-.66l-.43-1.07c-.24-.61-.32-1.13-.22-1.56s.35-.78.76-1.05c.35-.23.72-.33,1.1-.31.38.03.75.17,1.12.43s.7.62,1.01,1.09c.45.69.66,1.33.62,1.92-.03.59-.28,1.08-.74,1.48h0ZM523.83,104.59c-.37-.56-.57-1.12-.6-1.68s.09-1.08.37-1.57.71-.93,1.29-1.31c.56-.37,1.13-.58,1.7-.64s1.1.03,1.6.28.92.64,1.27,1.18c.24.36.4.74.48,1.12.09.39.1.77.02,1.16-.08.39-.25.76-.51,1.12s-.63.69-1.09.99l-.42.27-3.01-4.63.94-.61,2.08,3.2c.22-.14.38-.32.49-.52.11-.21.15-.42.14-.65s-.09-.46-.23-.68c-.15-.23-.34-.4-.56-.51s-.45-.15-.69-.14-.47.09-.69.23l-.9.58c-.27.18-.47.38-.61.61-.13.23-.19.47-.18.73s.1.51.27.77c.11.17.23.31.37.42s.29.18.45.22c.16.04.33.04.5,0l.82,1.47c-.38.15-.77.19-1.17.14-.39-.06-.77-.21-1.14-.47-.36-.26-.69-.61-.99-1.06v-.02ZM526.22,108.03l5.49-3.57.96,1.48-.96.62.04.06c.41-.12.77-.12,1.1,0,.33.12.59.34.79.64.05.08.1.16.15.26.05.09.09.18.11.26l-1.35.88c-.03-.09-.07-.2-.14-.33-.06-.14-.13-.26-.2-.36-.15-.22-.32-.39-.54-.5-.21-.11-.43-.16-.67-.15s-.47.09-.69.24l-3.11,2.02-.99-1.52v-.03ZM536.46,111.77l-1.14.74-2.15-3.3,1.14-.74,2.15,3.3ZM536.12,108.36l.99,1.52-5.12,3.33c-.14.09-.24.18-.29.28-.05.09-.06.19-.04.28.02.1.06.2.13.3.05.07.1.14.16.2s.11.11.14.14l-.98.98c-.07-.06-.17-.15-.29-.27-.12-.12-.25-.27-.39-.46-.25-.36-.41-.71-.48-1.06s-.03-.67.11-.98c.14-.31.39-.57.75-.81l5.32-3.46h-.01ZM534.85,121.52c-.24-.38-.42-.78-.52-1.21-.1-.43-.1-.87,0-1.33s.33-.92.68-1.38c.36-.46.87-.91,1.54-1.34.62-.4,1.21-.68,1.78-.86.58-.18,1.12-.24,1.63-.2s.97.19,1.38.44c.42.25.77.6,1.07,1.05.32.49.5.98.55,1.48s0,.96-.18,1.4-.45.81-.82,1.12l-.99-1.53c.22-.22.34-.48.36-.76s-.06-.57-.24-.85c-.31-.48-.75-.7-1.33-.68-.57.02-1.22.27-1.93.72l.03.05c.29-.03.57,0,.84.08.28.09.53.22.77.41s.45.41.62.68c.28.43.43.89.44,1.36.02.47-.09.92-.32,1.34-.23.43-.57.79-1.03,1.09-.5.32-1.01.49-1.55.51-.53.02-1.05-.1-1.53-.37-.48-.27-.9-.68-1.25-1.22h0ZM536.06,120.72c.15.24.35.41.59.53.24.11.49.16.75.14.26-.02.52-.11.76-.27.24-.16.43-.35.55-.59.12-.23.18-.48.18-.73s-.09-.51-.24-.75c-.12-.18-.26-.32-.42-.43s-.34-.18-.54-.22c-.19-.03-.39-.03-.59,0-.2.04-.38.11-.56.23-.24.15-.42.35-.54.58-.12.24-.18.49-.18.75s.09.52.24.75h0Z"/>
  <path class="st8" d="M200.49,136.53c12.89,15.55,21.09,34.45,23.65,54.49,2.56,20.04-.64,40.39-9.21,58.68s-22.17,33.77-39.21,44.62c-17.04,10.85-36.81,16.64-57.01,16.68-20.2.04-39.99-5.66-57.08-16.45-17.08-10.78-30.74-26.2-39.39-44.46-8.63-18.25-11.91-38.59-9.44-58.63,2.47-20.05,10.6-38.98,23.43-54.58l12.34,10.14c-10.9,13.26-17.81,29.35-19.91,46.4s.68,34.33,8.03,49.84c7.35,15.52,18.96,28.62,33.48,37.79,14.52,9.17,31.34,14.01,48.51,13.98,17.17-.04,33.98-4.95,48.46-14.18,14.48-9.23,26.04-22.38,33.32-37.93,7.29-15.55,10-32.85,7.83-49.88s-9.15-33.09-20.1-46.31l12.3-10.19h0Z"/>
  <path class="st13" d="M88.47,205h-3.09v-8.73h3.12c.88,0,1.63.17,2.27.52.63.35,1.12.85,1.46,1.5s.52,1.43.52,2.34-.17,1.69-.52,2.34c-.34.65-.83,1.15-1.47,1.5s-1.4.52-2.28.52h-.01ZM87.22,203.42h1.17c.55,0,1-.1,1.38-.29.38-.2.66-.5.84-.91.19-.41.29-.94.29-1.59s-.1-1.17-.29-1.58-.47-.71-.84-.9c-.37-.19-.83-.29-1.38-.29h-1.18v5.57h.01ZM97.06,205.13c-.67,0-1.25-.14-1.74-.41-.48-.28-.86-.66-1.12-1.17s-.39-1.1-.39-1.79.13-1.26.39-1.77c.26-.51.63-.9,1.1-1.19.48-.28,1.04-.43,1.68-.43.43,0,.83.07,1.21.21s.7.34.98.62c.28.28.5.62.66,1.04s.23.9.23,1.46v.5h-5.53v-1.12h3.82c0-.26-.06-.49-.17-.7-.11-.2-.27-.36-.47-.47-.2-.12-.43-.18-.69-.18s-.52.06-.73.19c-.21.12-.38.29-.49.51-.12.21-.18.44-.18.7v1.07c0,.32.06.6.18.84.12.24.29.42.52.54.22.13.48.19.79.19.2,0,.39-.03.55-.08.17-.06.31-.14.43-.26.12-.11.21-.25.27-.42l1.68.11c-.09.4-.26.76-.52,1.06-.26.3-.6.53-1.01.7-.41.16-.89.25-1.43.25h-.02ZM106.69,200.32l-1.66.1c-.03-.14-.09-.27-.18-.38-.09-.12-.22-.21-.37-.28-.15-.07-.33-.11-.54-.11-.28,0-.52.06-.71.18s-.29.27-.29.47c0,.16.06.29.19.4s.34.2.64.26l1.18.24c.64.13,1.11.34,1.42.63.31.29.47.67.47,1.14,0,.43-.13.8-.38,1.13-.25.32-.59.58-1.03.76-.43.18-.94.27-1.5.27-.87,0-1.56-.18-2.07-.54s-.81-.86-.9-1.48l1.79-.09c.05.26.18.47.39.61s.47.21.8.21.57-.06.77-.18.3-.29.3-.48c0-.16-.07-.3-.21-.4-.14-.11-.35-.19-.63-.25l-1.13-.23c-.64-.13-1.12-.35-1.43-.66-.31-.32-.46-.72-.46-1.21,0-.42.11-.78.34-1.09.23-.3.55-.54.97-.7s.91-.25,1.47-.25c.83,0,1.48.18,1.95.52.48.35.76.83.84,1.43l-.03-.02ZM111.47,198.46v1.36h-3.94v-1.36h3.94ZM108.42,196.89h1.82v6.1c0,.17.03.3.08.39s.12.15.21.19c.09.04.2.06.32.06.09,0,.17,0,.26-.02.09-.02.15-.03.2-.04l.29,1.35c-.09.03-.22.06-.38.1-.16.04-.37.06-.6.07-.44.02-.82-.04-1.15-.17s-.58-.34-.76-.62-.27-.64-.27-1.07v-6.34h-.02ZM112.65,205v-6.54h1.82v6.54h-1.82ZM113.56,197.61c-.27,0-.5-.09-.69-.27-.19-.18-.29-.4-.29-.65s.1-.46.29-.64.42-.27.69-.27.5.09.69.27c.19.18.29.39.29.64s-.1.47-.29.65-.42.27-.69.27ZM117.74,201.22v3.78h-1.82v-6.54h1.73v1.15h.08c.14-.38.39-.68.73-.9.34-.22.75-.34,1.24-.34.46,0,.85.1,1.19.3.34.2.6.48.79.85.19.37.28.8.28,1.31v4.17h-1.82v-3.84c0-.4-.1-.71-.31-.94s-.49-.34-.86-.34c-.24,0-.46.05-.65.16-.18.11-.33.26-.43.46-.1.2-.15.44-.16.72h0ZM125.25,205.12c-.42,0-.79-.07-1.12-.22s-.59-.37-.78-.65c-.19-.29-.28-.65-.28-1.08,0-.36.07-.67.2-.92s.32-.45.55-.6c.23-.15.49-.26.78-.34s.6-.13.93-.16c.38-.04.69-.08.92-.11.23-.04.4-.09.51-.16s.16-.18.16-.32v-.02c0-.27-.08-.48-.26-.63-.17-.15-.41-.22-.72-.22-.33,0-.59.07-.78.22-.19.14-.32.32-.38.54l-1.68-.14c.08-.4.25-.74.5-1.03s.57-.52.97-.67c.4-.16.86-.24,1.38-.24.36,0,.71.04,1.04.13.33.09.63.22.89.4s.47.41.62.69.23.61.23,1v4.41h-1.72v-.91h-.05c-.11.21-.25.39-.42.54-.18.15-.39.27-.63.36-.25.08-.53.13-.86.13h0ZM125.77,203.87c.27,0,.5-.05.71-.16s.37-.25.48-.43c.12-.18.18-.39.18-.62v-.69c-.06.04-.14.07-.24.1s-.21.06-.33.08-.24.04-.37.06c-.12.02-.23.03-.33.05-.21.03-.4.08-.56.15-.16.07-.28.16-.37.28-.09.11-.13.26-.13.43,0,.25.09.44.27.57s.41.19.69.19h0ZM133.83,198.46v1.36h-3.94v-1.36h3.94ZM130.78,196.89h1.82v6.1c0,.17.03.3.08.39s.12.15.21.19c.09.04.2.06.32.06.08,0,.17,0,.26-.02.09-.02.15-.03.2-.04l.28,1.35c-.09.03-.22.06-.38.1-.17.04-.37.06-.6.07-.44.02-.82-.04-1.15-.17s-.58-.34-.76-.62-.27-.64-.27-1.07v-6.34h-.01ZM135.01,205v-6.54h1.81v6.54h-1.81ZM135.92,197.61c-.27,0-.5-.09-.69-.27-.19-.18-.29-.4-.29-.65s.1-.46.29-.64.43-.27.69-.27.5.09.69.27c.19.18.29.39.29.64s-.1.47-.29.65-.42.27-.69.27ZM141.24,205.13c-.66,0-1.24-.14-1.72-.42-.48-.28-.85-.68-1.11-1.18-.26-.51-.39-1.1-.39-1.77s.13-1.27.39-1.77c.26-.51.63-.9,1.11-1.18.48-.28,1.06-.43,1.72-.43s1.23.14,1.71.43c.48.28.85.68,1.12,1.18.26.51.39,1.1.39,1.77s-.13,1.26-.39,1.77c-.26.51-.63.9-1.12,1.18-.48.28-1.05.42-1.71.42ZM141.24,203.72c.3,0,.55-.09.75-.26s.35-.41.46-.71c.1-.3.16-.64.16-1.02s-.05-.72-.16-1.02c-.1-.3-.25-.54-.46-.71-.2-.17-.45-.26-.75-.26s-.56.09-.77.26-.36.41-.46.71c-.1.3-.15.64-.15,1.02s.05.72.15,1.02c.11.3.26.53.46.71.21.17.46.26.77.26ZM147.45,201.22v3.78h-1.82v-6.54h1.73v1.15h.08c.14-.38.39-.68.73-.9s.75-.34,1.24-.34c.46,0,.85.1,1.19.3s.6.48.79.85c.19.37.28.8.28,1.31v4.17h-1.82v-3.84c0-.4-.1-.71-.31-.94-.21-.23-.49-.34-.86-.34-.24,0-.46.05-.65.16-.18.11-.33.26-.43.46-.1.2-.15.44-.16.72h.01ZM101.18,211.27l2.11,6.63h.08l2.11-6.63h2.05l-3.01,8.73h-2.38l-3.01-8.73s2.05,0,2.05,0ZM110.79,220.13c-.67,0-1.25-.14-1.74-.41-.48-.28-.86-.66-1.12-1.17s-.39-1.1-.39-1.79.13-1.26.39-1.77c.26-.51.63-.9,1.1-1.19.48-.28,1.04-.43,1.68-.43.43,0,.83.07,1.21.21s.7.34.98.62c.28.28.5.62.66,1.04s.24.9.24,1.46v.5h-5.53v-1.12h3.82c0-.26-.06-.49-.17-.7-.11-.2-.27-.36-.47-.47-.2-.12-.43-.18-.69-.18s-.52.06-.73.19c-.21.12-.38.29-.49.51-.12.21-.18.44-.18.7v1.07c0,.32.06.6.18.84.12.24.29.42.52.54.22.13.48.19.79.19.2,0,.39-.03.55-.08.17-.06.31-.14.43-.26.12-.11.21-.25.27-.42l1.68.11c-.08.4-.26.76-.52,1.06-.26.3-.6.53-1.01.7-.41.16-.89.25-1.43.25h-.03ZM117.93,220.13c-.67,0-1.25-.14-1.73-.43s-.85-.68-1.11-1.19c-.26-.51-.38-1.09-.38-1.76s.13-1.26.39-1.76c.26-.51.63-.9,1.11-1.19.48-.29,1.05-.43,1.71-.43.57,0,1.07.1,1.5.31.43.21.77.5,1.02.87s.39.82.41,1.32h-1.71c-.05-.33-.18-.59-.38-.79s-.47-.3-.81-.3c-.28,0-.53.08-.74.23s-.37.37-.49.66c-.12.29-.18.64-.18,1.05s.06.77.17,1.07c.12.29.28.51.49.67.21.15.46.23.74.23.21,0,.39-.04.56-.13.17-.08.31-.21.41-.37.11-.16.18-.36.22-.59h1.71c-.03.5-.17.94-.41,1.32-.24.38-.57.67-1,.89-.43.21-.93.32-1.51.32h.01ZM125.5,213.46v1.36h-3.94v-1.36h3.94ZM122.45,211.89h1.81v6.1c0,.17.03.3.08.39s.12.15.21.19c.09.04.2.06.32.06.08,0,.17,0,.26-.02.08-.02.15-.03.2-.04l.29,1.35c-.09.03-.22.06-.38.1-.17.04-.36.06-.6.07-.44.02-.82-.04-1.15-.17s-.58-.34-.76-.62-.27-.64-.27-1.07v-6.34h-.01ZM129.57,220.13c-.66,0-1.23-.14-1.72-.42-.48-.28-.85-.68-1.11-1.18-.26-.51-.39-1.1-.39-1.77s.13-1.27.39-1.77c.26-.51.63-.9,1.11-1.18s1.06-.43,1.72-.43,1.23.14,1.71.43c.48.28.86.68,1.12,1.18.26.51.39,1.1.39,1.77s-.13,1.26-.39,1.77c-.26.51-.63.9-1.12,1.18-.48.28-1.05.42-1.71.42ZM129.58,218.72c.3,0,.55-.09.75-.26s.35-.41.46-.71c.1-.3.16-.64.16-1.02s-.05-.72-.16-1.02c-.1-.3-.25-.54-.46-.71-.2-.17-.45-.26-.75-.26s-.56.09-.77.26c-.2.17-.36.41-.46.71s-.15.64-.15,1.02.05.72.15,1.02c.11.3.26.53.46.71.21.17.46.26.77.26ZM133.97,220v-6.54h1.76v1.14h.07c.12-.41.32-.71.6-.92.28-.21.61-.32.97-.32.09,0,.19,0,.29.02.11,0,.2.03.28.05v1.61c-.08-.03-.2-.05-.35-.07s-.29-.03-.41-.03c-.27,0-.51.06-.72.17s-.37.27-.49.48c-.12.21-.18.44-.18.71v3.7h-1.82Z"/>
  <path class="st8" d="M801.8,254c-9.13,17.39-22.89,31.92-39.76,41.97-16.87,10.06-36.19,15.25-55.83,15.02-19.64-.24-38.83-5.9-55.45-16.37s-30.02-25.32-38.73-42.93l14.32-7.08c7.4,14.97,18.79,27.6,32.92,36.49,14.13,8.9,30.44,13.71,47.13,13.92,16.69.2,33.12-4.21,47.46-12.76,14.34-8.55,26.04-20.9,33.8-35.68l14.14,7.43h0Z"/>
  <path class="st11" d="M605.09,233.72c-4.8-16.81-5.38-34.55-1.7-51.64l15.62,3.36c-3.13,14.53-2.63,29.61,1.44,43.9l-15.36,4.38Z"/>
  <path class="st11" d="M609.39,163.07c6.8-16.11,17.46-30.29,31.05-41.31l10.06,12.41c-11.55,9.36-20.61,21.42-26.39,35.11l-14.72-6.21Z"/>
  <path class="st11" d="M656.38,111.07c15.34-8.39,32.51-12.88,49.99-13.07l.17,15.97c-14.86.16-29.46,3.97-42.49,11.11l-7.67-14.01Z"/>
  <path class="st11" d="M715.16,98.28c17.44,1.26,34.3,6.79,49.1,16.11l-8.51,13.52c-12.58-7.92-26.91-12.62-41.73-13.69l1.15-15.93h-.01Z"/>
  <path class="st11" d="M777.34,124.1c13.2,11.47,23.37,26.01,29.62,42.34l-14.92,5.71c-5.31-13.88-13.96-26.24-25.18-35.99,0,0,10.48-12.06,10.48-12.06Z"/>
  <path class="st11" d="M811.92,183.56c3.44,17.14,2.6,34.87-2.43,51.62l-15.3-4.6c4.28-14.23,4.99-29.3,2.07-43.87l15.66-3.14h0Z"/>
  <path class="st9" d="M612.09,251.83c-2.98-6-5.38-12.26-7.18-18.71l15.39-4.29c1.53,5.48,3.57,10.81,6.1,15.91l-14.31,7.1h0Z"/>
  <path class="st12" d="M603.36,182.19c1.4-6.55,3.42-12.95,6.03-19.12l14.72,6.21c-2.21,5.24-3.93,10.68-5.12,16.25l-15.62-3.35h-.01Z"/>
  <path class="st7" d="M640.11,122.03c5.19-4.24,10.76-7.97,16.65-11.17l7.61,14.05c-5,2.71-9.74,5.89-14.15,9.49,0,0-10.11-12.37-10.11-12.37Z"/>
  <path class="st10" d="M761.53,112.72c5.77,3.4,11.21,7.33,16.24,11.75l-10.54,12c-4.28-3.76-8.9-7.1-13.8-9.99l8.1-13.77h0Z"/>
  <path class="st4" d="M806.92,166.33c2.4,6.25,4.21,12.72,5.39,19.31l-15.72,2.83c-1.01-5.6-2.54-11.1-4.58-16.41l14.91-5.73Z"/>
  <path class="st5" d="M809.48,235.2c-1.93,6.41-4.46,12.63-7.56,18.57l-14.16-7.39c2.63-5.05,4.78-10.33,6.42-15.78l15.3,4.6Z"/>
  <path class="st3" d="M697.36,98.48c6.67-.64,13.38-.64,20.05-.02l-1.49,15.91c-5.67-.53-11.37-.52-17.04.02l-1.52-15.9h0Z"/>
  <path class="st13" d="M669.61,212v-8.73h5.78v1.52h-3.93v2.08h3.55v1.52h-3.55v3.6h-1.85ZM676.6,212v-6.54h1.82v6.54h-1.82ZM677.51,204.61c-.27,0-.5-.09-.69-.27-.19-.18-.29-.4-.29-.65s.1-.46.29-.64.42-.27.69-.27.5.09.69.27c.19.18.29.39.29.64s-.1.47-.29.65-.42.27-.69.27ZM681.68,208.22v3.78h-1.82v-6.54h1.73v1.15h.08c.15-.38.39-.68.73-.9.34-.22.75-.34,1.24-.34.45,0,.85.1,1.19.3s.6.48.79.85c.19.37.28.8.28,1.31v4.17h-1.82v-3.84c0-.4-.1-.71-.31-.94s-.49-.34-.86-.34c-.24,0-.46.05-.65.16-.18.11-.33.26-.43.46-.1.2-.16.44-.16.72h.01ZM689.2,212.12c-.42,0-.79-.07-1.12-.22s-.59-.37-.78-.65c-.19-.29-.28-.65-.28-1.08,0-.36.07-.67.2-.92s.32-.45.55-.6c.23-.15.49-.26.78-.34.3-.08.61-.13.93-.16.38-.04.69-.08.92-.11.23-.04.4-.09.51-.16s.16-.18.16-.32v-.02c0-.27-.09-.48-.26-.63-.17-.15-.41-.22-.71-.22-.33,0-.59.07-.78.22-.19.14-.32.32-.38.54l-1.68-.14c.09-.4.25-.74.5-1.03s.57-.52.97-.67c.4-.16.86-.24,1.38-.24.36,0,.71.04,1.04.13.33.09.63.22.89.4s.47.41.62.69.23.61.23,1v4.41h-1.72v-.91h-.05c-.1.21-.25.39-.42.54-.18.15-.39.27-.64.36-.25.08-.53.13-.86.13h0ZM689.72,210.87c.27,0,.5-.05.71-.16.2-.11.36-.25.48-.43s.17-.39.17-.62v-.69c-.06.04-.14.07-.23.1-.1.03-.21.06-.33.08s-.24.04-.37.06c-.12.02-.23.03-.33.05-.21.03-.4.08-.56.15-.16.07-.28.16-.37.28-.09.11-.13.26-.13.43,0,.25.09.44.27.57s.41.19.69.19h0ZM696.11,203.27v8.73h-1.82v-8.73h1.82ZM700.37,212v-8.73h3.44c.66,0,1.23.13,1.69.38.47.25.82.6,1.07,1.04.25.44.37.96.37,1.53s-.12,1.09-.38,1.53c-.25.44-.61.79-1.09,1.04-.47.25-1.04.37-1.71.37h-2.19v-1.48h1.9c.36,0,.65-.06.88-.18s.41-.3.52-.52c.12-.22.17-.48.17-.76s-.06-.54-.17-.76-.29-.39-.52-.51c-.23-.12-.53-.18-.89-.18h-1.24v7.22h-1.85ZM708.11,212v-6.54h1.76v1.14h.07c.12-.41.32-.71.6-.92.28-.21.6-.32.97-.32.09,0,.19,0,.29.02.1,0,.2.03.28.05v1.61c-.08-.03-.2-.05-.35-.07-.15-.02-.29-.03-.41-.03-.27,0-.51.06-.72.17-.21.11-.37.27-.49.48-.12.21-.18.44-.18.71v3.7h-1.82ZM715.67,212.13c-.66,0-1.23-.14-1.72-.42-.48-.28-.85-.68-1.11-1.18-.26-.51-.39-1.1-.39-1.77s.13-1.27.39-1.77c.26-.51.63-.9,1.11-1.18s1.05-.43,1.72-.43,1.23.14,1.71.43c.48.28.85.68,1.12,1.18.26.51.39,1.1.39,1.77s-.13,1.26-.39,1.77c-.26.51-.63.9-1.12,1.18-.48.28-1.05.42-1.71.42ZM715.68,210.72c.3,0,.55-.09.75-.26s.35-.41.46-.71c.11-.3.16-.64.16-1.02s-.05-.72-.16-1.02c-.1-.3-.25-.54-.46-.71-.2-.17-.45-.26-.75-.26s-.56.09-.77.26-.36.41-.46.71c-.1.3-.15.64-.15,1.02s.05.72.15,1.02c.1.3.26.53.46.71.21.17.46.26.77.26ZM722.48,212.11c-.5,0-.95-.13-1.35-.38-.4-.26-.72-.64-.95-1.14-.23-.5-.35-1.12-.35-1.85s.12-1.37.36-1.87.56-.87.96-1.12.85-.38,1.33-.38c.37,0,.67.06.92.19.25.12.45.27.6.46.15.18.27.36.35.54h.05v-3.28h1.81v8.73h-1.79v-1.05h-.08c-.08.18-.21.36-.36.54-.15.18-.35.32-.6.44-.24.12-.54.17-.9.17h0ZM723.06,210.66c.29,0,.54-.08.74-.24s.36-.39.47-.68.17-.63.17-1.02-.05-.73-.16-1.01c-.11-.29-.26-.51-.47-.66-.21-.16-.45-.23-.75-.23s-.55.08-.75.24c-.21.16-.36.39-.46.67-.11.29-.16.62-.16,1s.05.72.16,1.01.26.52.46.68c.21.16.46.24.75.24ZM731.9,209.21v-3.76h1.82v6.54h-1.74v-1.19h-.07c-.15.38-.39.69-.74.92-.34.23-.76.35-1.25.35-.44,0-.82-.1-1.15-.3s-.59-.48-.78-.85c-.18-.37-.28-.8-.28-1.32v-4.17h1.82v3.84c0,.39.11.69.31.92.2.22.48.34.82.34.22,0,.42-.05.61-.15.19-.1.34-.25.46-.45s.18-.44.17-.74v.02ZM738.12,212.13c-.67,0-1.25-.14-1.73-.43s-.85-.68-1.11-1.19c-.26-.51-.38-1.09-.38-1.76s.13-1.26.39-1.76c.26-.51.63-.9,1.11-1.19.48-.29,1.05-.43,1.71-.43.57,0,1.07.1,1.5.31.43.21.77.5,1.02.87s.39.82.41,1.32h-1.71c-.05-.33-.18-.59-.38-.79-.21-.2-.47-.3-.8-.3-.28,0-.53.08-.74.23-.21.15-.37.37-.48.66-.12.29-.17.64-.17,1.05s.06.77.17,1.07c.12.29.28.51.49.67.21.15.46.23.74.23.21,0,.39-.04.56-.13.17-.08.3-.21.41-.37.11-.16.18-.36.22-.59h1.71c-.03.5-.16.94-.41,1.32-.24.38-.58.67-1,.89-.43.21-.93.32-1.51.32h-.02ZM745.69,205.46v1.36h-3.94v-1.36h3.94ZM742.64,203.89h1.82v6.1c0,.17.03.3.08.39s.12.15.21.19c.09.04.2.06.32.06.09,0,.17,0,.26-.02s.15-.03.2-.04l.29,1.35c-.09.03-.22.06-.38.1-.17.04-.37.06-.6.07-.44.02-.82-.04-1.15-.17s-.58-.34-.76-.62-.27-.64-.27-1.07v-6.34h-.02Z"/>
  <path class="st13" d="M592.49,204.27v8.73h-1.85v-8.73h1.85ZM597.75,204.27v8.73h-1.84v-6.98h-.05l-2,1.25v-1.64l2.16-1.37h1.73Z"/>
  <path class="st13" d="M610.64,132.27v8.73h-1.85v-8.73h1.85ZM612.11,141v-1.33l3.11-2.88c.26-.26.49-.49.66-.69.18-.21.32-.4.41-.6.09-.2.14-.41.14-.64,0-.25-.06-.47-.17-.66-.12-.19-.28-.33-.48-.43-.2-.1-.43-.15-.69-.15s-.5.05-.7.16-.35.26-.46.46c-.11.2-.16.44-.16.72h-1.75c0-.57.13-1.07.39-1.49s.62-.74,1.09-.98c.47-.23,1-.35,1.61-.35s1.17.11,1.63.33c.47.22.83.52,1.09.91s.39.84.39,1.34c0,.33-.07.66-.2.98-.13.32-.36.68-.69,1.07-.33.39-.79.86-1.39,1.4l-1.27,1.25v.06h3.66v1.51h-6.22Z"/>
  <path class="st13" d="M665.47,93.27v8.73h-1.84v-8.73s1.84,0,1.84,0ZM670.16,102.12c-.64,0-1.2-.11-1.7-.33-.49-.22-.89-.53-1.17-.91-.28-.39-.43-.84-.44-1.35h1.86c.01.21.08.4.21.56.13.16.3.28.52.37.22.09.46.13.73.13s.53-.05.75-.15.39-.24.51-.41c.12-.18.18-.38.18-.61s-.07-.44-.2-.62-.31-.32-.55-.43c-.24-.1-.52-.15-.85-.15h-.81v-1.36h.81c.28,0,.52-.05.74-.14.22-.1.38-.23.5-.4s.18-.38.18-.61-.05-.41-.16-.58c-.1-.17-.25-.3-.43-.39s-.4-.14-.65-.14-.48.05-.69.14-.37.21-.5.38-.19.36-.2.58h-1.77c0-.5.15-.95.43-1.33.28-.38.65-.68,1.12-.9s1.01-.33,1.61-.33,1.13.11,1.58.33.8.51,1.05.89c.25.37.38.78.38,1.24,0,.49-.15.9-.46,1.22-.3.33-.7.53-1.19.62v.07c.64.08,1.13.31,1.47.67.34.36.51.81.5,1.36,0,.5-.14.94-.43,1.33s-.68.69-1.19.91-1.09.33-1.74.33h0Z"/>
  <path class="st13" d="M743.36,93.27v8.73h-1.85v-8.73s1.85,0,1.85,0ZM744.69,100.47v-1.45l3.64-5.74h1.25v2.01h-.74l-2.3,3.63v.07h5.18v1.48h-7.04,0ZM748.88,102v-1.98l.03-.64v-6.11h1.73v8.73h-1.76Z"/>
  <path class="st13" d="M799.55,132.27v8.73h-1.84v-8.73h1.84ZM804.21,141.12c-.6,0-1.14-.11-1.61-.33s-.84-.53-1.12-.92c-.28-.39-.42-.84-.43-1.34h1.79c.02.34.16.61.43.82.26.21.58.32.94.32.29,0,.55-.06.77-.19.22-.13.4-.31.52-.54.13-.23.19-.5.19-.8s-.07-.58-.2-.81-.3-.41-.53-.55c-.23-.13-.49-.2-.78-.2-.26,0-.5.05-.75.16-.24.1-.42.25-.56.43l-1.64-.29.41-4.6h5.33v1.51h-3.81l-.23,2.19h.05c.15-.22.38-.39.69-.54.31-.14.66-.21,1.04-.21.53,0,1,.12,1.41.37s.74.59.98,1.02c.24.43.36.92.35,1.48,0,.59-.13,1.11-.41,1.57-.27.45-.65.81-1.15,1.07-.49.26-1.06.39-1.71.39h.03Z"/>
  <path class="st13" d="M820.46,204.27v8.73h-1.84v-8.73h1.84ZM825.28,213.12c-.45,0-.88-.08-1.3-.23s-.79-.39-1.12-.72-.59-.77-.78-1.32-.29-1.22-.29-2.02c0-.73.09-1.39.25-1.96.17-.58.41-1.07.72-1.47s.69-.71,1.12-.92c.43-.21.92-.32,1.46-.32.58,0,1.1.11,1.54.34.45.22.8.53,1.07.92s.44.82.49,1.3h-1.82c-.07-.3-.22-.54-.45-.72-.23-.17-.51-.26-.84-.26-.57,0-1,.25-1.29.74s-.44,1.17-.45,2.01h.06c.13-.26.31-.48.53-.66.22-.18.48-.32.76-.42.29-.1.59-.15.91-.15.52,0,.98.12,1.38.37.4.24.72.57.95,1,.23.42.35.91.35,1.45,0,.59-.14,1.12-.41,1.58-.27.46-.65.82-1.15,1.08-.49.26-1.06.39-1.7.38h.01ZM825.27,211.67c.28,0,.54-.07.76-.2.22-.14.4-.32.53-.55s.19-.49.19-.78-.06-.55-.19-.78c-.12-.23-.3-.41-.52-.55-.22-.14-.47-.2-.76-.2-.21,0-.41.04-.59.12-.18.08-.34.19-.47.33-.13.14-.24.31-.32.49-.08.18-.11.38-.11.59,0,.28.06.54.19.77.13.23.31.42.53.56.23.14.48.21.76.21h0Z"/>
  <path class="st11" d="M363.9,80.57c12.07-4.22,24.67-6.37,37.34-6.37l-.06,14.34c-11.28,0-22.49,1.91-33.23,5.67l-4.04-13.64h0Z"/>
  <path class="st7" d="M354.38,84.05c3.79-1.56,7.65-2.93,11.57-4.12l4.17,13.72c-3.49,1.06-6.92,2.29-10.29,3.67l-5.45-13.26h0Z"/>
  <path class="st3" d="M401.16,74c4.1-.02,8.19.15,12.27.52l-1.28,14.28c-3.63-.33-7.27-.48-10.92-.46l-.07-14.34h0Z"/>
  <path class="st11" d="M314.75,78.97c9.87-8.13,20.96-14.49,32.85-18.86l4.88,13.48c-10.58,3.89-20.45,9.55-29.23,16.78,0,0-8.5-11.4-8.5-11.4Z"/>
  <path class="st12" d="M307.02,85.52c3.02-2.77,6.17-5.39,9.44-7.86l8.65,11.44c-2.91,2.2-5.71,4.53-8.4,6.99l-9.69-10.57Z"/>
  <path class="st7" d="M347.46,59.95c3.84-1.43,7.74-2.68,11.7-3.74l3.72,13.85c-3.52.95-6.99,2.06-10.41,3.33l-5.01-13.43h0Z"/>
  <path class="st11" d="M412.44,49.47c12.77.57,25.27,3.27,37.02,7.99l-5.4,13.28c-10.46-4.2-21.58-6.6-32.95-7.11l1.33-14.16h0Z"/>
  <path class="st3" d="M402.31,49.15c4.1-.03,8.19.13,12.27.48l-1.24,14.28c-3.63-.31-7.28-.46-10.92-.43l-.11-14.34h0Z"/>
  <path class="st10" d="M449.47,57.25c3.81,1.51,7.54,3.19,11.19,5.05l-6.51,12.78c-3.25-1.65-6.57-3.16-9.96-4.5l5.28-13.33Z"/>
  <path class="st11" d="M449.75,83.49c11.48,5.63,21.85,13.1,30.74,22.12l-10.26,10.02c-7.91-8.03-17.15-14.68-27.36-19.69l6.87-12.45h.01Z"/>
  <path class="st10" d="M440.59,79.16c3.77,1.61,7.46,3.39,11.06,5.35l-6.84,12.6c-3.2-1.74-6.49-3.33-9.84-4.76l5.63-13.19h-.01Z"/>
  <path class="st4" d="M480.58,105.42c2.89,2.9,5.64,5.94,8.24,9.1l-11.07,9.11c-2.32-2.81-4.76-5.52-7.33-8.1l10.16-10.11Z"/>
  <path class="st11" d="M503.91,96.06c8.62,9.45,15.53,20.19,20.5,31.85l-13.21,5.56c-4.42-10.37-10.57-19.94-18.24-28.35l10.96-9.06h-.01Z"/>
  <path class="st4" d="M496.98,88.67c2.92,2.88,5.69,5.89,8.33,9.03l-10.98,9.22c-2.34-2.79-4.82-5.47-7.41-8.03l10.07-10.21h0Z"/>
  <path class="st5" d="M524.56,127.76c1.62,3.76,3.07,7.59,4.33,11.49l-13.64,4.42c-1.12-3.47-2.41-6.88-3.85-10.23l13.16-5.68Z"/>
  <line class="st6" x1="294.5" y1="141.67" x2="314.55" y2="153.83"/>
  <line class="st6" x1="527.89" y1="140.25" x2="504.34" y2="153.62"/>
  <g class="st1">
    <text class="st0" transform="translate(59.34 328.87)"><tspan x="0" y="0">Linearized Destination </tspan></text>
    <text class="st2" transform="translate(59.34 328.87)"><tspan x="0" y="0">Linearized Destination </tspan></text>
    <text class="st0" transform="translate(101.1 343.27)"><tspan x="0" y="0">Vector</tspan></text>
    <text class="st2" transform="translate(101.1 343.27)"><tspan x="0" y="0">Vector</tspan></text>
  </g>
  <g class="st1">
    <text class="st0" transform="translate(369.73 328.87)"><tspan x="0" y="0">Overlap Directed</tspan></text>
    <text class="st2" transform="translate(369.73 328.87)"><tspan x="0" y="0">Overlap Directed</tspan></text>
    <text class="st0" transform="translate(387.41 343.27)"><tspan x="0" y="0">Assembly</tspan></text>
    <text class="st2" transform="translate(387.41 343.27)"><tspan x="0" y="0">Assembly</tspan></text>
  </g>
  <g class="st1">
    <text class="st0" transform="translate(663.64 335.28)"><tspan x="0" y="0">Assembled Plasmid</tspan></text>
    <text class="st2" transform="translate(663.64 335.28)"><tspan x="0" y="0">Assembled Plasmid</tspan></text>
  </g>
</svg>