<?xml version="1.0" encoding="UTF-8"?>
<svg id="Layer_1" xmlns="http://www.w3.org/2000/svg" version="1.1" viewBox="0 0 772.66 367">
  <!-- Generator: Adobe Illustrator 29.5.1, SVG Export Plug-In . SVG Version: 2.1.0 Build 141)  -->
  <defs>
    <style>
      .st0 {
        stroke: #231f20;
        stroke-miterlimit: 10;
        stroke-width: .25px;
      }

      .st0, .st1 {
        font-family: Arial-Mdm, Arial;
        font-size: 12px;
        font-weight: 500;
      }

      .st0, .st1, .st2 {
        isolation: isolate;
      }

      .st0, .st3 {
        fill: none;
      }

      .st4 {
        fill: #a8d8e8;
      }

      .st3 {
        stroke: #61a5fb;
        stroke-dasharray: 2 2;
      }

      .st5 {
        fill: #3c82f5;
      }

      .st6 {
        fill: #1b76b3;
      }

      .st7 {
        fill: #1e79b7;
      }

      .st8 {
        fill: #ec4799;
      }

      .st9 {
        fill: #0b0755;
      }

      .st10 {
        fill: #0bb980;
      }
    </style>
  </defs>
  <path class="st9" d="M272.3,184l-10-5.77v11.55l10-5.77h0ZM230.8,184v1h32.5v-2h-32.5v1Z"/>
  <path class="st9" d="M541.3,184l-10-5.77v11.55l10-5.77h0ZM499.8,184v1h32.5v-2h-32.5v1Z"/>
  <path class="st4" d="M468.29,127.53c12.89,15.55,21.09,34.45,23.65,54.49s-.64,40.39-9.21,58.68c-8.57,18.29-22.17,33.77-39.21,44.62-17.04,10.85-36.81,16.64-57.01,16.68-20.2.04-39.99-5.66-57.08-16.45-17.08-10.78-30.74-26.2-39.39-44.46-8.65-18.26-11.93-38.59-9.45-58.64,2.47-20.05,10.6-38.98,23.42-54.58l12.34,10.14c-10.9,13.26-17.81,29.35-19.91,46.4-2.1,17.04.68,34.33,8.03,49.84,7.35,15.52,18.96,28.62,33.48,37.79,14.52,9.17,31.35,14.01,48.51,13.98,17.17-.04,33.98-4.95,48.46-14.18,14.48-9.23,26.04-22.38,33.32-37.93,7.29-15.55,10-32.85,7.83-49.88s-9.15-33.09-20.1-46.31l12.3-10.19h.02Z"/>
  <path class="st5" d="M303.99,127.91c4.25-5.18,8.98-9.94,14.12-14.22l10.23,12.27c-4.37,3.64-8.39,7.69-12,12.09l-12.35-10.14Z"/>
  <path class="st10" d="M454.1,113.37c5.16,4.26,9.92,9,14.19,14.16l-12.3,10.2c-3.63-4.38-7.67-8.41-12.06-12.04l10.17-12.32h0Z"/>
  <path class="st9" d="M356.27,196h-3.09v-8.73h3.12c.88,0,1.63.17,2.27.52.63.35,1.12.85,1.46,1.5s.52,1.43.52,2.34-.17,1.69-.52,2.34c-.34.65-.83,1.15-1.47,1.5s-1.4.52-2.28.52h0ZM355.03,194.42h1.17c.54,0,1-.1,1.38-.29.38-.2.66-.5.84-.91.19-.41.29-.94.29-1.59s-.1-1.17-.29-1.58-.47-.71-.84-.9c-.37-.19-.83-.29-1.38-.29h-1.18v5.57h0ZM364.86,196.13c-.67,0-1.25-.14-1.74-.41-.48-.28-.86-.66-1.12-1.17s-.39-1.1-.39-1.79.13-1.26.39-1.77c.26-.51.63-.9,1.1-1.19.48-.28,1.04-.43,1.68-.43.43,0,.83.07,1.2.21.38.14.7.34.98.62s.5.62.66,1.04.23.9.23,1.46v.5h-5.53v-1.12h3.82c0-.26-.06-.49-.17-.7-.11-.2-.27-.36-.47-.47-.2-.12-.43-.18-.7-.18s-.52.06-.73.19c-.21.12-.38.29-.49.51-.12.21-.18.44-.18.7v1.07c0,.32.06.6.18.84.12.24.29.42.51.54.22.13.49.19.79.19.2,0,.39-.03.55-.08.17-.06.31-.14.43-.26.12-.11.21-.25.27-.42l1.68.11c-.08.4-.26.76-.52,1.06-.26.3-.6.53-1.01.7-.41.16-.89.25-1.43.25h0ZM374.49,191.32l-1.66.1c-.03-.14-.09-.27-.18-.38-.09-.12-.22-.21-.37-.28-.15-.07-.33-.11-.54-.11-.28,0-.52.06-.71.18s-.29.27-.29.47c0,.16.06.29.19.4s.34.2.64.26l1.18.24c.64.13,1.11.34,1.42.63.31.29.47.67.47,1.14,0,.43-.13.8-.38,1.13-.25.32-.59.58-1.03.76s-.94.27-1.51.27c-.87,0-1.56-.18-2.07-.54s-.81-.86-.9-1.48l1.79-.09c.05.26.18.47.39.61.21.14.47.21.8.21s.57-.06.77-.18c.2-.12.29-.29.3-.48,0-.16-.07-.3-.21-.4-.14-.11-.35-.19-.63-.25l-1.13-.23c-.64-.13-1.11-.35-1.43-.66-.31-.32-.46-.72-.46-1.21,0-.42.11-.78.34-1.09.23-.3.55-.54.97-.7s.91-.25,1.47-.25c.83,0,1.48.18,1.95.52.48.35.76.83.83,1.43v-.02h-.01ZM379.27,189.46v1.36h-3.94v-1.36h3.94ZM376.22,187.89h1.82v6.1c0,.17.03.3.08.39s.12.15.21.19c.09.04.2.06.32.06.08,0,.17,0,.26-.02s.15-.03.2-.04l.29,1.35c-.09.03-.22.06-.38.1-.16.04-.36.06-.6.07-.44.02-.82-.04-1.15-.17s-.58-.34-.76-.62c-.18-.28-.27-.64-.27-1.07v-6.34h-.02ZM380.45,196v-6.54h1.82v6.54h-1.82ZM381.36,188.61c-.27,0-.5-.09-.69-.27-.19-.18-.29-.4-.29-.65s.1-.46.29-.64.42-.27.69-.27.5.09.69.27c.19.18.29.39.29.64s-.1.47-.29.65-.42.27-.69.27ZM385.53,192.22v3.78h-1.81v-6.54h1.73v1.15h.08c.14-.38.39-.68.73-.9s.76-.34,1.24-.34c.45,0,.85.1,1.19.3s.6.48.79.85c.19.37.28.8.28,1.31v4.17h-1.82v-3.84c0-.4-.1-.71-.31-.94s-.49-.34-.86-.34c-.24,0-.46.05-.65.16-.18.11-.33.26-.43.46-.1.2-.15.44-.16.72h0ZM393.05,196.12c-.42,0-.79-.07-1.12-.22s-.59-.37-.78-.65c-.19-.29-.28-.65-.28-1.08,0-.36.07-.67.2-.92s.31-.45.55-.6c.23-.15.49-.26.78-.34.3-.08.61-.13.93-.16.38-.04.69-.08.92-.11.23-.04.4-.09.51-.16.11-.07.16-.18.16-.32v-.02c0-.27-.09-.48-.26-.63-.17-.15-.41-.22-.72-.22-.33,0-.59.07-.78.22-.19.14-.32.32-.38.54l-1.68-.14c.08-.4.25-.74.5-1.03s.57-.52.97-.67c.4-.16.86-.24,1.38-.24.36,0,.71.04,1.04.13.33.09.63.22.89.4s.47.41.62.69.23.61.23,1v4.41h-1.72v-.91h-.05c-.11.21-.24.39-.42.54-.18.15-.39.27-.64.36-.25.08-.53.13-.86.13h0ZM393.57,194.87c.27,0,.5-.05.71-.16s.36-.25.48-.43c.12-.18.18-.39.18-.62v-.69c-.06.04-.14.07-.24.1-.1.03-.21.06-.33.08s-.24.04-.37.06c-.12.02-.23.03-.33.05-.21.03-.4.08-.56.15-.16.07-.28.16-.37.28-.09.11-.13.26-.13.43,0,.25.09.44.27.57s.41.19.69.19h0ZM401.63,189.46v1.36h-3.94v-1.36h3.94ZM398.58,187.89h1.82v6.1c0,.17.02.3.08.39.05.09.12.15.21.19.09.04.2.06.32.06.08,0,.17,0,.26-.02.08-.02.15-.03.2-.04l.29,1.35c-.09.03-.22.06-.38.1-.16.04-.36.06-.6.07-.44.02-.82-.04-1.15-.17s-.58-.34-.76-.62c-.18-.28-.27-.64-.27-1.07v-6.34h-.02ZM402.81,196v-6.54h1.82v6.54h-1.82ZM403.72,188.61c-.27,0-.5-.09-.7-.27-.19-.18-.29-.4-.29-.65s.1-.46.29-.64.43-.27.7-.27.5.09.69.27c.19.18.29.39.29.64s-.1.47-.29.65-.42.27-.69.27ZM409.04,196.13c-.66,0-1.23-.14-1.72-.42-.48-.28-.85-.68-1.11-1.18-.26-.51-.39-1.1-.39-1.77s.13-1.27.39-1.77c.26-.51.63-.9,1.11-1.18.48-.28,1.06-.43,1.72-.43s1.23.14,1.71.43c.48.28.85.68,1.12,1.18.26.51.39,1.1.39,1.77s-.13,1.26-.39,1.77c-.26.51-.63.9-1.12,1.18-.48.28-1.05.42-1.71.42ZM409.04,194.72c.3,0,.55-.09.75-.26s.35-.41.46-.71.16-.64.16-1.02-.05-.72-.16-1.02c-.1-.3-.25-.54-.46-.71-.2-.17-.45-.26-.75-.26s-.56.09-.77.26c-.2.17-.36.41-.46.71s-.15.64-.15,1.02.05.72.15,1.02c.11.3.26.53.46.71.21.17.46.26.77.26ZM415.25,192.22v3.78h-1.82v-6.54h1.73v1.15h.08c.14-.38.39-.68.73-.9s.75-.34,1.24-.34c.45,0,.85.1,1.19.3s.6.48.79.85c.19.37.28.8.28,1.31v4.17h-1.82v-3.84c0-.4-.1-.71-.31-.94s-.49-.34-.86-.34c-.24,0-.46.05-.65.16-.18.11-.33.26-.43.46-.1.2-.15.44-.16.72h0ZM368.98,202.27l2.11,6.63h.08l2.11-6.63h2.05l-3.01,8.73h-2.38l-3.01-8.73h2.05ZM378.59,211.13c-.67,0-1.25-.14-1.74-.41-.48-.28-.86-.66-1.12-1.17s-.39-1.1-.39-1.79.13-1.26.39-1.77c.26-.51.63-.9,1.1-1.19.48-.28,1.04-.43,1.68-.43.43,0,.83.07,1.21.21s.7.34.98.62.5.62.66,1.04.23.9.23,1.46v.5h-5.53v-1.12h3.82c0-.26-.06-.49-.17-.7-.11-.2-.27-.36-.47-.47-.2-.12-.43-.18-.69-.18s-.52.06-.73.19c-.21.12-.38.29-.49.51-.12.21-.18.44-.18.7v1.07c0,.32.06.6.18.84.12.24.29.42.52.54.22.13.48.19.79.19.2,0,.39-.03.55-.08.17-.06.31-.14.43-.26.12-.11.21-.25.27-.42l1.68.11c-.08.4-.26.76-.52,1.06-.26.3-.6.53-1.01.7-.41.16-.89.25-1.43.25h-.02ZM385.73,211.13c-.67,0-1.25-.14-1.73-.43s-.85-.68-1.11-1.19c-.26-.51-.38-1.09-.38-1.76s.13-1.26.39-1.76c.26-.51.63-.9,1.11-1.19.48-.29,1.05-.43,1.71-.43.57,0,1.07.1,1.5.31.43.21.77.5,1.02.87s.39.82.41,1.32h-1.71c-.05-.33-.18-.59-.38-.79s-.47-.3-.81-.3c-.28,0-.53.08-.74.23s-.37.37-.49.66c-.12.29-.17.64-.17,1.05s.06.77.17,1.07c.12.29.28.51.49.67.21.15.46.23.74.23.21,0,.39-.04.56-.13.17-.08.31-.21.41-.37.11-.16.18-.36.22-.59h1.71c-.03.5-.17.94-.41,1.32s-.58.67-1,.89c-.43.21-.93.32-1.51.32h0ZM393.3,204.46v1.36h-3.94v-1.36h3.94ZM390.25,202.89h1.82v6.1c0,.17.03.3.08.39s.12.15.21.19c.09.04.2.06.32.06.08,0,.17,0,.26-.02.08-.02.15-.03.2-.04l.29,1.35c-.09.03-.22.06-.38.1-.17.04-.36.06-.6.07-.44.02-.82-.04-1.15-.17s-.58-.34-.76-.62c-.18-.28-.27-.64-.27-1.07v-6.34h-.02ZM397.37,211.13c-.66,0-1.23-.14-1.72-.42-.48-.28-.85-.68-1.11-1.18-.26-.51-.39-1.1-.39-1.77s.13-1.27.39-1.77c.26-.51.63-.9,1.11-1.18.48-.28,1.06-.43,1.72-.43s1.23.14,1.71.43c.48.28.86.68,1.12,1.18.26.51.39,1.1.39,1.77s-.13,1.26-.39,1.77c-.26.51-.63.9-1.12,1.18-.48.28-1.05.42-1.71.42ZM397.38,209.72c.3,0,.55-.09.75-.26s.35-.41.46-.71.16-.64.16-1.02-.05-.72-.16-1.02c-.1-.3-.25-.54-.46-.71-.2-.17-.45-.26-.75-.26s-.56.09-.77.26-.36.41-.47.71c-.1.3-.15.64-.15,1.02s.05.72.15,1.02c.11.3.26.53.47.71.21.17.46.26.77.26ZM401.77,211v-6.54h1.76v1.14h.07c.12-.41.32-.71.6-.92.28-.21.61-.32.97-.32.09,0,.19,0,.29.02.11,0,.2.03.28.05v1.61c-.08-.03-.2-.05-.35-.07s-.29-.03-.41-.03c-.27,0-.51.06-.72.17s-.37.27-.49.48c-.12.21-.18.44-.18.71v3.7h-1.82Z"/>
  <path class="st6" d="M302.38,92.48c21.36-17.57,48.03-27.94,76-29.56l1,16.29c-24.33,1.41-47.53,10.43-66.12,25.72l-10.88-12.44h0Z"/>
  <path class="st6" d="M406.18,37.27c29.78,3.81,57.83,16.11,80.82,35.43l-11.08,13.18c-20.45-17.19-45.42-28.14-71.93-31.53l2.19-17.08h0Z"/>
  <path class="st5" d="M285.39,109.36c5.11-6.14,10.81-11.8,17.02-16.9l10.88,12.45c-5.4,4.44-10.36,9.36-14.81,14.7,0,0-13.09-10.25-13.09-10.25Z"/>
  <path class="st8" d="M378.34,62.92c8.12-.47,16.28-.2,24.35.81l-2.16,16.18c-7.02-.88-14.11-1.12-21.18-.7,0,0-1.01-16.29-1.01-16.29Z"/>
  <path class="st10" d="M486.94,72.65c7.54,6.33,14.46,13.35,20.67,20.98l-13.35,10.88c-5.53-6.79-11.69-13.04-18.4-18.67l11.07-13.18h0Z"/>
  <path class="st8" d="M376.78,36.29c9.82-.6,19.68-.27,29.44.98l-2.19,17.08c-8.69-1.12-17.46-1.41-26.2-.88,0,0-1.05-17.18-1.05-17.18Z"/>
  <path class="st9" d="M310.65,70.69l3.25,8.1-1.71.69-3.25-8.1,1.71-.69ZM315.55,74.05l1.41,3.51-1.68.68-2.44-6.08,1.61-.64.43,1.07.07-.03c0-.41.11-.78.34-1.11.23-.34.57-.59,1.03-.77.42-.17.83-.22,1.21-.17.39.06.74.22,1.05.5.31.27.56.64.75,1.11l1.55,3.87-1.68.68-1.43-3.57c-.15-.37-.36-.62-.63-.76-.28-.13-.58-.13-.92,0-.23.09-.41.22-.54.39s-.21.36-.23.59c-.02.22.02.46.12.73h-.02,0ZM325.52,69.09l-1.51.71c-.08-.12-.18-.22-.31-.29s-.28-.11-.45-.12c-.17,0-.35.02-.54.1-.26.1-.46.25-.59.43-.14.18-.17.36-.09.54.06.14.16.24.32.3.16.05.39.05.69,0l1.19-.22c.64-.12,1.16-.1,1.56.06.4.15.68.45.86.89.16.4.18.79.07,1.19-.11.39-.34.76-.67,1.09-.34.33-.77.6-1.3.81-.8.32-1.51.41-2.12.27-.61-.15-1.07-.49-1.39-1.04l1.62-.75c.15.23.35.36.59.42.24.05.51.01.82-.11.3-.12.51-.27.64-.46.14-.19.17-.38.1-.56-.06-.15-.18-.25-.34-.3-.17-.05-.39-.05-.68,0l-1.14.21c-.64.12-1.17.09-1.57-.09-.4-.18-.7-.49-.88-.95-.16-.39-.19-.77-.09-1.14s.31-.71.64-1.01c.33-.31.75-.57,1.27-.78.77-.31,1.44-.39,2.01-.24s1.01.48,1.31,1.01c0,0-.02.03-.02.03ZM331.27,71.96c-.62.25-1.21.34-1.77.27-.55-.08-1.04-.3-1.47-.67-.43-.37-.77-.88-1.03-1.52-.25-.62-.35-1.22-.3-1.79.05-.57.25-1.07.58-1.51.34-.44.8-.78,1.4-1.02.4-.16.8-.25,1.2-.26.4-.01.78.06,1.14.21.36.15.7.39,1,.72s.55.75.76,1.27l.19.46-5.13,2.06-.42-1.04,3.54-1.42c-.1-.24-.24-.44-.42-.58-.18-.14-.39-.23-.62-.26-.23-.03-.46,0-.71.1-.26.1-.46.25-.61.45-.15.19-.24.41-.27.65s0,.48.09.72l.4.99c.12.3.28.54.48.71s.43.28.68.31c.25.04.52,0,.8-.12.19-.08.35-.17.48-.29s.24-.25.3-.4c.07-.15.1-.31.1-.49l1.6-.52c.07.41.04.8-.09,1.18-.13.37-.36.72-.68,1.03s-.73.56-1.23.76h0ZM335.11,70.28l-2.44-6.08,1.63-.65.43,1.06.06-.03c-.04-.42.03-.78.21-1.08.18-.3.45-.52.79-.65.08-.03.18-.06.28-.09s.19-.05.27-.06l.6,1.5c-.09,0-.21.03-.35.07-.15.04-.28.08-.39.13-.25.1-.45.24-.6.43-.15.18-.24.39-.28.63-.04.23,0,.48.1.72l1.38,3.44-1.68.68v-.02h0ZM340.77,60.96l.51,1.27-3.66,1.47-.51-1.27,3.66-1.47ZM337.36,60.64l1.68-.68,2.27,5.66c.06.16.13.27.22.34.08.07.17.1.27.1s.21-.02.32-.07c.08-.03.15-.07.23-.11.07-.05.13-.08.17-.11l.77,1.15c-.07.06-.18.14-.32.23-.14.1-.32.2-.53.29-.4.18-.78.27-1.13.27s-.67-.1-.94-.29-.49-.49-.65-.89c0,0-2.36-5.89-2.36-5.89ZM347.14,56.05l3.25,8.1-1.71.69-2.6-6.47-.05.02-1.39,1.91-.61-1.52,1.5-2.07,1.61-.65h0Z"/>
  <path class="st9" d="M430.88,29.05l-2.82,8.26-1.75-.6,2.82-8.26,1.75.6ZM432.41,34.79l-1.22,3.58-1.72-.59,2.11-6.19,1.64.56-.37,1.09.07.02c.26-.31.59-.52.98-.62.4-.1.82-.08,1.28.08.43.15.77.37,1.03.67s.41.65.47,1.06,0,.85-.16,1.33l-1.35,3.94-1.72-.59,1.24-3.64c.13-.38.14-.71.01-.99-.12-.28-.36-.48-.7-.6-.23-.08-.45-.1-.66-.06-.21.04-.4.14-.56.3s-.29.37-.38.63v.02h.01ZM443.2,37.53l-1.61-.44c.02-.14,0-.28-.05-.42s-.14-.27-.26-.38c-.12-.12-.28-.21-.48-.28-.27-.09-.51-.11-.73-.06s-.36.16-.43.35c-.05.15-.03.29.05.44.08.14.26.29.52.45l1.04.61c.56.33.94.68,1.14,1.06s.23.79.07,1.23c-.14.41-.38.72-.72.95s-.75.35-1.22.38c-.47.03-.97-.05-1.51-.23-.82-.28-1.42-.67-1.79-1.18-.37-.51-.49-1.07-.37-1.69l1.72.49c-.03.27.02.5.18.7.15.2.38.35.69.45.3.1.56.13.79.07s.37-.17.44-.36c.05-.16.03-.31-.07-.45-.09-.15-.27-.29-.52-.44l-1-.58c-.56-.33-.94-.69-1.14-1.09-.19-.4-.21-.83-.05-1.29.14-.4.36-.7.67-.92.32-.21.7-.33,1.14-.35.45-.02.94.06,1.47.24.78.27,1.34.64,1.68,1.13.34.48.45,1.03.33,1.62h.02ZM445.69,43.46c-.64-.22-1.14-.53-1.51-.95-.37-.42-.59-.91-.68-1.47-.08-.56-.02-1.17.21-1.82.22-.64.53-1.15.94-1.55.41-.4.89-.65,1.43-.77.54-.11,1.12-.07,1.73.14.41.14.77.34,1.07.59.31.25.55.55.73.9.18.35.27.75.29,1.2.01.44-.07.93-.25,1.45l-.16.47-5.23-1.79.36-1.06,3.61,1.23c.09-.25.11-.48.06-.71-.04-.23-.14-.43-.29-.6s-.35-.3-.6-.39c-.26-.09-.51-.11-.76-.06-.24.05-.45.16-.63.32s-.31.36-.4.61l-.35,1.01c-.1.31-.14.59-.1.85s.14.49.31.68c.17.19.4.34.68.44.19.07.38.1.55.1.18,0,.34-.03.49-.1s.28-.17.39-.31l1.55.65c-.21.35-.49.63-.84.83-.34.2-.74.31-1.19.33-.44.02-.92-.05-1.43-.23h.02ZM449.7,44.69l2.11-6.19,1.67.57-.37,1.08.07.02c.24-.35.53-.57.87-.68.33-.11.67-.1,1.02.02.09.03.18.07.27.11.1.04.18.09.25.13l-.52,1.52c-.07-.05-.18-.11-.31-.18-.14-.07-.26-.12-.38-.16-.25-.09-.5-.11-.73-.07s-.44.14-.62.29-.31.36-.4.61l-1.2,3.5-1.72-.59v.02h0ZM460.07,41.32l-.44,1.29-3.73-1.27.44-1.29,3.73,1.27ZM457.69,38.85l1.72.59-1.97,5.78c-.05.16-.07.29-.05.4.02.1.07.19.14.25.08.07.17.12.29.16.08.03.16.05.25.06.09,0,.15.02.2.03l-.17,1.37c-.1,0-.23,0-.39-.03-.17-.02-.37-.06-.59-.13-.42-.13-.76-.3-1.03-.54-.27-.23-.44-.51-.52-.84-.08-.32-.05-.69.09-1.09l2.05-6h-.02ZM461.68,48.78l.43-1.26,3.87-1.72c.33-.16.62-.3.85-.44.24-.13.43-.28.59-.44.15-.16.27-.35.34-.56.08-.24.1-.47.05-.68-.05-.22-.15-.4-.31-.56s-.36-.28-.6-.37c-.25-.09-.49-.11-.71-.07s-.42.13-.59.29c-.17.16-.3.37-.39.63l-1.66-.57c.18-.54.47-.97.85-1.28.38-.31.83-.51,1.34-.57.52-.07,1.06,0,1.64.19.59.2,1.07.48,1.44.84s.62.76.73,1.21c.12.45.1.92-.07,1.39-.11.31-.27.6-.5.86-.22.26-.56.53-.99.79-.44.26-1.03.55-1.77.88l-1.61.77-.02.06,3.47,1.18-.49,1.43-5.89-2.01h0Z"/>
  <path class="st4" d="M198.29,127.53c12.89,15.55,21.09,34.45,23.65,54.49,2.56,20.04-.64,40.39-9.21,58.68s-22.17,33.77-39.21,44.62c-17.04,10.85-36.81,16.64-57.01,16.68-20.2.04-39.99-5.66-57.08-16.45-17.08-10.78-30.74-26.2-39.39-44.46-8.63-18.25-11.91-38.59-9.44-58.63,2.47-20.05,10.6-38.98,23.43-54.58l12.34,10.14c-10.9,13.26-17.81,29.35-19.91,46.4s.68,34.33,8.03,49.84c7.35,15.52,18.96,28.62,33.48,37.79,14.52,9.17,31.34,14.01,48.51,13.98,17.17-.04,33.98-4.95,48.46-14.18,14.48-9.23,26.04-22.38,33.32-37.93,7.29-15.55,10-32.85,7.83-49.88s-9.15-33.09-20.1-46.31l12.3-10.19h0Z"/>
  <path class="st9" d="M86.27,196h-3.09v-8.73h3.12c.88,0,1.63.17,2.27.52.63.35,1.12.85,1.46,1.5s.52,1.43.52,2.34-.17,1.69-.52,2.34c-.34.65-.83,1.15-1.47,1.5s-1.4.52-2.28.52h-.01ZM85.02,194.42h1.17c.55,0,1-.1,1.38-.29.38-.2.66-.5.84-.91.19-.41.29-.94.29-1.59s-.1-1.17-.29-1.58-.47-.71-.84-.9c-.37-.19-.83-.29-1.38-.29h-1.18v5.57h.01ZM94.86,196.13c-.67,0-1.25-.14-1.74-.41-.48-.28-.86-.66-1.12-1.17s-.39-1.1-.39-1.79.13-1.26.39-1.77c.26-.51.63-.9,1.1-1.19.48-.28,1.04-.43,1.68-.43.43,0,.83.07,1.21.21s.7.34.98.62c.28.28.5.62.66,1.04s.23.9.23,1.46v.5h-5.53v-1.12h3.82c0-.26-.06-.49-.17-.7-.11-.2-.27-.36-.47-.47-.2-.12-.43-.18-.69-.18s-.52.06-.73.19c-.21.12-.38.29-.49.51-.12.21-.18.44-.18.7v1.07c0,.32.06.6.18.84.12.24.29.42.52.54.22.13.48.19.79.19.2,0,.39-.03.55-.08.17-.06.31-.14.43-.26.12-.11.21-.25.27-.42l1.68.11c-.09.4-.26.76-.52,1.06-.26.3-.6.53-1.01.7-.41.16-.89.25-1.43.25h-.02ZM104.49,191.32l-1.66.1c-.03-.14-.09-.27-.18-.38-.09-.12-.22-.21-.37-.28-.15-.07-.33-.11-.54-.11-.28,0-.52.06-.71.18s-.29.27-.29.47c0,.16.06.29.19.4s.34.2.64.26l1.18.24c.64.13,1.11.34,1.42.63.31.29.47.67.47,1.14,0,.43-.13.8-.38,1.13-.25.32-.59.58-1.03.76-.43.18-.94.27-1.5.27-.87,0-1.56-.18-2.07-.54s-.81-.86-.9-1.48l1.79-.09c.05.26.18.47.39.61s.47.21.8.21.57-.06.77-.18.3-.29.3-.48c0-.16-.07-.3-.21-.4-.14-.11-.35-.19-.63-.25l-1.13-.23c-.64-.13-1.12-.35-1.43-.66-.31-.32-.46-.72-.46-1.21,0-.42.11-.78.34-1.09.23-.3.55-.54.97-.7s.91-.25,1.47-.25c.83,0,1.48.18,1.95.52.48.35.76.83.84,1.43l-.03-.02h0ZM109.27,189.46v1.36h-3.94v-1.36h3.94ZM106.22,187.89h1.82v6.1c0,.17.03.3.08.39s.12.15.21.19c.09.04.2.06.32.06.09,0,.17,0,.26-.02.09-.02.15-.03.2-.04l.29,1.35c-.09.03-.22.06-.38.1-.16.04-.37.06-.6.07-.44.02-.82-.04-1.15-.17s-.58-.34-.76-.62-.27-.64-.27-1.07v-6.34h-.02ZM110.45,196v-6.54h1.82v6.54h-1.82ZM111.36,188.61c-.27,0-.5-.09-.69-.27-.19-.18-.29-.4-.29-.65s.1-.46.29-.64.42-.27.69-.27.5.09.69.27c.19.18.29.39.29.64s-.1.47-.29.65-.42.27-.69.27ZM115.54,192.22v3.78h-1.82v-6.54h1.73v1.15h.08c.14-.38.39-.68.73-.9.34-.22.75-.34,1.24-.34.46,0,.85.1,1.19.3.34.2.6.48.79.85.19.37.28.8.28,1.31v4.17h-1.82v-3.84c0-.4-.1-.71-.31-.94s-.49-.34-.86-.34c-.24,0-.46.05-.65.16-.18.11-.33.26-.43.46-.1.2-.15.44-.16.72h0ZM123.05,196.12c-.42,0-.79-.07-1.12-.22s-.59-.37-.78-.65c-.19-.29-.28-.65-.28-1.08,0-.36.07-.67.2-.92s.32-.45.55-.6c.23-.15.49-.26.78-.34s.6-.13.93-.16c.38-.04.69-.08.92-.11.23-.04.4-.09.51-.16s.16-.18.16-.32v-.02c0-.27-.08-.48-.26-.63-.17-.15-.41-.22-.72-.22-.33,0-.59.07-.78.22-.19.14-.32.32-.38.54l-1.68-.14c.08-.4.25-.74.5-1.03s.57-.52.97-.67c.4-.16.86-.24,1.38-.24.36,0,.71.04,1.04.13.33.09.63.22.89.4s.47.41.62.69.23.61.23,1v4.41h-1.72v-.91h-.05c-.11.21-.25.39-.42.54-.18.15-.39.27-.63.36-.25.08-.53.13-.86.13h0ZM123.57,194.87c.27,0,.5-.05.71-.16s.37-.25.48-.43c.12-.18.18-.39.18-.62v-.69c-.06.04-.14.07-.24.1s-.21.06-.33.08-.24.04-.37.06c-.12.02-.23.03-.33.05-.21.03-.4.08-.56.15-.16.07-.28.16-.37.28-.09.11-.13.26-.13.43,0,.25.09.44.27.57s.41.19.69.19h0ZM131.63,189.46v1.36h-3.94v-1.36h3.94ZM128.58,187.89h1.82v6.1c0,.17.03.3.08.39s.12.15.21.19c.09.04.2.06.32.06.08,0,.17,0,.26-.02.09-.02.15-.03.2-.04l.28,1.35c-.09.03-.22.06-.38.1-.17.04-.37.06-.6.07-.44.02-.82-.04-1.15-.17s-.58-.34-.76-.62-.27-.64-.27-1.07v-6.34h-.01ZM132.81,196v-6.54h1.81v6.54h-1.81ZM133.72,188.61c-.27,0-.5-.09-.69-.27-.19-.18-.29-.4-.29-.65s.1-.46.29-.64.43-.27.69-.27.5.09.69.27c.19.18.29.39.29.64s-.1.47-.29.65-.42.27-.69.27ZM139.04,196.13c-.66,0-1.24-.14-1.72-.42-.48-.28-.85-.68-1.11-1.18-.26-.51-.39-1.1-.39-1.77s.13-1.27.39-1.77c.26-.51.63-.9,1.11-1.18.48-.28,1.06-.43,1.72-.43s1.23.14,1.71.43c.48.28.85.68,1.12,1.18.26.51.39,1.1.39,1.77s-.13,1.26-.39,1.77c-.26.51-.63.9-1.12,1.18-.48.28-1.05.42-1.71.42ZM139.04,194.72c.3,0,.55-.09.75-.26s.35-.41.46-.71c.1-.3.16-.64.16-1.02s-.05-.72-.16-1.02c-.1-.3-.25-.54-.46-.71-.2-.17-.45-.26-.75-.26s-.56.09-.77.26-.36.41-.46.71c-.1.3-.15.64-.15,1.02s.05.72.15,1.02c.11.3.26.53.46.71.21.17.46.26.77.26ZM145.25,192.22v3.78h-1.82v-6.54h1.73v1.15h.08c.14-.38.39-.68.73-.9s.75-.34,1.24-.34c.46,0,.85.1,1.19.3s.6.48.79.85c.19.37.28.8.28,1.31v4.17h-1.82v-3.84c0-.4-.1-.71-.31-.94-.21-.23-.49-.34-.86-.34-.24,0-.46.05-.65.16-.18.11-.33.26-.43.46-.1.2-.15.44-.16.72h.01ZM98.98,202.27l2.11,6.63h.08l2.11-6.63h2.05l-3.01,8.73h-2.38l-3.01-8.73s2.05,0,2.05,0ZM108.59,211.13c-.67,0-1.25-.14-1.74-.41-.48-.28-.86-.66-1.12-1.17s-.39-1.1-.39-1.79.13-1.26.39-1.77c.26-.51.63-.9,1.1-1.19.48-.28,1.04-.43,1.68-.43.43,0,.83.07,1.21.21s.7.34.98.62c.28.28.5.62.66,1.04s.24.9.24,1.46v.5h-5.53v-1.12h3.82c0-.26-.06-.49-.17-.7-.11-.2-.27-.36-.47-.47-.2-.12-.43-.18-.69-.18s-.52.06-.73.19c-.21.12-.38.29-.49.51-.12.21-.18.44-.18.7v1.07c0,.32.06.6.18.84.12.24.29.42.52.54.22.13.48.19.79.19.2,0,.39-.03.55-.08.17-.06.31-.14.43-.26.12-.11.21-.25.27-.42l1.68.11c-.08.4-.26.76-.52,1.06-.26.3-.6.53-1.01.7-.41.16-.89.25-1.43.25h-.03ZM115.73,211.13c-.67,0-1.25-.14-1.73-.43s-.85-.68-1.11-1.19c-.26-.51-.38-1.09-.38-1.76s.13-1.26.39-1.76c.26-.51.63-.9,1.11-1.19.48-.29,1.05-.43,1.71-.43.57,0,1.07.1,1.5.31.43.21.77.5,1.02.87s.39.82.41,1.32h-1.71c-.05-.33-.18-.59-.38-.79s-.47-.3-.81-.3c-.28,0-.53.08-.74.23s-.37.37-.49.66c-.12.29-.18.64-.18,1.05s.06.77.17,1.07c.12.29.28.51.49.67.21.15.46.23.74.23.21,0,.39-.04.56-.13.17-.08.31-.21.41-.37.11-.16.18-.36.22-.59h1.71c-.03.5-.17.94-.41,1.32-.24.38-.57.67-1,.89-.43.21-.93.32-1.51.32h.01ZM123.3,204.46v1.36h-3.94v-1.36h3.94ZM120.25,202.89h1.81v6.1c0,.17.03.3.08.39s.12.15.21.19c.09.04.2.06.32.06.08,0,.17,0,.26-.02.08-.02.15-.03.2-.04l.29,1.35c-.09.03-.22.06-.38.1-.17.04-.36.06-.6.07-.44.02-.82-.04-1.15-.17s-.58-.34-.76-.62-.27-.64-.27-1.07v-6.34h-.01ZM127.37,211.13c-.66,0-1.23-.14-1.72-.42-.48-.28-.85-.68-1.11-1.18-.26-.51-.39-1.1-.39-1.77s.13-1.27.39-1.77c.26-.51.63-.9,1.11-1.18s1.06-.43,1.72-.43,1.23.14,1.71.43c.48.28.86.68,1.12,1.18.26.51.39,1.1.39,1.77s-.13,1.26-.39,1.77c-.26.51-.63.9-1.12,1.18-.48.28-1.05.42-1.71.42ZM127.38,209.72c.3,0,.55-.09.75-.26s.35-.41.46-.71c.1-.3.16-.64.16-1.02s-.05-.72-.16-1.02c-.1-.3-.25-.54-.46-.71-.2-.17-.45-.26-.75-.26s-.56.09-.77.26c-.2.17-.36.41-.46.71s-.15.64-.15,1.02.05.72.15,1.02c.11.3.26.53.46.71.21.17.46.26.77.26ZM131.77,211v-6.54h1.76v1.14h.07c.12-.41.32-.71.6-.92.28-.21.61-.32.97-.32.09,0,.19,0,.29.02.11,0,.2.03.28.05v1.61c-.08-.03-.2-.05-.35-.07s-.29-.03-.41-.03c-.27,0-.51.06-.72.17s-.37.27-.49.48c-.12.21-.18.44-.18.71v3.7h-1.82Z"/>
  <path class="st4" d="M738.29,127.53c12.89,15.55,21.09,34.45,23.65,54.49s-.64,40.39-9.21,58.68-22.17,33.77-39.21,44.62c-17.03,10.85-36.81,16.64-57.01,16.68-20.2.04-39.99-5.66-57.07-16.45-17.08-10.78-30.74-26.2-39.39-44.46-8.65-18.26-11.93-38.59-9.45-58.64,2.47-20.05,10.6-38.98,23.42-54.58l12.34,10.14c-10.9,13.26-17.81,29.35-19.91,46.4-2.1,17.04.68,34.33,8.03,49.84,7.35,15.52,18.96,28.62,33.48,37.79,14.52,9.17,31.35,14.01,48.51,13.98,17.17-.04,33.98-4.95,48.46-14.18,14.48-9.23,26.04-22.38,33.33-37.93,7.29-15.55,10-32.85,7.83-49.88s-9.15-33.09-20.1-46.31l12.3-10.19h0Z"/>
  <path class="st7" d="M573.81,128.14c9.96-12.2,22.5-22.03,36.72-28.8,14.22-6.77,29.76-10.3,45.5-10.34,15.75-.04,31.31,3.41,45.56,10.11s26.84,16.47,36.86,28.61l-12.32,10.17c-8.52-10.32-19.22-18.63-31.33-24.32-12.11-5.69-25.34-8.62-38.72-8.59-13.38.04-26.59,3.04-38.68,8.79-12.08,5.75-22.74,14.11-31.21,24.48l-12.38-10.1h0Z"/>
  <path class="st5" d="M573.85,128.09c4.24-5.19,8.96-9.96,14.09-14.26l10.26,12.25c-4.36,3.65-8.38,7.71-11.98,12.12l-12.37-10.11h0Z"/>
  <path class="st10" d="M724.35,113.58c5.15,4.28,9.89,9.03,14.15,14.2l-12.33,10.16c-3.62-4.39-7.65-8.43-12.02-12.07l10.21-12.29h-.01Z"/>
  <path class="st8" d="M646.83,89.42c6.67-.6,13.38-.56,20.05.11l-1.59,15.9c-5.66-.57-11.37-.6-17.04-.09l-1.42-15.91h0Z"/>
  <path class="st9" d="M618.41,203v-8.73h5.78v1.52h-3.93v2.08h3.55v1.52h-3.55v3.6h-1.85ZM625.4,203v-6.54h1.82v6.54h-1.82ZM626.31,195.61c-.27,0-.5-.09-.69-.27-.19-.18-.29-.4-.29-.65s.1-.46.29-.64.42-.27.69-.27.5.09.69.27c.19.18.29.39.29.64s-.1.47-.29.65-.42.27-.69.27ZM630.48,199.22v3.78h-1.82v-6.54h1.73v1.15h.08c.15-.38.39-.68.73-.9.34-.22.75-.34,1.24-.34.45,0,.85.1,1.19.3s.6.48.79.85c.19.37.28.8.28,1.31v4.17h-1.82v-3.84c0-.4-.1-.71-.31-.94s-.49-.34-.86-.34c-.24,0-.46.05-.65.16-.18.11-.33.26-.43.46-.1.2-.16.44-.16.72h.01ZM638,203.12c-.42,0-.79-.07-1.12-.22s-.59-.37-.78-.65c-.19-.29-.28-.65-.28-1.08,0-.36.07-.67.2-.92s.32-.45.55-.6c.23-.15.49-.26.78-.34.3-.08.61-.13.93-.16.38-.04.69-.08.92-.11.23-.04.4-.09.51-.16s.16-.18.16-.32v-.02c0-.27-.09-.48-.26-.63-.17-.15-.41-.22-.71-.22-.33,0-.59.07-.78.22-.19.14-.32.32-.38.54l-1.68-.14c.09-.4.25-.74.5-1.03s.57-.52.97-.67c.4-.16.86-.24,1.38-.24.36,0,.71.04,1.04.13.33.09.63.22.89.4s.47.41.62.69.23.61.23,1v4.41h-1.72v-.91h-.05c-.1.21-.25.39-.42.54-.18.15-.39.27-.64.36-.25.08-.53.13-.86.13h0ZM638.52,201.87c.27,0,.5-.05.71-.16.2-.11.36-.25.48-.43s.17-.39.17-.62v-.69c-.06.04-.14.07-.23.1-.1.03-.21.06-.33.08s-.24.04-.37.06c-.12.02-.23.03-.33.05-.21.03-.4.08-.56.15-.16.07-.28.16-.37.28-.09.11-.13.26-.13.43,0,.25.09.44.27.57s.41.19.69.19h0ZM644.91,194.27v8.73h-1.82v-8.73h1.82ZM649.17,203v-8.73h3.44c.66,0,1.23.13,1.69.38.47.25.82.6,1.07,1.04.25.44.37.96.37,1.53s-.12,1.09-.38,1.53c-.25.44-.61.79-1.09,1.04-.47.25-1.04.37-1.71.37h-2.19v-1.48h1.9c.36,0,.65-.06.88-.18s.41-.3.52-.52c.12-.22.17-.48.17-.76s-.06-.54-.17-.76-.29-.39-.52-.51c-.23-.12-.53-.18-.89-.18h-1.24v7.22h-1.85ZM656.91,203v-6.54h1.76v1.14h.07c.12-.41.32-.71.6-.92.28-.21.6-.32.97-.32.09,0,.19,0,.29.02.1,0,.2.03.28.05v1.61c-.08-.03-.2-.05-.35-.07-.15-.02-.29-.03-.41-.03-.27,0-.51.06-.72.17-.21.11-.37.27-.49.48-.12.21-.18.44-.18.71v3.7h-1.82ZM664.47,203.13c-.66,0-1.23-.14-1.72-.42-.48-.28-.85-.68-1.11-1.18-.26-.51-.39-1.1-.39-1.77s.13-1.27.39-1.77c.26-.51.63-.9,1.11-1.18s1.05-.43,1.72-.43,1.23.14,1.71.43c.48.28.85.68,1.12,1.18.26.51.39,1.1.39,1.77s-.13,1.26-.39,1.77c-.26.51-.63.9-1.12,1.18-.48.28-1.05.42-1.71.42ZM664.48,201.72c.3,0,.55-.09.75-.26s.35-.41.46-.71c.11-.3.16-.64.16-1.02s-.05-.72-.16-1.02c-.1-.3-.25-.54-.46-.71-.2-.17-.45-.26-.75-.26s-.56.09-.77.26-.36.41-.46.71c-.1.3-.15.64-.15,1.02s.05.72.15,1.02c.1.3.26.53.46.71.21.17.46.26.77.26ZM671.28,203.11c-.5,0-.95-.13-1.35-.38-.4-.26-.72-.64-.95-1.14-.23-.5-.35-1.12-.35-1.85s.12-1.37.36-1.87.56-.87.96-1.12.85-.38,1.33-.38c.37,0,.67.06.92.19.25.12.45.27.6.46.15.18.27.36.35.54h.05v-3.28h1.81v8.73h-1.79v-1.05h-.08c-.08.18-.21.36-.36.54-.15.18-.35.32-.6.44-.24.12-.54.17-.9.17h0ZM671.86,201.66c.29,0,.54-.08.74-.24s.36-.39.47-.68.17-.63.17-1.02-.05-.73-.16-1.01c-.11-.29-.26-.51-.47-.66-.21-.16-.45-.23-.75-.23s-.55.08-.75.24c-.21.16-.36.39-.46.67-.11.29-.16.62-.16,1s.05.72.16,1.01.26.52.46.68c.21.16.46.24.75.24ZM680.7,200.21v-3.76h1.82v6.54h-1.74v-1.19h-.07c-.15.38-.39.69-.74.92-.34.23-.76.35-1.25.35-.44,0-.82-.1-1.15-.3s-.59-.48-.78-.85c-.18-.37-.28-.8-.28-1.32v-4.17h1.82v3.84c0,.39.11.69.31.92.2.22.48.34.82.34.22,0,.42-.05.61-.15.19-.1.34-.25.46-.45s.18-.44.17-.74v.02h0ZM686.92,203.13c-.67,0-1.25-.14-1.73-.43s-.85-.68-1.11-1.19c-.26-.51-.38-1.09-.38-1.76s.13-1.26.39-1.76c.26-.51.63-.9,1.11-1.19.48-.29,1.05-.43,1.71-.43.57,0,1.07.1,1.5.31.43.21.77.5,1.02.87s.39.82.41,1.32h-1.71c-.05-.33-.18-.59-.38-.79-.21-.2-.47-.3-.8-.3-.28,0-.53.08-.74.23-.21.15-.37.37-.48.66-.12.29-.17.64-.17,1.05s.06.77.17,1.07c.12.29.28.51.49.67.21.15.46.23.74.23.21,0,.39-.04.56-.13.17-.08.3-.21.41-.37.11-.16.18-.36.22-.59h1.71c-.03.5-.16.94-.41,1.32-.24.38-.58.67-1,.89-.43.21-.93.32-1.51.32h-.02ZM694.49,196.46v1.36h-3.94v-1.36h3.94ZM691.44,194.89h1.82v6.1c0,.17.03.3.08.39s.12.15.21.19c.09.04.2.06.32.06.09,0,.17,0,.26-.02s.15-.03.2-.04l.29,1.35c-.09.03-.22.06-.38.1-.17.04-.37.06-.6.07-.44.02-.82-.04-1.15-.17s-.58-.34-.76-.62-.27-.64-.27-1.07v-6.34h-.02Z"/>
  <path class="st9" d="M608.29,84.27v8.73h-1.85v-8.73s1.85,0,1.85,0ZM613.55,84.27v8.73h-1.84v-6.98h-.05l-2,1.25v-1.64l2.16-1.37h1.73Z"/>
  <path class="st9" d="M697.44,84.27v8.73h-1.85v-8.73s1.85,0,1.85,0ZM698.91,93v-1.33l3.11-2.88c.26-.26.49-.49.66-.69.18-.2.32-.4.41-.6.09-.2.14-.41.14-.64,0-.26-.06-.48-.17-.66-.12-.19-.28-.33-.48-.43-.2-.1-.43-.15-.69-.15s-.5.05-.7.16-.35.26-.46.46c-.11.2-.16.44-.16.72h-1.75c0-.57.13-1.07.39-1.49s.62-.75,1.09-.98c.47-.23,1-.35,1.61-.35s1.17.11,1.63.33c.47.22.83.52,1.09.91.26.39.39.84.39,1.34,0,.33-.07.65-.2.98-.13.32-.36.68-.69,1.07s-.79.86-1.39,1.4l-1.27,1.25v.06h3.66v1.51h-6.22Z"/>
  <line class="st3" x1="285.39" y1="109.36" x2="304.03" y2="127.87"/>
  <line class="st3" x1="468.29" y1="127.53" x2="507.62" y2="93.63"/>
  <g class="st2">
    <g class="st2">
      <text class="st1" transform="translate(55.78 325.02)"><tspan x="0" y="0">Linearized Destination</tspan></text>
    </g>
    <g class="st2">
      <text class="st0" transform="translate(55.78 325.02)"><tspan x="0" y="0">Linearized Destination</tspan></text>
    </g>
    <g class="st2">
      <text class="st1" transform="translate(97.54 339.42)"><tspan x="0" y="0">Vector</tspan></text>
    </g>
    <g class="st2">
      <text class="st0" transform="translate(97.54 339.42)"><tspan x="0" y="0">Vector</tspan></text>
    </g>
  </g>
  <g class="st2">
    <g class="st2">
      <text class="st1" transform="translate(344.18 325.02)"><tspan x="0" y="0">Overlap Directed</tspan></text>
    </g>
    <g class="st2">
      <text class="st0" transform="translate(344.18 325.02)"><tspan x="0" y="0">Overlap Directed</tspan></text>
    </g>
    <g class="st2">
      <text class="st1" transform="translate(361.86 339.42)"><tspan x="0" y="0">Assembly</tspan></text>
    </g>
    <g class="st2">
      <text class="st0" transform="translate(361.86 339.42)"><tspan x="0" y="0">Assembly</tspan></text>
    </g>
  </g>
  <g class="st2">
    <g class="st2">
      <text class="st1" transform="translate(608.24 331.43)"><tspan x="0" y="0">Assembled Plasmid</tspan></text>
    </g>
    <g class="st2">
      <text class="st0" transform="translate(608.24 331.43)"><tspan x="0" y="0">Assembled Plasmid</tspan></text>
    </g>
  </g>
</svg>