<?xml version="1.0" encoding="UTF-8"?>
<svg id="Layer_1" xmlns="http://www.w3.org/2000/svg" version="1.1" viewBox="0 0 763 336.72">
  <!-- Generator: Adobe Illustrator 29.5.1, SVG Export Plug-In . SVG Version: 2.1.0 Build 141)  -->
  <defs>
    <style>
      .st0 {
        fill: none;
        stroke: #231f20;
      }

      .st0, .st1, .st2, .st3 {
        isolation: isolate;
      }

      .st0, .st1, .st3 {
        font-family: Arial-Mdm, Arial;
        font-size: 12px;
        font-weight: 500;
      }

      .st0, .st3 {
        stroke-miterlimit: 10;
        stroke-width: .25px;
      }

      .st3 {
        stroke: #000;
      }

      .st4 {
        fill: #a8d8e8;
      }

      .st5 {
        fill: #3974ad;
      }

      .st6 {
        fill: #0b0755;
      }
    </style>
  </defs>
  <path class="st6" d="M269.5,190.72l-10-5.77v11.55l10-5.77ZM228,190.72v1h32.5v-2h-32.5v1Z"/>
  <path class="st6" d="M533.5,190.72l-10-5.77v11.55l10-5.77ZM492,190.72v1h32.5v-2h-32.5v1Z"/>
  <path class="st6" d="M349.47,189.72h-3.09v-8.73h3.12c.88,0,1.63.17,2.27.52.63.35,1.12.85,1.46,1.5.34.65.52,1.43.52,2.34s-.17,1.69-.52,2.34c-.34.65-.83,1.15-1.47,1.5-.64.35-1.4.52-2.28.52ZM348.23,188.14h1.17c.54,0,1-.1,1.38-.29.38-.2.66-.5.84-.91.19-.41.29-.94.29-1.59s-.1-1.17-.29-1.58c-.19-.41-.47-.71-.84-.9-.37-.19-.83-.29-1.38-.29h-1.18v5.57ZM358.06,189.85c-.67,0-1.25-.14-1.74-.41-.48-.28-.86-.66-1.12-1.17-.26-.51-.39-1.1-.39-1.79s.13-1.26.39-1.77c.26-.51.63-.9,1.1-1.19.48-.28,1.04-.43,1.68-.43.43,0,.83.07,1.2.21.38.14.7.34.98.62.28.28.5.62.66,1.04.16.42.23.9.23,1.46v.5h-5.53v-1.12h3.82c0-.26-.06-.49-.17-.7-.11-.2-.27-.36-.47-.47-.2-.12-.43-.18-.7-.18s-.52.06-.73.19c-.21.12-.38.29-.49.51-.12.21-.18.44-.18.7v1.07c0,.32.06.6.18.84.12.24.29.42.51.54.22.13.49.19.79.19.2,0,.39-.03.55-.08.17-.06.31-.14.43-.26.12-.11.21-.25.27-.42l1.68.11c-.08.4-.26.76-.52,1.06-.26.3-.6.53-1.01.7-.41.16-.89.25-1.43.25ZM367.69,185.05l-1.66.1c-.03-.14-.09-.27-.18-.38-.09-.12-.22-.21-.37-.28-.15-.07-.33-.11-.54-.11-.28,0-.52.06-.71.18-.19.12-.29.27-.29.47,0,.16.06.29.19.4s.34.2.64.26l1.18.24c.64.13,1.11.34,1.42.63.31.29.47.67.47,1.14,0,.43-.13.8-.38,1.13-.25.32-.59.58-1.03.76-.44.18-.94.27-1.51.27-.87,0-1.56-.18-2.07-.54-.51-.36-.81-.86-.9-1.48l1.79-.09c.05.26.18.47.39.61.21.14.47.21.8.21s.57-.06.77-.18c.2-.12.29-.29.3-.48,0-.16-.07-.3-.21-.4-.14-.11-.35-.19-.63-.25l-1.13-.23c-.64-.13-1.11-.35-1.43-.66-.31-.32-.46-.72-.46-1.21,0-.42.11-.78.34-1.09.23-.3.55-.54.97-.7.42-.16.91-.25,1.47-.25.83,0,1.48.18,1.95.52.48.35.76.83.83,1.43ZM372.47,183.18v1.36h-3.94v-1.36h3.94ZM369.42,181.61h1.82v6.1c0,.17.03.3.08.39.05.09.12.15.21.19.09.04.2.06.32.06.08,0,.17,0,.26-.02.09-.02.15-.03.2-.04l.29,1.35c-.09.03-.22.06-.38.1-.16.04-.36.06-.6.07-.44.02-.82-.04-1.15-.17-.33-.13-.58-.34-.76-.62-.18-.28-.27-.64-.27-1.07v-6.34ZM373.65,189.72v-6.54h1.82v6.54h-1.82ZM374.56,182.34c-.27,0-.5-.09-.69-.27-.19-.18-.29-.4-.29-.65s.1-.46.29-.64c.19-.18.42-.27.69-.27s.5.09.69.27c.19.18.29.39.29.64s-.1.47-.29.65c-.19.18-.42.27-.69.27ZM378.73,185.94v3.78h-1.81v-6.54h1.73v1.15h.08c.14-.38.39-.68.73-.9.34-.22.76-.34,1.24-.34.45,0,.85.1,1.19.3.34.2.6.48.79.85.19.37.28.8.28,1.31v4.17h-1.82v-3.84c0-.4-.1-.71-.31-.94-.21-.23-.49-.34-.86-.34-.24,0-.46.05-.65.16-.18.11-.33.26-.43.46-.1.2-.15.44-.16.72ZM386.25,189.85c-.42,0-.79-.07-1.12-.22-.33-.15-.59-.37-.78-.65-.19-.29-.28-.65-.28-1.08,0-.36.07-.67.2-.92.13-.25.31-.45.55-.6.23-.15.49-.26.78-.34.3-.08.61-.13.93-.16.38-.04.69-.08.92-.11.23-.04.4-.09.51-.16.11-.07.16-.18.16-.32v-.02c0-.27-.09-.48-.26-.63-.17-.15-.41-.22-.72-.22-.33,0-.59.07-.78.22-.19.14-.32.32-.38.54l-1.68-.14c.08-.4.25-.74.5-1.03.25-.29.57-.52.97-.67.4-.16.86-.24,1.38-.24.36,0,.71.04,1.04.13.33.09.63.22.89.4.26.18.47.41.62.69.15.28.23.61.23,1v4.41h-1.72v-.91h-.05c-.11.21-.24.39-.42.54-.18.15-.39.27-.64.36-.25.08-.53.13-.86.13ZM386.77,188.6c.27,0,.5-.05.71-.16.21-.11.36-.25.48-.43.12-.18.18-.39.18-.62v-.69c-.06.04-.14.07-.24.1-.1.03-.21.06-.33.08-.12.02-.24.04-.37.06-.12.02-.23.03-.33.05-.21.03-.4.08-.56.15-.16.07-.28.16-.37.28-.09.11-.13.26-.13.43,0,.25.09.44.27.57.18.13.41.19.69.19ZM394.83,183.18v1.36h-3.94v-1.36h3.94ZM391.78,181.61h1.82v6.1c0,.17.02.3.08.39.05.09.12.15.21.19.09.04.2.06.32.06.08,0,.17,0,.26-.02.08-.02.15-.03.2-.04l.29,1.35c-.09.03-.22.06-.38.1-.16.04-.36.06-.6.07-.44.02-.82-.04-1.15-.17-.33-.13-.58-.34-.76-.62-.18-.28-.27-.64-.27-1.07v-6.34ZM396.01,189.72v-6.54h1.82v6.54h-1.82ZM396.92,182.34c-.27,0-.5-.09-.7-.27-.19-.18-.29-.4-.29-.65s.1-.46.29-.64c.19-.18.43-.27.7-.27s.5.09.69.27c.19.18.29.39.29.64s-.1.47-.29.65c-.19.18-.42.27-.69.27ZM402.24,189.85c-.66,0-1.23-.14-1.72-.42-.48-.28-.85-.68-1.11-1.18-.26-.51-.39-1.1-.39-1.77s.13-1.27.39-1.77c.26-.51.63-.9,1.11-1.18.48-.28,1.06-.43,1.72-.43s1.23.14,1.71.43c.48.28.85.68,1.12,1.18.26.51.39,1.1.39,1.77s-.13,1.26-.39,1.77c-.26.51-.63.9-1.12,1.18-.48.28-1.05.42-1.71.42ZM402.24,188.45c.3,0,.55-.09.75-.26.2-.17.35-.41.46-.71.11-.3.16-.64.16-1.02s-.05-.72-.16-1.02c-.1-.3-.25-.54-.46-.71-.2-.17-.45-.26-.75-.26s-.56.09-.77.26c-.2.17-.36.41-.46.71-.1.3-.15.64-.15,1.02s.05.72.15,1.02c.11.3.26.53.46.71.21.17.46.26.77.26ZM408.45,185.94v3.78h-1.82v-6.54h1.73v1.15h.08c.14-.38.39-.68.73-.9.34-.22.75-.34,1.24-.34.45,0,.85.1,1.19.3.34.2.6.48.79.85.19.37.28.8.28,1.31v4.17h-1.82v-3.84c0-.4-.1-.71-.31-.94-.21-.23-.49-.34-.86-.34-.24,0-.46.05-.65.16-.18.11-.33.26-.43.46-.1.2-.15.44-.16.72ZM362.18,196l2.11,6.63h.08l2.11-6.63h2.05l-3.01,8.73h-2.38l-3.01-8.73h2.05ZM371.79,204.85c-.67,0-1.25-.14-1.74-.41-.48-.28-.86-.66-1.12-1.17-.26-.51-.39-1.1-.39-1.79s.13-1.26.39-1.77c.26-.51.63-.9,1.1-1.19.48-.28,1.04-.43,1.68-.43.43,0,.83.07,1.21.21.38.14.7.34.98.62.28.28.5.62.66,1.04.16.42.23.9.23,1.46v.5h-5.53v-1.12h3.82c0-.26-.06-.49-.17-.7-.11-.2-.27-.36-.47-.47-.2-.12-.43-.18-.69-.18s-.52.06-.73.19c-.21.12-.38.29-.49.51-.12.21-.18.44-.18.7v1.07c0,.32.06.6.18.84.12.24.29.42.52.54.22.13.48.19.79.19.2,0,.39-.03.55-.08.17-.06.31-.14.43-.26.12-.11.21-.25.27-.42l1.68.11c-.08.4-.26.76-.52,1.06-.26.3-.6.53-1.01.7-.41.16-.89.25-1.43.25ZM378.93,204.85c-.67,0-1.25-.14-1.73-.43-.48-.29-.85-.68-1.11-1.19-.26-.51-.38-1.09-.38-1.76s.13-1.26.39-1.76c.26-.51.63-.9,1.11-1.19.48-.29,1.05-.43,1.71-.43.57,0,1.07.1,1.5.31.43.21.77.5,1.02.87s.39.82.41,1.32h-1.71c-.05-.33-.18-.59-.38-.79-.2-.2-.47-.3-.81-.3-.28,0-.53.08-.74.23-.21.15-.37.37-.49.66-.12.29-.17.64-.17,1.05s.06.77.17,1.07c.12.29.28.51.49.67.21.15.46.23.74.23.21,0,.39-.04.56-.13.17-.08.31-.21.41-.37.11-.16.18-.36.22-.59h1.71c-.03.5-.17.94-.41,1.32-.24.38-.58.67-1,.89-.43.21-.93.32-1.51.32ZM386.5,198.18v1.36h-3.94v-1.36h3.94ZM383.45,196.61h1.82v6.1c0,.17.03.3.08.39.05.09.12.15.21.19.09.04.2.06.32.06.08,0,.17,0,.26-.02.08-.02.15-.03.2-.04l.29,1.35c-.09.03-.22.06-.38.1-.17.04-.36.06-.6.07-.44.02-.82-.04-1.15-.17-.33-.13-.58-.34-.76-.62-.18-.28-.27-.64-.27-1.07v-6.34ZM390.57,204.85c-.66,0-1.23-.14-1.72-.42-.48-.28-.85-.68-1.11-1.18-.26-.51-.39-1.1-.39-1.77s.13-1.27.39-1.77c.26-.51.63-.9,1.11-1.18.48-.28,1.06-.43,1.72-.43s1.23.14,1.71.43c.48.28.86.68,1.12,1.18.26.51.39,1.1.39,1.77s-.13,1.26-.39,1.77c-.26.51-.63.9-1.12,1.18-.48.28-1.05.42-1.71.42ZM390.58,203.45c.3,0,.55-.09.75-.26.2-.17.35-.41.46-.71.11-.3.16-.64.16-1.02s-.05-.72-.16-1.02c-.1-.3-.25-.54-.46-.71-.2-.17-.45-.26-.75-.26s-.56.09-.77.26c-.21.17-.36.41-.47.71-.1.3-.15.64-.15,1.02s.05.72.15,1.02c.11.3.26.53.47.71.21.17.46.26.77.26ZM394.97,204.72v-6.54h1.76v1.14h.07c.12-.41.32-.71.6-.92.28-.21.61-.32.97-.32.09,0,.19,0,.29.02.11.01.2.03.28.05v1.61c-.08-.03-.2-.05-.35-.07-.15-.02-.29-.03-.41-.03-.27,0-.51.06-.72.17-.21.11-.37.27-.49.48-.12.21-.18.44-.18.71v3.7h-1.82Z"/>
  <path class="st6" d="M86.47,189.72h-3.09v-8.73h3.12c.88,0,1.63.17,2.27.52.63.35,1.12.85,1.46,1.5.34.65.52,1.43.52,2.34s-.17,1.69-.52,2.34c-.34.65-.83,1.15-1.47,1.5-.64.35-1.4.52-2.28.52ZM85.22,188.14h1.17c.55,0,1-.1,1.38-.29.38-.2.66-.5.84-.91.19-.41.29-.94.29-1.59s-.1-1.17-.29-1.58c-.19-.41-.47-.71-.84-.9-.37-.19-.83-.29-1.38-.29h-1.18v5.57ZM95.06,189.85c-.67,0-1.25-.14-1.74-.41-.48-.28-.86-.66-1.12-1.17-.26-.51-.39-1.1-.39-1.79s.13-1.26.39-1.77c.26-.51.63-.9,1.1-1.19.48-.28,1.04-.43,1.68-.43.43,0,.83.07,1.21.21.38.14.7.34.98.62.28.28.5.62.66,1.04.16.42.23.9.23,1.46v.5h-5.53v-1.12h3.82c0-.26-.06-.49-.17-.7-.11-.2-.27-.36-.47-.47-.2-.12-.43-.18-.69-.18s-.52.06-.73.19c-.21.12-.38.29-.49.51-.12.21-.18.44-.18.7v1.07c0,.32.06.6.18.84.12.24.29.42.52.54.22.13.48.19.79.19.2,0,.39-.03.55-.08.17-.06.31-.14.43-.26.12-.11.21-.25.27-.42l1.68.11c-.09.4-.26.76-.52,1.06-.26.3-.6.53-1.01.7-.41.16-.89.25-1.43.25ZM104.69,185.05l-1.66.1c-.03-.14-.09-.27-.18-.38-.09-.12-.22-.21-.37-.28-.15-.07-.33-.11-.54-.11-.28,0-.52.06-.71.18-.19.12-.29.27-.29.47,0,.16.06.29.19.4s.34.2.64.26l1.18.24c.64.13,1.11.34,1.42.63.31.29.47.67.47,1.14,0,.43-.13.8-.38,1.13-.25.32-.59.58-1.03.76-.43.18-.94.27-1.5.27-.87,0-1.56-.18-2.07-.54-.51-.36-.81-.86-.9-1.48l1.79-.09c.05.26.18.47.39.61.21.14.47.21.8.21s.57-.06.77-.18c.2-.12.3-.29.3-.48,0-.16-.07-.3-.21-.4-.14-.11-.35-.19-.63-.25l-1.13-.23c-.64-.13-1.12-.35-1.43-.66-.31-.32-.46-.72-.46-1.21,0-.42.11-.78.34-1.09.23-.3.55-.54.97-.7.42-.16.91-.25,1.47-.25.83,0,1.48.18,1.95.52.48.35.76.83.84,1.43ZM109.47,183.18v1.36h-3.94v-1.36h3.94ZM106.42,181.61h1.82v6.1c0,.17.03.3.08.39.05.09.12.15.21.19.09.04.2.06.32.06.09,0,.17,0,.26-.02.09-.02.15-.03.2-.04l.29,1.35c-.09.03-.22.06-.38.1-.16.04-.37.06-.6.07-.44.02-.82-.04-1.15-.17-.33-.13-.58-.34-.76-.62-.18-.28-.27-.64-.27-1.07v-6.34ZM110.65,189.72v-6.54h1.82v6.54h-1.82ZM111.56,182.34c-.27,0-.5-.09-.69-.27-.19-.18-.29-.4-.29-.65s.1-.46.29-.64c.19-.18.42-.27.69-.27s.5.09.69.27c.19.18.29.39.29.64s-.1.47-.29.65c-.19.18-.42.27-.69.27ZM115.74,185.94v3.78h-1.82v-6.54h1.73v1.15h.08c.14-.38.39-.68.73-.9.34-.22.75-.34,1.24-.34.46,0,.85.1,1.19.3.34.2.6.48.79.85.19.37.28.8.28,1.31v4.17h-1.82v-3.84c0-.4-.1-.71-.31-.94-.21-.23-.49-.34-.86-.34-.24,0-.46.05-.65.16-.18.11-.33.26-.43.46-.1.2-.15.44-.16.72ZM123.25,189.85c-.42,0-.79-.07-1.12-.22-.33-.15-.59-.37-.78-.65-.19-.29-.28-.65-.28-1.08,0-.36.07-.67.2-.92.13-.25.32-.45.55-.6.23-.15.49-.26.78-.34.29-.08.6-.13.93-.16.38-.04.69-.08.92-.11.23-.04.4-.09.51-.16.11-.07.16-.18.16-.32v-.02c0-.27-.08-.48-.26-.63-.17-.15-.41-.22-.72-.22-.33,0-.59.07-.78.22-.19.14-.32.32-.38.54l-1.68-.14c.08-.4.25-.74.5-1.03.25-.29.57-.52.97-.67.4-.16.86-.24,1.38-.24.36,0,.71.04,1.04.13.33.09.63.22.89.4.26.18.47.41.62.69.15.28.23.61.23,1v4.41h-1.72v-.91h-.05c-.11.21-.25.39-.42.54-.18.15-.39.27-.63.36-.25.08-.53.13-.86.13ZM123.77,188.6c.27,0,.5-.05.71-.16.21-.11.37-.25.48-.43.12-.18.18-.39.18-.62v-.69c-.06.04-.14.07-.24.1-.1.03-.21.06-.33.08-.12.02-.24.04-.37.06-.12.02-.23.03-.33.05-.21.03-.4.08-.56.15-.16.07-.28.16-.37.28-.09.11-.13.26-.13.43,0,.25.09.44.27.57.18.13.41.19.69.19ZM131.83,183.18v1.36h-3.94v-1.36h3.94ZM128.78,181.61h1.82v6.1c0,.17.03.3.08.39.05.09.12.15.21.19.09.04.2.06.32.06.08,0,.17,0,.26-.02.09-.02.15-.03.2-.04l.28,1.35c-.09.03-.22.06-.38.1-.17.04-.37.06-.6.07-.44.02-.82-.04-1.15-.17-.33-.13-.58-.34-.76-.62-.18-.28-.27-.64-.27-1.07v-6.34ZM133.01,189.72v-6.54h1.81v6.54h-1.81ZM133.92,182.34c-.27,0-.5-.09-.69-.27-.19-.18-.29-.4-.29-.65s.1-.46.29-.64c.19-.18.43-.27.69-.27s.5.09.69.27c.19.18.29.39.29.64s-.1.47-.29.65c-.19.18-.42.27-.69.27ZM139.24,189.85c-.66,0-1.24-.14-1.72-.42-.48-.28-.85-.68-1.11-1.18-.26-.51-.39-1.1-.39-1.77s.13-1.27.39-1.77c.26-.51.63-.9,1.11-1.18.48-.28,1.06-.43,1.72-.43s1.23.14,1.71.43c.48.28.85.68,1.12,1.18.26.51.39,1.1.39,1.77s-.13,1.26-.39,1.77c-.26.51-.63.9-1.12,1.18-.48.28-1.05.42-1.71.42ZM139.24,188.45c.3,0,.55-.09.75-.26.2-.17.35-.41.46-.71.1-.3.16-.64.16-1.02s-.05-.72-.16-1.02c-.1-.3-.25-.54-.46-.71-.2-.17-.45-.26-.75-.26s-.56.09-.77.26c-.21.17-.36.41-.46.71-.1.3-.15.64-.15,1.02s.05.72.15,1.02c.11.3.26.53.46.71.21.17.46.26.77.26ZM145.45,185.94v3.78h-1.82v-6.54h1.73v1.15h.08c.14-.38.39-.68.73-.9.34-.22.75-.34,1.24-.34.46,0,.85.1,1.19.3.34.2.6.48.79.85.19.37.28.8.28,1.31v4.17h-1.82v-3.84c0-.4-.1-.71-.31-.94-.21-.23-.49-.34-.86-.34-.24,0-.46.05-.65.16-.18.11-.33.26-.43.46-.1.2-.15.44-.16.72ZM99.18,196l2.11,6.63h.08l2.11-6.63h2.05l-3.01,8.73h-2.38l-3.01-8.73h2.05ZM108.79,204.85c-.67,0-1.25-.14-1.74-.41-.48-.28-.86-.66-1.12-1.17-.26-.51-.39-1.1-.39-1.79s.13-1.26.39-1.77c.26-.51.63-.9,1.1-1.19.48-.28,1.04-.43,1.68-.43.43,0,.83.07,1.21.21.38.14.7.34.98.62.28.28.5.62.66,1.04.16.42.24.9.24,1.46v.5h-5.53v-1.12h3.82c0-.26-.06-.49-.17-.7-.11-.2-.27-.36-.47-.47-.2-.12-.43-.18-.69-.18s-.52.06-.73.19c-.21.12-.38.29-.49.51-.12.21-.18.44-.18.7v1.07c0,.32.06.6.18.84.12.24.29.42.52.54.22.13.48.19.79.19.2,0,.39-.03.55-.08.17-.06.31-.14.43-.26.12-.11.21-.25.27-.42l1.68.11c-.08.4-.26.76-.52,1.06-.26.3-.6.53-1.01.7-.41.16-.89.25-1.43.25ZM115.93,204.85c-.67,0-1.25-.14-1.73-.43-.48-.29-.85-.68-1.11-1.19-.26-.51-.38-1.09-.38-1.76s.13-1.26.39-1.76c.26-.51.63-.9,1.11-1.19.48-.29,1.05-.43,1.71-.43.57,0,1.07.1,1.5.31.43.21.77.5,1.02.87s.39.82.41,1.32h-1.71c-.05-.33-.18-.59-.38-.79-.2-.2-.47-.3-.81-.3-.28,0-.53.08-.74.23-.21.15-.37.37-.49.66-.12.29-.18.64-.18,1.05s.06.77.17,1.07c.12.29.28.51.49.67.21.15.46.23.74.23.21,0,.39-.04.56-.13.17-.08.31-.21.41-.37.11-.16.18-.36.22-.59h1.71c-.03.5-.17.94-.41,1.32-.24.38-.57.67-1,.89-.43.21-.93.32-1.51.32ZM123.5,198.18v1.36h-3.94v-1.36h3.94ZM120.45,196.61h1.81v6.1c0,.17.03.3.08.39.05.09.12.15.21.19.09.04.2.06.32.06.08,0,.17,0,.26-.02.08-.02.15-.03.2-.04l.29,1.35c-.09.03-.22.06-.38.1-.17.04-.36.06-.6.07-.44.02-.82-.04-1.15-.17-.33-.13-.58-.34-.76-.62-.18-.28-.27-.64-.27-1.07v-6.34ZM127.57,204.85c-.66,0-1.23-.14-1.72-.42-.48-.28-.85-.68-1.11-1.18-.26-.51-.39-1.1-.39-1.77s.13-1.27.39-1.77c.26-.51.63-.9,1.11-1.18.48-.28,1.06-.43,1.72-.43s1.23.14,1.71.43c.48.28.86.68,1.12,1.18.26.51.39,1.1.39,1.77s-.13,1.26-.39,1.77c-.26.51-.63.9-1.12,1.18-.48.28-1.05.42-1.71.42ZM127.58,203.45c.3,0,.55-.09.75-.26.2-.17.35-.41.46-.71.1-.3.16-.64.16-1.02s-.05-.72-.16-1.02c-.1-.3-.25-.54-.46-.71-.2-.17-.45-.26-.75-.26s-.56.09-.77.26c-.2.17-.36.41-.46.71-.1.3-.15.64-.15,1.02s.05.72.15,1.02c.11.3.26.53.46.71.21.17.46.26.77.26ZM131.97,204.72v-6.54h1.76v1.14h.07c.12-.41.32-.71.6-.92.28-.21.61-.32.97-.32.09,0,.19,0,.29.02.11.01.2.03.28.05v1.61c-.08-.03-.2-.05-.35-.07-.15-.02-.29-.03-.41-.03-.27,0-.51.06-.72.17-.21.11-.37.27-.49.48-.12.21-.18.44-.18.71v3.7h-1.82Z"/>
  <g>
    <path class="st4" d="M748.46,205.25c-4.3,24.99-17.37,47.63-36.87,63.84-19.5,16.21-44.14,24.94-69.5,24.61-25.35-.33-49.76-9.7-68.82-26.42-19.06-16.72-31.54-39.7-35.17-64.79l15.81-2.29c3.09,21.33,13.69,40.86,29.9,55.07,16.2,14.21,36.95,22.18,58.5,22.46,21.55.28,42.5-7.13,59.07-20.91,16.57-13.78,27.68-33.02,31.34-54.27l15.74,2.71Z"/>
    <path class="st4" d="M537.1,182.63c.77-17.92,6.06-35.36,15.37-50.69l13.65,8.29c-7.91,13.03-12.41,27.85-13.06,43.09l-15.96-.69Z"/>
    <path class="st4" d="M564.13,116.2c11.96-13.37,27.11-23.5,44.03-29.45l5.3,15.07c-14.38,5.06-27.26,13.67-37.42,25.03l-11.91-10.65Z"/>
    <path class="st4" d="M619.97,83.34c17.5-3.96,35.71-3.44,52.95,1.51l-4.41,15.35c-14.65-4.21-30.14-4.65-45.01-1.29l-3.53-15.58Z"/>
    <path class="st4" d="M682.49,88.11c16.69,6.57,31.46,17.25,42.92,31.04l-12.29,10.21c-9.74-11.73-22.29-20.81-36.48-26.39l5.85-14.86Z"/>
    <path class="st4" d="M736.08,134.58c8.87,15.59,13.65,33.18,13.91,51.11l-15.97.23c-.22-15.25-4.28-30.19-11.82-43.45l13.89-7.9Z"/>
    <path class="st4" d="M538.13,202.67c-.97-6.63-1.32-13.33-1.03-20.02l15.96.68c-.24,5.69.05,11.38.88,17.02l-15.81,2.32Z"/>
    <path class="st4" d="M552.31,132.2c3.46-5.73,7.45-11.13,11.92-16.11l11.89,10.67c-3.8,4.24-7.2,8.82-10.14,13.7l-13.68-8.25Z"/>
    <path class="st4" d="M601.09,89.52c6.14-2.67,12.52-4.75,19.06-6.22l3.5,15.59c-5.55,1.25-10.98,3.02-16.2,5.29l-6.36-14.65Z"/>
    <path class="st4" d="M724.9,118.54c4.32,5.12,8.14,10.63,11.43,16.47l-13.92,7.83c-2.79-4.96-6.04-9.65-9.71-14l12.21-10.3Z"/>
    <path class="st4" d="M749.98,185.2c.13,6.7-.38,13.39-1.51,19.99l-15.75-2.7c.96-5.61,1.39-11.3,1.28-16.99l15.97-.3Z"/>
    <path class="st4" d="M672.12,84.63c6.45,1.8,12.72,4.2,18.71,7.18l-7.1,14.31c-5.1-2.53-10.42-4.57-15.91-6.1l4.29-15.39Z"/>
  </g>
  <path class="st6" d="M605.61,189.72v-8.73h5.78v1.52h-3.93v2.08h3.55v1.52h-3.55v3.6h-1.85ZM612.6,189.72v-6.54h1.82v6.54h-1.82ZM613.51,182.34c-.27,0-.5-.09-.69-.27-.19-.18-.29-.4-.29-.65s.1-.46.29-.64c.19-.18.42-.27.69-.27s.5.09.69.27c.19.18.29.39.29.64s-.1.47-.29.65c-.19.18-.42.27-.69.27ZM617.68,185.94v3.78h-1.82v-6.54h1.73v1.15h.08c.15-.38.39-.68.73-.9.34-.22.75-.34,1.24-.34.45,0,.85.1,1.19.3.34.2.6.48.79.85.19.37.28.8.28,1.31v4.17h-1.82v-3.84c0-.4-.1-.71-.31-.94-.21-.23-.49-.34-.86-.34-.24,0-.46.05-.65.16-.18.11-.33.26-.43.46-.1.2-.16.44-.16.72ZM625.2,189.85c-.42,0-.79-.07-1.12-.22-.33-.15-.59-.37-.78-.65-.19-.29-.28-.65-.28-1.08,0-.36.07-.67.2-.92.13-.25.32-.45.55-.6.23-.15.49-.26.78-.34.3-.08.61-.13.93-.16.38-.04.69-.08.92-.11.23-.04.4-.09.51-.16.11-.07.16-.18.16-.32v-.02c0-.27-.09-.48-.26-.63-.17-.15-.41-.22-.71-.22-.33,0-.59.07-.78.22-.19.14-.32.32-.38.54l-1.68-.14c.09-.4.25-.74.5-1.03.25-.29.57-.52.97-.67.4-.16.86-.24,1.38-.24.36,0,.71.04,1.04.13.33.09.63.22.89.4.26.18.47.41.62.69.15.28.23.61.23,1v4.41h-1.72v-.91h-.05c-.1.21-.25.39-.42.54-.18.15-.39.27-.64.36-.25.08-.53.13-.86.13ZM625.72,188.6c.27,0,.5-.05.71-.16.2-.11.36-.25.48-.43.12-.18.17-.39.17-.62v-.69c-.06.04-.14.07-.23.1-.1.03-.21.06-.33.08-.12.02-.24.04-.37.06-.12.02-.23.03-.33.05-.21.03-.4.08-.56.15-.16.07-.28.16-.37.28-.09.11-.13.26-.13.43,0,.25.09.44.27.57.18.13.41.19.69.19ZM632.11,181v8.73h-1.82v-8.73h1.82ZM636.37,189.72v-8.73h3.44c.66,0,1.23.13,1.69.38.47.25.82.6,1.07,1.04.25.44.37.96.37,1.53s-.12,1.09-.38,1.53c-.25.44-.61.79-1.09,1.04-.47.25-1.04.37-1.71.37h-2.19v-1.48h1.9c.36,0,.65-.06.88-.18.23-.12.41-.3.52-.52.12-.22.17-.48.17-.76s-.06-.54-.17-.76c-.11-.22-.29-.39-.52-.51-.23-.12-.53-.18-.89-.18h-1.24v7.22h-1.84ZM644.11,189.72v-6.54h1.76v1.14h.07c.12-.41.32-.71.6-.92.28-.21.6-.32.97-.32.09,0,.19,0,.29.02.1.01.2.03.28.05v1.61c-.08-.03-.2-.05-.35-.07-.15-.02-.29-.03-.41-.03-.27,0-.51.06-.72.17-.21.11-.37.27-.49.48-.12.21-.18.44-.18.71v3.7h-1.82ZM651.67,189.85c-.66,0-1.23-.14-1.72-.42-.48-.28-.85-.68-1.11-1.18-.26-.51-.39-1.1-.39-1.77s.13-1.27.39-1.77c.26-.51.63-.9,1.11-1.18.48-.28,1.05-.43,1.72-.43s1.23.14,1.71.43c.48.28.85.68,1.12,1.18.26.51.39,1.1.39,1.77s-.13,1.26-.39,1.77c-.26.51-.63.9-1.12,1.18-.48.28-1.05.42-1.71.42ZM651.68,188.45c.3,0,.55-.09.75-.26.2-.17.35-.41.46-.71.11-.3.16-.64.16-1.02s-.05-.72-.16-1.02c-.1-.3-.25-.54-.46-.71-.2-.17-.45-.26-.75-.26s-.56.09-.77.26c-.21.17-.36.41-.46.71-.1.3-.15.64-.15,1.02s.05.72.15,1.02c.1.3.26.53.46.71.21.17.46.26.77.26ZM658.48,189.83c-.5,0-.95-.13-1.35-.38-.4-.26-.72-.64-.95-1.14-.23-.5-.35-1.12-.35-1.85s.12-1.37.36-1.87c.24-.5.56-.87.96-1.12.4-.25.85-.38,1.33-.38.37,0,.67.06.92.19.25.12.45.27.6.46.15.18.27.36.35.54h.05v-3.28h1.81v8.73h-1.79v-1.05h-.08c-.08.18-.21.36-.36.54-.15.18-.35.32-.6.44-.24.12-.54.17-.9.17ZM659.06,188.39c.29,0,.54-.08.74-.24.2-.16.36-.39.47-.68.11-.29.17-.63.17-1.02s-.05-.73-.16-1.01c-.11-.29-.26-.51-.47-.66-.21-.16-.45-.23-.75-.23s-.55.08-.75.24c-.21.16-.36.39-.46.67-.11.29-.16.62-.16,1s.05.72.16,1.01c.11.29.26.52.46.68.21.16.46.24.75.24ZM667.9,186.94v-3.76h1.82v6.54h-1.74v-1.19h-.07c-.15.38-.39.69-.74.92-.34.23-.76.35-1.25.35-.44,0-.82-.1-1.15-.3-.33-.2-.59-.48-.78-.85-.18-.37-.28-.8-.28-1.32v-4.17h1.82v3.84c0,.39.11.69.31.92.2.22.48.34.82.34.22,0,.42-.05.61-.15.19-.1.34-.25.46-.45.12-.2.18-.44.17-.74ZM674.12,189.85c-.67,0-1.25-.14-1.73-.43-.48-.29-.85-.68-1.11-1.19-.26-.51-.38-1.09-.38-1.76s.13-1.26.39-1.76c.26-.51.63-.9,1.11-1.19.48-.29,1.05-.43,1.71-.43.57,0,1.07.1,1.5.31.43.21.77.5,1.02.87s.39.82.41,1.32h-1.71c-.05-.33-.18-.59-.38-.79-.21-.2-.47-.3-.8-.3-.28,0-.53.08-.74.23-.21.15-.37.37-.48.66-.12.29-.17.64-.17,1.05s.06.77.17,1.07c.12.29.28.51.49.67.21.15.46.23.74.23.21,0,.39-.04.56-.13.17-.08.3-.21.41-.37.11-.16.18-.36.22-.59h1.71c-.03.5-.16.94-.41,1.32-.24.38-.58.67-1,.89-.43.21-.93.32-1.51.32ZM681.69,183.18v1.36h-3.94v-1.36h3.94ZM678.64,181.61h1.82v6.1c0,.17.03.3.08.39.05.09.12.15.21.19.09.04.2.06.32.06.09,0,.17,0,.26-.02.09-.02.15-.03.2-.04l.29,1.35c-.09.03-.22.06-.38.1-.17.04-.37.06-.6.07-.44.02-.82-.04-1.15-.17-.33-.13-.58-.34-.76-.62-.18-.28-.27-.64-.27-1.07v-6.34Z"/>
  <g>
    <path class="st4" d="M220.75,205.25c-4.3,24.99-17.37,47.63-36.87,63.84-19.5,16.21-44.14,24.94-69.5,24.61-25.35-.33-49.76-9.7-68.82-26.42-19.06-16.72-31.54-39.7-35.17-64.79l15.81-2.29c3.09,21.33,13.69,40.86,29.9,55.07,16.2,14.21,36.95,22.18,58.5,22.46,21.55.28,42.5-7.13,59.07-20.91,16.57-13.78,27.68-33.02,31.34-54.27l15.74,2.71Z"/>
    <path class="st4" d="M9.38,182.63c.77-17.92,6.06-35.36,15.37-50.69l13.65,8.29c-7.91,13.03-12.41,27.85-13.06,43.09l-15.96-.69Z"/>
    <path class="st4" d="M36.42,116.2c11.96-13.37,27.11-23.5,44.03-29.45l5.3,15.07c-14.38,5.06-27.26,13.67-37.42,25.03l-11.91-10.65Z"/>
    <path class="st4" d="M92.26,83.34c17.5-3.96,35.71-3.44,52.95,1.51l-4.41,15.35c-14.65-4.21-30.14-4.65-45.01-1.29l-3.53-15.58Z"/>
    <path class="st4" d="M154.78,88.11c16.69,6.57,31.46,17.25,42.92,31.04l-12.29,10.21c-9.74-11.73-22.29-20.81-36.48-26.39l5.85-14.86Z"/>
    <path class="st4" d="M208.37,134.58c8.87,15.59,13.65,33.18,13.91,51.11l-15.97.23c-.22-15.25-4.28-30.19-11.82-43.45l13.89-7.9Z"/>
    <path class="st4" d="M10.41,202.67c-.97-6.63-1.32-13.33-1.03-20.02l15.96.68c-.24,5.69.05,11.38.88,17.02l-15.81,2.32Z"/>
    <path class="st4" d="M24.6,132.2c3.46-5.73,7.45-11.13,11.92-16.11l11.89,10.67c-3.8,4.24-7.2,8.82-10.14,13.7l-13.68-8.25Z"/>
    <path class="st4" d="M73.37,89.52c6.14-2.67,12.52-4.75,19.06-6.22l3.5,15.59c-5.55,1.25-10.98,3.02-16.2,5.29l-6.36-14.65Z"/>
    <path class="st4" d="M197.19,118.54c4.32,5.12,8.14,10.63,11.43,16.47l-13.92,7.83c-2.79-4.96-6.04-9.65-9.71-14l12.21-10.3Z"/>
    <path class="st4" d="M222.27,185.2c.13,6.7-.38,13.39-1.51,19.99l-15.75-2.7c.96-5.61,1.39-11.3,1.28-16.99l15.97-.3Z"/>
    <path class="st4" d="M144.4,84.63c6.45,1.8,12.72,4.2,18.71,7.18l-7.1,14.31c-5.1-2.53-10.42-4.57-15.91-6.1l4.29-15.39Z"/>
  </g>
  <g>
    <path class="st4" d="M486.82,205.25c-4.3,24.99-17.37,47.63-36.87,63.84-19.5,16.21-44.14,24.94-69.5,24.61-25.35-.33-49.76-9.7-68.82-26.42-19.06-16.72-31.54-39.7-35.17-64.79l15.81-2.29c3.09,21.33,13.69,40.86,29.9,55.07,16.2,14.21,36.95,22.18,58.5,22.46,21.55.28,42.5-7.13,59.07-20.91,16.57-13.78,27.68-33.02,31.34-54.27l15.74,2.71Z"/>
    <path class="st4" d="M275.45,182.63c.77-17.92,6.06-35.36,15.37-50.69l13.65,8.29c-7.91,13.03-12.41,27.85-13.06,43.09l-15.96-.69Z"/>
    <path class="st4" d="M302.49,116.2c11.96-13.37,27.11-23.5,44.03-29.45l5.3,15.07c-14.38,5.06-27.26,13.67-37.42,25.03l-11.91-10.65Z"/>
    <path class="st4" d="M358.33,83.34c17.5-3.96,35.71-3.44,52.95,1.51l-4.41,15.35c-14.65-4.21-30.14-4.65-45.01-1.29l-3.53-15.58Z"/>
    <path class="st4" d="M420.85,88.11c16.69,6.57,31.46,17.25,42.92,31.04l-12.29,10.21c-9.74-11.73-22.29-20.81-36.48-26.39l5.85-14.86Z"/>
    <path class="st4" d="M474.44,134.58c8.87,15.59,13.65,33.18,13.91,51.11l-15.97.23c-.22-15.25-4.28-30.19-11.82-43.45l13.89-7.9Z"/>
    <path class="st4" d="M276.48,202.67c-.97-6.63-1.32-13.33-1.03-20.02l15.96.68c-.24,5.69.05,11.38.88,17.02l-15.81,2.32Z"/>
    <path class="st4" d="M290.67,132.2c3.46-5.73,7.45-11.13,11.92-16.11l11.89,10.67c-3.8,4.24-7.2,8.82-10.14,13.7l-13.68-8.25Z"/>
    <path class="st4" d="M339.44,89.52c6.14-2.67,12.52-4.75,19.06-6.22l3.5,15.59c-5.55,1.25-10.98,3.02-16.2,5.29l-6.36-14.65Z"/>
    <path class="st4" d="M463.26,118.54c4.32,5.12,8.14,10.63,11.43,16.47l-13.92,7.83c-2.79-4.96-6.04-9.65-9.71-14l12.21-10.3Z"/>
    <path class="st4" d="M488.34,185.2c.13,6.7-.38,13.39-1.51,19.99l-15.75-2.7c.96-5.61,1.39-11.3,1.28-16.99l15.97-.3Z"/>
    <path class="st4" d="M410.48,84.63c6.45,1.8,12.72,4.2,18.71,7.18l-7.1,14.31c-5.1-2.53-10.42-4.57-15.91-6.1l4.29-15.39Z"/>
  </g>
  <g class="st2">
    <text class="st1" transform="translate(56.3 312.8)"><tspan x="0" y="0">Linearized Destination </tspan></text>
    <text class="st0" transform="translate(56.3 312.8)"><tspan x="0" y="0">Linearized Destination </tspan></text>
    <text class="st1" transform="translate(98.06 327.2)"><tspan x="0" y="0">Vector</tspan></text>
    <text class="st0" transform="translate(98.06 327.2)"><tspan x="0" y="0">Vector</tspan></text>
  </g>
  <g class="st2">
    <text class="st3" transform="translate(364.39 320.92)"><tspan x="0" y="0">Ligate</tspan></text>
    <text/>
    <text/>
  </g>
  <g class="st2">
    <text class="st1" transform="translate(595.31 320.8)"><tspan x="0" y="0">Assembled Plasmid</tspan></text>
    <text class="st0" transform="translate(595.31 320.8)"><tspan x="0" y="0">Assembled Plasmid</tspan></text>
  </g>
  <path class="st5" d="M312.52,57.62c20.66-14.38,45.22-22.11,70.39-22.16s49.76,7.58,70.48,21.87l-9.13,13.24c-18.03-12.43-39.42-19.07-61.32-19.03s-43.26,6.77-61.24,19.28l-9.18-13.2h0Z"/>
  <path class="st6" d="M366.7,16.69v8.73h-1.85v-8.73h1.85ZM370,21.64v3.78h-1.82v-6.55h1.73v1.15h.08c.14-.38.39-.68.73-.9s.75-.34,1.24-.34c.45,0,.85.1,1.19.3.34.2.6.48.79.85s.28.8.28,1.31v4.17h-1.82v-3.84c0-.4-.1-.71-.31-.94s-.49-.34-.86-.34c-.24,0-.46.05-.65.16-.18.11-.33.26-.43.46s-.15.44-.16.72h0ZM381.1,20.74l-1.66.1c-.03-.14-.09-.27-.18-.38-.09-.12-.22-.21-.37-.28s-.33-.11-.54-.11c-.28,0-.52.06-.71.18s-.29.27-.29.47c0,.16.06.29.19.4.12.11.34.19.64.26l1.18.24c.64.13,1.11.34,1.42.63.31.29.47.67.47,1.14,0,.43-.13.81-.38,1.13s-.59.58-1.03.76c-.43.18-.94.27-1.5.27-.87,0-1.56-.18-2.07-.54s-.81-.86-.9-1.48l1.79-.09c.05.26.18.47.39.61.21.14.47.2.8.2s.57-.06.77-.18c.2-.12.3-.29.3-.48,0-.16-.07-.3-.21-.4-.14-.11-.35-.19-.63-.25l-1.13-.23c-.64-.13-1.11-.35-1.43-.66-.31-.32-.46-.72-.46-1.21,0-.42.11-.78.34-1.09.23-.3.55-.54.97-.7s.91-.25,1.47-.25c.83,0,1.48.17,1.95.52.48.35.76.83.84,1.43h-.03ZM385.37,25.55c-.67,0-1.25-.14-1.74-.41-.48-.28-.86-.66-1.12-1.17s-.39-1.1-.39-1.79.13-1.26.39-1.77c.26-.51.63-.9,1.1-1.19.48-.28,1.04-.43,1.68-.43.43,0,.83.07,1.21.21s.7.34.98.62c.28.28.5.62.66,1.04.16.41.24.9.24,1.46v.5h-5.53v-1.12h3.82c0-.26-.06-.49-.17-.69-.11-.2-.27-.36-.47-.47-.2-.12-.43-.17-.69-.17s-.52.06-.73.19c-.21.12-.38.29-.49.51-.12.21-.18.44-.18.7v1.07c0,.32.06.6.18.84s.29.42.52.55c.22.13.48.19.79.19.2,0,.39-.03.55-.09.17-.06.31-.14.43-.26.12-.11.21-.25.27-.42l1.68.11c-.08.4-.26.76-.52,1.06-.26.3-.6.53-1.01.7-.41.16-.89.25-1.43.25l-.03-.02ZM389.56,25.42v-6.55h1.76v1.14h.07c.12-.41.32-.71.6-.92.28-.21.6-.32.97-.32.09,0,.19,0,.29.02.1.01.2.03.28.05v1.61c-.09-.03-.2-.05-.35-.07s-.29-.03-.41-.03c-.27,0-.51.06-.72.17-.21.11-.37.27-.49.48-.12.2-.18.44-.18.71v3.7h-1.82ZM398.28,18.87v1.36h-3.94v-1.36h3.94ZM395.24,17.31h1.82v6.1c0,.17.02.3.08.39.05.09.12.15.21.19.09.04.2.06.32.06.09,0,.17,0,.26-.02.08-.02.15-.03.2-.04l.29,1.35c-.09.03-.22.06-.38.1-.16.04-.36.06-.6.07-.44.02-.82-.04-1.15-.17-.33-.13-.58-.34-.76-.62-.18-.28-.27-.64-.27-1.07v-6.34h-.02Z"/>
</svg>