<?xml version="1.0" encoding="UTF-8"?>
<svg id="Layer_1" xmlns="http://www.w3.org/2000/svg" version="1.1" viewBox="0 0 772.42 352.19">
  <!-- Generator: Adobe Illustrator 29.5.1, SVG Export Plug-In . SVG Version: 2.1.0 Build 141)  -->
  <defs>
    <style>
      .st0 {
        stroke: #231f20;
      }

      .st0, .st1, .st2, .st3 {
        isolation: isolate;
      }

      .st0, .st1, .st3 {
        font-family: Arial-Mdm, Arial;
        font-size: 12px;
        font-weight: 500;
      }

      .st0, .st4, .st5, .st6, .st3, .st7, .st8, .st9 {
        stroke-miterlimit: 10;
      }

      .st0, .st4, .st5, .st6, .st7, .st8, .st10, .st9 {
        fill: none;
      }

      .st0, .st3 {
        stroke-width: .25px;
      }

      .st4 {
        stroke-dasharray: 2.28 1.14;
      }

      .st4, .st5, .st6, .st7, .st8 {
        stroke: red;
      }

      .st5 {
        stroke-dasharray: 4.09 2.04;
      }

      .st6 {
        stroke-dasharray: 4.09 2.04;
      }

      .st3 {
        stroke: #000;
      }

      .st7 {
        stroke-dasharray: 2.63 1.32;
      }

      .st11 {
        fill: #a8d8e8;
      }

      .st10 {
        stroke: #61a5fb;
        stroke-dasharray: 2 2;
      }

      .st12 {
        fill: #3c82f5;
      }

      .st13 {
        fill: #8a5cf5;
      }

      .st14 {
        fill: #1e79b7;
      }

      .st15 {
        fill: #ec4799;
      }

      .st9 {
        stroke: #1b76b1;
        stroke-width: 17px;
      }

      .st16 {
        fill: #f49d0d;
      }

      .st17 {
        fill: #3c81f4;
      }

      .st18 {
        fill: #0b0755;
      }

      .st19 {
        fill: #0bb980;
      }
    </style>
  </defs>
  <path class="st18" d="M271.68,184l-10-5.77v11.55l10-5.77h0ZM230.18,184v1h32.5v-2h-32.5v1Z"/>
  <path class="st18" d="M540.68,184l-10-5.77v11.55l10-5.77h0ZM499.18,184v1h32.5v-2h-32.5v1Z"/>
  <path class="st18" d="M355.65,188h-3.09v-8.73h3.12c.88,0,1.63.17,2.27.52.63.35,1.12.85,1.46,1.5s.52,1.43.52,2.34-.17,1.69-.52,2.34c-.34.65-.83,1.15-1.47,1.5s-1.4.52-2.28.52h0ZM354.41,186.42h1.17c.54,0,1-.1,1.38-.29.38-.2.66-.5.84-.91.19-.41.29-.94.29-1.59s-.1-1.17-.29-1.58-.47-.71-.84-.9c-.37-.19-.83-.29-1.38-.29h-1.18v5.57h0ZM364.24,188.13c-.67,0-1.25-.14-1.74-.41-.48-.28-.86-.66-1.12-1.17s-.39-1.1-.39-1.79.13-1.26.39-1.77c.26-.51.63-.9,1.1-1.19.48-.28,1.04-.43,1.68-.43.43,0,.83.07,1.2.21.38.14.7.34.98.62s.5.62.66,1.04.23.9.23,1.46v.5h-5.53v-1.12h3.82c0-.26-.06-.49-.17-.7-.11-.2-.27-.36-.47-.47-.2-.12-.43-.18-.7-.18s-.52.06-.73.19c-.21.12-.38.29-.49.51-.12.21-.18.44-.18.7v1.07c0,.32.06.6.18.84.12.24.29.42.51.54.22.13.49.19.79.19.2,0,.39-.03.55-.08.17-.06.31-.14.43-.26.12-.11.21-.25.27-.42l1.68.11c-.08.4-.26.76-.52,1.06-.26.3-.6.53-1.01.7-.41.16-.89.25-1.43.25h0ZM373.87,183.32l-1.66.1c-.03-.14-.09-.27-.18-.38-.09-.12-.22-.21-.37-.28-.15-.07-.33-.11-.54-.11-.28,0-.52.06-.71.18s-.29.27-.29.47c0,.16.06.29.19.4s.34.2.64.26l1.18.24c.64.13,1.11.34,1.42.63.31.29.47.67.47,1.14,0,.43-.13.8-.38,1.13-.25.32-.59.58-1.03.76s-.94.27-1.51.27c-.87,0-1.56-.18-2.07-.54s-.81-.86-.9-1.48l1.79-.09c.05.26.18.47.39.61.21.14.47.21.8.21s.57-.06.77-.18c.2-.12.29-.29.3-.48,0-.16-.07-.3-.21-.4-.14-.11-.35-.19-.63-.25l-1.13-.23c-.64-.13-1.11-.35-1.43-.66-.31-.32-.46-.72-.46-1.21,0-.42.11-.78.34-1.09.23-.3.55-.54.97-.7s.91-.25,1.47-.25c.83,0,1.48.18,1.95.52.48.35.76.83.83,1.43v-.02ZM378.65,181.46v1.36h-3.94v-1.36h3.94ZM375.6,179.89h1.82v6.1c0,.17.03.3.08.39s.12.15.21.19c.09.04.2.06.32.06.08,0,.17,0,.26-.02s.15-.03.2-.04l.29,1.35c-.09.03-.22.06-.38.1-.16.04-.36.06-.6.07-.44.02-.82-.04-1.15-.17s-.58-.34-.76-.62c-.18-.28-.27-.64-.27-1.07v-6.34h-.02ZM379.83,188v-6.54h1.82v6.54h-1.82ZM380.74,180.61c-.27,0-.5-.09-.69-.27-.19-.18-.29-.4-.29-.65s.1-.46.29-.64.42-.27.69-.27.5.09.69.27c.19.18.29.39.29.64s-.1.47-.29.65-.42.27-.69.27ZM384.91,184.22v3.78h-1.81v-6.54h1.73v1.15h.08c.14-.38.39-.68.73-.9s.76-.34,1.24-.34c.45,0,.85.1,1.19.3s.6.48.79.85c.19.37.28.8.28,1.31v4.17h-1.82v-3.84c0-.4-.1-.71-.31-.94s-.49-.34-.86-.34c-.24,0-.46.05-.65.16-.18.11-.33.26-.43.46-.1.2-.15.44-.16.72h0ZM392.43,188.12c-.42,0-.79-.07-1.12-.22s-.59-.37-.78-.65c-.19-.29-.28-.65-.28-1.08,0-.36.07-.67.2-.92s.31-.45.55-.6c.23-.15.49-.26.78-.34.3-.08.61-.13.93-.16.38-.04.69-.08.92-.11.23-.04.4-.09.51-.16.11-.07.16-.18.16-.32v-.02c0-.27-.09-.48-.26-.63-.17-.15-.41-.22-.72-.22-.33,0-.59.07-.78.22-.19.14-.32.32-.38.54l-1.68-.14c.08-.4.25-.74.5-1.03s.57-.52.97-.67c.4-.16.86-.24,1.38-.24.36,0,.71.04,1.04.13.33.09.63.22.89.4s.47.41.62.69.23.61.23,1v4.41h-1.72v-.91h-.05c-.11.21-.24.39-.42.54-.18.15-.39.27-.64.36-.25.08-.53.13-.86.13h0ZM392.95,186.87c.27,0,.5-.05.71-.16s.36-.25.48-.43c.12-.18.18-.39.18-.62v-.69c-.06.04-.14.07-.24.1-.1.03-.21.06-.33.08s-.24.04-.37.06c-.12.02-.23.03-.33.05-.21.03-.4.08-.56.15-.16.07-.28.16-.37.28-.09.11-.13.26-.13.43,0,.25.09.44.27.57s.41.19.69.19h0ZM401.01,181.46v1.36h-3.94v-1.36h3.94ZM397.96,179.89h1.82v6.1c0,.17.02.3.08.39.05.09.12.15.21.19.09.04.2.06.32.06.08,0,.17,0,.26-.02.08-.02.15-.03.2-.04l.29,1.35c-.09.03-.22.06-.38.1-.16.04-.36.06-.6.07-.44.02-.82-.04-1.15-.17s-.58-.34-.76-.62c-.18-.28-.27-.64-.27-1.07v-6.34h-.02ZM402.19,188v-6.54h1.82v6.54h-1.82ZM403.1,180.61c-.27,0-.5-.09-.7-.27-.19-.18-.29-.4-.29-.65s.1-.46.29-.64.43-.27.7-.27.5.09.69.27c.19.18.29.39.29.64s-.1.47-.29.65-.42.27-.69.27ZM408.42,188.13c-.66,0-1.23-.14-1.72-.42-.48-.28-.85-.68-1.11-1.18-.26-.51-.39-1.1-.39-1.77s.13-1.27.39-1.77c.26-.51.63-.9,1.11-1.18.48-.28,1.06-.43,1.72-.43s1.23.14,1.71.43c.48.28.85.68,1.12,1.18.26.51.39,1.1.39,1.77s-.13,1.26-.39,1.77c-.26.51-.63.9-1.12,1.18-.48.28-1.05.42-1.71.42ZM408.42,186.72c.3,0,.55-.09.75-.26s.35-.41.46-.71.16-.64.16-1.02-.05-.72-.16-1.02c-.1-.3-.25-.54-.46-.71-.2-.17-.45-.26-.75-.26s-.56.09-.77.26c-.2.17-.36.41-.46.71s-.15.64-.15,1.02.05.72.15,1.02c.11.3.26.53.46.71.21.17.46.26.77.26ZM414.63,184.22v3.78h-1.82v-6.54h1.73v1.15h.08c.14-.38.39-.68.73-.9s.75-.34,1.24-.34c.45,0,.85.1,1.19.3s.6.48.79.85c.19.37.28.8.28,1.31v4.17h-1.82v-3.84c0-.4-.1-.71-.31-.94s-.49-.34-.86-.34c-.24,0-.46.05-.65.16-.18.11-.33.26-.43.46-.1.2-.15.44-.16.72h0ZM368.36,194.27l2.11,6.63h.08l2.11-6.63h2.05l-3.01,8.73h-2.38l-3.01-8.73h2.05ZM377.97,203.13c-.67,0-1.25-.14-1.74-.41-.48-.28-.86-.66-1.12-1.17s-.39-1.1-.39-1.79.13-1.26.39-1.77c.26-.51.63-.9,1.1-1.19.48-.28,1.04-.43,1.68-.43.43,0,.83.07,1.21.21s.7.34.98.62.5.62.66,1.04.23.9.23,1.46v.5h-5.53v-1.12h3.82c0-.26-.06-.49-.17-.7-.11-.2-.27-.36-.47-.47-.2-.12-.43-.18-.69-.18s-.52.06-.73.19c-.21.12-.38.29-.49.51-.12.21-.18.44-.18.7v1.07c0,.32.06.6.18.84.12.24.29.42.52.54.22.13.48.19.79.19.2,0,.39-.03.55-.08.17-.06.31-.14.43-.26.12-.11.21-.25.27-.42l1.68.11c-.08.4-.26.76-.52,1.06-.26.3-.6.53-1.01.7-.41.16-.89.25-1.43.25h-.02ZM385.11,203.13c-.67,0-1.25-.14-1.73-.43s-.85-.68-1.11-1.19c-.26-.51-.38-1.09-.38-1.76s.13-1.26.39-1.76c.26-.51.63-.9,1.11-1.19.48-.29,1.05-.43,1.71-.43.57,0,1.07.1,1.5.31.43.21.77.5,1.02.87s.39.82.41,1.32h-1.71c-.05-.33-.18-.59-.38-.79s-.47-.3-.81-.3c-.28,0-.53.08-.74.23s-.37.37-.49.66c-.12.29-.17.64-.17,1.05s.06.77.17,1.07c.12.29.28.51.49.67.21.15.46.23.74.23.21,0,.39-.04.56-.13.17-.08.31-.21.41-.37.11-.16.18-.36.22-.59h1.71c-.03.5-.17.94-.41,1.32s-.58.67-1,.89c-.43.21-.93.32-1.51.32h0ZM392.68,196.46v1.36h-3.94v-1.36h3.94ZM389.63,194.89h1.82v6.1c0,.17.03.3.08.39s.12.15.21.19c.09.04.2.06.32.06.08,0,.17,0,.26-.02.08-.02.15-.03.2-.04l.29,1.35c-.09.03-.22.06-.38.1-.17.04-.36.06-.6.07-.44.02-.82-.04-1.15-.17s-.58-.34-.76-.62c-.18-.28-.27-.64-.27-1.07v-6.34h-.02ZM396.75,203.13c-.66,0-1.23-.14-1.72-.42-.48-.28-.85-.68-1.11-1.18-.26-.51-.39-1.1-.39-1.77s.13-1.27.39-1.77c.26-.51.63-.9,1.11-1.18.48-.28,1.06-.43,1.72-.43s1.23.14,1.71.43c.48.28.86.68,1.12,1.18.26.51.39,1.1.39,1.77s-.13,1.26-.39,1.77c-.26.51-.63.9-1.12,1.18-.48.28-1.05.42-1.71.42ZM396.76,201.72c.3,0,.55-.09.75-.26s.35-.41.46-.71.16-.64.16-1.02-.05-.72-.16-1.02c-.1-.3-.25-.54-.46-.71-.2-.17-.45-.26-.75-.26s-.56.09-.77.26-.36.41-.47.71c-.1.3-.15.64-.15,1.02s.05.72.15,1.02c.11.3.26.53.47.71.21.17.46.26.77.26ZM401.15,203v-6.54h1.76v1.14h.07c.12-.41.32-.71.6-.92.28-.21.61-.32.97-.32.09,0,.19,0,.29.02.11,0,.2.03.28.05v1.61c-.08-.03-.2-.05-.35-.07s-.29-.03-.41-.03c-.27,0-.51.06-.72.17s-.37.27-.49.48c-.12.21-.18.44-.18.71v3.7h-1.82Z"/>
  <path class="st18" d="M284,82.44l3.92,7.8-1.65.83-3.92-7.8,1.65-.83ZM289.17,85.38l1.7,3.38-1.62.82-2.94-5.85,1.55-.78.52,1.03.07-.04c-.05-.4.04-.78.25-1.14.2-.35.53-.64.96-.86.4-.21.81-.29,1.2-.27s.75.16,1.09.4c.34.24.62.6.84,1.05l1.87,3.72-1.62.82-1.72-3.44c-.18-.36-.41-.59-.69-.7-.28-.11-.6-.08-.92.08-.22.11-.39.26-.51.43-.12.17-.18.38-.19.61,0,.22.05.46.18.71h-.02ZM298.67,79.6l-1.44.84c-.09-.12-.2-.2-.34-.26-.14-.06-.29-.09-.46-.08-.17,0-.34.05-.53.15-.25.13-.44.29-.56.48-.12.19-.13.37-.05.55.07.14.19.23.34.27.16.04.39.02.69-.06l1.17-.32c.63-.17,1.14-.19,1.56-.08.4.11.72.39.94.81.19.38.25.78.17,1.18-.07.41-.28.79-.58,1.14-.31.35-.72.66-1.22.91-.77.39-1.47.54-2.09.45-.62-.1-1.11-.4-1.47-.92l1.55-.88c.17.21.37.33.62.37.25.02.51-.03.8-.17s.49-.31.6-.51c.12-.2.13-.39.05-.57-.07-.14-.2-.23-.36-.27s-.39-.02-.67.06l-1.11.31c-.63.17-1.15.18-1.58.05-.42-.14-.74-.43-.96-.87-.19-.37-.25-.75-.19-1.12.07-.38.25-.73.55-1.06s.7-.63,1.2-.88c.74-.37,1.4-.51,1.98-.41.59.09,1.05.4,1.39.9h-.02ZM304.66,81.96c-.6.31-1.18.44-1.74.41s-1.06-.21-1.52-.54c-.46-.34-.84-.81-1.16-1.43-.31-.6-.45-1.19-.45-1.76s.15-1.09.45-1.56.73-.85,1.31-1.14c.38-.2.78-.32,1.17-.35.39-.05.78,0,1.16.12.37.12.72.33,1.06.63.32.3.61.7.86,1.19l.22.44-4.94,2.48-.5-1,3.41-1.72c-.12-.24-.28-.42-.46-.55-.19-.13-.4-.2-.64-.21-.23-.01-.46.03-.7.16-.25.13-.44.3-.57.5s-.21.43-.21.68c-.01.24.04.48.15.71l.49.96c.14.29.32.51.53.67.21.15.45.24.71.25s.51-.05.79-.18c.18-.09.33-.2.46-.32s.22-.27.26-.43c.06-.16.08-.32.06-.5l1.55-.65c.11.4.1.79.01,1.18-.1.38-.29.74-.59,1.08s-.69.62-1.16.86h0ZM308.34,79.97l-2.94-5.85,1.57-.79.51,1.02.06-.03c-.08-.42-.03-.78.12-1.09.16-.31.4-.56.72-.72.08-.05.17-.08.27-.11.1-.03.18-.07.27-.08l.72,1.43c-.09.01-.2.05-.35.1-.14.05-.28.1-.38.16-.24.12-.43.28-.56.48-.13.19-.21.41-.23.65s.04.47.16.71l1.66,3.31-1.62.82h0ZM313.19,70.21l.61,1.22-3.52,1.77-.61-1.22,3.52-1.77ZM309.77,70.18l1.62-.82,2.74,5.45c.07.15.16.26.24.31s.18.08.28.08.2-.04.32-.09c.07-.04.14-.08.22-.14.07-.06.13-.09.16-.12l.86,1.08c-.06.07-.17.15-.3.26-.13.11-.29.22-.5.33-.38.21-.75.33-1.1.36-.35.03-.67-.04-.96-.22-.29-.17-.52-.45-.71-.83l-2.85-5.66h-.01ZM319.12,64.78l3.92,7.8-1.65.83-3.14-6.23-.04.03-1.22,2.01-.74-1.46,1.32-2.19,1.55-.78h0Z"/>
  <path class="st18" d="M471.58,66.06l-6.04,6.29-1.33-1.28,6.04-6.29,1.33,1.28ZM470.53,71.91l-2.62,2.73-1.31-1.26,4.54-4.72,1.24,1.19-.8.84.06.05c.37-.18.75-.23,1.15-.14.41.07.78.28,1.13.62.33.32.54.66.65,1.04s.1.77-.03,1.16-.36.77-.71,1.14l-2.89,3.01-1.31-1.26,2.66-2.77c.28-.28.42-.59.43-.89.02-.31-.12-.59-.38-.84-.18-.17-.36-.28-.57-.33s-.42-.04-.63.03c-.21.07-.41.21-.61.41h0ZM479.15,78.96l-1.27-1.07c.08-.13.12-.25.13-.4s-.01-.3-.07-.46-.16-.31-.31-.45c-.2-.19-.41-.31-.64-.37-.22-.05-.4,0-.53.14-.11.11-.15.25-.13.41.01.16.11.38.28.64l.69.99c.37.53.56,1.01.59,1.44.03.42-.13.8-.46,1.15-.3.31-.65.49-1.05.55s-.83,0-1.27-.16c-.44-.18-.87-.45-1.27-.84-.63-.6-1-1.21-1.12-1.83-.11-.62,0-1.18.38-1.69l1.35,1.17c-.14.23-.19.46-.14.7.06.24.2.47.43.7s.46.36.68.4c.23.04.41,0,.55-.14.12-.12.16-.26.13-.43-.02-.17-.12-.38-.28-.62l-.66-.95c-.37-.53-.56-1.02-.57-1.47s.16-.84.5-1.19c.29-.3.63-.48,1-.54.37-.06.77,0,1.18.16.41.17.83.45,1.22.84.6.58.95,1.15,1.04,1.73.1.59-.02,1.12-.38,1.61h0ZM478.9,85.38c-.48-.47-.81-.97-.97-1.5s-.16-1.07,0-1.61.48-1.06.96-1.57c.47-.48.97-.83,1.51-1,.54-.19,1.08-.22,1.62-.1.54.12,1.04.41,1.5.86.31.3.56.62.72.98.18.36.27.74.28,1.13s-.07.8-.25,1.21c-.17.41-.46.81-.84,1.21l-.34.36-3.99-3.83.78-.81,2.75,2.64c.18-.19.3-.39.36-.62s.06-.45-.01-.67c-.07-.22-.19-.42-.38-.6-.2-.19-.42-.31-.66-.37s-.48-.05-.71.02c-.23.07-.44.19-.62.38l-.75.77c-.22.24-.38.48-.45.73-.07.26-.08.51,0,.75s.21.47.43.69c.14.14.3.25.46.33.16.08.32.11.48.12s.32-.04.49-.11l1.13,1.25c-.34.23-.71.37-1.1.4-.39.04-.8-.04-1.22-.2-.41-.16-.82-.44-1.21-.81l.02-.02ZM482.01,88.2l4.54-4.72,1.27,1.22-.79.83.05.04c.36-.21.73-.29,1.07-.25.35.04.66.19.92.44.07.06.13.14.2.21.07.08.12.16.17.23l-1.12,1.16c-.05-.07-.11-.18-.2-.29s-.19-.22-.27-.31c-.19-.18-.4-.3-.64-.37-.23-.06-.46-.06-.69,0-.22.07-.43.2-.62.38l-2.57,2.67-1.31-1.26h0ZM492.84,89.51l-.95.99-2.85-2.73.95-.99,2.85,2.73ZM491.73,86.27l1.31,1.26-4.23,4.4c-.12.12-.18.23-.22.34-.03.1-.01.2.02.28.04.09.11.18.2.26.07.06.12.12.2.16s.13.09.16.11l-.73,1.17c-.09-.05-.2-.11-.35-.19-.15-.09-.31-.21-.48-.37-.32-.29-.57-.6-.71-.92s-.18-.65-.11-.98c.06-.33.25-.65.55-.95l4.39-4.57h0ZM492.11,95.77l1-1.04,6.6-1.61.9.86-1.4,1.45-.53-.51-4.18,1.03-.04.05,3.73,3.59-1.02,1.06-5.08-4.87h.01ZM494.07,99.78l1.37-1.42.47-.44,4.23-4.4,1.24,1.19-6.04,6.29-1.27-1.23h0Z"/>
  <path class="st18" d="M337.3,45.67l1.3,8.63-1.82.28-1.3-8.63,1.82-.28ZM341.3,50.06l.57,3.74-1.79.27-.98-6.47,1.71-.26.17,1.14h.08c.09-.41.28-.74.58-1.01s.7-.45,1.18-.52c.45-.07.86-.03,1.22.12.36.15.67.39.91.72s.4.75.48,1.26l.62,4.12-1.79.27-.58-3.8c-.06-.4-.2-.69-.44-.88-.24-.19-.54-.26-.9-.21-.24.04-.45.12-.62.25-.17.13-.29.3-.36.52-.07.21-.09.46-.05.74h-.01ZM352.14,47.52l-1.63.35c-.05-.14-.13-.25-.24-.35s-.25-.17-.41-.22-.34-.06-.55-.02c-.28.04-.5.14-.68.28-.17.14-.25.31-.22.51.02.15.11.28.24.36.14.09.37.14.68.16l1.21.06c.65.03,1.15.17,1.5.41s.56.59.63,1.06c.07.42,0,.82-.21,1.17-.2.36-.5.66-.91.9-.4.24-.88.41-1.45.49-.86.13-1.57.05-2.13-.23-.56-.28-.93-.73-1.11-1.33l1.75-.36c.09.25.25.43.48.54.23.1.5.13.82.08.31-.05.56-.15.73-.3s.25-.33.22-.52c-.03-.16-.12-.29-.27-.37-.15-.09-.37-.14-.66-.15l-1.15-.05c-.65-.03-1.15-.18-1.51-.44-.35-.27-.57-.64-.64-1.12-.06-.42,0-.79.17-1.13.18-.34.47-.61.85-.84.39-.23.86-.38,1.41-.46.82-.12,1.49-.05,2.01.23.52.27.87.7,1.04,1.29h.03ZM357.08,51.63c-.67.1-1.26.05-1.78-.14-.52-.2-.95-.53-1.28-.99s-.55-1.03-.66-1.72c-.1-.67-.06-1.27.12-1.81.18-.54.49-.99.91-1.34.43-.35.96-.58,1.6-.67.43-.06.83-.06,1.22.03.39.08.74.23,1.06.46.32.23.59.54.8.93.22.39.37.86.45,1.41l.08.49-5.47.83-.17-1.11,3.78-.57c-.04-.26-.13-.48-.27-.66-.14-.18-.32-.31-.54-.4-.21-.09-.45-.11-.71-.07-.27.04-.5.14-.7.3-.19.15-.33.35-.41.58-.09.23-.11.47-.08.72l.16,1.06c.05.32.15.59.3.8.16.21.35.37.59.46.24.09.51.12.81.07.2-.03.38-.09.54-.17s.29-.19.39-.32.17-.28.21-.45l1.68-.14c-.02.41-.14.79-.36,1.12-.21.33-.51.61-.9.84-.38.22-.84.38-1.37.46ZM361.2,50.88l-.98-6.47,1.74-.26.17,1.13h.07c.06-.43.21-.76.46-1.01s.55-.4.91-.46c.09-.01.19-.02.29-.03h.28l.24,1.59c-.09-.01-.21-.02-.36-.01s-.29.01-.41.03c-.27.04-.49.13-.68.28-.19.14-.33.33-.42.55-.09.22-.11.46-.07.73l.55,3.66-1.8.27h.01ZM368.85,43.1l.2,1.35-3.9.59-.2-1.35,3.9-.59ZM365.6,42.01l1.79-.27.91,6.03c.03.17.07.29.13.38.06.08.14.13.24.16.1.02.21.02.33,0,.08-.01.17-.03.25-.06.08-.03.14-.05.19-.07l.48,1.29c-.09.04-.21.09-.37.15s-.35.12-.58.16c-.43.08-.82.08-1.16,0s-.62-.25-.85-.5c-.22-.25-.36-.59-.42-1.01l-.95-6.27h.01ZM373.72,48.98l-.2-1.31,2.64-3.31c.22-.29.41-.55.55-.78.15-.23.25-.45.32-.66.06-.21.08-.43.04-.66-.04-.25-.13-.46-.27-.63-.14-.17-.32-.29-.54-.35-.21-.07-.45-.09-.7-.05-.26.04-.49.13-.67.26-.18.14-.31.31-.39.53-.08.22-.09.46-.05.74l-1.73.26c-.08-.56-.03-1.07.16-1.53.19-.45.5-.83.93-1.13s.94-.49,1.54-.58c.62-.09,1.17-.07,1.66.08s.9.39,1.21.74c.31.35.51.77.58,1.27.05.33.03.66-.05.99-.08.34-.25.72-.52,1.16-.27.43-.66.97-1.17,1.59l-1.07,1.43v.06l3.63-.55.23,1.49-6.15.93h.02Z"/>
  <path class="st18" d="M404.06,40.13l-1.87,8.52-1.8-.4,1.87-8.52,1.8.4ZM406.23,45.66l-.81,3.7-1.77-.39,1.4-6.39,1.69.37-.25,1.13.08.02c.22-.34.52-.58.9-.73.38-.15.81-.17,1.28-.06.44.1.81.28,1.1.55s.48.6.59,1,.1.85,0,1.34l-.89,4.07-1.77-.39.82-3.75c.09-.39.05-.72-.1-.98-.15-.27-.41-.44-.76-.52-.24-.05-.46-.05-.67.02-.2.06-.38.18-.52.36-.14.17-.24.4-.31.67v-.02ZM417.26,47.16l-1.64-.26c0-.14-.03-.28-.1-.41s-.17-.25-.3-.35c-.13-.1-.3-.17-.51-.22-.27-.06-.52-.05-.73.02-.21.07-.34.2-.38.4-.03.15,0,.3.1.43s.29.26.57.39l1.11.49c.59.26,1.01.57,1.26.92.24.35.31.76.21,1.22-.09.42-.3.76-.61,1.02-.31.26-.7.44-1.17.52-.46.08-.97.06-1.53-.06-.85-.19-1.48-.51-1.91-.97-.42-.46-.61-1.01-.56-1.64l1.77.29c0,.27.08.49.25.68.17.18.42.3.73.37s.57.06.79,0c.22-.08.35-.22.39-.41.03-.16,0-.31-.12-.44-.11-.13-.3-.26-.56-.38l-1.06-.46c-.6-.26-1.01-.58-1.25-.96-.23-.37-.3-.8-.2-1.28.09-.41.28-.74.57-.99s.65-.41,1.1-.48c.44-.07.94-.05,1.48.07.81.18,1.41.49,1.79.93.39.44.56.97.51,1.57h0ZM420.41,52.77c-.66-.14-1.19-.4-1.61-.77-.41-.37-.69-.83-.84-1.38s-.15-1.16,0-1.84c.14-.66.4-1.21.76-1.65.36-.44.81-.75,1.33-.93.53-.18,1.1-.19,1.73-.06.42.09.8.25,1.13.46.34.21.61.48.83.81.21.33.36.71.42,1.16.06.44.04.93-.08,1.47l-.11.49-5.4-1.18.24-1.1,3.73.82c.06-.26.05-.49-.02-.72-.07-.22-.19-.41-.36-.56-.17-.16-.38-.26-.64-.32-.27-.06-.52-.05-.76.03-.23.08-.43.21-.59.39s-.27.4-.33.65l-.23,1.04c-.07.32-.07.6,0,.86.07.26.2.47.39.64s.43.29.73.36c.2.04.38.06.56.04s.33-.07.48-.16c.14-.09.26-.2.36-.35l1.62.47c-.17.38-.42.68-.74.92-.32.24-.7.39-1.14.47-.44.07-.92.05-1.45-.06h-.01ZM424.52,53.54l1.4-6.39,1.72.38-.24,1.12h.07c.2-.36.47-.61.78-.76.32-.15.66-.18,1.02-.1.09.02.18.05.28.08s.19.07.26.1l-.34,1.57c-.08-.04-.19-.09-.33-.14-.14-.05-.28-.09-.4-.12-.26-.06-.51-.05-.74.02-.23.07-.42.19-.58.36-.16.17-.27.39-.33.65l-.79,3.62-1.77-.39h-.01ZM434.44,49.02l-.29,1.33-3.85-.84.29-1.33,3.85.84ZM431.8,46.83l1.77.39-1.31,5.96c-.04.16-.04.3,0,.4.03.1.09.18.17.23.08.06.19.1.3.12.08.02.17.03.26.03h.2v1.38c-.11,0-.24,0-.41,0s-.37-.02-.6-.06c-.43-.08-.79-.22-1.09-.42-.29-.2-.49-.46-.61-.77s-.13-.68-.03-1.1l1.36-6.19v.02ZM440.02,57.06c-.62-.14-1.15-.36-1.59-.68s-.75-.7-.95-1.14c-.19-.44-.24-.91-.14-1.41l1.82.4c-.03.21,0,.41.08.59.09.18.24.34.43.47s.42.23.68.28c.27.06.53.06.76,0,.23-.05.43-.15.58-.3.16-.15.26-.33.31-.56s.03-.44-.06-.65c-.09-.2-.24-.38-.45-.53-.21-.15-.48-.26-.8-.33l-.8-.17.29-1.32.79.17c.27.06.52.06.75.02.23-.05.42-.14.58-.28.15-.14.26-.33.3-.55.05-.21.04-.41-.03-.6-.06-.19-.18-.34-.34-.48-.16-.13-.36-.22-.6-.28-.24-.05-.48-.06-.7,0-.22.04-.41.13-.57.26-.16.13-.26.31-.32.52l-1.73-.38c.12-.49.35-.89.7-1.21s.79-.53,1.29-.64c.51-.11,1.06-.1,1.64.02.59.13,1.08.35,1.47.66.4.31.67.67.84,1.09.17.41.2.85.1,1.3-.1.48-.34.84-.71,1.1-.37.25-.8.37-1.3.35l-.02.07c.61.22,1.04.54,1.29.97.25.42.32.9.2,1.43-.1.49-.34.89-.7,1.2-.36.32-.82.53-1.36.64-.54.11-1.13.09-1.77-.05l.04.02Z"/>
  <path class="st11" d="M197.67,119.53c12.89,15.55,21.09,34.45,23.65,54.49,2.56,20.04-.64,40.39-9.21,58.68s-22.17,33.77-39.21,44.62c-17.04,10.85-36.81,16.64-57.01,16.68-20.2.04-39.99-5.66-57.08-16.45-17.08-10.78-30.74-26.2-39.39-44.46-8.63-18.25-11.91-38.59-9.44-58.63,2.47-20.05,10.6-38.98,23.43-54.58l12.34,10.14c-10.9,13.26-17.81,29.35-19.91,46.4s.68,34.33,8.03,49.84c7.35,15.52,18.96,28.62,33.48,37.79,14.52,9.17,31.34,14.01,48.51,13.98,17.17-.04,33.98-4.95,48.46-14.18,14.48-9.23,26.04-22.38,33.32-37.93,7.29-15.55,10-32.85,7.83-49.88s-9.15-33.09-20.1-46.31l12.3-10.19h0Z"/>
  <path class="st18" d="M85.65,188h-3.09v-8.73h3.12c.88,0,1.63.17,2.27.52.63.35,1.12.85,1.46,1.5s.52,1.43.52,2.34-.17,1.69-.52,2.34c-.34.65-.83,1.15-1.47,1.5s-1.4.52-2.28.52h-.01ZM84.4,186.42h1.17c.55,0,1-.1,1.38-.29.38-.2.66-.5.84-.91.19-.41.29-.94.29-1.59s-.1-1.17-.29-1.58-.47-.71-.84-.9c-.37-.19-.83-.29-1.38-.29h-1.18v5.57h.01ZM94.24,188.13c-.67,0-1.25-.14-1.74-.41-.48-.28-.86-.66-1.12-1.17s-.39-1.1-.39-1.79.13-1.26.39-1.77c.26-.51.63-.9,1.1-1.19.48-.28,1.04-.43,1.68-.43.43,0,.83.07,1.21.21s.7.34.98.62c.28.28.5.62.66,1.04s.23.9.23,1.46v.5h-5.53v-1.12h3.82c0-.26-.06-.49-.17-.7-.11-.2-.27-.36-.47-.47-.2-.12-.43-.18-.69-.18s-.52.06-.73.19c-.21.12-.38.29-.49.51-.12.21-.18.44-.18.7v1.07c0,.32.06.6.18.84.12.24.29.42.52.54.22.13.48.19.79.19.2,0,.39-.03.55-.08.17-.06.31-.14.43-.26.12-.11.21-.25.27-.42l1.68.11c-.09.4-.26.76-.52,1.06-.26.3-.6.53-1.01.7-.41.16-.89.25-1.43.25h-.02ZM103.87,183.32l-1.66.1c-.03-.14-.09-.27-.18-.38-.09-.12-.22-.21-.37-.28-.15-.07-.33-.11-.54-.11-.28,0-.52.06-.71.18s-.29.27-.29.47c0,.16.06.29.19.4s.34.2.64.26l1.18.24c.64.13,1.11.34,1.42.63.31.29.47.67.47,1.14,0,.43-.13.8-.38,1.13-.25.32-.59.58-1.03.76-.43.18-.94.27-1.5.27-.87,0-1.56-.18-2.07-.54s-.81-.86-.9-1.48l1.79-.09c.05.26.18.47.39.61s.47.21.8.21.57-.06.77-.18.3-.29.3-.48c0-.16-.07-.3-.21-.4-.14-.11-.35-.19-.63-.25l-1.13-.23c-.64-.13-1.12-.35-1.43-.66-.31-.32-.46-.72-.46-1.21,0-.42.11-.78.34-1.09.23-.3.55-.54.97-.7s.91-.25,1.47-.25c.83,0,1.48.18,1.95.52.48.35.76.83.84,1.43l-.03-.02ZM108.65,181.46v1.36h-3.94v-1.36h3.94ZM105.6,179.89h1.82v6.1c0,.17.03.3.08.39s.12.15.21.19c.09.04.2.06.32.06.09,0,.17,0,.26-.02.09-.02.15-.03.2-.04l.29,1.35c-.09.03-.22.06-.38.1-.16.04-.37.06-.6.07-.44.02-.82-.04-1.15-.17s-.58-.34-.76-.62-.27-.64-.27-1.07v-6.34h-.02ZM109.83,188v-6.54h1.82v6.54h-1.82ZM110.74,180.61c-.27,0-.5-.09-.69-.27-.19-.18-.29-.4-.29-.65s.1-.46.29-.64.42-.27.69-.27.5.09.69.27c.19.18.29.39.29.64s-.1.47-.29.65-.42.27-.69.27ZM114.92,184.22v3.78h-1.82v-6.54h1.73v1.15h.08c.14-.38.39-.68.73-.9.34-.22.75-.34,1.24-.34.46,0,.85.1,1.19.3.34.2.6.48.79.85.19.37.28.8.28,1.31v4.17h-1.82v-3.84c0-.4-.1-.71-.31-.94s-.49-.34-.86-.34c-.24,0-.46.05-.65.16-.18.11-.33.26-.43.46-.1.2-.15.44-.16.72h0ZM122.43,188.12c-.42,0-.79-.07-1.12-.22s-.59-.37-.78-.65c-.19-.29-.28-.65-.28-1.08,0-.36.07-.67.2-.92s.32-.45.55-.6c.23-.15.49-.26.78-.34s.6-.13.93-.16c.38-.04.69-.08.92-.11.23-.04.4-.09.51-.16s.16-.18.16-.32v-.02c0-.27-.08-.48-.26-.63-.17-.15-.41-.22-.72-.22-.33,0-.59.07-.78.22-.19.14-.32.32-.38.54l-1.68-.14c.08-.4.25-.74.5-1.03s.57-.52.97-.67c.4-.16.86-.24,1.38-.24.36,0,.71.04,1.04.13.33.09.63.22.89.4s.47.41.62.69.23.61.23,1v4.41h-1.72v-.91h-.05c-.11.21-.25.39-.42.54-.18.15-.39.27-.63.36-.25.08-.53.13-.86.13h0ZM122.95,186.87c.27,0,.5-.05.71-.16s.37-.25.48-.43c.12-.18.18-.39.18-.62v-.69c-.06.04-.14.07-.24.1s-.21.06-.33.08-.24.04-.37.06c-.12.02-.23.03-.33.05-.21.03-.4.08-.56.15-.16.07-.28.16-.37.28-.09.11-.13.26-.13.43,0,.25.09.44.27.57s.41.19.69.19h0ZM131.01,181.46v1.36h-3.94v-1.36h3.94ZM127.96,179.89h1.82v6.1c0,.17.03.3.08.39s.12.15.21.19c.09.04.2.06.32.06.08,0,.17,0,.26-.02.09-.02.15-.03.2-.04l.28,1.35c-.09.03-.22.06-.38.1-.17.04-.37.06-.6.07-.44.02-.82-.04-1.15-.17s-.58-.34-.76-.62-.27-.64-.27-1.07v-6.34h-.01ZM132.19,188v-6.54h1.81v6.54h-1.81ZM133.1,180.61c-.27,0-.5-.09-.69-.27-.19-.18-.29-.4-.29-.65s.1-.46.29-.64.43-.27.69-.27.5.09.69.27c.19.18.29.39.29.64s-.1.47-.29.65-.42.27-.69.27ZM138.42,188.13c-.66,0-1.24-.14-1.72-.42-.48-.28-.85-.68-1.11-1.18-.26-.51-.39-1.1-.39-1.77s.13-1.27.39-1.77c.26-.51.63-.9,1.11-1.18.48-.28,1.06-.43,1.72-.43s1.23.14,1.71.43c.48.28.85.68,1.12,1.18.26.51.39,1.1.39,1.77s-.13,1.26-.39,1.77c-.26.51-.63.9-1.12,1.18-.48.28-1.05.42-1.71.42ZM138.42,186.72c.3,0,.55-.09.75-.26s.35-.41.46-.71c.1-.3.16-.64.16-1.02s-.05-.72-.16-1.02c-.1-.3-.25-.54-.46-.71-.2-.17-.45-.26-.75-.26s-.56.09-.77.26-.36.41-.46.71c-.1.3-.15.64-.15,1.02s.05.72.15,1.02c.11.3.26.53.46.71.21.17.46.26.77.26ZM144.63,184.22v3.78h-1.82v-6.54h1.73v1.15h.08c.14-.38.39-.68.73-.9s.75-.34,1.24-.34c.46,0,.85.1,1.19.3s.6.48.79.85c.19.37.28.8.28,1.31v4.17h-1.82v-3.84c0-.4-.1-.71-.31-.94-.21-.23-.49-.34-.86-.34-.24,0-.46.05-.65.16-.18.11-.33.26-.43.46-.1.2-.15.44-.16.72h.01ZM98.36,194.27l2.11,6.63h.08l2.11-6.63h2.05l-3.01,8.73h-2.38l-3.01-8.73s2.05,0,2.05,0ZM107.97,203.13c-.67,0-1.25-.14-1.74-.41-.48-.28-.86-.66-1.12-1.17s-.39-1.1-.39-1.79.13-1.26.39-1.77c.26-.51.63-.9,1.1-1.19.48-.28,1.04-.43,1.68-.43.43,0,.83.07,1.21.21s.7.34.98.62c.28.28.5.62.66,1.04s.24.9.24,1.46v.5h-5.53v-1.12h3.82c0-.26-.06-.49-.17-.7-.11-.2-.27-.36-.47-.47-.2-.12-.43-.18-.69-.18s-.52.06-.73.19c-.21.12-.38.29-.49.51-.12.21-.18.44-.18.7v1.07c0,.32.06.6.18.84.12.24.29.42.52.54.22.13.48.19.79.19.2,0,.39-.03.55-.08.17-.06.31-.14.43-.26.12-.11.21-.25.27-.42l1.68.11c-.08.4-.26.76-.52,1.06-.26.3-.6.53-1.01.7-.41.16-.89.25-1.43.25h-.03ZM115.11,203.13c-.67,0-1.25-.14-1.73-.43s-.85-.68-1.11-1.19c-.26-.51-.38-1.09-.38-1.76s.13-1.26.39-1.76c.26-.51.63-.9,1.11-1.19.48-.29,1.05-.43,1.71-.43.57,0,1.07.1,1.5.31.43.21.77.5,1.02.87s.39.82.41,1.32h-1.71c-.05-.33-.18-.59-.38-.79s-.47-.3-.81-.3c-.28,0-.53.08-.74.23s-.37.37-.49.66c-.12.29-.18.64-.18,1.05s.06.77.17,1.07c.12.29.28.51.49.67.21.15.46.23.74.23.21,0,.39-.04.56-.13.17-.08.31-.21.41-.37.11-.16.18-.36.22-.59h1.71c-.03.5-.17.94-.41,1.32-.24.38-.57.67-1,.89-.43.21-.93.32-1.51.32h.01ZM122.68,196.46v1.36h-3.94v-1.36h3.94ZM119.63,194.89h1.81v6.1c0,.17.03.3.08.39s.12.15.21.19c.09.04.2.06.32.06.08,0,.17,0,.26-.02.08-.02.15-.03.2-.04l.29,1.35c-.09.03-.22.06-.38.1-.17.04-.36.06-.6.07-.44.02-.82-.04-1.15-.17s-.58-.34-.76-.62-.27-.64-.27-1.07v-6.34h-.01ZM126.75,203.13c-.66,0-1.23-.14-1.72-.42-.48-.28-.85-.68-1.11-1.18-.26-.51-.39-1.1-.39-1.77s.13-1.27.39-1.77c.26-.51.63-.9,1.11-1.18s1.06-.43,1.72-.43,1.23.14,1.71.43c.48.28.86.68,1.12,1.18.26.51.39,1.1.39,1.77s-.13,1.26-.39,1.77c-.26.51-.63.9-1.12,1.18-.48.28-1.05.42-1.71.42ZM126.76,201.72c.3,0,.55-.09.75-.26s.35-.41.46-.71c.1-.3.16-.64.16-1.02s-.05-.72-.16-1.02c-.1-.3-.25-.54-.46-.71-.2-.17-.45-.26-.75-.26s-.56.09-.77.26c-.2.17-.36.41-.46.71s-.15.64-.15,1.02.05.72.15,1.02c.11.3.26.53.46.71.21.17.46.26.77.26ZM131.15,203v-6.54h1.76v1.14h.07c.12-.41.32-.71.6-.92.28-.21.61-.32.97-.32.09,0,.19,0,.29.02.11,0,.2.03.28.05v1.61c-.08-.03-.2-.05-.35-.07s-.29-.03-.41-.03c-.27,0-.51.06-.72.17s-.37.27-.49.48c-.12.21-.18.44-.18.71v3.7h-1.82Z"/>
  <path class="st11" d="M758.02,178.8c2.27,15.23,1.21,30.76-3.1,45.54s-11.78,28.45-21.88,40.06c-10.1,11.61-22.61,20.9-36.64,27.22-14.04,6.32-29.28,9.52-44.67,9.38-15.39-.14-30.58-3.62-44.5-10.19s-26.25-16.08-36.14-27.88c-9.89-11.8-17.11-25.6-21.15-40.45-4.04-14.85-4.82-30.41-2.27-45.59l15.76,2.64c-2.16,12.91-1.51,26.13,1.93,38.75,3.44,12.63,9.57,24.36,17.98,34.38,8.41,10.03,18.89,18.11,30.72,23.7,11.83,5.59,24.74,8.54,37.82,8.66s26.04-2.6,37.97-7.97,22.56-13.26,31.15-23.13,14.93-21.49,18.6-34.05,4.57-25.77,2.64-38.71l15.8-2.35h-.02Z"/>
  <path class="st14" d="M552.85,157.41c5.85-15.76,15.35-29.9,27.72-41.28l10.82,11.76c-10.51,9.67-18.59,21.7-23.56,35.09l-14.97-5.56h-.01Z"/>
  <path class="st14" d="M596.29,104.15c14.26-8.9,30.42-14.3,47.16-15.75l1.38,15.91c-14.23,1.24-27.97,5.83-40.09,13.39l-8.46-13.55h.01Z"/>
  <path class="st14" d="M663.34,88.53c16.72,1.68,32.81,7.3,46.95,16.39l-8.64,13.44c-12.02-7.73-25.69-12.5-39.9-13.93l1.6-15.9h0Z"/>
  <path class="st14" d="M726.1,117.35c13.98,13.31,24.09,30.17,29.23,48.77l-15.4,4.26c-4.37-15.82-12.96-30.14-24.85-41.46l11.01-11.57h.01Z"/>
  <path class="st12" d="M547.66,176.8c1.11-6.6,2.85-13.09,5.18-19.36l14.98,5.56c-1.98,5.34-3.45,10.85-4.4,16.46l-15.75-2.65h0Z"/>
  <path class="st15" d="M580.44,116.25c4.92-4.54,10.26-8.61,15.94-12.15l8.45,13.56c-4.83,3.01-9.37,6.47-13.55,10.33l-10.84-11.74Z"/>
  <path class="st19" d="M643.25,88.42c6.67-.59,13.38-.55,20.05.11l-1.59,15.9c-5.66-.57-11.37-.6-17.04-.1l-1.41-15.91h-.01Z"/>
  <path class="st13" d="M755.28,165.95c1.79,6.45,2.98,13.06,3.53,19.73l-15.92,1.32c-.47-5.67-1.48-11.29-3-16.77l15.39-4.28h0Z"/>
  <path class="st16" d="M710.18,104.86c5.64,3.61,10.92,7.75,15.78,12.36l-10.99,11.59c-4.13-3.92-8.62-7.43-13.41-10.51l8.62-13.45h0Z"/>
  <path class="st18" d="M614.79,202v-8.73h5.78v1.52h-3.93v2.08h3.55v1.52h-3.55v3.6h-1.85ZM621.78,202v-6.54h1.82v6.54h-1.82ZM622.69,194.61c-.27,0-.5-.09-.69-.27-.19-.18-.29-.4-.29-.65s.1-.46.29-.64.42-.27.69-.27.5.09.69.27c.19.18.29.39.29.64s-.1.47-.29.65-.42.27-.69.27ZM626.86,198.22v3.78h-1.82v-6.54h1.73v1.15h.08c.15-.38.39-.68.73-.9.34-.22.75-.34,1.24-.34.45,0,.85.1,1.19.3s.6.48.79.85c.19.37.28.8.28,1.31v4.17h-1.82v-3.84c0-.4-.1-.71-.31-.94s-.49-.34-.86-.34c-.24,0-.46.05-.65.16-.18.11-.33.26-.43.46-.1.2-.16.44-.16.72h.01ZM634.38,202.12c-.42,0-.79-.07-1.12-.22s-.59-.37-.78-.65c-.19-.29-.28-.65-.28-1.08,0-.36.07-.67.2-.92s.32-.45.55-.6c.23-.15.49-.26.78-.34.3-.08.61-.13.93-.16.38-.04.69-.08.92-.11.23-.04.4-.09.51-.16s.16-.18.16-.32v-.02c0-.27-.09-.48-.26-.63-.17-.15-.41-.22-.71-.22-.33,0-.59.07-.78.22-.19.14-.32.32-.38.54l-1.68-.14c.09-.4.25-.74.5-1.03s.57-.52.97-.67c.4-.16.86-.24,1.38-.24.36,0,.71.04,1.04.13.33.09.63.22.89.4s.47.41.62.69.23.61.23,1v4.41h-1.72v-.91h-.05c-.1.21-.25.39-.42.54-.18.15-.39.27-.64.36-.25.08-.53.13-.86.13h0ZM634.9,200.87c.27,0,.5-.05.71-.16.2-.11.36-.25.48-.43s.17-.39.17-.62v-.69c-.06.04-.14.07-.23.1-.1.03-.21.06-.33.08s-.24.04-.37.06c-.12.02-.23.03-.33.05-.21.03-.4.08-.56.15-.16.07-.28.16-.37.28-.09.11-.13.26-.13.43,0,.25.09.44.27.57s.41.19.69.19h0ZM641.29,193.27v8.73h-1.82v-8.73h1.82ZM645.55,202v-8.73h3.44c.66,0,1.23.13,1.69.38.47.25.82.6,1.07,1.04.25.44.37.96.37,1.53s-.12,1.09-.38,1.53c-.25.44-.61.79-1.09,1.04-.47.25-1.04.37-1.71.37h-2.19v-1.48h1.9c.36,0,.65-.06.88-.18s.41-.3.52-.52c.12-.22.17-.48.17-.76s-.06-.54-.17-.76-.29-.39-.52-.51c-.23-.12-.53-.18-.89-.18h-1.24v7.22h-1.85ZM653.29,202v-6.54h1.76v1.14h.07c.12-.41.32-.71.6-.92.28-.21.6-.32.97-.32.09,0,.19,0,.29.02.1,0,.2.03.28.05v1.61c-.08-.03-.2-.05-.35-.07-.15-.02-.29-.03-.41-.03-.27,0-.51.06-.72.17-.21.11-.37.27-.49.48-.12.21-.18.44-.18.71v3.7h-1.82ZM660.85,202.13c-.66,0-1.23-.14-1.72-.42-.48-.28-.85-.68-1.11-1.18-.26-.51-.39-1.1-.39-1.77s.13-1.27.39-1.77c.26-.51.63-.9,1.11-1.18s1.05-.43,1.72-.43,1.23.14,1.71.43c.48.28.85.68,1.12,1.18.26.51.39,1.1.39,1.77s-.13,1.26-.39,1.77c-.26.51-.63.9-1.12,1.18-.48.28-1.05.42-1.71.42ZM660.86,200.72c.3,0,.55-.09.75-.26s.35-.41.46-.71c.11-.3.16-.64.16-1.02s-.05-.72-.16-1.02c-.1-.3-.25-.54-.46-.71-.2-.17-.45-.26-.75-.26s-.56.09-.77.26-.36.41-.46.71c-.1.3-.15.64-.15,1.02s.05.72.15,1.02c.1.3.26.53.46.71.21.17.46.26.77.26ZM667.66,202.11c-.5,0-.95-.13-1.35-.38-.4-.26-.72-.64-.95-1.14-.23-.5-.35-1.12-.35-1.85s.12-1.37.36-1.87.56-.87.96-1.12.85-.38,1.33-.38c.37,0,.67.06.92.19.25.12.45.27.6.46.15.18.27.36.35.54h.05v-3.28h1.81v8.73h-1.79v-1.05h-.08c-.08.18-.21.36-.36.54-.15.18-.35.32-.6.44-.24.12-.54.17-.9.17h0ZM668.24,200.66c.29,0,.54-.08.74-.24s.36-.39.47-.68.17-.63.17-1.02-.05-.73-.16-1.01c-.11-.29-.26-.51-.47-.66-.21-.16-.45-.23-.75-.23s-.55.08-.75.24c-.21.16-.36.39-.46.67-.11.29-.16.62-.16,1s.05.72.16,1.01.26.52.46.68c.21.16.46.24.75.24ZM677.08,199.21v-3.76h1.82v6.54h-1.74v-1.19h-.07c-.15.38-.39.69-.74.92-.34.23-.76.35-1.25.35-.44,0-.82-.1-1.15-.3s-.59-.48-.78-.85c-.18-.37-.28-.8-.28-1.32v-4.17h1.82v3.84c0,.39.11.69.31.92.2.22.48.34.82.34.22,0,.42-.05.61-.15.19-.1.34-.25.46-.45s.18-.44.17-.74v.02ZM683.3,202.13c-.67,0-1.25-.14-1.73-.43s-.85-.68-1.11-1.19c-.26-.51-.38-1.09-.38-1.76s.13-1.26.39-1.76c.26-.51.63-.9,1.11-1.19.48-.29,1.05-.43,1.71-.43.57,0,1.07.1,1.5.31.43.21.77.5,1.02.87s.39.82.41,1.32h-1.71c-.05-.33-.18-.59-.38-.79-.21-.2-.47-.3-.8-.3-.28,0-.53.08-.74.23-.21.15-.37.37-.48.66-.12.29-.17.64-.17,1.05s.06.77.17,1.07c.12.29.28.51.49.67.21.15.46.23.74.23.21,0,.39-.04.56-.13.17-.08.3-.21.41-.37.11-.16.18-.36.22-.59h1.71c-.03.5-.16.94-.41,1.32-.24.38-.58.67-1,.89-.43.21-.93.32-1.51.32h-.02ZM690.87,195.46v1.36h-3.94v-1.36h3.94ZM687.82,193.89h1.82v6.1c0,.17.03.3.08.39s.12.15.21.19c.09.04.2.06.32.06.09,0,.17,0,.26-.02s.15-.03.2-.04l.29,1.35c-.09.03-.22.06-.38.1-.17.04-.37.06-.6.07-.44.02-.82-.04-1.15-.17s-.58-.34-.76-.62-.27-.64-.27-1.07v-6.34h-.02Z"/>
  <path class="st18" d="M554.67,123.27v8.73h-1.85v-8.73s1.85,0,1.85,0ZM559.93,123.27v8.73h-1.84v-6.98h-.05l-2,1.25v-1.64l2.16-1.37h1.73Z"/>
  <path class="st18" d="M610.82,81.27v8.73h-1.85v-8.73s1.85,0,1.85,0ZM612.29,90v-1.33l3.11-2.88c.26-.26.49-.49.66-.69.18-.2.32-.4.41-.6.09-.2.14-.41.14-.64,0-.26-.06-.48-.17-.66-.12-.19-.28-.33-.48-.43-.2-.1-.43-.15-.69-.15s-.5.05-.7.16-.35.26-.46.46c-.11.2-.16.44-.16.72h-1.75c0-.57.13-1.07.39-1.49s.62-.75,1.09-.98c.47-.23,1-.35,1.61-.35s1.17.11,1.63.33c.47.22.83.52,1.09.91.26.39.39.84.39,1.34,0,.33-.07.65-.2.98-.13.32-.36.68-.69,1.07s-.79.86-1.39,1.4l-1.27,1.25v.06h3.66v1.51h-6.22Z"/>
  <path class="st18" d="M693.65,81.27v8.73h-1.84v-8.73s1.84,0,1.84,0ZM698.34,90.12c-.64,0-1.2-.11-1.7-.33-.49-.22-.89-.53-1.17-.91-.28-.39-.43-.84-.44-1.35h1.86c.01.21.08.4.21.56.13.16.3.28.52.37.22.09.46.13.73.13s.53-.05.75-.15.39-.24.51-.41.18-.38.18-.61-.07-.44-.2-.62-.31-.32-.55-.43c-.24-.1-.52-.15-.85-.15h-.81v-1.36h.81c.28,0,.52-.05.74-.14.22-.1.38-.23.5-.4s.18-.38.18-.61-.05-.41-.16-.58c-.1-.17-.25-.3-.43-.39s-.4-.14-.65-.14-.48.05-.69.14-.37.21-.5.38-.19.36-.2.58h-1.77c0-.5.15-.95.43-1.33.28-.38.65-.68,1.12-.9s1.01-.33,1.61-.33,1.13.11,1.58.33.8.51,1.05.89c.25.37.38.78.38,1.24,0,.49-.15.9-.46,1.22-.3.33-.7.53-1.19.62v.07c.64.08,1.13.31,1.47.67.34.36.51.81.5,1.36,0,.5-.14.94-.43,1.33s-.68.69-1.19.91-1.09.33-1.74.33h0Z"/>
  <path class="st18" d="M745.54,123.27v8.73h-1.85v-8.73s1.85,0,1.85,0ZM746.87,130.47v-1.45l3.64-5.74h1.25v2.01h-.74l-2.3,3.64v.07h5.18v1.48h-7.04,0ZM751.06,132v-1.98l.03-.64v-6.11h1.73v8.73h-1.76Z"/>
  <line class="st10" x1="296" y1="107.05" x2="303.37" y2="119.91"/>
  <line class="st10" x1="479.25" y1="110.95" x2="467.67" y2="119.53"/>
  <g class="st2">
    <text class="st1" transform="translate(55.6 319.89)"><tspan x="0" y="0">Linearized Destination </tspan></text>
    <text class="st0" transform="translate(55.6 319.89)"><tspan x="0" y="0">Linearized Destination </tspan></text>
    <text class="st1" transform="translate(97.36 334.29)"><tspan x="0" y="0">Vector</tspan></text>
    <text class="st0" transform="translate(97.36 334.29)"><tspan x="0" y="0">Vector</tspan></text>
  </g>
  <g class="st2">
    <text class="st1" transform="translate(607.54 327.09)"><tspan x="0" y="0">Assembled Plasmid</tspan></text>
    <text class="st0" transform="translate(607.54 327.09)"><tspan x="0" y="0">Assembled Plasmid</tspan></text>
  </g>
  <g class="st2">
    <text class="st3" transform="translate(376.67 326.42)"><tspan x="0" y="0">Ligate</tspan></text>
    <text/>
    <text/>
  </g>
  <path class="st15" d="M350.75,89.7c-7.28,2.4-14.25,5.56-20.72,9.38l-5.25-7.75c6.96-4.12,14.46-7.52,22.29-10.1l3.67,8.46Z"/>
  <path class="st17" d="M302.15,113.35l-6.15-6.3c5.49-5.92,11.63-11.26,18.25-15.89l4.83,7.44c-6.14,4.29-11.84,9.25-16.94,14.74Z"/>
  <path class="st9" d="M307.88,107.21c2.67-2.61,5.52-5.15,8.54-7.59,7.51-6.07,15.39-10.98,23.22-14.66"/>
  <path class="st17" d="M305.74,144.34l-8.55-5.19c4.9-8.06,10.68-15.68,17.17-22.64l7.31,6.82c-6.03,6.46-11.39,13.53-15.94,21.01Z"/>
  <path class="st13" d="M469.89,140.25c-4.51-7.58-9.8-14.73-15.71-21.23l7.4-6.73c6.36,7,12.05,14.68,16.91,22.84l-8.59,5.11Z"/>
  <path class="st11" d="M467.67,119.53c12.89,15.55,21.09,34.45,23.65,54.49s-.64,40.39-9.21,58.68c-8.57,18.29-22.17,33.77-39.21,44.62-17.04,10.85-36.81,16.64-57.01,16.68-20.2.04-39.99-5.66-57.08-16.45-17.08-10.78-30.74-26.2-39.39-44.46-8.65-18.26-11.93-38.59-9.45-58.64,2.47-20.05,10.6-38.98,23.42-54.58l12.34,10.14c-10.9,13.26-17.81,29.35-19.91,46.4-2.1,17.04.68,34.33,8.03,49.84,7.35,15.52,18.96,28.62,33.48,37.79,14.52,9.17,31.35,14.01,48.51,13.98,17.17-.04,33.98-4.95,48.46-14.18,14.48-9.23,26.04-22.38,33.32-37.93,7.29-15.55,10-32.85,7.83-49.88s-9.15-33.09-20.1-46.31l12.3-10.19h.02Z"/>
  <path class="st19" d="M392.49,80.45c-7.48-1.71-15.08-2.61-22.59-2.67l-.49-9.35c8.08.07,16.26,1.03,24.31,2.87l-1.23,9.15Z"/>
  <path class="st15" d="M338.66,75.59l-2.01-8.57c7.76-2.23,15.78-3.63,23.83-4.18l.3,8.87c-7.48.5-14.92,1.81-22.12,3.88Z"/>
  <path class="st9" d="M346.74,73.3c3.63-.86,7.39-1.56,11.24-2.09,9.57-1.32,18.85-1.45,27.46-.56"/>
  <path class="st16" d="M436.01,90.03c-6.06-4.7-12.57-8.72-19.35-11.95l3.5-8.68c7.3,3.47,14.31,7.8,20.83,12.86l-4.97,7.77Z"/>
  <path class="st19" d="M389.26,62.91l1.79-8.61c7.98,1.25,15.84,3.36,23.37,6.27l-3.47,8.16c-6.99-2.7-14.29-4.65-21.69-5.82Z"/>
  <path class="st9" d="M397.55,64.24c3.66.76,7.36,1.7,11.07,2.85,9.23,2.84,17.7,6.63,25.13,11.07"/>
  <path class="st13" d="M471.72,116.28c-3.84-6.64-8.36-12.81-13.44-18.35l6.51-6.73c5.46,5.96,10.32,12.61,14.46,19.75l-7.53,5.33Z"/>
  <path class="st16" d="M438.6,73.57l4.9-7.31c6.92,4.16,13.41,9.07,19.3,14.6l-6.29,6.26c-5.46-5.13-11.49-9.69-17.91-13.55Z"/>
  <path class="st9" d="M445.78,77.92c3.1,2.08,6.18,4.34,9.19,6.8,7.48,6.1,13.9,12.81,19.12,19.71"/>
  <g>
    <line class="st8" x1="567.58" y1="163.66" x2="565.72" y2="162.92"/>
    <line class="st4" x1="564.66" y1="162.5" x2="562.01" y2="161.45"/>
    <polyline class="st8" points="561.48 161.24 559.62 160.5 559.12 162.44"/>
    <line class="st5" x1="558.61" y1="164.42" x2="555.8" y2="175.3"/>
    <polyline class="st8" points="555.55 176.29 555.05 178.23 553.09 177.84"/>
    <line class="st8" x1="549.86" y1="177.2" x2="547.9" y2="176.81"/>
  </g>
  <g>
    <line class="st8" x1="605.18" y1="117.51" x2="604.09" y2="115.83"/>
    <line class="st7" x1="603.37" y1="114.73" x2="601.58" y2="111.97"/>
    <polyline class="st8" points="601.22 111.42 600.13 109.74 598.6 111.03"/>
    <line class="st6" x1="597.04" y1="112.35" x2="588.45" y2="119.61"/>
    <polyline class="st8" points="587.67 120.27 586.14 121.56 584.79 120.09"/>
    <line class="st8" x1="582.16" y1="117.24" x2="580.8" y2="115.76"/>
  </g>
  <g>
    <line class="st8" x1="662.07" y1="104.32" x2="662.22" y2="102.32"/>
    <line class="st7" x1="662.32" y1="101.01" x2="662.57" y2="97.73"/>
    <polyline class="st8" points="662.62 97.08 662.78 95.08 660.78 95.18"/>
    <line class="st6" x1="658.74" y1="95.28" x2="647.5" y2="95.82"/>
    <polyline class="st8" points="646.48 95.87 644.49 95.97 644.3 93.97"/>
    <line class="st8" x1="643.95" y1="90.11" x2="643.77" y2="88.12"/>
  </g>
  <g>
    <line class="st8" x1="714.78" y1="128.91" x2="716.15" y2="127.46"/>
    <line class="st7" x1="717.06" y1="126.5" x2="719.32" y2="124.11"/>
    <polyline class="st8" points="719.77 123.63 721.14 122.18 719.53 121"/>
    <line class="st6" x1="717.88" y1="119.79" x2="708.81" y2="113.14"/>
    <polyline class="st8" points="707.99 112.54 706.37 111.35 707.49 109.69"/>
    <line class="st8" x1="709.65" y1="106.47" x2="710.76" y2="104.81"/>
  </g>
  <g>
    <line class="st8" x1="742.17" y1="186.77" x2="744.16" y2="186.61"/>
    <line class="st7" x1="745.48" y1="186.51" x2="748.76" y2="186.25"/>
    <polyline class="st8" points="749.41 186.19 751.41 186.04 751 184.08"/>
    <line class="st6" x1="750.58" y1="182.07" x2="748.3" y2="171.06"/>
    <polyline class="st8" points="748.09 170.06 747.69 168.11 749.63 167.62"/>
    <line class="st8" x1="753.39" y1="166.67" x2="755.33" y2="166.18"/>
  </g>
</svg>