<?xml version="1.0" encoding="UTF-8"?>
<svg id="Layer_1" xmlns="http://www.w3.org/2000/svg" version="1.1" viewBox="0 0 762.99 348.11">
  <!-- Generator: Adobe Illustrator 29.5.1, SVG Export Plug-In . SVG Version: 2.1.0 Build 141)  -->
  <defs>
    <style>
      .st0, .st1, .st2, .st3 {
        isolation: isolate;
      }

      .st0, .st2, .st3 {
        font-family: Arial-Mdm, Arial;
        font-size: 12px;
        font-weight: 500;
      }

      .st4 {
        fill: #e8a13b;
      }

      .st5 {
        fill: #dd514c;
      }

      .st6 {
        stroke-dasharray: 4.09 2.04;
      }

      .st6, .st7, .st8, .st9, .st3, .st10 {
        fill: none;
      }

      .st6, .st2, .st8, .st9, .st3, .st10 {
        stroke-miterlimit: 10;
      }

      .st6, .st8, .st9 {
        stroke: red;
      }

      .st7 {
        stroke: #71a2f3;
        stroke-dasharray: 2 2;
      }

      .st2 {
        stroke: #000;
      }

      .st2, .st3 {
        stroke-width: .25px;
      }

      .st11 {
        fill: #54b684;
      }

      .st8 {
        stroke-dasharray: 2.63 1.32;
      }

      .st12 {
        fill: #a8d8e8;
      }

      .st13 {
        fill: #4e80ed;
      }

      .st3 {
        stroke: #221f20;
      }

      .st14 {
        fill: #835eed;
      }

      .st15 {
        fill: #8a5cf5;
      }

      .st16 {
        fill: #3974ad;
      }

      .st17 {
        fill: #da5497;
      }

      .st18 {
        fill: #ec4799;
      }

      .st10 {
        stroke: #1b76b1;
        stroke-width: 17px;
      }

      .st19 {
        fill: #f49d0d;
      }

      .st20 {
        fill: #3c81f4;
      }

      .st21 {
        fill: #0b0755;
      }

      .st22 {
        fill: #0bb980;
      }
    </style>
  </defs>
  <path class="st21" d="M271.25,183.59l-10-5.77v11.55l10-5.77h0ZM229.75,183.59v1h32.5v-2h-32.5v1Z"/>
  <path class="st21" d="M535.25,183.59l-10-5.77v11.55l10-5.77h0ZM493.75,183.59v1h32.5v-2h-32.5v1Z"/>
  <path class="st21" d="M351.23,193.59h-3.09v-8.73h3.12c.88,0,1.63.17,2.27.52.63.35,1.12.85,1.46,1.5s.52,1.43.52,2.34-.17,1.69-.52,2.34c-.34.65-.83,1.15-1.47,1.5s-1.4.52-2.28.52h0ZM349.98,192.01h1.17c.54,0,1-.1,1.38-.29.38-.2.66-.5.84-.91.19-.41.29-.94.29-1.59s-.1-1.17-.29-1.58-.47-.71-.84-.9c-.37-.19-.83-.29-1.38-.29h-1.18v5.57h0ZM359.81,193.72c-.67,0-1.25-.14-1.74-.41-.48-.28-.86-.66-1.12-1.17s-.39-1.1-.39-1.79.13-1.26.39-1.77c.26-.51.63-.9,1.1-1.19.48-.28,1.04-.43,1.68-.43.43,0,.83.07,1.2.21.38.14.7.34.98.62s.5.62.66,1.04.23.9.23,1.46v.5h-5.53v-1.12h3.82c0-.26-.06-.49-.17-.7-.11-.2-.27-.36-.47-.47-.2-.12-.43-.18-.7-.18s-.52.06-.73.19c-.21.12-.38.29-.49.51-.12.21-.18.44-.18.7v1.07c0,.32.06.6.18.84.12.24.29.42.51.54.22.13.49.19.79.19.2,0,.39-.03.55-.08.17-.06.31-.14.43-.26.12-.11.21-.25.27-.42l1.68.11c-.08.4-.26.76-.52,1.06-.26.3-.6.53-1.01.7-.41.16-.89.25-1.43.25h0ZM369.45,188.91l-1.66.1c-.03-.14-.09-.27-.18-.38-.09-.12-.22-.21-.37-.28-.15-.07-.33-.11-.54-.11-.28,0-.52.06-.71.18s-.29.27-.29.47c0,.16.06.29.19.4s.34.2.64.26l1.18.24c.64.13,1.11.34,1.42.63.31.29.47.67.47,1.14,0,.43-.13.8-.38,1.13-.25.32-.59.58-1.03.76s-.94.27-1.51.27c-.87,0-1.56-.18-2.07-.54s-.81-.86-.9-1.48l1.79-.09c.05.26.18.47.39.61.21.14.47.21.8.21s.57-.06.77-.18c.2-.12.29-.29.3-.48,0-.16-.07-.3-.21-.4-.14-.11-.35-.19-.63-.25l-1.13-.23c-.64-.13-1.11-.35-1.43-.66-.31-.32-.46-.72-.46-1.21,0-.42.11-.78.34-1.09.23-.3.55-.54.97-.7s.91-.25,1.47-.25c.83,0,1.48.18,1.95.52.48.35.76.83.83,1.43v-.02ZM374.22,187.05v1.36h-3.94v-1.36h3.94ZM371.17,185.48h1.82v6.1c0,.17.03.3.08.39s.12.15.21.19c.09.04.2.06.32.06.08,0,.17,0,.26-.02s.15-.03.2-.04l.29,1.35c-.09.03-.22.06-.38.1-.16.04-.36.06-.6.07-.44.02-.82-.04-1.15-.17s-.58-.34-.76-.62c-.18-.28-.27-.64-.27-1.07v-6.34h-.02ZM375.4,193.59v-6.54h1.82v6.54h-1.82ZM376.31,186.2c-.27,0-.5-.09-.69-.27-.19-.18-.29-.4-.29-.65s.1-.46.29-.64.42-.27.69-.27.5.09.69.27c.19.18.29.39.29.64s-.1.47-.29.65-.42.27-.69.27ZM380.49,189.81v3.78h-1.81v-6.54h1.73v1.15h.08c.14-.38.39-.68.73-.9s.76-.34,1.24-.34c.45,0,.85.1,1.19.3s.6.48.79.85c.19.37.28.8.28,1.31v4.17h-1.82v-3.84c0-.4-.1-.71-.31-.94s-.49-.34-.86-.34c-.24,0-.46.05-.65.16-.18.11-.33.26-.43.46-.1.2-.15.44-.16.72h0ZM388,193.71c-.42,0-.79-.07-1.12-.22s-.59-.37-.78-.65c-.19-.29-.28-.65-.28-1.08,0-.36.07-.67.2-.92s.31-.45.55-.6c.23-.15.49-.26.78-.34.3-.08.61-.13.93-.16.38-.04.69-.08.92-.11.23-.04.4-.09.51-.16.11-.07.16-.18.16-.32v-.02c0-.27-.09-.48-.26-.63-.17-.15-.41-.22-.72-.22-.33,0-.59.07-.78.22-.19.14-.32.32-.38.54l-1.68-.14c.08-.4.25-.74.5-1.03s.57-.52.97-.67c.4-.16.86-.24,1.38-.24.36,0,.71.04,1.04.13.33.09.63.22.89.4s.47.41.62.69.23.61.23,1v4.41h-1.72v-.91h-.05c-.11.21-.24.39-.42.54-.18.15-.39.27-.64.36-.25.08-.53.13-.86.13h0ZM388.52,192.46c.27,0,.5-.05.71-.16s.36-.25.48-.43c.12-.18.18-.39.18-.62v-.69c-.06.04-.14.07-.24.1-.1.03-.21.06-.33.08s-.24.04-.37.06c-.12.02-.23.03-.33.05-.21.03-.4.08-.56.15-.16.07-.28.16-.37.28-.09.11-.13.26-.13.43,0,.25.09.44.27.57s.41.19.69.19h0ZM396.58,187.05v1.36h-3.94v-1.36h3.94ZM393.53,185.48h1.82v6.1c0,.17.02.3.08.39.05.09.12.15.21.19.09.04.2.06.32.06.08,0,.17,0,.26-.02.08-.02.15-.03.2-.04l.29,1.35c-.09.03-.22.06-.38.1-.16.04-.36.06-.6.07-.44.02-.82-.04-1.15-.17s-.58-.34-.76-.62c-.18-.28-.27-.64-.27-1.07v-6.34h-.02ZM397.76,193.59v-6.54h1.82v6.54h-1.82ZM398.67,186.2c-.27,0-.5-.09-.7-.27-.19-.18-.29-.4-.29-.65s.1-.46.29-.64.43-.27.7-.27.5.09.69.27c.19.18.29.39.29.64s-.1.47-.29.65-.42.27-.69.27ZM403.99,193.72c-.66,0-1.23-.14-1.72-.42-.48-.28-.85-.68-1.11-1.18-.26-.51-.39-1.1-.39-1.77s.13-1.27.39-1.77c.26-.51.63-.9,1.11-1.18.48-.28,1.06-.43,1.72-.43s1.23.14,1.71.43c.48.28.85.68,1.12,1.18.26.51.39,1.1.39,1.77s-.13,1.26-.39,1.77c-.26.51-.63.9-1.12,1.18-.48.28-1.05.42-1.71.42ZM404,192.31c.3,0,.55-.09.75-.26s.35-.41.46-.71.16-.64.16-1.02-.05-.72-.16-1.02c-.1-.3-.25-.54-.46-.71-.2-.17-.45-.26-.75-.26s-.56.09-.77.26c-.2.17-.36.41-.46.71s-.15.64-.15,1.02.05.72.15,1.02c.11.3.26.53.46.71.21.17.46.26.77.26ZM410.21,189.81v3.78h-1.82v-6.54h1.73v1.15h.08c.14-.38.39-.68.73-.9s.75-.34,1.24-.34c.45,0,.85.1,1.19.3s.6.48.79.85c.19.37.28.8.28,1.31v4.17h-1.82v-3.84c0-.4-.1-.71-.31-.94s-.49-.34-.86-.34c-.24,0-.46.05-.65.16-.18.11-.33.26-.43.46-.1.2-.15.44-.16.72h0ZM363.93,199.86l2.11,6.63h.08l2.11-6.63h2.05l-3.01,8.73h-2.38l-3.01-8.73h2.05ZM373.54,208.72c-.67,0-1.25-.14-1.74-.41-.48-.28-.86-.66-1.12-1.17s-.39-1.1-.39-1.79.13-1.26.39-1.77c.26-.51.63-.9,1.1-1.19.48-.28,1.04-.43,1.68-.43.43,0,.83.07,1.21.21s.7.34.98.62.5.62.66,1.04.23.9.23,1.46v.5h-5.53v-1.12h3.82c0-.26-.06-.49-.17-.7-.11-.2-.27-.36-.47-.47-.2-.12-.43-.18-.69-.18s-.52.06-.73.19c-.21.12-.38.29-.49.51-.12.21-.18.44-.18.7v1.07c0,.32.06.6.18.84.12.24.29.42.52.54.22.13.48.19.79.19.2,0,.39-.03.55-.08.17-.06.31-.14.43-.26.12-.11.21-.25.27-.42l1.68.11c-.08.4-.26.76-.52,1.06-.26.3-.6.53-1.01.7-.41.16-.89.25-1.43.25h-.02ZM380.69,208.72c-.67,0-1.25-.14-1.73-.43s-.85-.68-1.11-1.19c-.26-.51-.38-1.09-.38-1.76s.13-1.26.39-1.76c.26-.51.63-.9,1.11-1.19.48-.29,1.05-.43,1.71-.43.57,0,1.07.1,1.5.31.43.21.77.5,1.02.87s.39.82.41,1.32h-1.71c-.05-.33-.18-.59-.38-.79s-.47-.3-.81-.3c-.28,0-.53.08-.74.23s-.37.37-.49.66c-.12.29-.17.64-.17,1.05s.06.77.17,1.07c.12.29.28.51.49.67.21.15.46.23.74.23.21,0,.39-.04.56-.13.17-.08.31-.21.41-.37.11-.16.18-.36.22-.59h1.71c-.03.5-.17.94-.41,1.32s-.58.67-1,.89c-.43.21-.93.32-1.51.32h0ZM388.25,202.05v1.36h-3.94v-1.36h3.94ZM385.21,200.48h1.82v6.1c0,.17.03.3.08.39s.12.15.21.19c.09.04.2.06.32.06.08,0,.17,0,.26-.02.08-.02.15-.03.2-.04l.29,1.35c-.09.03-.22.06-.38.1-.17.04-.36.06-.6.07-.44.02-.82-.04-1.15-.17s-.58-.34-.76-.62c-.18-.28-.27-.64-.27-1.07v-6.34h-.02ZM392.32,208.72c-.66,0-1.23-.14-1.72-.42-.48-.28-.85-.68-1.11-1.18-.26-.51-.39-1.1-.39-1.77s.13-1.27.39-1.77c.26-.51.63-.9,1.11-1.18.48-.28,1.06-.43,1.72-.43s1.23.14,1.71.43c.48.28.86.68,1.12,1.18.26.51.39,1.1.39,1.77s-.13,1.26-.39,1.77c-.26.51-.63.9-1.12,1.18-.48.28-1.05.42-1.71.42ZM392.33,207.31c.3,0,.55-.09.75-.26s.35-.41.46-.71.16-.64.16-1.02-.05-.72-.16-1.02c-.1-.3-.25-.54-.46-.71-.2-.17-.45-.26-.75-.26s-.56.09-.77.26-.36.41-.47.71c-.1.3-.15.64-.15,1.02s.05.72.15,1.02c.11.3.26.53.47.71.21.17.46.26.77.26ZM396.72,208.59v-6.54h1.76v1.14h.07c.12-.41.32-.71.6-.92.28-.21.61-.32.97-.32.09,0,.19,0,.29.02.11,0,.2.03.28.05v1.61c-.08-.03-.2-.05-.35-.07s-.29-.03-.41-.03c-.27,0-.51.06-.72.17s-.37.27-.49.48c-.12.21-.18.44-.18.71v3.7h-1.82Z"/>
  <path class="st21" d="M276.39,93.48l5.36,6.89-1.45,1.14-5.36-6.89,1.45-1.14ZM282.03,95.35l2.33,2.98-1.43,1.12-4.02-5.16,1.36-1.06.71.91.06-.05c-.12-.39-.11-.78.02-1.16.13-.38.39-.73.77-1.03.36-.28.73-.45,1.12-.5s.77.01,1.15.19c.37.17.71.46,1.03.86l2.56,3.29-1.43,1.12-2.37-3.03c-.25-.31-.51-.5-.81-.55s-.6.04-.88.26c-.2.15-.33.33-.42.52s-.1.4-.06.63c.05.22.15.44.32.66h0ZM290.23,87.83l-1.25,1.1c-.11-.1-.23-.15-.38-.19-.14-.04-.3-.03-.46.01-.16.03-.33.12-.49.25-.23.18-.37.37-.46.58s-.06.39.06.55c.09.13.22.18.4.2.16,0,.39-.06.67-.19l1.08-.54c.58-.28,1.09-.42,1.51-.38.42.04.79.24,1.08.61.27.33.4.71.4,1.12.01.41-.11.82-.35,1.23-.23.41-.57.78-1.02,1.14-.69.54-1.34.81-1.97.85-.63.03-1.16-.18-1.63-.62l1.35-1.17c.2.17.44.25.69.23s.5-.13.75-.33.42-.4.49-.61c.07-.22.06-.41-.06-.56-.1-.13-.24-.19-.41-.19s-.39.06-.65.2l-1.04.52c-.58.29-1.09.41-1.53.35s-.81-.28-1.11-.66c-.26-.33-.39-.69-.4-1.07s.1-.76.33-1.15.56-.75,1-1.1c.65-.51,1.27-.77,1.86-.79s1.1.18,1.54.61h0ZM296.55,88.99c-.53.41-1.07.67-1.62.74-.55.08-1.08,0-1.6-.23-.52-.24-.99-.63-1.41-1.18-.41-.53-.68-1.07-.78-1.64-.1-.56-.06-1.1.14-1.61.2-.52.56-.97,1.07-1.37.34-.27.7-.46,1.08-.58s.77-.16,1.16-.12.77.18,1.16.42c.38.23.73.56,1.08,1l.31.39-4.36,3.4-.69-.88,3.01-2.35c-.17-.21-.35-.35-.56-.45-.21-.08-.43-.12-.66-.08-.23.03-.45.13-.65.29-.22.17-.37.37-.47.6s-.12.46-.08.7.13.46.29.66l.66.84c.2.26.42.44.65.55.24.11.48.15.74.11.25-.04.5-.14.74-.33.16-.12.28-.26.39-.41.1-.15.16-.3.18-.46s.01-.33-.04-.5l1.4-.95c.18.38.26.75.24,1.15s-.15.78-.37,1.18c-.22.39-.55.74-.97,1.07h-.02ZM299.78,86.31l-4.02-5.16,1.38-1.08.7.9.06-.04c-.16-.4-.19-.76-.1-1.1s.28-.62.57-.84c.07-.05.15-.11.25-.17.09-.05.17-.1.25-.14l.99,1.28c-.08.03-.19.08-.32.17-.13.07-.25.16-.34.23-.21.17-.36.36-.46.58-.09.21-.13.44-.09.68.03.24.13.46.3.67l2.27,2.92-1.43,1.12v-.02ZM302.63,75.79l.84,1.08-3.11,2.42-.84-1.08,3.11-2.42ZM299.27,76.43l1.43-1.12,3.75,4.82c.1.13.21.21.3.26.1.04.19.05.29.02.1-.03.19-.08.29-.16.07-.05.13-.11.19-.17.06-.06.1-.11.14-.15l1.05.89c-.06.08-.14.18-.24.32s-.25.28-.43.43c-.33.28-.67.48-1.02.57-.34.1-.67.09-.98-.03s-.61-.33-.87-.68l-3.9-5h0ZM307.4,69.31l5.36,6.89-1.45,1.14-4.29-5.5-.04.03-.8,2.22-1-1.3.86-2.4,1.37-1.06h-.01Z"/>
  <path class="st21" d="M460.69,67.51l-5.08,7.1-1.5-1.07,5.08-7.1,1.5,1.07ZM460.49,73.45l-2.2,3.08-1.48-1.06,3.81-5.32,1.41,1.01-.67.94.06.04c.34-.23.71-.33,1.12-.31s.81.17,1.2.45c.37.26.63.58.79.93.16.36.21.74.14,1.15-.06.41-.24.82-.53,1.23l-2.43,3.39-1.48-1.06,2.24-3.12c.24-.32.33-.64.3-.94-.04-.31-.2-.56-.5-.78-.2-.14-.4-.23-.62-.25-.21-.02-.42.02-.62.12-.2.1-.38.27-.55.49h.01ZM470.03,79.19l-1.41-.88c.06-.13.08-.27.08-.42s-.06-.3-.14-.44c-.08-.15-.21-.28-.38-.4-.23-.16-.46-.25-.68-.27-.23-.02-.39.05-.51.21-.09.13-.12.27-.08.43s.16.36.37.59l.82.88c.44.48.7.92.79,1.34.08.42,0,.82-.28,1.2-.25.35-.57.58-.97.7-.39.12-.82.12-1.28.02-.46-.11-.92-.33-1.38-.66-.7-.5-1.16-1.05-1.37-1.65-.2-.59-.16-1.17.13-1.73l1.51.96c-.11.25-.12.49-.03.72s.27.44.53.63c.26.19.5.28.73.3.23,0,.41-.06.52-.22.09-.14.12-.29.07-.45-.05-.17-.17-.36-.37-.57l-.79-.84c-.45-.48-.7-.93-.77-1.37-.07-.44.04-.85.32-1.25.24-.34.55-.57.91-.68.36-.11.76-.12,1.2,0,.44.11.88.33,1.34.65.67.48,1.1,1,1.28,1.56s.13,1.11-.15,1.65h-.01ZM470.71,85.59c-.55-.39-.94-.84-1.18-1.35-.23-.51-.31-1.04-.23-1.6.08-.56.32-1.13.73-1.69.39-.55.84-.95,1.35-1.21s1.04-.37,1.59-.32,1.09.26,1.61.63c.35.25.64.54.86.87.23.33.37.69.44,1.07.07.39.04.8-.07,1.23-.11.43-.33.87-.66,1.32l-.29.41-4.49-3.22.66-.91,3.1,2.22c.15-.21.24-.43.27-.66.02-.23-.01-.45-.11-.66-.09-.21-.25-.39-.46-.55-.22-.16-.46-.25-.71-.27-.24-.02-.48.02-.7.12s-.41.26-.56.46l-.62.87c-.19.26-.3.53-.34.79-.04.26,0,.51.1.74.11.23.28.44.53.61.16.12.33.2.5.25s.34.07.5.04c.16-.02.32-.08.46-.18l1.3,1.07c-.3.28-.65.46-1.04.55s-.8.08-1.23-.02c-.43-.11-.86-.32-1.3-.63v.02ZM474.19,87.92l3.81-5.32,1.43,1.02-.67.93.06.04c.33-.26.67-.39,1.02-.4.35,0,.67.1.97.31.07.05.15.11.23.19.08.07.14.14.2.2l-.94,1.31c-.05-.07-.14-.16-.25-.26s-.22-.19-.32-.26c-.22-.16-.45-.25-.68-.27-.24-.03-.46,0-.68.1s-.4.25-.56.47l-2.16,3.01-1.48-1.06h.02ZM485.09,87.68l-.79,1.11-3.21-2.3.79-1.11,3.2,2.3h0ZM483.53,84.63l1.48,1.06-3.55,4.96c-.1.14-.15.26-.17.36-.01.1,0,.2.06.28s.13.16.23.23c.07.05.14.09.22.13s.14.06.18.08l-.55,1.26c-.09-.03-.21-.08-.37-.14s-.33-.16-.53-.29c-.36-.24-.64-.51-.83-.81-.19-.3-.27-.62-.26-.95.02-.33.15-.68.4-1.02l3.69-5.15h0ZM487.01,97.25c-.49-.35-.86-.75-1.12-1.21-.25-.45-.38-.92-.37-1.39,0-.48.15-.92.43-1.34l1.45,1.04c-.18.29-.22.59-.13.92.09.32.29.59.58.8.23.17.48.27.73.29.26.02.51-.02.74-.13.24-.11.45-.29.62-.54.18-.25.28-.51.31-.77.03-.26,0-.51-.12-.75-.11-.24-.28-.44-.52-.62-.21-.15-.44-.25-.7-.31-.26-.05-.49-.05-.7.02l-1.16-1.19,3.02-3.5,4.34,3.11-.88,1.23-3.1-2.22-1.46,1.65.04.03c.25-.09.54-.1.88-.03.33.06.66.21.97.43.43.31.74.68.93,1.12s.26.91.2,1.4-.25.96-.58,1.41c-.34.48-.76.83-1.24,1.04-.49.21-1.01.28-1.56.21s-1.08-.3-1.61-.68v-.02Z"/>
  <path class="st21" d="M333.98,103.55l2.23,8.44-1.8.47-2.23-8.44,1.81-.47h-.01ZM338.48,107.49l.97,3.66-1.78.46-1.67-6.33,1.69-.43.3,1.12.07-.02c.04-.41.21-.76.48-1.06.28-.3.65-.52,1.13-.64.45-.11.86-.12,1.24-.01s.71.32.99.62c.28.31.48.71.61,1.2l1.06,4.03-1.78.46-.98-3.72c-.1-.39-.28-.67-.54-.83-.26-.17-.57-.2-.93-.11-.23.06-.44.17-.59.32s-.26.33-.31.55-.04.46.03.74v-.02ZM349.11,103.83l-1.6.51c-.07-.13-.16-.24-.28-.33-.12-.09-.27-.15-.43-.17-.16-.03-.35-.02-.56.04-.27.07-.49.19-.65.36-.16.17-.21.34-.16.53.04.15.14.26.29.34s.38.1.7.09l1.23-.07c.66-.04,1.17.05,1.55.25.38.2.63.53.75.99.11.41.08.81-.09,1.19-.16.38-.43.71-.81.99s-.85.49-1.4.64c-.84.22-1.57.22-2.16,0-.59-.22-1.02-.62-1.26-1.21l1.72-.54c.12.24.3.41.54.48.24.08.51.08.83,0s.54-.21.71-.37.22-.36.17-.54c-.05-.16-.15-.27-.31-.34-.16-.07-.39-.1-.68-.07l-1.16.06c-.66.04-1.18-.06-1.56-.28-.38-.23-.63-.57-.77-1.05-.11-.4-.09-.78.06-1.14.15-.36.4-.66.77-.92.37-.26.82-.47,1.37-.61.81-.21,1.49-.21,2.04.01s.95.61,1.18,1.17h-.02ZM354.53,107.4c-.66.17-1.26.18-1.8.04s-1-.42-1.39-.85c-.39-.42-.67-.96-.84-1.64-.17-.65-.19-1.25-.07-1.81.12-.56.39-1.03.78-1.43.39-.39.9-.67,1.54-.84.43-.11.83-.14,1.24-.1.4.04.78.16,1.12.35.35.2.65.47.91.84.25.37.46.81.6,1.35l.13.48-5.41,1.4-.29-1.09,3.73-.97c-.07-.25-.18-.46-.34-.63s-.36-.28-.58-.34c-.22-.06-.46-.06-.73,0-.27.07-.49.19-.67.38-.18.18-.29.38-.36.61s-.06.48,0,.73l.27,1.04c.08.31.21.56.39.77.18.19.4.33.64.39.25.07.52.06.82-.01.19-.06.37-.12.52-.22.15-.1.27-.21.35-.35s.14-.3.16-.48l1.67-.31c.02.41-.06.8-.24,1.16-.18.36-.45.67-.81.93s-.81.46-1.33.6h0ZM358.59,106.22l-1.67-6.33,1.72-.44.29,1.11.07-.02c0-.42.13-.77.36-1.04.22-.28.52-.46.87-.55.09-.02.18-.05.29-.05.1-.02.2-.03.28-.02l.41,1.56c-.09,0-.21,0-.36.02-.15.02-.29.04-.42.07-.26.06-.48.18-.66.35s-.29.35-.36.58c-.07.23-.06.47,0,.73l.95,3.58-1.78.46h-.01ZM365.44,97.68l.35,1.32-3.86,1-.35-1.32,3.86-1ZM362.06,96.93l1.78-.46,1.56,5.91c.05.16.11.28.17.36.07.07.16.12.26.14.1,0,.21,0,.33-.03.08-.02.16-.05.24-.08.08-.04.14-.07.18-.09l.63,1.23c-.08.05-.19.12-.35.19-.15.08-.34.15-.57.22-.43.13-.81.17-1.17.12s-.65-.18-.9-.41-.43-.55-.54-.96l-1.63-6.14h-.02ZM370.98,103.02l-.35-1.29,2.3-3.57c.19-.32.35-.59.47-.84.13-.25.21-.48.25-.68.05-.22.03-.44-.03-.66-.07-.25-.18-.44-.34-.6-.16-.15-.36-.25-.58-.29s-.46-.04-.71.02c-.26.06-.48.18-.64.34-.17.16-.28.34-.34.56-.06.22-.04.47.02.74l-1.71.44c-.15-.55-.15-1.06,0-1.54.14-.48.41-.88.82-1.22.4-.34.89-.59,1.48-.74.61-.16,1.17-.18,1.68-.09s.94.3,1.3.61.59.71.72,1.2c.08.32.11.65.06.99-.04.34-.18.75-.4,1.21-.22.46-.56,1.03-1.01,1.71l-.92,1.53.02.06,3.58-.92.38,1.46-6.08,1.58h.01Z"/>
  <path class="st21" d="M364.25,42.98v8.73h-1.85v-8.73h1.85ZM367.55,47.92v3.78h-1.82v-6.55h1.73v1.15h.08c.14-.38.39-.68.73-.9s.75-.34,1.24-.34c.45,0,.85.1,1.19.3.34.2.6.48.79.85s.28.8.28,1.31v4.17h-1.82v-3.84c0-.4-.1-.71-.31-.94-.21-.23-.49-.34-.86-.34-.24,0-.46.05-.65.16-.18.11-.33.26-.43.46-.1.2-.15.44-.16.72h0ZM378.64,47.03l-1.66.1c-.03-.14-.09-.27-.18-.38-.09-.12-.22-.21-.37-.28-.15-.07-.33-.11-.54-.11-.28,0-.52.06-.71.18s-.29.27-.29.47c0,.16.06.29.19.4.12.11.34.19.64.26l1.18.24c.64.13,1.11.34,1.42.63.31.29.47.67.47,1.14,0,.43-.13.81-.38,1.13s-.59.58-1.03.76c-.43.18-.94.27-1.5.27-.87,0-1.56-.18-2.07-.54s-.81-.86-.9-1.48l1.79-.09c.05.26.18.47.39.61.21.14.47.2.8.2s.57-.06.77-.18c.2-.12.3-.29.3-.48,0-.16-.07-.3-.21-.4-.14-.11-.35-.19-.63-.25l-1.13-.23c-.64-.13-1.12-.35-1.43-.66-.31-.32-.46-.72-.46-1.21,0-.42.11-.78.34-1.09.23-.3.55-.54.97-.7s.91-.25,1.47-.25c.83,0,1.48.17,1.95.52.48.35.76.83.84,1.43h-.03ZM382.92,51.85c-.67,0-1.25-.14-1.74-.41-.48-.28-.86-.66-1.12-1.17s-.39-1.1-.39-1.79.13-1.26.39-1.77.63-.9,1.1-1.19c.48-.28,1.04-.43,1.68-.43.43,0,.83.07,1.21.21s.7.34.98.62.5.62.66,1.04c.16.41.23.9.23,1.46v.5h-5.53v-1.12h3.82c0-.26-.06-.49-.17-.69-.11-.2-.27-.36-.47-.47-.2-.12-.43-.17-.7-.17s-.52.06-.73.19c-.21.12-.38.29-.49.51-.12.21-.18.44-.18.7v1.07c0,.32.06.6.18.84s.29.42.52.55c.22.13.48.19.79.19.2,0,.39-.03.55-.09.17-.06.31-.14.43-.26.12-.11.21-.25.27-.42l1.68.11c-.09.4-.26.76-.52,1.06-.26.3-.6.53-1.01.7-.41.16-.89.25-1.43.25v-.02ZM387.11,51.71v-6.55h1.76v1.14h.07c.12-.41.32-.71.6-.92.28-.21.61-.32.97-.32.09,0,.19,0,.29.02.1.01.2.03.28.05v1.61c-.08-.03-.2-.05-.35-.07s-.29-.03-.41-.03c-.27,0-.51.06-.72.17s-.37.27-.49.48c-.12.2-.18.44-.18.71v3.7h-1.82ZM395.83,45.16v1.36h-3.94v-1.36h3.94ZM392.78,43.6h1.82v6.1c0,.17.03.3.08.39s.12.15.21.19c.09.04.2.06.32.06.08,0,.17,0,.26-.02.08-.02.15-.03.2-.04l.29,1.35c-.09.03-.22.06-.38.1-.17.04-.36.06-.6.07-.44.02-.82-.04-1.15-.17-.33-.13-.58-.34-.76-.62-.18-.28-.27-.64-.27-1.07v-6.34h-.02ZM402.99,51.83c-.64,0-1.2-.11-1.7-.33-.49-.22-.89-.53-1.17-.91-.28-.39-.43-.84-.44-1.35h1.86c.01.21.08.4.21.56s.3.28.52.37.46.13.73.13.53-.05.75-.15c.22-.1.38-.24.51-.41s.18-.38.18-.61-.07-.44-.2-.62-.31-.32-.55-.43c-.24-.1-.52-.15-.85-.15h-.81v-1.36h.81c.28,0,.52-.05.74-.14.22-.1.38-.23.5-.4s.18-.38.18-.61-.05-.41-.16-.58c-.1-.17-.25-.3-.43-.39s-.4-.14-.65-.14-.48.05-.69.14-.37.21-.5.38c-.12.16-.19.36-.2.58h-1.77c0-.5.15-.95.43-1.33s.65-.68,1.12-.9c.48-.22,1.01-.33,1.61-.33s1.13.11,1.58.33c.45.22.8.51,1.05.89.25.37.38.78.38,1.24,0,.49-.15.9-.46,1.22-.3.33-.7.53-1.19.62v.07c.64.08,1.13.31,1.47.67s.51.81.5,1.36c0,.5-.14.94-.43,1.33-.29.39-.68.69-1.19.91s-1.08.33-1.74.33h0Z"/>
  <path class="st21" d="M401.5,92.96l-2.24,8.44-1.8-.47,2.24-8.44,1.8.47ZM403.46,98.58l-.97,3.66-1.78-.46,1.68-6.33,1.69.44-.3,1.11.08.02c.24-.33.56-.56.95-.69s.82-.13,1.31-.01c.44.12.8.31,1.09.59.28.28.46.62.55,1.02s.07.85-.06,1.34l-1.07,4.03-1.78-.46.98-3.72c.11-.39.09-.72-.06-.98-.15-.27-.39-.46-.75-.55-.24-.07-.46-.07-.68-.01-.2.06-.39.16-.54.34-.16.17-.26.38-.34.65h0ZM414.54,100.53l-1.65-.33c0-.14-.01-.28-.08-.42-.06-.14-.16-.25-.3-.37-.13-.1-.3-.19-.5-.24-.27-.08-.52-.07-.74-.02-.21.07-.36.19-.4.38-.04.15,0,.29.08.43.1.13.29.28.57.41l1.1.53c.59.29,1,.61,1.23.97.23.36.29.77.17,1.22-.11.42-.33.74-.66,1s-.73.4-1.2.47c-.47.06-.98.02-1.55-.12-.84-.22-1.47-.57-1.89-1.05-.4-.48-.57-1.03-.5-1.66l1.77.36c0,.27.06.5.23.69.17.18.41.32.73.4.31.08.57.08.8.02.22-.08.36-.2.41-.39.04-.16,0-.31-.1-.44-.11-.14-.29-.28-.56-.4l-1.05-.5c-.59-.28-1-.62-1.22-1.01-.22-.39-.28-.82-.14-1.28.11-.41.31-.72.61-.97.3-.23.68-.38,1.12-.44.45-.05.95,0,1.49.13.8.21,1.4.54,1.78,1s.52.99.45,1.59v.04ZM417.49,106.27c-.65-.17-1.19-.45-1.6-.84-.4-.39-.67-.86-.79-1.42-.13-.55-.1-1.16.08-1.84.18-.65.45-1.19.83-1.61s.85-.71,1.38-.87,1.13-.15,1.75.02c.42.11.8.28,1.12.5.33.23.6.51.8.85s.33.73.38,1.17c.04.44,0,.93-.14,1.47l-.13.48-5.41-1.41.29-1.08,3.73.97c.07-.25.07-.49.02-.72-.06-.22-.17-.41-.34-.58-.17-.16-.38-.28-.63-.34-.27-.07-.52-.07-.77,0-.23.06-.44.19-.62.37-.17.18-.29.38-.36.63l-.28,1.03c-.09.32-.09.6-.04.86s.18.47.36.66c.19.18.43.31.72.39.2.05.38.07.57.06.18-.02.34-.06.49-.14.14-.08.27-.19.37-.33l1.62.54c-.19.37-.45.66-.78.89-.33.22-.73.36-1.17.41-.45.05-.93,0-1.46-.12h.01ZM421.63,107.21l1.68-6.33,1.72.45-.3,1.1.07.02c.22-.37.5-.61.83-.74.33-.13.67-.16,1.03-.06.09.02.18.05.28.09.1.04.19.07.26.12l-.42,1.56c-.08-.04-.19-.09-.33-.16s-.27-.11-.4-.14c-.26-.07-.51-.07-.75-.02-.23.05-.43.17-.6.34-.17.17-.29.38-.36.64l-.95,3.58-1.77-.46h0ZM431.83,103.09l-.35,1.32-3.85-1,.35-1.32,3.85,1ZM429.25,100.8l1.77.46-1.57,5.9c-.04.16-.05.3-.03.4.03.1.08.18.16.24.08.06.18.1.3.14.08.02.17.03.25.05h.2s-.07,1.38-.07,1.38h-.4c-.17-.01-.37-.04-.61-.09-.43-.1-.79-.25-1.08-.46-.29-.22-.49-.48-.59-.79-.1-.32-.11-.68.01-1.1l1.63-6.14.02.02ZM434.28,108.91l.37-1.4,5.04-4.62,1.23.32-.52,1.95-.72-.19-3.18,2.93-.02.07,5.07,1.31-.38,1.43-6.88-1.79h0ZM437.98,111.46l.51-1.91.2-.62,1.57-5.91,1.69.44-2.24,8.44-1.73-.45h.01Z"/>
  <path class="st12" d="M200.25,114.12c12.89,15.55,21.09,34.45,23.65,54.49s-.64,40.39-9.21,58.68-22.17,33.77-39.21,44.62c-17.04,10.85-36.81,16.64-57.01,16.68s-39.99-5.66-57.08-16.45c-17.08-10.78-30.74-26.2-39.39-44.46-8.64-18.25-11.92-38.59-9.45-58.63,2.47-20.05,10.6-38.98,23.43-54.58l12.34,10.14c-10.9,13.26-17.81,29.35-19.91,46.4s.68,34.33,8.03,49.84c7.35,15.52,18.96,28.62,33.48,37.79,14.52,9.17,31.34,14.01,48.51,13.98,17.17-.04,33.98-4.95,48.46-14.18,14.48-9.23,26.04-22.38,33.32-37.93,7.29-15.55,10-32.85,7.83-49.88s-9.15-33.09-20.1-46.31l12.3-10.19h0Z"/>
  <path class="st21" d="M88.23,182.59h-3.09v-8.73h3.12c.88,0,1.63.17,2.27.52.63.35,1.12.85,1.46,1.5s.52,1.43.52,2.34-.17,1.69-.52,2.34c-.34.65-.83,1.15-1.47,1.5s-1.4.52-2.28.52h-.01ZM86.98,181.01h1.17c.55,0,1-.1,1.38-.29.38-.2.66-.5.84-.91.19-.41.29-.94.29-1.59s-.1-1.17-.29-1.58-.47-.71-.84-.9c-.37-.19-.83-.29-1.38-.29h-1.18v5.57h.01ZM96.81,182.72c-.67,0-1.25-.14-1.74-.41-.48-.28-.86-.66-1.12-1.17s-.39-1.1-.39-1.79.13-1.26.39-1.77c.26-.51.63-.9,1.1-1.19.48-.28,1.04-.43,1.68-.43.43,0,.83.07,1.21.21s.7.34.98.62c.28.28.5.62.66,1.04s.23.9.23,1.46v.5h-5.53v-1.12h3.82c0-.26-.06-.49-.17-.7-.11-.2-.27-.36-.47-.47-.2-.12-.43-.18-.69-.18s-.52.06-.73.19c-.21.12-.38.29-.49.51-.12.21-.18.44-.18.7v1.07c0,.32.06.6.18.84.12.24.29.42.52.54.22.13.48.19.79.19.2,0,.39-.03.55-.08.17-.06.31-.14.43-.26.12-.11.21-.25.27-.42l1.68.11c-.09.4-.26.76-.52,1.06-.26.3-.6.53-1.01.7-.41.16-.89.25-1.43.25h-.02ZM106.45,177.91l-1.66.1c-.03-.14-.09-.27-.18-.38-.09-.12-.22-.21-.37-.28-.15-.07-.33-.11-.54-.11-.28,0-.52.06-.71.18s-.29.27-.29.47c0,.16.06.29.19.4s.34.2.64.26l1.18.24c.64.13,1.11.34,1.42.63.31.29.47.67.47,1.14,0,.43-.13.8-.38,1.13-.25.32-.59.58-1.03.76-.43.18-.94.27-1.5.27-.87,0-1.56-.18-2.07-.54s-.81-.86-.9-1.48l1.79-.09c.05.26.18.47.39.61s.47.21.8.21.57-.06.77-.18.3-.29.3-.48c0-.16-.07-.3-.21-.4-.14-.11-.35-.19-.63-.25l-1.13-.23c-.64-.13-1.12-.35-1.43-.66-.31-.32-.46-.72-.46-1.21,0-.42.11-.78.34-1.09.23-.3.55-.54.97-.7s.91-.25,1.47-.25c.83,0,1.48.18,1.95.52.48.35.76.83.84,1.43l-.03-.02ZM111.22,176.05v1.36h-3.94v-1.36h3.94ZM108.17,174.48h1.82v6.1c0,.17.03.3.08.39s.12.15.21.19c.09.04.2.06.32.06.09,0,.17,0,.26-.02.09-.02.15-.03.2-.04l.29,1.35c-.09.03-.22.06-.38.1-.16.04-.37.06-.6.07-.44.02-.82-.04-1.15-.17s-.58-.34-.76-.62-.27-.64-.27-1.07v-6.34h-.02ZM112.4,182.59v-6.54h1.82v6.54h-1.82ZM113.31,175.2c-.27,0-.5-.09-.69-.27-.19-.18-.29-.4-.29-.65s.1-.46.29-.64.42-.27.69-.27.5.09.69.27c.19.18.29.39.29.64s-.1.47-.29.65-.42.27-.69.27ZM117.49,178.81v3.78h-1.82v-6.54h1.73v1.15h.08c.14-.38.39-.68.73-.9.34-.22.75-.34,1.24-.34.46,0,.85.1,1.19.3.34.2.6.48.79.85.19.37.28.8.28,1.31v4.17h-1.82v-3.84c0-.4-.1-.71-.31-.94s-.49-.34-.86-.34c-.24,0-.46.05-.65.16-.18.11-.33.26-.43.46-.1.2-.15.44-.16.72h0ZM125,182.71c-.42,0-.79-.07-1.12-.22s-.59-.37-.78-.65c-.19-.29-.28-.65-.28-1.08,0-.36.07-.67.2-.92s.32-.45.55-.6c.23-.15.49-.26.78-.34s.6-.13.93-.16c.38-.04.69-.08.92-.11.23-.04.4-.09.51-.16s.16-.18.16-.32v-.02c0-.27-.08-.48-.26-.63-.17-.15-.41-.22-.72-.22-.33,0-.59.07-.78.22-.19.14-.32.32-.38.54l-1.68-.14c.08-.4.25-.74.5-1.03s.57-.52.97-.67c.4-.16.86-.24,1.38-.24.36,0,.71.04,1.04.13.33.09.63.22.89.4s.47.41.62.69.23.61.23,1v4.41h-1.72v-.91h-.05c-.11.21-.25.39-.42.54-.18.15-.39.27-.63.36-.25.08-.53.13-.86.13h0ZM125.52,181.46c.27,0,.5-.05.71-.16s.37-.25.48-.43c.12-.18.18-.39.18-.62v-.69c-.06.04-.14.07-.24.1s-.21.06-.33.08-.24.04-.37.06c-.12.02-.23.03-.33.05-.21.03-.4.08-.56.15-.16.07-.28.16-.37.28-.09.11-.13.26-.13.43,0,.25.09.44.27.57s.41.19.69.19h0ZM133.58,176.05v1.36h-3.94v-1.36h3.94ZM130.53,174.48h1.82v6.1c0,.17.03.3.08.39s.12.15.21.19c.09.04.2.06.32.06.08,0,.17,0,.26-.02.09-.02.15-.03.2-.04l.28,1.35c-.09.03-.22.06-.38.1-.17.04-.37.06-.6.07-.44.02-.82-.04-1.15-.17s-.58-.34-.76-.62-.27-.64-.27-1.07v-6.34h-.01ZM134.76,182.59v-6.54h1.81v6.54h-1.81ZM135.67,175.2c-.27,0-.5-.09-.69-.27-.19-.18-.29-.4-.29-.65s.1-.46.29-.64.43-.27.69-.27.5.09.69.27c.19.18.29.39.29.64s-.1.47-.29.65-.42.27-.69.27ZM140.99,182.72c-.66,0-1.24-.14-1.72-.42s-.85-.68-1.11-1.18c-.26-.51-.39-1.1-.39-1.77s.13-1.27.39-1.77c.26-.51.63-.9,1.11-1.18s1.06-.43,1.72-.43,1.23.14,1.71.43c.48.28.85.68,1.12,1.18.26.51.39,1.1.39,1.77s-.13,1.26-.39,1.77c-.26.51-.63.9-1.12,1.18-.48.28-1.05.42-1.71.42ZM141,181.31c.3,0,.55-.09.75-.26s.35-.41.46-.71c.1-.3.16-.64.16-1.02s-.05-.72-.16-1.02c-.1-.3-.25-.54-.46-.71-.2-.17-.45-.26-.75-.26s-.56.09-.77.26-.36.41-.46.71-.15.64-.15,1.02.05.72.15,1.02c.11.3.26.53.46.71.21.17.46.26.77.26ZM147.21,178.81v3.78h-1.82v-6.54h1.73v1.15h.08c.14-.38.39-.68.73-.9s.75-.34,1.24-.34c.46,0,.85.1,1.19.3s.6.48.79.85c.19.37.28.8.28,1.31v4.17h-1.82v-3.84c0-.4-.1-.71-.31-.94-.21-.23-.49-.34-.86-.34-.24,0-.46.05-.65.16-.18.11-.33.26-.43.46-.1.2-.15.44-.16.72h.01ZM100.93,188.86l2.11,6.63h.08l2.11-6.63h2.05l-3.01,8.73h-2.38l-3.01-8.73s2.05,0,2.05,0ZM110.54,197.72c-.67,0-1.25-.14-1.74-.41-.48-.28-.86-.66-1.12-1.17s-.39-1.1-.39-1.79.13-1.26.39-1.77c.26-.51.63-.9,1.1-1.19.48-.28,1.04-.43,1.68-.43.43,0,.83.07,1.21.21s.7.34.98.62c.28.28.5.62.66,1.04s.24.9.24,1.46v.5h-5.53v-1.12h3.82c0-.26-.06-.49-.17-.7-.11-.2-.27-.36-.47-.47-.2-.12-.43-.18-.69-.18s-.52.06-.73.19c-.21.12-.38.29-.49.51-.12.21-.18.44-.18.7v1.07c0,.32.06.6.18.84.12.24.29.42.52.54.22.13.48.19.79.19.2,0,.39-.03.55-.08.17-.06.31-.14.43-.26.12-.11.21-.25.27-.42l1.68.11c-.08.4-.26.76-.52,1.06-.26.3-.6.53-1.01.7-.41.16-.89.25-1.43.25h-.03ZM117.69,197.72c-.67,0-1.25-.14-1.73-.43s-.85-.68-1.11-1.19c-.26-.51-.38-1.09-.38-1.76s.13-1.26.39-1.76c.26-.51.63-.9,1.11-1.19.48-.29,1.05-.43,1.71-.43.57,0,1.07.1,1.5.31.43.21.77.5,1.02.87s.39.82.41,1.32h-1.71c-.05-.33-.18-.59-.38-.79s-.47-.3-.81-.3c-.28,0-.53.08-.74.23s-.37.37-.49.66c-.12.29-.18.64-.18,1.05s.06.77.17,1.07c.12.29.28.51.49.67.21.15.46.23.74.23.21,0,.39-.04.56-.13.17-.08.31-.21.41-.37.11-.16.18-.36.22-.59h1.71c-.03.5-.17.94-.41,1.32-.24.38-.57.67-1,.89-.43.21-.93.32-1.51.32h.01ZM125.25,191.05v1.36h-3.94v-1.36h3.94ZM122.21,189.48h1.81v6.1c0,.17.03.3.08.39s.12.15.21.19c.09.04.2.06.32.06.08,0,.17,0,.26-.02.08-.02.15-.03.2-.04l.29,1.35c-.09.03-.22.06-.38.1-.17.04-.36.06-.6.07-.44.02-.82-.04-1.15-.17s-.58-.34-.76-.62-.27-.64-.27-1.07v-6.34h-.01ZM129.32,197.72c-.66,0-1.23-.14-1.72-.42-.48-.28-.85-.68-1.11-1.18-.26-.51-.39-1.1-.39-1.77s.13-1.27.39-1.77c.26-.51.63-.9,1.11-1.18s1.06-.43,1.72-.43,1.23.14,1.71.43c.48.28.86.68,1.12,1.18.26.51.39,1.1.39,1.77s-.13,1.26-.39,1.77c-.26.51-.63.9-1.12,1.18-.48.28-1.05.42-1.71.42ZM129.33,196.31c.3,0,.55-.09.75-.26s.35-.41.46-.71c.1-.3.16-.64.16-1.02s-.05-.72-.16-1.02c-.1-.3-.25-.54-.46-.71-.2-.17-.45-.26-.75-.26s-.56.09-.77.26c-.2.17-.36.41-.46.71s-.15.64-.15,1.02.05.72.15,1.02c.11.3.26.53.46.71.21.17.46.26.77.26ZM133.72,197.59v-6.54h1.76v1.14h.07c.12-.41.32-.71.6-.92.28-.21.61-.32.97-.32.09,0,.19,0,.29.02.11,0,.2.03.28.05v1.61c-.08-.03-.2-.05-.35-.07s-.29-.03-.41-.03c-.27,0-.51.06-.72.17s-.37.27-.49.48c-.12.21-.18.44-.18.71v3.7h-1.82Z"/>
  <path class="st12" d="M750.21,200.13c-4.3,24.99-17.37,47.63-36.87,63.84s-44.14,24.94-69.5,24.61c-25.35-.33-49.76-9.7-68.82-26.42s-31.54-39.7-35.17-64.79l15.81-2.29c3.09,21.33,13.69,40.86,29.9,55.07,16.2,14.21,36.95,22.18,58.5,22.46s42.5-7.13,59.07-20.91,27.68-33.02,31.34-54.27l15.74,2.71h0Z"/>
  <path class="st16" d="M538.85,177.51c.77-17.92,6.06-35.36,15.37-50.69l13.65,8.29c-7.91,13.03-12.41,27.85-13.06,43.09l-15.96-.69h0Z"/>
  <path class="st16" d="M565.89,111.08c11.96-13.37,27.11-23.5,44.03-29.45l5.3,15.07c-14.38,5.06-27.26,13.67-37.42,25.03l-11.91-10.65h0Z"/>
  <path class="st16" d="M621.72,78.22c17.5-3.96,35.71-3.44,52.95,1.51l-4.41,15.35c-14.65-4.21-30.14-4.65-45.01-1.29l-3.53-15.58h0Z"/>
  <path class="st16" d="M684.25,82.99c16.69,6.57,31.46,17.25,42.92,31.04l-12.29,10.21c-9.74-11.73-22.29-20.81-36.48-26.39l5.85-14.86Z"/>
  <path class="st16" d="M737.84,129.46c8.87,15.59,13.65,33.18,13.91,51.11l-15.97.23c-.22-15.25-4.28-30.19-11.82-43.45l13.89-7.9h-.01Z"/>
  <path class="st13" d="M539.88,197.55c-.97-6.63-1.32-13.33-1.03-20.02l15.96.68c-.24,5.69.05,11.38.88,17.02l-15.81,2.32Z"/>
  <path class="st17" d="M554.06,127.07c3.46-5.73,7.45-11.13,11.92-16.11l11.89,10.67c-3.8,4.24-7.2,8.82-10.14,13.7l-13.68-8.25h.01Z"/>
  <path class="st11" d="M602.84,84.4c6.14-2.67,12.52-4.75,19.06-6.22l3.5,15.59c-5.55,1.25-10.98,3.02-16.2,5.29l-6.36-14.65h0Z"/>
  <path class="st14" d="M726.66,113.42c4.32,5.12,8.14,10.63,11.43,16.47l-13.92,7.83c-2.79-4.96-6.04-9.65-9.71-14l12.21-10.3h-.01Z"/>
  <path class="st5" d="M751.73,180.08c.13,6.7-.38,13.39-1.51,19.99l-15.75-2.7c.96-5.61,1.39-11.3,1.28-16.99l15.97-.3h.01Z"/>
  <path class="st4" d="M673.87,79.51c6.45,1.8,12.72,4.2,18.71,7.18l-7.1,14.31c-5.1-2.53-10.42-4.57-15.91-6.1l4.29-15.39h0Z"/>
  <path class="st21" d="M607.36,189.59v-8.73h5.78v1.52h-3.93v2.08h3.55v1.52h-3.55v3.6h-1.85ZM614.35,189.59v-6.54h1.82v6.54h-1.82ZM615.26,182.2c-.27,0-.5-.09-.69-.27-.19-.18-.29-.4-.29-.65s.1-.46.29-.64.42-.27.69-.27.5.09.69.27c.19.18.29.39.29.64s-.1.47-.29.65-.42.27-.69.27ZM619.43,185.81v3.78h-1.82v-6.54h1.73v1.15h.08c.15-.38.39-.68.73-.9.34-.22.75-.34,1.24-.34.45,0,.85.1,1.19.3s.6.48.79.85c.19.37.28.8.28,1.31v4.17h-1.82v-3.84c0-.4-.1-.71-.31-.94s-.49-.34-.86-.34c-.24,0-.46.05-.65.16-.18.11-.33.26-.43.46-.1.2-.16.44-.16.72h.01ZM626.95,189.71c-.42,0-.79-.07-1.12-.22s-.59-.37-.78-.65c-.19-.29-.28-.65-.28-1.08,0-.36.07-.67.2-.92s.32-.45.55-.6c.23-.15.49-.26.78-.34.3-.08.61-.13.93-.16.38-.04.69-.08.92-.11.23-.04.4-.09.51-.16s.16-.18.16-.32v-.02c0-.27-.09-.48-.26-.63-.17-.15-.41-.22-.71-.22-.33,0-.59.07-.78.22-.19.14-.32.32-.38.54l-1.68-.14c.09-.4.25-.74.5-1.03s.57-.52.97-.67c.4-.16.86-.24,1.38-.24.36,0,.71.04,1.04.13.33.09.63.22.89.4s.47.41.62.69.23.61.23,1v4.41h-1.72v-.91h-.05c-.1.21-.25.39-.42.54-.18.15-.39.27-.64.36-.25.08-.53.13-.86.13h0ZM627.47,188.46c.27,0,.5-.05.71-.16.2-.11.36-.25.48-.43s.17-.39.17-.62v-.69c-.06.04-.14.07-.23.1-.1.03-.21.06-.33.08s-.24.04-.37.06c-.12.02-.23.03-.33.05-.21.03-.4.08-.56.15-.16.07-.28.16-.37.28-.09.11-.13.26-.13.43,0,.25.09.44.27.57s.41.19.69.19h0ZM633.86,180.86v8.73h-1.82v-8.73h1.82ZM638.12,189.59v-8.73h3.44c.66,0,1.23.13,1.69.38.47.25.82.6,1.07,1.04.25.44.37.96.37,1.53s-.12,1.09-.38,1.53c-.25.44-.61.79-1.09,1.04-.47.25-1.04.37-1.71.37h-2.19v-1.48h1.9c.36,0,.65-.06.88-.18s.41-.3.52-.52c.12-.22.17-.48.17-.76s-.06-.54-.17-.76-.29-.39-.52-.51c-.23-.12-.53-.18-.89-.18h-1.24v7.22h-1.85ZM645.86,189.59v-6.54h1.76v1.14h.07c.12-.41.32-.71.6-.92.28-.21.6-.32.97-.32.09,0,.19,0,.29.02.1,0,.2.03.28.05v1.61c-.08-.03-.2-.05-.35-.07-.15-.02-.29-.03-.41-.03-.27,0-.51.06-.72.17-.21.11-.37.27-.49.48-.12.21-.18.44-.18.71v3.7h-1.82ZM653.42,189.72c-.66,0-1.23-.14-1.72-.42-.48-.28-.85-.68-1.11-1.18-.26-.51-.39-1.1-.39-1.77s.13-1.27.39-1.77c.26-.51.63-.9,1.11-1.18s1.05-.43,1.72-.43,1.23.14,1.71.43c.48.28.85.68,1.12,1.18.26.51.39,1.1.39,1.77s-.13,1.26-.39,1.77c-.26.51-.63.9-1.12,1.18-.48.28-1.05.42-1.71.42ZM653.43,188.31c.3,0,.55-.09.75-.26s.35-.41.46-.71c.11-.3.16-.64.16-1.02s-.05-.72-.16-1.02c-.1-.3-.25-.54-.46-.71-.2-.17-.45-.26-.75-.26s-.56.09-.77.26-.36.41-.46.71c-.1.3-.15.64-.15,1.02s.05.72.15,1.02c.1.3.26.53.46.71.21.17.46.26.77.26ZM660.24,189.7c-.5,0-.95-.13-1.35-.38-.4-.26-.72-.64-.95-1.14-.23-.5-.35-1.12-.35-1.85s.12-1.37.36-1.87.56-.87.96-1.12.85-.38,1.33-.38c.37,0,.67.06.92.19.25.12.45.27.6.46.15.18.27.36.35.54h.05v-3.28h1.81v8.73h-1.79v-1.05h-.08c-.08.18-.21.36-.36.54-.15.18-.35.32-.6.44-.24.12-.54.17-.9.17h0ZM660.81,188.25c.29,0,.54-.08.74-.24s.36-.39.47-.68.17-.63.17-1.02-.05-.73-.16-1.01c-.11-.29-.26-.51-.47-.66-.21-.16-.45-.23-.75-.23s-.55.08-.75.24c-.21.16-.36.39-.46.67-.11.29-.16.62-.16,1s.05.72.16,1.01.26.52.46.68c.21.16.46.24.75.24ZM669.65,186.8v-3.76h1.82v6.54h-1.74v-1.19h-.07c-.15.38-.39.69-.74.92-.34.23-.76.35-1.25.35-.44,0-.82-.1-1.15-.3s-.59-.48-.78-.85c-.18-.37-.28-.8-.28-1.32v-4.17h1.82v3.84c0,.39.11.69.31.92.2.22.48.34.82.34.22,0,.42-.05.61-.15.19-.1.34-.25.46-.45s.18-.44.17-.74v.02ZM675.88,189.72c-.67,0-1.25-.14-1.73-.43s-.85-.68-1.11-1.19c-.26-.51-.38-1.09-.38-1.76s.13-1.26.39-1.76c.26-.51.63-.9,1.11-1.19.48-.29,1.05-.43,1.71-.43.57,0,1.07.1,1.5.31.43.21.77.5,1.02.87s.39.82.41,1.32h-1.71c-.05-.33-.18-.59-.38-.79-.21-.2-.47-.3-.8-.3-.28,0-.53.08-.74.23-.21.15-.37.37-.48.66-.12.29-.17.64-.17,1.05s.06.77.17,1.07c.12.29.28.51.49.67.21.15.46.23.74.23.21,0,.39-.04.56-.13.17-.08.3-.21.41-.37.11-.16.18-.36.22-.59h1.71c-.03.5-.16.94-.41,1.32-.24.38-.58.67-1,.89-.43.21-.93.32-1.51.32h-.02ZM683.44,183.05v1.36h-3.94v-1.36h3.94ZM680.4,181.48h1.82v6.1c0,.17.03.3.08.39s.12.15.21.19c.09.04.2.06.32.06.09,0,.17,0,.26-.02s.15-.03.2-.04l.29,1.35c-.09.03-.22.06-.38.1-.17.04-.37.06-.6.07-.44.02-.82-.04-1.15-.17s-.58-.34-.76-.62-.27-.64-.27-1.07v-6.34h-.02Z"/>
  <path class="st21" d="M536.24,139.86v8.73h-1.85v-8.73h1.85ZM541.5,139.86v8.73h-1.84v-6.98h-.05l-2,1.25v-1.64l2.16-1.37h1.73Z"/>
  <path class="st21" d="M573.4,85.86v8.73h-1.85v-8.73h1.85ZM574.86,94.59v-1.33l3.11-2.88c.26-.26.49-.49.66-.69.18-.2.32-.4.41-.6.09-.2.14-.41.14-.64,0-.26-.06-.47-.17-.66-.12-.19-.28-.33-.48-.43-.2-.1-.43-.15-.69-.15s-.5.05-.7.16-.35.26-.46.46c-.11.2-.16.44-.16.72h-1.75c0-.57.13-1.07.39-1.49s.62-.75,1.09-.97c.47-.23,1-.35,1.61-.35s1.17.11,1.63.33c.47.22.83.52,1.09.91.26.39.39.83.39,1.34,0,.33-.07.65-.2.98-.13.32-.36.68-.69,1.07s-.79.86-1.39,1.4l-1.27,1.25v.06h3.66v1.51s-6.22,0-6.22,0Z"/>
  <path class="st21" d="M642.22,63.86v8.73h-1.84v-8.73s1.84,0,1.84,0ZM646.91,72.71c-.64,0-1.2-.11-1.7-.33-.49-.22-.89-.53-1.17-.91-.28-.39-.43-.84-.44-1.35h1.86c.01.21.08.4.21.56.13.16.3.28.52.37.22.09.46.13.73.13s.53-.05.75-.15.39-.24.51-.41c.12-.18.18-.38.18-.61s-.07-.44-.2-.62-.31-.32-.55-.43c-.24-.1-.52-.15-.85-.15h-.81v-1.35h.81c.28,0,.52-.05.74-.15s.38-.23.5-.4.18-.38.18-.61-.05-.41-.16-.57c-.1-.17-.25-.3-.43-.39s-.4-.14-.65-.14-.48.05-.69.14-.37.22-.5.38c-.12.16-.19.36-.2.58h-1.77c0-.5.15-.95.43-1.33.28-.38.65-.68,1.12-.9s1.01-.33,1.61-.33,1.13.11,1.58.33.8.51,1.05.89c.25.37.38.78.38,1.24,0,.49-.15.9-.46,1.22-.3.33-.7.53-1.19.62v.07c.64.08,1.13.31,1.47.67.34.36.51.81.5,1.36,0,.5-.14.94-.43,1.32-.29.39-.68.69-1.19.91s-1.09.33-1.74.33h0Z"/>
  <path class="st21" d="M711.11,85.86v8.73h-1.85v-8.73h1.85ZM712.44,93.06v-1.45l3.64-5.74h1.25v2.01h-.74l-2.3,3.64v.07h5.18v1.48h-7.04,0ZM716.63,94.59v-1.98l.03-.64v-6.11h1.73v8.73h-1.76Z"/>
  <path class="st21" d="M752.31,139.86v8.73h-1.84v-8.73h1.84ZM756.96,148.71c-.6,0-1.14-.11-1.61-.33s-.84-.53-1.12-.92c-.28-.39-.42-.84-.43-1.34h1.79c.02.34.16.61.43.82.26.21.58.32.94.32.29,0,.55-.06.77-.19.22-.13.4-.31.52-.54.13-.23.19-.5.19-.8s-.07-.58-.2-.81-.3-.41-.53-.55c-.23-.13-.49-.2-.78-.2-.26,0-.5.05-.75.16-.24.1-.42.25-.56.43l-1.64-.29.41-4.6h5.33v1.51h-3.81l-.23,2.19h.05c.15-.22.38-.39.69-.54.31-.14.66-.21,1.04-.21.53,0,1,.12,1.41.37s.74.59.98,1.02c.24.43.36.92.35,1.48,0,.59-.13,1.11-.41,1.57-.27.45-.65.81-1.15,1.07-.49.26-1.06.39-1.71.39h.03Z"/>
  <line class="st7" x1="293.57" y1="116.36" x2="298.98" y2="125.46"/>
  <line class="st7" x1="477.91" y1="105.92" x2="463.26" y2="124.84"/>
  <g class="st1">
    <text class="st0" transform="translate(50.74 318.01)"><tspan x="0" y="0">Linearized Destination </tspan></text>
    <text class="st3" transform="translate(50.74 318.01)"><tspan x="0" y="0">Linearized Destination </tspan></text>
    <text class="st0" transform="translate(92.5 332.41)"><tspan x="0" y="0">Vector</tspan></text>
    <text class="st3" transform="translate(92.5 332.41)"><tspan x="0" y="0">Vector</tspan></text>
  </g>
  <g class="st1">
    <text class="st0" transform="translate(602.67 325.21)"><tspan x="0" y="0">Assembled Plasmid</tspan></text>
    <text class="st3" transform="translate(602.67 325.21)"><tspan x="0" y="0">Assembled Plasmid</tspan></text>
  </g>
  <g class="st1">
    <text class="st2" transform="translate(371.81 324.54)"><tspan x="0" y="0">Ligate</tspan></text>
    <text/>
    <text/>
  </g>
  <path class="st18" d="M337.75,98.03c-5.55,2.97-10.71,6.43-15.36,10.27l-5.53-4.54c5-4.13,10.56-7.85,16.53-11.05l4.36,5.32Z"/>
  <path class="st20" d="M299.6,119.72l-6.03-3.36c3.52-5.14,7.65-9.99,12.29-14.42l5.15,4.39c-4.31,4.11-8.15,8.61-11.41,13.38Z"/>
  <path class="st10" d="M304.9,115.47c1.75-2.31,3.66-4.61,5.73-6.86,5.14-5.6,10.76-10.45,16.54-14.43"/>
  <path class="st22" d="M369.41,84.06c-6.37.11-12.71.82-18.84,2.1l-1.91-6.51c6.6-1.38,13.42-2.14,20.27-2.26l.48,6.67Z"/>
  <path class="st18" d="M324.8,85.58l-3.03-5.69c5.96-2.94,12.27-5.34,18.74-7.15l1.68,6.2c-6.01,1.67-11.86,3.9-17.39,6.63Z"/>
  <path class="st10" d="M331.06,84.7c2.82-1.25,5.77-2.4,8.82-3.45,7.58-2.61,15.12-4.34,22.28-5.23"/>
  <path class="st19" d="M406.43,83.14c-5.7-2.25-11.65-3.94-17.71-5.02l1.44-6.74c6.51,1.16,12.92,2.98,19.05,5.4l-2.79,6.36Z"/>
  <path class="st22" d="M363.97,67.48l.06-6.39c6.7-.52,13.45-.42,20.06.3l-1.5,6.37c-6.13-.67-12.4-.76-18.61-.28Z"/>
  <path class="st10" d="M370.99,69.37c3.1-.11,6.27-.1,9.48.06,7.98.38,15.5,1.56,22.27,3.38"/>
  <path class="st15" d="M439.77,95.37c-4.21-4-8.89-7.56-13.92-10.57l4.21-5.89c5.42,3.24,10.46,7.07,14.98,11.38l-5.27,5.09Z"/>
  <path class="st19" d="M407.13,66.91l2.81-6.02c6.31,1.72,12.4,4.04,18.09,6.89l-4.11,5.52c-5.28-2.65-10.93-4.81-16.79-6.4Z"/>
  <path class="st10" d="M412.51,70.51c2.87.92,5.74,1.98,8.59,3.18,7.09,2.99,13.4,6.58,18.77,10.53"/>
  <path class="st5" d="M465.81,118.85c-2.54-5.15-5.68-10.04-9.34-14.53l6.04-4.16c3.94,4.83,7.32,10.09,10.05,15.64l-6.75,3.05Z"/>
  <path class="st14" d="M445.87,83.18l4.76-4.74c5.32,3.69,10.22,7.88,14.55,12.44l-5.81,3.84c-4.02-4.24-8.57-8.12-13.5-11.54Z"/>
  <path class="st10" d="M449.89,87.95c2.37,1.81,4.69,3.75,6.94,5.82,5.6,5.14,10.26,10.6,13.91,16.09"/>
  <path class="st20" d="M301.36,149.69l-7.75-4.55c4.57-7.27,9.94-14.16,15.96-20.46l6.6,6.02c-5.59,5.85-10.57,12.24-14.81,18.99Z"/>
  <path class="st5" d="M465.59,144.41c-4.02-6.89-8.76-13.47-14.08-19.56l6.9-5.15c5.73,6.55,10.83,13.63,15.15,21.05l-7.97,3.66Z"/>
  <path class="st12" d="M463.25,125.12c12.89,15.55,21.09,34.45,23.65,54.49s-.64,40.39-9.21,58.68c-8.57,18.29-22.17,33.77-39.21,44.62-17.04,10.85-36.81,16.64-57.01,16.68s-39.99-5.66-57.08-16.45c-17.08-10.78-30.74-26.2-39.39-44.46-8.65-18.25-11.93-38.59-9.45-58.64,2.47-20.05,10.6-38.98,23.42-54.58l12.34,10.14c-10.9,13.26-17.81,29.35-19.91,46.4-2.1,17.04.68,34.33,8.03,49.84,7.35,15.52,18.96,28.62,33.48,37.79,14.52,9.17,31.35,14.01,48.51,13.98,17.17-.04,33.98-4.95,48.46-14.18,14.48-9.23,26.04-22.38,33.32-37.93,7.29-15.55,10-32.85,7.83-49.88s-9.15-33.09-20.1-46.31l12.3-10.19h.02Z"/>
  <g>
    <line class="st9" x1="554.57" y1="177.78" x2="552.57" y2="177.78"/>
    <line class="st8" x1="551.26" y1="177.79" x2="547.97" y2="177.8"/>
    <polyline class="st9" points="547.31 177.8 545.31 177.81 545.56 179.79"/>
    <line class="st6" x1="545.82" y1="181.82" x2="547.26" y2="192.97"/>
    <polyline class="st9" points="547.39 193.98 547.65 195.97 545.68 196.31"/>
    <line class="st9" x1="541.85" y1="196.96" x2="539.88" y2="197.3"/>
  </g>
  <g>
    <line class="st9" x1="578.02" y1="122.12" x2="576.57" y2="120.75"/>
    <line class="st8" x1="575.61" y1="119.84" x2="573.22" y2="117.59"/>
    <polyline class="st9" points="572.74 117.14 571.28 115.76 570.1 117.38"/>
    <line class="st6" x1="568.9" y1="119.03" x2="562.26" y2="128.1"/>
    <polyline class="st9" points="561.66 128.93 560.48 130.54 558.81 129.43"/>
    <line class="st9" x1="555.58" y1="127.28" x2="553.92" y2="126.17"/>
  </g>
  <g>
    <line class="st9" x1="625.16" y1="93.88" x2="624.76" y2="91.92"/>
    <line class="st8" x1="624.49" y1="90.63" x2="623.82" y2="87.41"/>
    <polyline class="st9" points="623.69 86.76 623.28 84.8 621.39 85.45"/>
    <line class="st6" x1="619.46" y1="86.11" x2="608.82" y2="89.75"/>
    <polyline class="st9" points="607.85 90.09 605.96 90.73 605.23 88.87"/>
    <line class="st9" x1="603.82" y1="85.25" x2="603.09" y2="83.39"/>
  </g>
  <g>
    <line class="st9" x1="686.02" y1="100.9" x2="686.84" y2="99.07"/>
    <line class="st8" x1="687.38" y1="97.87" x2="688.73" y2="94.88"/>
    <polyline class="st9" points="689.01 94.28 689.83 92.45 687.92 91.86"/>
    <line class="st6" x1="685.96" y1="91.26" x2="675.22" y2="87.95"/>
    <polyline class="st9" points="674.24 87.65 672.33 87.06 672.84 85.12"/>
    <line class="st9" x1="673.82" y1="81.37" x2="674.33" y2="79.43"/>
  </g>
  <g>
    <line class="st9" x1="724.97" y1="137.73" x2="726.68" y2="136.69"/>
    <line class="st8" x1="727.8" y1="136" x2="730.61" y2="134.29"/>
    <polyline class="st9" points="731.17 133.94 732.88 132.9 731.63 131.34"/>
    <line class="st6" x1="730.36" y1="129.74" x2="723.35" y2="120.95"/>
    <polyline class="st9" points="722.71 120.15 721.47 118.58 722.98 117.27"/>
    <line class="st9" x1="725.91" y1="114.72" x2="727.42" y2="113.41"/>
  </g>
  <g>
    <line class="st9" x1="734.72" y1="198.09" x2="736.71" y2="198.31"/>
    <line class="st8" x1="738.01" y1="198.45" x2="741.28" y2="198.81"/>
    <polyline class="st9" points="741.94 198.88 743.93 199.1 743.89 197.1"/>
    <line class="st6" x1="743.86" y1="195.06" x2="743.69" y2="183.81"/>
    <polyline class="st9" points="743.67 182.79 743.64 180.79 745.64 180.68"/>
    <line class="st9" x1="749.52" y1="180.45" x2="751.51" y2="180.34"/>
  </g>
</svg>