<?xml version="1.0" encoding="UTF-8"?>
<svg id="Layer_1" xmlns="http://www.w3.org/2000/svg" version="1.1" viewBox="0 0 768.18 367">
  <!-- Generator: Adobe Illustrator 29.5.1, SVG Export Plug-In . SVG Version: 2.1.0 Build 141)  -->
  <defs>
    <style>
      .st0 {
        stroke: #231f20;
      }

      .st0, .st1, .st2, .st3 {
        isolation: isolate;
      }

      .st0, .st1, .st3 {
        font-family: Arial-Mdm, Arial;
        font-size: 12px;
        font-weight: 500;
      }

      .st0, .st4, .st5, .st3, .st6, .st7 {
        stroke-miterlimit: 10;
      }

      .st0, .st4, .st5, .st6, .st8, .st7 {
        fill: none;
      }

      .st0, .st3 {
        stroke-width: .25px;
      }

      .st4 {
        stroke-dasharray: 2.28 1.14;
      }

      .st4, .st5, .st6 {
        stroke: red;
      }

      .st5 {
        stroke-dasharray: 4.09 2.04;
      }

      .st3 {
        stroke: #000;
      }

      .st9 {
        fill: #a8d8e8;
      }

      .st8 {
        stroke: #61a5fb;
        stroke-dasharray: 2 2;
      }

      .st10 {
        fill: #3c82f5;
      }

      .st11 {
        fill: #1e79b7;
      }

      .st12 {
        fill: #ec4799;
      }

      .st7 {
        stroke: #1b76b1;
        stroke-width: 17px;
      }

      .st13 {
        fill: #f49d0d;
      }

      .st14 {
        fill: #3c81f4;
      }

      .st15 {
        fill: #0b0755;
      }

      .st16 {
        fill: #0bb980;
      }
    </style>
  </defs>
  <path class="st15" d="M270.17,184l-10-5.77v11.55l10-5.77h0ZM228.67,184v1h32.5v-2h-32.5v1Z"/>
  <path class="st15" d="M539.17,184l-10-5.77v11.55l10-5.77h0ZM497.67,184v1h32.5v-2h-32.5v1Z"/>
  <g>
    <path class="st9" d="M196.16,125.53c12.89,15.55,21.09,34.45,23.65,54.49,2.56,20.04-.64,40.39-9.21,58.68s-22.17,33.77-39.21,44.62c-17.04,10.85-36.81,16.64-57.01,16.68-20.2.04-39.99-5.66-57.08-16.45-17.08-10.78-30.74-26.2-39.39-44.46-8.63-18.25-11.91-38.59-9.44-58.63,2.47-20.05,10.6-38.98,23.43-54.58l12.34,10.14c-10.9,13.26-17.81,29.35-19.91,46.4s.68,34.33,8.03,49.84c7.35,15.52,18.96,28.62,33.48,37.79,14.52,9.17,31.34,14.01,48.51,13.98,17.17-.04,33.98-4.95,48.46-14.18,14.48-9.23,26.04-22.38,33.32-37.93,7.29-15.55,10-32.85,7.83-49.88s-9.15-33.09-20.1-46.31l12.3-10.19h0Z"/>
    <path class="st15" d="M84.14,194h-3.09v-8.73h3.12c.88,0,1.63.17,2.27.52.63.35,1.12.85,1.46,1.5s.52,1.43.52,2.34-.17,1.69-.52,2.34c-.34.65-.83,1.15-1.47,1.5s-1.4.52-2.28.52h-.01ZM82.89,192.42h1.17c.55,0,1-.1,1.38-.29.38-.2.66-.5.84-.91.19-.41.29-.94.29-1.59s-.1-1.17-.29-1.58-.47-.71-.84-.9c-.37-.19-.83-.29-1.38-.29h-1.18v5.57h.01ZM92.73,194.13c-.67,0-1.25-.14-1.74-.41-.48-.28-.86-.66-1.12-1.17s-.39-1.1-.39-1.79.13-1.26.39-1.77c.26-.51.63-.9,1.1-1.19.48-.28,1.04-.43,1.68-.43.43,0,.83.07,1.21.21s.7.34.98.62c.28.28.5.62.66,1.04s.23.9.23,1.46v.5h-5.53v-1.12h3.82c0-.26-.06-.49-.17-.7-.11-.2-.27-.36-.47-.47-.2-.12-.43-.18-.69-.18s-.52.06-.73.19c-.21.12-.38.29-.49.51-.12.21-.18.44-.18.7v1.07c0,.32.06.6.18.84.12.24.29.42.52.54.22.13.48.19.79.19.2,0,.39-.03.55-.08.17-.06.31-.14.43-.26.12-.11.21-.25.27-.42l1.68.11c-.09.4-.26.76-.52,1.06-.26.3-.6.53-1.01.7-.41.16-.89.25-1.43.25h-.02ZM102.36,189.32l-1.66.1c-.03-.14-.09-.27-.18-.38-.09-.12-.22-.21-.37-.28-.15-.07-.33-.11-.54-.11-.28,0-.52.06-.71.18s-.29.27-.29.47c0,.16.06.29.19.4s.34.2.64.26l1.18.24c.64.13,1.11.34,1.42.63.31.29.47.67.47,1.14,0,.43-.13.8-.38,1.13-.25.32-.59.58-1.03.76-.43.18-.94.27-1.5.27-.87,0-1.56-.18-2.07-.54s-.81-.86-.9-1.48l1.79-.09c.05.26.18.47.39.61s.47.21.8.21.57-.06.77-.18.3-.29.3-.48c0-.16-.07-.3-.21-.4-.14-.11-.35-.19-.63-.25l-1.13-.23c-.64-.13-1.12-.35-1.43-.66-.31-.32-.46-.72-.46-1.21,0-.42.11-.78.34-1.09.23-.3.55-.54.97-.7s.91-.25,1.47-.25c.83,0,1.48.18,1.95.52.48.35.76.83.84,1.43l-.03-.02ZM107.14,187.46v1.36h-3.94v-1.36h3.94ZM104.09,185.89h1.82v6.1c0,.17.03.3.08.39s.12.15.21.19c.09.04.2.06.32.06.09,0,.17,0,.26-.02.09-.02.15-.03.2-.04l.29,1.35c-.09.03-.22.06-.38.1-.16.04-.37.06-.6.07-.44.02-.82-.04-1.15-.17s-.58-.34-.76-.62-.27-.64-.27-1.07v-6.34h-.02ZM108.32,194v-6.54h1.82v6.54h-1.82ZM109.23,186.61c-.27,0-.5-.09-.69-.27-.19-.18-.29-.4-.29-.65s.1-.46.29-.64.42-.27.69-.27.5.09.69.27c.19.18.29.39.29.64s-.1.47-.29.65-.42.27-.69.27ZM113.41,190.22v3.78h-1.82v-6.54h1.73v1.15h.08c.14-.38.39-.68.73-.9.34-.22.75-.34,1.24-.34.46,0,.85.1,1.19.3.34.2.6.48.79.85.19.37.28.8.28,1.31v4.17h-1.82v-3.84c0-.4-.1-.71-.31-.94s-.49-.34-.86-.34c-.24,0-.46.05-.65.16-.18.11-.33.26-.43.46-.1.2-.15.44-.16.72h0ZM120.92,194.12c-.42,0-.79-.07-1.12-.22s-.59-.37-.78-.65c-.19-.29-.28-.65-.28-1.08,0-.36.07-.67.2-.92s.32-.45.55-.6c.23-.15.49-.26.78-.34s.6-.13.93-.16c.38-.04.69-.08.92-.11.23-.04.4-.09.51-.16s.16-.18.16-.32v-.02c0-.27-.08-.48-.26-.63-.17-.15-.41-.22-.72-.22-.33,0-.59.07-.78.22-.19.14-.32.32-.38.54l-1.68-.14c.08-.4.25-.74.5-1.03s.57-.52.97-.67c.4-.16.86-.24,1.38-.24.36,0,.71.04,1.04.13.33.09.63.22.89.4s.47.41.62.69.23.61.23,1v4.41h-1.72v-.91h-.05c-.11.21-.25.39-.42.54-.18.15-.39.27-.63.36-.25.08-.53.13-.86.13h0ZM121.44,192.87c.27,0,.5-.05.71-.16s.37-.25.48-.43c.12-.18.18-.39.18-.62v-.69c-.06.04-.14.07-.24.1s-.21.06-.33.08-.24.04-.37.06c-.12.02-.23.03-.33.05-.21.03-.4.08-.56.15-.16.07-.28.16-.37.28-.09.11-.13.26-.13.43,0,.25.09.44.27.57s.41.19.69.19h0ZM129.5,187.46v1.36h-3.94v-1.36h3.94ZM126.45,185.89h1.82v6.1c0,.17.03.3.08.39s.12.15.21.19c.09.04.2.06.32.06.08,0,.17,0,.26-.02.09-.02.15-.03.2-.04l.28,1.35c-.09.03-.22.06-.38.1-.17.04-.37.06-.6.07-.44.02-.82-.04-1.15-.17s-.58-.34-.76-.62-.27-.64-.27-1.07v-6.34h-.01ZM130.68,194v-6.54h1.81v6.54h-1.81ZM131.59,186.61c-.27,0-.5-.09-.69-.27-.19-.18-.29-.4-.29-.65s.1-.46.29-.64.43-.27.69-.27.5.09.69.27c.19.18.29.39.29.64s-.1.47-.29.65-.42.27-.69.27ZM136.91,194.13c-.66,0-1.24-.14-1.72-.42-.48-.28-.85-.68-1.11-1.18-.26-.51-.39-1.1-.39-1.77s.13-1.27.39-1.77c.26-.51.63-.9,1.11-1.18.48-.28,1.06-.43,1.72-.43s1.23.14,1.71.43c.48.28.85.68,1.12,1.18.26.51.39,1.1.39,1.77s-.13,1.26-.39,1.77c-.26.51-.63.9-1.12,1.18-.48.28-1.05.42-1.71.42ZM136.91,192.72c.3,0,.55-.09.75-.26s.35-.41.46-.71c.1-.3.16-.64.16-1.02s-.05-.72-.16-1.02c-.1-.3-.25-.54-.46-.71-.2-.17-.45-.26-.75-.26s-.56.09-.77.26-.36.41-.46.71c-.1.3-.15.64-.15,1.02s.05.72.15,1.02c.11.3.26.53.46.71.21.17.46.26.77.26ZM143.12,190.22v3.78h-1.82v-6.54h1.73v1.15h.08c.14-.38.39-.68.73-.9s.75-.34,1.24-.34c.46,0,.85.1,1.19.3s.6.48.79.85c.19.37.28.8.28,1.31v4.17h-1.82v-3.84c0-.4-.1-.71-.31-.94-.21-.23-.49-.34-.86-.34-.24,0-.46.05-.65.16-.18.11-.33.26-.43.46-.1.2-.15.44-.16.72h.01ZM96.85,200.27l2.11,6.63h.08l2.11-6.63h2.05l-3.01,8.73h-2.38l-3.01-8.73s2.05,0,2.05,0ZM106.46,209.13c-.67,0-1.25-.14-1.74-.41-.48-.28-.86-.66-1.12-1.17s-.39-1.1-.39-1.79.13-1.26.39-1.77c.26-.51.63-.9,1.1-1.19.48-.28,1.04-.43,1.68-.43.43,0,.83.07,1.21.21s.7.34.98.62c.28.28.5.62.66,1.04s.24.9.24,1.46v.5h-5.53v-1.12h3.82c0-.26-.06-.49-.17-.7-.11-.2-.27-.36-.47-.47-.2-.12-.43-.18-.69-.18s-.52.06-.73.19c-.21.12-.38.29-.49.51-.12.21-.18.44-.18.7v1.07c0,.32.06.6.18.84.12.24.29.42.52.54.22.13.48.19.79.19.2,0,.39-.03.55-.08.17-.06.31-.14.43-.26.12-.11.21-.25.27-.42l1.68.11c-.08.4-.26.76-.52,1.06-.26.3-.6.53-1.01.7-.41.16-.89.25-1.43.25h-.03ZM113.6,209.13c-.67,0-1.25-.14-1.73-.43s-.85-.68-1.11-1.19c-.26-.51-.38-1.09-.38-1.76s.13-1.26.39-1.76c.26-.51.63-.9,1.11-1.19.48-.29,1.05-.43,1.71-.43.57,0,1.07.1,1.5.31.43.21.77.5,1.02.87s.39.82.41,1.32h-1.71c-.05-.33-.18-.59-.38-.79s-.47-.3-.81-.3c-.28,0-.53.08-.74.23s-.37.37-.49.66c-.12.29-.18.64-.18,1.05s.06.77.17,1.07c.12.29.28.51.49.67.21.15.46.23.74.23.21,0,.39-.04.56-.13.17-.08.31-.21.41-.37.11-.16.18-.36.22-.59h1.71c-.03.5-.17.94-.41,1.32-.24.38-.57.67-1,.89-.43.21-.93.32-1.51.32h.01ZM121.17,202.46v1.36h-3.94v-1.36h3.94ZM118.12,200.89h1.81v6.1c0,.17.03.3.08.39s.12.15.21.19c.09.04.2.06.32.06.08,0,.17,0,.26-.02.08-.02.15-.03.2-.04l.29,1.35c-.09.03-.22.06-.38.1-.17.04-.36.06-.6.07-.44.02-.82-.04-1.15-.17s-.58-.34-.76-.62-.27-.64-.27-1.07v-6.34h-.01ZM125.24,209.13c-.66,0-1.23-.14-1.72-.42-.48-.28-.85-.68-1.11-1.18-.26-.51-.39-1.1-.39-1.77s.13-1.27.39-1.77c.26-.51.63-.9,1.11-1.18s1.06-.43,1.72-.43,1.23.14,1.71.43c.48.28.86.68,1.12,1.18.26.51.39,1.1.39,1.77s-.13,1.26-.39,1.77c-.26.51-.63.9-1.12,1.18-.48.28-1.05.42-1.71.42ZM125.25,207.72c.3,0,.55-.09.75-.26s.35-.41.46-.71c.1-.3.16-.64.16-1.02s-.05-.72-.16-1.02c-.1-.3-.25-.54-.46-.71-.2-.17-.45-.26-.75-.26s-.56.09-.77.26c-.2.17-.36.41-.46.71s-.15.64-.15,1.02.05.72.15,1.02c.11.3.26.53.46.71.21.17.46.26.77.26ZM129.64,209v-6.54h1.76v1.14h.07c.12-.41.32-.71.6-.92.28-.21.61-.32.97-.32.09,0,.19,0,.29.02.11,0,.2.03.28.05v1.61c-.08-.03-.2-.05-.35-.07s-.29-.03-.41-.03c-.27,0-.51.06-.72.17s-.37.27-.49.48c-.12.21-.18.44-.18.71v3.7h-1.82Z"/>
  </g>
  <g class="st2">
    <text class="st1" transform="translate(56.16 320.2)"><tspan x="0" y="0">Linearized Destination </tspan></text>
    <text class="st0" transform="translate(56.16 320.2)"><tspan x="0" y="0">Linearized Destination </tspan></text>
    <text class="st1" transform="translate(97.92 334.6)"><tspan x="0" y="0">Vector</tspan></text>
    <text class="st0" transform="translate(97.92 334.6)"><tspan x="0" y="0">Vector</tspan></text>
  </g>
  <g class="st2">
    <text class="st1" transform="translate(608.1 327.4)"><tspan x="0" y="0">Assembled Plasmid</tspan></text>
    <text class="st0" transform="translate(608.1 327.4)"><tspan x="0" y="0">Assembled Plasmid</tspan></text>
  </g>
  <g class="st2">
    <text class="st3" transform="translate(375.01 327.64)"><tspan x="0" y="0">Ligate</tspan></text>
    <text/>
    <text/>
  </g>
  <g>
    <path class="st15" d="M355.14,194h-3.09v-8.73h3.12c.88,0,1.63.17,2.27.52.63.35,1.12.85,1.46,1.5s.52,1.43.52,2.34-.17,1.69-.52,2.34c-.34.65-.83,1.15-1.47,1.5s-1.4.52-2.28.52h0ZM353.9,192.42h1.17c.54,0,1-.1,1.38-.29.38-.2.66-.5.84-.91.19-.41.29-.94.29-1.59s-.1-1.17-.29-1.58-.47-.71-.84-.9c-.37-.19-.83-.29-1.38-.29h-1.18v5.57h0ZM363.73,194.13c-.67,0-1.25-.14-1.74-.41-.48-.28-.86-.66-1.12-1.17s-.39-1.1-.39-1.79.13-1.26.39-1.77c.26-.51.63-.9,1.1-1.19.48-.28,1.04-.43,1.68-.43.43,0,.83.07,1.2.21.38.14.7.34.98.62s.5.62.66,1.04.23.9.23,1.46v.5h-5.53v-1.12h3.82c0-.26-.06-.49-.17-.7-.11-.2-.27-.36-.47-.47-.2-.12-.43-.18-.7-.18s-.52.06-.73.19c-.21.12-.38.29-.49.51-.12.21-.18.44-.18.7v1.07c0,.32.06.6.18.84.12.24.29.42.51.54.22.13.49.19.79.19.2,0,.39-.03.55-.08.17-.06.31-.14.43-.26.12-.11.21-.25.27-.42l1.68.11c-.08.4-.26.76-.52,1.06-.26.3-.6.53-1.01.7-.41.16-.89.25-1.43.25h0ZM373.36,189.32l-1.66.1c-.03-.14-.09-.27-.18-.38-.09-.12-.22-.21-.37-.28-.15-.07-.33-.11-.54-.11-.28,0-.52.06-.71.18s-.29.27-.29.47c0,.16.06.29.19.4s.34.2.64.26l1.18.24c.64.13,1.11.34,1.42.63.31.29.47.67.47,1.14,0,.43-.13.8-.38,1.13-.25.32-.59.58-1.03.76s-.94.27-1.51.27c-.87,0-1.56-.18-2.07-.54s-.81-.86-.9-1.48l1.79-.09c.05.26.18.47.39.61.21.14.47.21.8.21s.57-.06.77-.18c.2-.12.29-.29.3-.48,0-.16-.07-.3-.21-.4-.14-.11-.35-.19-.63-.25l-1.13-.23c-.64-.13-1.11-.35-1.43-.66-.31-.32-.46-.72-.46-1.21,0-.42.11-.78.34-1.09.23-.3.55-.54.97-.7s.91-.25,1.47-.25c.83,0,1.48.18,1.95.52.48.35.76.83.83,1.43v-.02ZM378.14,187.46v1.36h-3.94v-1.36h3.94ZM375.09,185.89h1.82v6.1c0,.17.03.3.08.39s.12.15.21.19c.09.04.2.06.32.06.08,0,.17,0,.26-.02s.15-.03.2-.04l.29,1.35c-.09.03-.22.06-.38.1-.16.04-.36.06-.6.07-.44.02-.82-.04-1.15-.17s-.58-.34-.76-.62c-.18-.28-.27-.64-.27-1.07v-6.34h-.02ZM379.32,194v-6.54h1.82v6.54h-1.82ZM380.23,186.61c-.27,0-.5-.09-.69-.27-.19-.18-.29-.4-.29-.65s.1-.46.29-.64.42-.27.69-.27.5.09.69.27c.19.18.29.39.29.64s-.1.47-.29.65-.42.27-.69.27ZM384.4,190.22v3.78h-1.81v-6.54h1.73v1.15h.08c.14-.38.39-.68.73-.9s.76-.34,1.24-.34c.45,0,.85.1,1.19.3s.6.48.79.85c.19.37.28.8.28,1.31v4.17h-1.82v-3.84c0-.4-.1-.71-.31-.94s-.49-.34-.86-.34c-.24,0-.46.05-.65.16-.18.11-.33.26-.43.46-.1.2-.15.44-.16.72h0ZM391.92,194.12c-.42,0-.79-.07-1.12-.22s-.59-.37-.78-.65c-.19-.29-.28-.65-.28-1.08,0-.36.07-.67.2-.92s.31-.45.55-.6c.23-.15.49-.26.78-.34.3-.08.61-.13.93-.16.38-.04.69-.08.92-.11.23-.04.4-.09.51-.16.11-.07.16-.18.16-.32v-.02c0-.27-.09-.48-.26-.63-.17-.15-.41-.22-.72-.22-.33,0-.59.07-.78.22-.19.14-.32.32-.38.54l-1.68-.14c.08-.4.25-.74.5-1.03s.57-.52.97-.67c.4-.16.86-.24,1.38-.24.36,0,.71.04,1.04.13.33.09.63.22.89.4s.47.41.62.69.23.61.23,1v4.41h-1.72v-.91h-.05c-.11.21-.24.39-.42.54-.18.15-.39.27-.64.36-.25.08-.53.13-.86.13h0ZM392.44,192.87c.27,0,.5-.05.71-.16s.36-.25.48-.43c.12-.18.18-.39.18-.62v-.69c-.06.04-.14.07-.24.1-.1.03-.21.06-.33.08s-.24.04-.37.06c-.12.02-.23.03-.33.05-.21.03-.4.08-.56.15-.16.07-.28.16-.37.28-.09.11-.13.26-.13.43,0,.25.09.44.27.57s.41.19.69.19h0ZM400.5,187.46v1.36h-3.94v-1.36h3.94ZM397.45,185.89h1.82v6.1c0,.17.02.3.08.39.05.09.12.15.21.19.09.04.2.06.32.06.08,0,.17,0,.26-.02.08-.02.15-.03.2-.04l.29,1.35c-.09.03-.22.06-.38.1-.16.04-.36.06-.6.07-.44.02-.82-.04-1.15-.17s-.58-.34-.76-.62c-.18-.28-.27-.64-.27-1.07v-6.34h-.02ZM401.68,194v-6.54h1.82v6.54h-1.82ZM402.59,186.61c-.27,0-.5-.09-.7-.27-.19-.18-.29-.4-.29-.65s.1-.46.29-.64.43-.27.7-.27.5.09.69.27c.19.18.29.39.29.64s-.1.47-.29.65-.42.27-.69.27ZM407.91,194.13c-.66,0-1.23-.14-1.72-.42-.48-.28-.85-.68-1.11-1.18-.26-.51-.39-1.1-.39-1.77s.13-1.27.39-1.77c.26-.51.63-.9,1.11-1.18.48-.28,1.06-.43,1.72-.43s1.23.14,1.71.43c.48.28.85.68,1.12,1.18.26.51.39,1.1.39,1.77s-.13,1.26-.39,1.77c-.26.51-.63.9-1.12,1.18-.48.28-1.05.42-1.71.42ZM407.91,192.72c.3,0,.55-.09.75-.26s.35-.41.46-.71.16-.64.16-1.02-.05-.72-.16-1.02c-.1-.3-.25-.54-.46-.71-.2-.17-.45-.26-.75-.26s-.56.09-.77.26c-.2.17-.36.41-.46.71s-.15.64-.15,1.02.05.72.15,1.02c.11.3.26.53.46.71.21.17.46.26.77.26ZM414.12,190.22v3.78h-1.82v-6.54h1.73v1.15h.08c.14-.38.39-.68.73-.9s.75-.34,1.24-.34c.45,0,.85.1,1.19.3s.6.48.79.85c.19.37.28.8.28,1.31v4.17h-1.82v-3.84c0-.4-.1-.71-.31-.94s-.49-.34-.86-.34c-.24,0-.46.05-.65.16-.18.11-.33.26-.43.46-.1.2-.15.44-.16.72h0ZM367.85,200.27l2.11,6.63h.08l2.11-6.63h2.05l-3.01,8.73h-2.38l-3.01-8.73h2.05ZM377.46,209.13c-.67,0-1.25-.14-1.74-.41-.48-.28-.86-.66-1.12-1.17s-.39-1.1-.39-1.79.13-1.26.39-1.77c.26-.51.63-.9,1.1-1.19.48-.28,1.04-.43,1.68-.43.43,0,.83.07,1.21.21s.7.34.98.62.5.62.66,1.04.23.9.23,1.46v.5h-5.53v-1.12h3.82c0-.26-.06-.49-.17-.7-.11-.2-.27-.36-.47-.47-.2-.12-.43-.18-.69-.18s-.52.06-.73.19c-.21.12-.38.29-.49.51-.12.21-.18.44-.18.7v1.07c0,.32.06.6.18.84.12.24.29.42.52.54.22.13.48.19.79.19.2,0,.39-.03.55-.08.17-.06.31-.14.43-.26.12-.11.21-.25.27-.42l1.68.11c-.08.4-.26.76-.52,1.06-.26.3-.6.53-1.01.7-.41.16-.89.25-1.43.25h-.02ZM384.6,209.13c-.67,0-1.25-.14-1.73-.43s-.85-.68-1.11-1.19c-.26-.51-.38-1.09-.38-1.76s.13-1.26.39-1.76c.26-.51.63-.9,1.11-1.19.48-.29,1.05-.43,1.71-.43.57,0,1.07.1,1.5.31.43.21.77.5,1.02.87s.39.82.41,1.32h-1.71c-.05-.33-.18-.59-.38-.79s-.47-.3-.81-.3c-.28,0-.53.08-.74.23s-.37.37-.49.66c-.12.29-.17.64-.17,1.05s.06.77.17,1.07c.12.29.28.51.49.67.21.15.46.23.74.23.21,0,.39-.04.56-.13.17-.08.31-.21.41-.37.11-.16.18-.36.22-.59h1.71c-.03.5-.17.94-.41,1.32s-.58.67-1,.89c-.43.21-.93.32-1.51.32h0ZM392.17,202.46v1.36h-3.94v-1.36h3.94ZM389.12,200.89h1.82v6.1c0,.17.03.3.08.39s.12.15.21.19c.09.04.2.06.32.06.08,0,.17,0,.26-.02.08-.02.15-.03.2-.04l.29,1.35c-.09.03-.22.06-.38.1-.17.04-.36.06-.6.07-.44.02-.82-.04-1.15-.17s-.58-.34-.76-.62c-.18-.28-.27-.64-.27-1.07v-6.34h-.02ZM396.24,209.13c-.66,0-1.23-.14-1.72-.42-.48-.28-.85-.68-1.11-1.18-.26-.51-.39-1.1-.39-1.77s.13-1.27.39-1.77c.26-.51.63-.9,1.11-1.18.48-.28,1.06-.43,1.72-.43s1.23.14,1.71.43c.48.28.86.68,1.12,1.18.26.51.39,1.1.39,1.77s-.13,1.26-.39,1.77c-.26.51-.63.9-1.12,1.18-.48.28-1.05.42-1.71.42ZM396.25,207.72c.3,0,.55-.09.75-.26s.35-.41.46-.71.16-.64.16-1.02-.05-.72-.16-1.02c-.1-.3-.25-.54-.46-.71-.2-.17-.45-.26-.75-.26s-.56.09-.77.26-.36.41-.47.71c-.1.3-.15.64-.15,1.02s.05.72.15,1.02c.11.3.26.53.47.71.21.17.46.26.77.26ZM400.64,209v-6.54h1.76v1.14h.07c.12-.41.32-.71.6-.92.28-.21.61-.32.97-.32.09,0,.19,0,.29.02.11,0,.2.03.28.05v1.61c-.08-.03-.2-.05-.35-.07s-.29-.03-.41-.03c-.27,0-.51.06-.72.17s-.37.27-.49.48c-.12.21-.18.44-.18.71v3.7h-1.82Z"/>
    <path class="st15" d="M294.9,72.68l4.36,7.56-1.6.92-4.36-7.56,1.6-.92ZM300.23,75.31l1.89,3.28-1.57.91-3.27-5.67,1.5-.87.58,1,.07-.04c-.06-.4,0-.78.18-1.15.18-.36.49-.67.9-.91.39-.23.79-.34,1.18-.34s.76.12,1.11.34c.35.22.65.56.9,1l2.08,3.61-1.57.91-1.92-3.33c-.2-.35-.44-.57-.74-.66-.29-.09-.6-.05-.91.13-.21.12-.37.28-.48.46-.11.18-.16.39-.15.62.01.22.09.46.22.7h0ZM309.39,68.99l-1.39.92c-.1-.11-.21-.19-.35-.24-.14-.05-.29-.07-.46-.05-.17.01-.34.07-.52.18-.24.14-.42.31-.53.51-.11.2-.12.38-.02.55.08.14.2.22.36.25.16.03.39,0,.69-.1l1.15-.39c.62-.21,1.13-.26,1.55-.17.42.09.74.35.98.75.21.37.29.76.24,1.17-.05.41-.23.8-.51,1.17-.29.37-.68.7-1.17.98-.75.43-1.44.62-2.06.57-.62-.06-1.13-.34-1.52-.83l1.5-.97c.18.2.39.31.64.33.25.01.51-.06.79-.22s.47-.34.57-.54c.11-.21.11-.39.02-.57-.08-.14-.21-.22-.38-.25s-.4,0-.67.1l-1.1.37c-.62.21-1.14.25-1.57.14-.43-.12-.76-.39-1.01-.81-.21-.36-.29-.73-.25-1.11.05-.38.21-.74.49-1.09s.66-.67,1.15-.95c.72-.41,1.37-.59,1.95-.52.59.06,1.07.34,1.44.82h0ZM315.49,71.02c-.58.34-1.15.51-1.71.51s-1.07-.15-1.55-.45c-.48-.31-.89-.76-1.24-1.36-.34-.58-.52-1.16-.55-1.73s.09-1.1.36-1.58c.27-.48.69-.89,1.24-1.21.37-.22.76-.36,1.15-.42.39-.07.78-.05,1.16.05s.74.29,1.09.57c.34.28.65.66.93,1.14l.25.43-4.79,2.76-.56-.97,3.31-1.91c-.13-.23-.3-.4-.49-.52-.2-.12-.42-.18-.65-.17-.23,0-.46.06-.69.2-.24.14-.42.32-.54.53s-.18.44-.17.69c0,.24.07.48.19.7l.54.93c.16.28.35.49.58.64.22.14.46.21.72.21s.51-.08.78-.23c.17-.1.32-.22.44-.35s.2-.28.24-.44c.05-.16.05-.32.03-.5l1.51-.74c.13.39.15.78.07,1.18-.08.39-.25.76-.53,1.11-.27.35-.65.66-1.11.93h-.01ZM319.06,68.81l-3.27-5.67,1.52-.88.57.99.06-.03c-.1-.41-.08-.78.06-1.1.14-.32.37-.58.68-.76.08-.05.17-.09.26-.13.1-.04.18-.08.26-.1l.8,1.39c-.09.02-.2.06-.34.12-.14.06-.26.12-.37.18-.23.13-.41.3-.53.51-.12.2-.19.42-.19.66s.07.47.2.7l1.85,3.21-1.57.91h0ZM323.34,58.78l.68,1.18-3.41,1.97-.68-1.18,3.41-1.97ZM319.91,58.95l1.57-.91,3.05,5.28c.08.15.17.25.26.3s.18.07.28.06.2-.05.31-.11c.07-.04.14-.09.21-.15.07-.06.12-.1.15-.13l.92,1.03c-.06.07-.16.16-.28.28s-.29.24-.48.36c-.37.23-.73.37-1.08.42-.35.05-.67,0-.97-.16-.3-.15-.55-.42-.76-.79l-3.17-5.49h0ZM328.95,53.02l4.36,7.56-1.6.92-3.49-6.04-.05.03-1.1,2.08-.82-1.42,1.19-2.26,1.5-.87h.01Z"/>
    <path class="st15" d="M461.74,50.7l-4.87,7.24-1.53-1.03,4.87-7.24,1.53,1.03ZM461.71,56.64l-2.11,3.14-1.5-1.02,3.66-5.43,1.44.97-.65.96.07.04c.34-.24.71-.35,1.11-.34.41,0,.81.15,1.21.42.37.26.65.56.82.91s.23.74.18,1.15-.22.83-.5,1.25l-2.33,3.46-1.5-1.02,2.15-3.19c.22-.34.32-.65.27-.95-.05-.3-.22-.56-.52-.76-.2-.13-.41-.21-.63-.23-.21-.01-.42.03-.62.14-.2.11-.37.27-.54.5h0ZM471.41,62.11l-1.44-.84c.06-.14.08-.28.06-.42,0-.15-.06-.29-.15-.44-.08-.15-.21-.28-.39-.39-.23-.16-.46-.24-.69-.25-.23-.02-.4.06-.5.23-.09.13-.11.27-.07.44s.18.35.39.58l.85.86c.46.46.73.9.83,1.32s.01.82-.25,1.21c-.24.35-.55.59-.94.73s-.81.14-1.28.05-.92-.3-1.4-.62c-.72-.48-1.19-1.02-1.41-1.6-.22-.59-.19-1.17.08-1.73l1.53.92c-.1.25-.1.49-.01.72.09.23.28.43.55.62.26.18.51.27.74.27s.41-.07.52-.23c.09-.13.11-.29.05-.46-.05-.16-.18-.35-.38-.56l-.82-.82c-.46-.46-.73-.91-.81-1.35s.02-.85.29-1.26c.23-.34.53-.58.89-.71s.76-.14,1.2-.05c.43.1.89.3,1.35.62.69.46,1.13.97,1.33,1.53s.16,1.1-.11,1.65ZM472.27,68.48c-.55-.38-.97-.81-1.21-1.31s-.34-1.03-.27-1.59.29-1.13.68-1.71c.38-.55.82-.98,1.32-1.25s1.03-.4,1.58-.37c.56.04,1.1.23,1.63.58.35.25.66.53.88.84.24.33.39.68.47,1.07.08.39.06.8-.04,1.23s-.31.88-.62,1.34l-.28.41-4.59-3.09.63-.93,3.17,2.14c.15-.22.23-.45.25-.67s-.03-.45-.12-.66c-.1-.21-.26-.39-.47-.53-.23-.16-.46-.23-.71-.25s-.47.04-.69.14-.4.26-.54.48l-.6.89c-.18.27-.29.53-.33.8-.03.27.01.51.12.74.11.23.29.43.55.6.16.11.34.19.5.24.17.04.34.05.5.03.16-.03.32-.09.46-.2l1.33,1.03c-.29.29-.63.48-1.02.58-.39.1-.8.1-1.23.01-.43-.09-.87-.29-1.32-.59h0ZM475.82,70.71l3.66-5.43,1.46.98-.64.95.06.03c.33-.27.66-.42,1.01-.43s.68.08.98.28c.08.06.15.11.24.18.08.07.15.13.21.19l-.9,1.34c-.06-.06-.14-.15-.25-.26-.11-.1-.23-.19-.32-.25-.22-.15-.45-.23-.69-.26-.24-.02-.46.02-.68.12-.21.11-.4.26-.54.48l-2.07,3.07-1.5-1.02h-.01ZM486.7,70.16l-.76,1.13-3.27-2.2.76-1.13,3.27,2.2ZM485.06,67.16l1.5,1.02-3.41,5.06c-.09.14-.15.26-.16.37,0,.1.02.2.07.28.05.08.14.16.23.23.07.04.14.09.22.13.08.04.14.06.19.07l-.52,1.28c-.09-.03-.22-.08-.37-.14s-.34-.15-.54-.28c-.38-.23-.66-.5-.86-.79-.2-.29-.29-.61-.29-.94,0-.33.13-.68.37-1.04l3.54-5.26v.02ZM488.92,79.69c-.53-.36-.94-.77-1.23-1.22-.29-.46-.44-.93-.46-1.42-.02-.48.12-.93.39-1.37l1.54,1.04c-.11.18-.16.38-.14.58s.09.41.23.6c.13.19.31.36.54.52.23.16.46.25.7.29s.45.02.66-.05c.2-.08.37-.22.49-.41.13-.19.19-.4.18-.62,0-.22-.08-.45-.22-.67s-.35-.42-.62-.6l-.67-.46.76-1.12.67.46c.23.16.46.25.69.29.24.04.45.03.65-.06.2-.08.36-.22.49-.4.12-.18.19-.37.19-.57.01-.2-.04-.38-.14-.57-.1-.18-.26-.34-.46-.48-.21-.13-.43-.23-.64-.27-.22-.05-.43-.03-.62.04s-.36.19-.49.37l-1.47-.98c.29-.41.65-.7,1.1-.87.44-.16.93-.2,1.43-.12.52.09,1.02.29,1.51.63.5.34.87.72,1.12,1.15.25.44.38.88.38,1.32,0,.45-.13.86-.39,1.25-.27.4-.63.66-1.07.76-.44.1-.88.05-1.33-.15l-.03.06c.49.43.77.89.84,1.37.08.49-.04.96-.34,1.4-.28.41-.64.7-1.09.86s-.96.19-1.5.1c-.54-.1-1.09-.33-1.63-.69v.03Z"/>
    <path class="st15" d="M371.24,39.31v8.73h-1.85v-8.73h1.85ZM374.55,44.26v3.78h-1.82v-6.55h1.73v1.15h.08c.14-.38.39-.68.73-.9.34-.22.75-.34,1.24-.34.45,0,.85.1,1.19.3s.6.48.79.85c.19.37.28.8.28,1.31v4.17h-1.82v-3.84c0-.4-.1-.71-.31-.94s-.49-.34-.86-.34c-.24,0-.46.05-.65.16-.18.11-.33.26-.43.46s-.15.44-.16.72h0ZM385.64,43.36l-1.66.1c-.03-.14-.09-.27-.18-.38-.09-.12-.22-.21-.37-.28s-.33-.11-.54-.11c-.28,0-.52.06-.71.18s-.29.27-.29.47c0,.16.06.29.19.4.12.11.34.19.64.26l1.18.24c.64.13,1.11.34,1.42.63.31.29.47.67.47,1.14,0,.43-.13.81-.38,1.13s-.59.58-1.03.76c-.43.18-.94.27-1.5.27-.87,0-1.56-.18-2.07-.54s-.81-.86-.9-1.48l1.79-.09c.05.26.18.47.39.61.21.14.47.2.8.2s.57-.06.77-.18c.2-.12.3-.29.3-.48,0-.16-.07-.3-.21-.4-.14-.11-.35-.19-.63-.25l-1.13-.23c-.64-.13-1.11-.35-1.43-.66-.31-.32-.46-.72-.46-1.21,0-.42.11-.78.34-1.09.23-.3.55-.54.97-.7s.91-.25,1.47-.25c.83,0,1.48.17,1.95.52.48.35.76.83.84,1.43h-.03ZM389.92,48.17c-.67,0-1.25-.14-1.74-.41-.48-.28-.86-.66-1.12-1.17s-.39-1.1-.39-1.79.13-1.26.39-1.77.63-.9,1.1-1.19c.48-.28,1.04-.43,1.68-.43.43,0,.83.07,1.21.21s.7.34.98.62.5.62.66,1.04c.16.41.24.9.24,1.46v.5h-5.53v-1.12h3.82c0-.26-.06-.49-.17-.69-.11-.2-.27-.36-.47-.47-.2-.12-.43-.17-.69-.17s-.52.06-.73.19c-.21.12-.38.29-.49.51-.12.21-.18.44-.18.7v1.07c0,.32.06.6.18.84s.29.42.52.55c.22.13.48.19.79.19.2,0,.39-.03.55-.09.17-.06.31-.14.43-.26.12-.11.21-.25.27-.42l1.68.11c-.09.4-.26.76-.52,1.06-.26.3-.6.53-1.01.7-.41.16-.89.25-1.43.25l-.03-.02ZM394.1,48.04v-6.55h1.76v1.14h.07c.12-.41.32-.71.6-.92s.61-.32.97-.32c.09,0,.19,0,.29.02.1.01.2.03.28.05v1.61c-.09-.03-.2-.05-.35-.07-.15-.02-.29-.03-.41-.03-.27,0-.51.06-.72.17s-.37.27-.49.48c-.12.2-.18.44-.18.71v3.7h-1.82ZM402.82,41.49v1.36h-3.94v-1.36h3.94ZM399.78,39.93h1.82v6.1c0,.17.02.3.08.39.05.09.12.15.21.19s.2.06.32.06c.09,0,.17,0,.26-.02.08-.02.15-.03.2-.04l.29,1.35c-.09.03-.22.06-.38.1s-.36.06-.6.07c-.44.02-.82-.04-1.15-.17s-.58-.34-.76-.62c-.18-.28-.27-.64-.27-1.07v-6.34h-.02ZM406.77,48.04v-1.33l3.11-2.88c.26-.26.49-.49.66-.69.18-.2.32-.4.41-.6.09-.2.14-.41.14-.64,0-.26-.06-.48-.17-.66-.12-.19-.28-.33-.48-.43s-.43-.15-.69-.15-.5.05-.7.16c-.2.11-.35.26-.46.46s-.16.44-.16.72h-1.75c0-.57.13-1.07.39-1.49.26-.42.62-.75,1.09-.98s1-.35,1.61-.35,1.17.11,1.63.33c.47.22.83.52,1.09.91s.39.84.39,1.34c0,.33-.07.65-.2.98-.13.32-.36.68-.69,1.07-.33.39-.8.86-1.39,1.4l-1.27,1.25v.06h3.67v1.51h-6.23Z"/>
    <line class="st8" x1="289.82" y1="113.05" x2="302.9" y2="125.87"/>
    <line class="st8" x1="487.88" y1="109.31" x2="467.16" y2="125.53"/>
    <path class="st14" d="M307.96,144.19l-7.81-6.24c5.89-7.37,12.6-14.18,19.93-20.26l6.38,7.7c-6.81,5.64-13.03,11.96-18.5,18.8Z"/>
    <path class="st13" d="M466.93,142.15c-4.92-7.32-10.59-14.17-16.86-20.33l7.02-7.12c6.74,6.64,12.84,14,18.14,21.88l-8.3,5.58Z"/>
    <path class="st9" d="M467.16,125.53c12.89,15.55,21.09,34.45,23.65,54.49s-.64,40.39-9.21,58.68c-8.57,18.29-22.17,33.77-39.21,44.62-17.04,10.85-36.81,16.64-57.01,16.68-20.2.04-39.99-5.66-57.08-16.45-17.08-10.78-30.74-26.2-39.39-44.46-8.65-18.26-11.93-38.59-9.45-58.64,2.47-20.05,10.6-38.98,23.42-54.58l12.34,10.14c-10.9,13.26-17.81,29.35-19.91,46.4-2.1,17.04.68,34.33,8.03,49.84,7.35,15.52,18.96,28.62,33.48,37.79,14.52,9.17,31.35,14.01,48.51,13.98,17.17-.04,33.98-4.95,48.46-14.18,14.48-9.23,26.04-22.38,33.32-37.93,7.29-15.55,10-32.85,7.83-49.88s-9.15-33.09-20.1-46.31l12.3-10.19h.02Z"/>
    <path class="st12" d="M368.82,88.47c-7.11,1.09-14.04,2.94-20.61,5.48l-3.67-7.98c7.07-2.74,14.53-4.72,22.17-5.9l2.11,8.4Z"/>
    <path class="st14" d="M296.2,119.43l-6.38-6.38c5.13-6.22,10.92-11.87,17.22-16.78l5.15,7.58c-5.85,4.56-11.23,9.8-15.98,15.57Z"/>
    <path class="st7" d="M308.97,105.68c3.41-2.91,7.08-5.63,10.99-8.13,9.72-6.22,20.04-10.51,30.42-12.94"/>
    <path class="st16" d="M428.62,83.42c-7.02-3.09-14.31-5.41-21.67-6.9l1.29-9.27c7.93,1.6,15.77,4.09,23.32,7.42l-2.94,8.75Z"/>
    <path class="st12" d="M352.48,74.85l-2.09-8.15c6.95-2.67,14.15-4.56,21.42-5.61l.55,8.56c-6.75.98-13.43,2.73-19.88,5.21Z"/>
    <path class="st7" d="M367.97,69.99c4.35-1.08,8.85-1.89,13.47-2.39,11.47-1.24,22.63-.48,33,1.97"/>
    <path class="st13" d="M480.4,114.71c-3.91-6.6-8.49-12.73-13.61-18.22l6.44-6.79c5.52,5.91,10.45,12.51,14.65,19.61l-7.48,5.4Z"/>
    <path class="st16" d="M421.26,63.38l2.51-8.04c7.31,1.39,14.43,3.58,21.16,6.51l-4.04,7.57c-6.25-2.72-12.86-4.75-19.64-6.04Z"/>
    <path class="st7" d="M438.88,68.5c4.17,1.65,8.29,3.61,12.34,5.9,10.05,5.67,18.68,12.78,25.69,20.8"/>
  </g>
  <g>
    <path class="st9" d="M747.97,143.07c8.63,16.05,12.99,34.04,12.68,52.26-.31,18.22-5.3,36.05-14.47,51.8-9.18,15.74-22.24,28.87-37.94,38.12s-33.51,14.32-51.73,14.72-36.23-3.88-52.33-12.43c-16.09-8.55-29.72-21.09-39.58-36.41-9.86-15.32-15.62-32.92-16.74-51.11s2.45-36.36,10.36-52.77l14.39,6.94c-6.73,13.95-9.76,29.4-8.81,44.86s5.85,30.42,14.23,43.44,19.97,23.68,33.64,30.95c13.68,7.27,28.99,10.91,44.48,10.57s30.62-4.65,43.97-12.51c13.34-7.86,24.45-19.02,32.25-32.4,7.8-13.38,12.04-28.54,12.3-44.03.27-15.49-3.45-30.78-10.78-44.43l14.07-7.56h.01Z"/>
    <path class="st11" d="M568.57,130.14c11.04-14.92,25.79-26.69,42.78-34.15l6.42,14.63c-14.44,6.34-26.98,16.35-36.36,29.03l-12.84-9.5h0Z"/>
    <path class="st11" d="M630,89.78c17.11-3.99,34.95-3.68,51.91.9l-4.16,15.42c-14.42-3.89-29.58-4.15-44.13-.76l-3.62-15.56Z"/>
    <path class="st11" d="M700.09,97.41c14.59,6.97,27.4,17.17,37.46,29.83l-12.51,9.94c-8.55-10.76-19.44-19.43-31.84-25.35l6.89-14.41h0Z"/>
    <path class="st10" d="M558.25,147.23c2.91-6.03,6.38-11.78,10.37-17.15l12.83,9.51c-3.39,4.57-6.34,9.46-8.81,14.58l-14.39-6.94Z"/>
    <path class="st12" d="M611.12,96.09c6.12-2.71,12.49-4.83,19.02-6.34l3.6,15.56c-5.54,1.28-10.96,3.09-16.16,5.39l-6.46-14.61Z"/>
    <path class="st16" d="M681.81,90.65c6.47,1.74,12.76,4.08,18.78,7l-6.96,14.38c-5.12-2.48-10.47-4.47-15.97-5.95l4.15-15.43h0Z"/>
    <path class="st13" d="M737.46,127.13c4.17,5.24,7.84,10.86,10.96,16.78l-14.14,7.44c-2.65-5.04-5.77-9.81-9.32-14.26l12.49-9.95h.01Z"/>
    <path class="st15" d="M616.28,201v-8.73h5.78v1.52h-3.93v2.08h3.55v1.52h-3.55v3.6h-1.85ZM623.27,201v-6.54h1.82v6.54h-1.82ZM624.18,193.61c-.27,0-.5-.09-.69-.27-.19-.18-.29-.4-.29-.65s.1-.46.29-.64.42-.27.69-.27.5.09.69.27c.19.18.29.39.29.64s-.1.47-.29.65-.42.27-.69.27ZM628.35,197.22v3.78h-1.82v-6.54h1.73v1.15h.08c.15-.38.39-.68.73-.9.34-.22.75-.34,1.24-.34.45,0,.85.1,1.19.3s.6.48.79.85c.19.37.28.8.28,1.31v4.17h-1.82v-3.84c0-.4-.1-.71-.31-.94s-.49-.34-.86-.34c-.24,0-.46.05-.65.16-.18.11-.33.26-.43.46-.1.2-.16.44-.16.72h.01ZM635.87,201.12c-.42,0-.79-.07-1.12-.22s-.59-.37-.78-.65c-.19-.29-.28-.65-.28-1.08,0-.36.07-.67.2-.92s.32-.45.55-.6c.23-.15.49-.26.78-.34.3-.08.61-.13.93-.16.38-.04.69-.08.92-.11.23-.04.4-.09.51-.16s.16-.18.16-.32v-.02c0-.27-.09-.48-.26-.63-.17-.15-.41-.22-.71-.22-.33,0-.59.07-.78.22-.19.14-.32.32-.38.54l-1.68-.14c.09-.4.25-.74.5-1.03s.57-.52.97-.67c.4-.16.86-.24,1.38-.24.36,0,.71.04,1.04.13.33.09.63.22.89.4s.47.41.62.69.23.61.23,1v4.41h-1.72v-.91h-.05c-.1.21-.25.39-.42.54-.18.15-.39.27-.64.36-.25.08-.53.13-.86.13h0ZM636.39,199.87c.27,0,.5-.05.71-.16.2-.11.36-.25.48-.43s.17-.39.17-.62v-.69c-.06.04-.14.07-.23.1-.1.03-.21.06-.33.08s-.24.04-.37.06c-.12.02-.23.03-.33.05-.21.03-.4.08-.56.15-.16.07-.28.16-.37.28-.09.11-.13.26-.13.43,0,.25.09.44.27.57s.41.19.69.19h0ZM642.78,192.27v8.73h-1.82v-8.73h1.82ZM647.04,201v-8.73h3.44c.66,0,1.23.13,1.69.38.47.25.82.6,1.07,1.04.25.44.37.96.37,1.53s-.12,1.09-.38,1.53c-.25.44-.61.79-1.09,1.04-.47.25-1.04.37-1.71.37h-2.19v-1.48h1.9c.36,0,.65-.06.88-.18s.41-.3.52-.52c.12-.22.17-.48.17-.76s-.06-.54-.17-.76-.29-.39-.52-.51c-.23-.12-.53-.18-.89-.18h-1.24v7.22h-1.85ZM654.78,201v-6.54h1.76v1.14h.07c.12-.41.32-.71.6-.92.28-.21.6-.32.97-.32.09,0,.19,0,.29.02.1,0,.2.03.28.05v1.61c-.08-.03-.2-.05-.35-.07-.15-.02-.29-.03-.41-.03-.27,0-.51.06-.72.17-.21.11-.37.27-.49.48-.12.21-.18.44-.18.71v3.7h-1.82ZM662.34,201.13c-.66,0-1.23-.14-1.72-.42-.48-.28-.85-.68-1.11-1.18-.26-.51-.39-1.1-.39-1.77s.13-1.27.39-1.77c.26-.51.63-.9,1.11-1.18s1.05-.43,1.72-.43,1.23.14,1.71.43c.48.28.85.68,1.12,1.18.26.51.39,1.1.39,1.77s-.13,1.26-.39,1.77c-.26.51-.63.9-1.12,1.18-.48.28-1.05.42-1.71.42ZM662.35,199.72c.3,0,.55-.09.75-.26s.35-.41.46-.71c.11-.3.16-.64.16-1.02s-.05-.72-.16-1.02c-.1-.3-.25-.54-.46-.71-.2-.17-.45-.26-.75-.26s-.56.09-.77.26-.36.41-.46.71c-.1.3-.15.64-.15,1.02s.05.72.15,1.02c.1.3.26.53.46.71.21.17.46.26.77.26ZM669.15,201.11c-.5,0-.95-.13-1.35-.38-.4-.26-.72-.64-.95-1.14-.23-.5-.35-1.12-.35-1.85s.12-1.37.36-1.87.56-.87.96-1.12.85-.38,1.33-.38c.37,0,.67.06.92.19.25.12.45.27.6.46.15.18.27.36.35.54h.05v-3.28h1.81v8.73h-1.79v-1.05h-.08c-.08.18-.21.36-.36.54-.15.18-.35.32-.6.44-.24.12-.54.17-.9.17h0ZM669.73,199.66c.29,0,.54-.08.74-.24s.36-.39.47-.68.17-.63.17-1.02-.05-.73-.16-1.01c-.11-.29-.26-.51-.47-.66-.21-.16-.45-.23-.75-.23s-.55.08-.75.24c-.21.16-.36.39-.46.67-.11.29-.16.62-.16,1s.05.72.16,1.01.26.52.46.68c.21.16.46.24.75.24ZM678.57,198.21v-3.76h1.82v6.54h-1.74v-1.19h-.07c-.15.38-.39.69-.74.92-.34.23-.76.35-1.25.35-.44,0-.82-.1-1.15-.3s-.59-.48-.78-.85c-.18-.37-.28-.8-.28-1.32v-4.17h1.82v3.84c0,.39.11.69.31.92.2.22.48.34.82.34.22,0,.42-.05.61-.15.19-.1.34-.25.46-.45s.18-.44.17-.74v.02ZM684.79,201.13c-.67,0-1.25-.14-1.73-.43s-.85-.68-1.11-1.19c-.26-.51-.38-1.09-.38-1.76s.13-1.26.39-1.76c.26-.51.63-.9,1.11-1.19.48-.29,1.05-.43,1.71-.43.57,0,1.07.1,1.5.31.43.21.77.5,1.02.87s.39.82.41,1.32h-1.71c-.05-.33-.18-.59-.38-.79-.21-.2-.47-.3-.8-.3-.28,0-.53.08-.74.23-.21.15-.37.37-.48.66-.12.29-.17.64-.17,1.05s.06.77.17,1.07c.12.29.28.51.49.67.21.15.46.23.74.23.21,0,.39-.04.56-.13.17-.08.3-.21.41-.37.11-.16.18-.36.22-.59h1.71c-.03.5-.16.94-.41,1.32-.24.38-.58.67-1,.89-.43.21-.93.32-1.51.32h-.02ZM692.36,194.46v1.36h-3.94v-1.36h3.94ZM689.31,192.89h1.82v6.1c0,.17.03.3.08.39s.12.15.21.19c.09.04.2.06.32.06.09,0,.17,0,.26-.02s.15-.03.2-.04l.29,1.35c-.09.03-.22.06-.38.1-.17.04-.37.06-.6.07-.44.02-.82-.04-1.15-.17s-.58-.34-.76-.62-.27-.64-.27-1.07v-6.34h-.02Z"/>
    <path class="st15" d="M592.16,89.27v8.73h-1.85v-8.73s1.85,0,1.85,0ZM597.42,89.27v8.73h-1.84v-6.98h-.05l-2,1.25v-1.64l2.16-1.37h1.73Z"/>
    <path class="st15" d="M651.31,75.27v8.73h-1.85v-8.73s1.85,0,1.85,0ZM652.78,84v-1.33l3.11-2.88c.26-.26.49-.49.66-.69.18-.2.32-.4.41-.6.09-.2.14-.41.14-.64,0-.26-.06-.48-.17-.66-.12-.19-.28-.33-.48-.43-.2-.1-.43-.15-.69-.15s-.5.05-.7.16-.35.26-.46.46c-.11.2-.16.44-.16.72h-1.75c0-.57.13-1.07.39-1.49s.62-.75,1.09-.98c.47-.23,1-.35,1.61-.35s1.17.11,1.63.33c.47.22.83.52,1.09.91.26.39.39.84.39,1.34,0,.33-.07.65-.2.98-.13.32-.36.68-.69,1.07s-.79.86-1.39,1.4l-1.27,1.25v.06h3.66v1.51h-6.22Z"/>
    <path class="st15" d="M711.14,90.27v8.73h-1.84v-8.73s1.84,0,1.84,0ZM715.83,99.12c-.64,0-1.2-.11-1.7-.33-.49-.22-.89-.53-1.17-.91-.28-.39-.43-.84-.44-1.35h1.86c.01.21.08.4.21.56.13.16.3.28.52.37.22.09.46.13.73.13s.53-.05.75-.15.39-.24.51-.41.18-.38.18-.61-.07-.44-.2-.62-.31-.32-.55-.43c-.24-.1-.52-.15-.85-.15h-.81v-1.36h.81c.28,0,.52-.05.74-.14.22-.1.38-.23.5-.4s.18-.38.18-.61-.05-.41-.16-.58c-.1-.17-.25-.3-.43-.39s-.4-.14-.65-.14-.48.05-.69.14-.37.21-.5.38-.19.36-.2.58h-1.77c0-.5.15-.95.43-1.33.28-.38.65-.68,1.12-.9s1.01-.33,1.61-.33,1.13.11,1.58.33.8.51,1.05.89c.25.37.38.78.38,1.24,0,.49-.15.9-.46,1.22-.3.33-.7.53-1.19.62v.07c.64.08,1.13.31,1.47.67.34.36.51.81.5,1.36,0,.5-.14.94-.43,1.33s-.68.69-1.19.91-1.09.33-1.74.33h0Z"/>
    <g>
      <line class="st6" x1="581.06" y1="140.22" x2="579.45" y2="139.02"/>
      <line class="st4" x1="578.54" y1="138.34" x2="576.25" y2="136.64"/>
      <polyline class="st6" points="575.79 136.3 574.19 135.11 573.21 136.85"/>
      <line class="st5" x1="572.2" y1="138.63" x2="566.67" y2="148.41"/>
      <polyline class="st6" points="566.16 149.3 565.18 151.04 563.39 150.16"/>
      <line class="st6" x1="560.44" y1="148.7" x2="558.65" y2="147.81"/>
    </g>
    <g>
      <line class="st6" x1="633.48" y1="105.64" x2="633.01" y2="103.7"/>
      <line class="st4" x1="632.74" y1="102.59" x2="632.08" y2="99.82"/>
      <polyline class="st6" points="631.95 99.26 631.48 97.32 629.61 98.02"/>
      <line class="st5" x1="627.7" y1="98.74" x2="617.18" y2="102.71"/>
      <polyline class="st6" points="616.22 103.07 614.35 103.78 613.54 101.95"/>
      <line class="st6" x1="612.21" y1="98.94" x2="611.4" y2="97.11"/>
    </g>
    <g>
      <line class="st6" x1="694.28" y1="110.98" x2="695.15" y2="109.18"/>
      <line class="st4" x1="695.64" y1="108.15" x2="696.88" y2="105.58"/>
      <polyline class="st6" points="697.13 105.07 697.99 103.27 696.1 102.63"/>
      <line class="st5" x1="694.16" y1="101.98" x2="683.5" y2="98.42"/>
      <polyline class="st6" points="682.53 98.09 680.63 97.46 681.16 95.53"/>
      <line class="st6" x1="682.03" y1="92.36" x2="682.56" y2="90.43"/>
    </g>
    <g>
      <line class="st6" x1="734.61" y1="151.02" x2="736.36" y2="150.05"/>
      <line class="st4" x1="737.36" y1="149.5" x2="739.85" y2="148.11"/>
      <polyline class="st6" points="740.35 147.84 742.1 146.87 740.92 145.25"/>
      <line class="st5" x1="739.71" y1="143.6" x2="733.07" y2="134.53"/>
      <polyline class="st6" points="732.47 133.71 731.29 132.09 732.83 130.83"/>
      <line class="st6" x1="735.37" y1="128.74" x2="736.92" y2="127.47"/>
    </g>
  </g>
</svg>