<?xml version="1.0" encoding="UTF-8"?>
<svg id="Layer_1" xmlns="http://www.w3.org/2000/svg" version="1.1" viewBox="0 0 768.56 367">
  <!-- Generator: Adobe Illustrator 29.5.1, SVG Export Plug-In . SVG Version: 2.1.0 Build 141)  -->
  <defs>
    <style>
      .st0, .st1, .st2, .st3 {
        isolation: isolate;
      }

      .st0, .st2, .st3 {
        font-family: Arial-Mdm, Arial;
        font-size: 12px;
        font-weight: 500;
      }

      .st4 {
        stroke: #3974ad;
        stroke-width: 17px;
      }

      .st4, .st2, .st5, .st3, .st6, .st7 {
        stroke-miterlimit: 10;
      }

      .st4, .st5, .st8, .st3, .st6, .st7 {
        fill: none;
      }

      .st2 {
        stroke: #000;
      }

      .st2, .st3 {
        stroke-width: .25px;
      }

      .st9 {
        fill: #a8d8e8;
      }

      .st10 {
        fill: #4e80ed;
      }

      .st5 {
        stroke-dasharray: 3.7 1.85;
      }

      .st5, .st6, .st7 {
        stroke: #ff0a0a;
      }

      .st8 {
        stroke: #61a5fb;
        stroke-dasharray: 2 2;
      }

      .st3 {
        stroke: #221f20;
      }

      .st11 {
        fill: #3974ad;
      }

      .st6 {
        stroke-dasharray: 2.29 1.15;
      }

      .st12 {
        fill: #da5497;
      }

      .st13 {
        fill: #0b0755;
      }
    </style>
  </defs>
  <path class="st13" d="M269.13,184l-10-5.77v11.55l10-5.77h0ZM227.63,184v1h32.5v-2h-32.5v1Z"/>
  <path class="st13" d="M538.13,184l-10-5.77v11.55l10-5.77h0ZM496.63,184v1h32.5v-2h-32.5v1Z"/>
  <path class="st9" d="M465.12,120.53c12.89,15.55,21.09,34.45,23.65,54.49s-.64,40.39-9.21,58.68c-8.57,18.29-22.17,33.77-39.21,44.62-17.04,10.85-36.81,16.64-57.01,16.68-20.2.04-39.99-5.66-57.08-16.45-17.08-10.78-30.74-26.2-39.39-44.46-8.65-18.26-11.93-38.59-9.45-58.64,2.47-20.05,10.6-38.98,23.42-54.58l12.34,10.14c-10.9,13.26-17.81,29.35-19.91,46.4-2.1,17.04.68,34.33,8.03,49.84,7.35,15.52,18.96,28.62,33.48,37.79,14.52,9.17,31.35,14.01,48.51,13.98,17.17-.04,33.98-4.95,48.46-14.18,14.48-9.23,26.04-22.38,33.32-37.93,7.29-15.55,10-32.85,7.83-49.88s-9.15-33.09-20.1-46.31l12.3-10.19h.02Z"/>
  <path class="st13" d="M353.1,189h-3.09v-8.73h3.12c.88,0,1.63.17,2.27.52.63.35,1.12.85,1.46,1.5s.52,1.43.52,2.34-.17,1.69-.52,2.34c-.34.65-.83,1.15-1.47,1.5s-1.4.52-2.28.52h0ZM351.86,187.42h1.17c.54,0,1-.1,1.38-.29.38-.2.66-.5.84-.91.19-.41.29-.94.29-1.59s-.1-1.17-.29-1.58-.47-.71-.84-.9c-.37-.19-.83-.29-1.38-.29h-1.18v5.57h0ZM361.69,189.13c-.67,0-1.25-.14-1.74-.41-.48-.28-.86-.66-1.12-1.17s-.39-1.1-.39-1.79.13-1.26.39-1.77c.26-.51.63-.9,1.1-1.19.48-.28,1.04-.43,1.68-.43.43,0,.83.07,1.2.21.38.14.7.34.98.62s.5.62.66,1.04.23.9.23,1.46v.5h-5.53v-1.12h3.82c0-.26-.06-.49-.17-.7-.11-.2-.27-.36-.47-.47-.2-.12-.43-.18-.7-.18s-.52.06-.73.19c-.21.12-.38.29-.49.51-.12.21-.18.44-.18.7v1.07c0,.32.06.6.18.84.12.24.29.42.51.54.22.13.49.19.79.19.2,0,.39-.03.55-.08.17-.06.31-.14.43-.26.12-.11.21-.25.27-.42l1.68.11c-.08.4-.26.76-.52,1.06-.26.3-.6.53-1.01.7-.41.16-.89.25-1.43.25h0ZM371.32,184.32l-1.66.1c-.03-.14-.09-.27-.18-.38-.09-.12-.22-.21-.37-.28-.15-.07-.33-.11-.54-.11-.28,0-.52.06-.71.18s-.29.27-.29.47c0,.16.06.29.19.4s.34.2.64.26l1.18.24c.64.13,1.11.34,1.42.63.31.29.47.67.47,1.14,0,.43-.13.8-.38,1.13-.25.32-.59.58-1.03.76s-.94.27-1.51.27c-.87,0-1.56-.18-2.07-.54s-.81-.86-.9-1.48l1.79-.09c.05.26.18.47.39.61.21.14.47.21.8.21s.57-.06.77-.18c.2-.12.29-.29.3-.48,0-.16-.07-.3-.21-.4-.14-.11-.35-.19-.63-.25l-1.13-.23c-.64-.13-1.11-.35-1.43-.66-.31-.32-.46-.72-.46-1.21,0-.42.11-.78.34-1.09.23-.3.55-.54.97-.7s.91-.25,1.47-.25c.83,0,1.48.18,1.95.52.48.35.76.83.83,1.43v-.02ZM376.1,182.46v1.36h-3.94v-1.36h3.94ZM373.05,180.89h1.82v6.1c0,.17.03.3.08.39s.12.15.21.19c.09.04.2.06.32.06.08,0,.17,0,.26-.02s.15-.03.2-.04l.29,1.35c-.09.03-.22.06-.38.1-.16.04-.36.06-.6.07-.44.02-.82-.04-1.15-.17s-.58-.34-.76-.62c-.18-.28-.27-.64-.27-1.07v-6.34h-.02ZM377.28,189v-6.54h1.82v6.54h-1.82ZM378.19,181.61c-.27,0-.5-.09-.69-.27-.19-.18-.29-.4-.29-.65s.1-.46.29-.64.42-.27.69-.27.5.09.69.27c.19.18.29.39.29.64s-.1.47-.29.65-.42.27-.69.27ZM382.36,185.22v3.78h-1.81v-6.54h1.73v1.15h.08c.14-.38.39-.68.73-.9s.76-.34,1.24-.34c.45,0,.85.1,1.19.3s.6.48.79.85c.19.37.28.8.28,1.31v4.17h-1.82v-3.84c0-.4-.1-.71-.31-.94s-.49-.34-.86-.34c-.24,0-.46.05-.65.16-.18.11-.33.26-.43.46-.1.2-.15.44-.16.72h0ZM389.88,189.12c-.42,0-.79-.07-1.12-.22s-.59-.37-.78-.65c-.19-.29-.28-.65-.28-1.08,0-.36.07-.67.2-.92s.31-.45.55-.6c.23-.15.49-.26.78-.34.3-.08.61-.13.93-.16.38-.04.69-.08.92-.11.23-.04.4-.09.51-.16.11-.07.16-.18.16-.32v-.02c0-.27-.09-.48-.26-.63-.17-.15-.41-.22-.72-.22-.33,0-.59.07-.78.22-.19.14-.32.32-.38.54l-1.68-.14c.08-.4.25-.74.5-1.03s.57-.52.97-.67c.4-.16.86-.24,1.38-.24.36,0,.71.04,1.04.13.33.09.63.22.89.4s.47.41.62.69.23.61.23,1v4.41h-1.72v-.91h-.05c-.11.21-.24.39-.42.54-.18.15-.39.27-.64.36-.25.08-.53.13-.86.13h0ZM390.4,187.87c.27,0,.5-.05.71-.16s.36-.25.48-.43c.12-.18.18-.39.18-.62v-.69c-.06.04-.14.07-.24.1-.1.03-.21.06-.33.08s-.24.04-.37.06c-.12.02-.23.03-.33.05-.21.03-.4.08-.56.15-.16.07-.28.16-.37.28-.09.11-.13.26-.13.43,0,.25.09.44.27.57s.41.19.69.19h0ZM398.46,182.46v1.36h-3.94v-1.36h3.94ZM395.41,180.89h1.82v6.1c0,.17.02.3.08.39.05.09.12.15.21.19.09.04.2.06.32.06.08,0,.17,0,.26-.02.08-.02.15-.03.2-.04l.29,1.35c-.09.03-.22.06-.38.1-.16.04-.36.06-.6.07-.44.02-.82-.04-1.15-.17s-.58-.34-.76-.62c-.18-.28-.27-.64-.27-1.07v-6.34h-.02ZM399.64,189v-6.54h1.82v6.54h-1.82ZM400.55,181.61c-.27,0-.5-.09-.7-.27-.19-.18-.29-.4-.29-.65s.1-.46.29-.64.43-.27.7-.27.5.09.69.27c.19.18.29.39.29.64s-.1.47-.29.65-.42.27-.69.27ZM405.87,189.13c-.66,0-1.23-.14-1.72-.42-.48-.28-.85-.68-1.11-1.18-.26-.51-.39-1.1-.39-1.77s.13-1.27.39-1.77c.26-.51.63-.9,1.11-1.18.48-.28,1.06-.43,1.72-.43s1.23.14,1.71.43c.48.28.85.68,1.12,1.18.26.51.39,1.1.39,1.77s-.13,1.26-.39,1.77c-.26.51-.63.9-1.12,1.18-.48.28-1.05.42-1.71.42ZM405.87,187.72c.3,0,.55-.09.75-.26s.35-.41.46-.71.16-.64.16-1.02-.05-.72-.16-1.02c-.1-.3-.25-.54-.46-.71-.2-.17-.45-.26-.75-.26s-.56.09-.77.26c-.2.17-.36.41-.46.71s-.15.64-.15,1.02.05.72.15,1.02c.11.3.26.53.46.71.21.17.46.26.77.26ZM412.08,185.22v3.78h-1.82v-6.54h1.73v1.15h.08c.14-.38.39-.68.73-.9s.75-.34,1.24-.34c.45,0,.85.1,1.19.3s.6.48.79.85c.19.37.28.8.28,1.31v4.17h-1.82v-3.84c0-.4-.1-.71-.31-.94s-.49-.34-.86-.34c-.24,0-.46.05-.65.16-.18.11-.33.26-.43.46-.1.2-.15.44-.16.72h0ZM365.81,195.27l2.11,6.63h.08l2.11-6.63h2.05l-3.01,8.73h-2.38l-3.01-8.73h2.05ZM375.42,204.13c-.67,0-1.25-.14-1.74-.41-.48-.28-.86-.66-1.12-1.17s-.39-1.1-.39-1.79.13-1.26.39-1.77c.26-.51.63-.9,1.1-1.19.48-.28,1.04-.43,1.68-.43.43,0,.83.07,1.21.21s.7.34.98.62.5.62.66,1.04.23.9.23,1.46v.5h-5.53v-1.12h3.82c0-.26-.06-.49-.17-.7-.11-.2-.27-.36-.47-.47-.2-.12-.43-.18-.69-.18s-.52.06-.73.19c-.21.12-.38.29-.49.51-.12.21-.18.44-.18.7v1.07c0,.32.06.6.18.84.12.24.29.42.52.54.22.13.48.19.79.19.2,0,.39-.03.55-.08.17-.06.31-.14.43-.26.12-.11.21-.25.27-.42l1.68.11c-.08.4-.26.76-.52,1.06-.26.3-.6.53-1.01.7-.41.16-.89.25-1.43.25h-.02ZM382.56,204.13c-.67,0-1.25-.14-1.73-.43s-.85-.68-1.11-1.19c-.26-.51-.38-1.09-.38-1.76s.13-1.26.39-1.76c.26-.51.63-.9,1.11-1.19.48-.29,1.05-.43,1.71-.43.57,0,1.07.1,1.5.31.43.21.77.5,1.02.87s.39.82.41,1.32h-1.71c-.05-.33-.18-.59-.38-.79s-.47-.3-.81-.3c-.28,0-.53.08-.74.23s-.37.37-.49.66c-.12.29-.17.64-.17,1.05s.06.77.17,1.07c.12.29.28.51.49.67.21.15.46.23.74.23.21,0,.39-.04.56-.13.17-.08.31-.21.41-.37.11-.16.18-.36.22-.59h1.71c-.03.5-.17.94-.41,1.32s-.58.67-1,.89c-.43.21-.93.32-1.51.32h0ZM390.13,197.46v1.36h-3.94v-1.36h3.94ZM387.08,195.89h1.82v6.1c0,.17.03.3.08.39s.12.15.21.19c.09.04.2.06.32.06.08,0,.17,0,.26-.02.08-.02.15-.03.2-.04l.29,1.35c-.09.03-.22.06-.38.1-.17.04-.36.06-.6.07-.44.02-.82-.04-1.15-.17s-.58-.34-.76-.62c-.18-.28-.27-.64-.27-1.07v-6.34h-.02ZM394.2,204.13c-.66,0-1.23-.14-1.72-.42-.48-.28-.85-.68-1.11-1.18-.26-.51-.39-1.1-.39-1.77s.13-1.27.39-1.77c.26-.51.63-.9,1.11-1.18.48-.28,1.06-.43,1.72-.43s1.23.14,1.71.43c.48.28.86.68,1.12,1.18.26.51.39,1.1.39,1.77s-.13,1.26-.39,1.77c-.26.51-.63.9-1.12,1.18-.48.28-1.05.42-1.71.42ZM394.21,202.72c.3,0,.55-.09.75-.26s.35-.41.46-.71.16-.64.16-1.02-.05-.72-.16-1.02c-.1-.3-.25-.54-.46-.71-.2-.17-.45-.26-.75-.26s-.56.09-.77.26-.36.41-.47.71c-.1.3-.15.64-.15,1.02s.05.72.15,1.02c.11.3.26.53.47.71.21.17.46.26.77.26ZM398.6,204v-6.54h1.76v1.14h.07c.12-.41.32-.71.6-.92.28-.21.61-.32.97-.32.09,0,.19,0,.29.02.11,0,.2.03.28.05v1.61c-.08-.03-.2-.05-.35-.07s-.29-.03-.41-.03c-.27,0-.51.06-.72.17s-.37.27-.49.48c-.12.21-.18.44-.18.71v3.7h-1.82Z"/>
  <path class="st13" d="M368.41,29.27v8.73h-1.85v-8.73h1.85ZM371.71,34.22v3.78h-1.82v-6.55h1.73v1.15h.08c.14-.38.39-.68.73-.9s.75-.34,1.24-.34c.45,0,.85.1,1.19.3.34.2.6.48.79.85s.28.8.28,1.31v4.17h-1.82v-3.84c0-.4-.1-.71-.31-.94s-.49-.34-.86-.34c-.24,0-.46.05-.65.16-.18.11-.33.26-.43.46s-.15.44-.16.72h0ZM382.81,33.32l-1.66.1c-.03-.14-.09-.27-.18-.38-.09-.12-.22-.21-.37-.28s-.33-.11-.54-.11c-.28,0-.52.06-.71.18s-.29.27-.29.47c0,.16.06.29.19.4.12.11.34.19.64.26l1.18.24c.64.13,1.11.34,1.42.63.31.29.47.67.47,1.14,0,.43-.13.81-.38,1.13s-.59.58-1.03.76c-.43.18-.94.27-1.5.27-.87,0-1.56-.18-2.07-.54s-.81-.86-.9-1.48l1.79-.09c.05.26.18.47.39.61.21.14.47.2.8.2s.57-.06.77-.18c.2-.12.3-.29.3-.48,0-.16-.07-.3-.21-.4-.14-.11-.35-.19-.63-.25l-1.13-.23c-.64-.13-1.11-.35-1.43-.66-.31-.32-.46-.72-.46-1.21,0-.42.11-.78.34-1.09.23-.3.55-.54.97-.7s.91-.25,1.47-.25c.83,0,1.48.17,1.95.52.48.35.76.83.84,1.43h-.03ZM387.08,38.13c-.67,0-1.25-.14-1.74-.41-.48-.28-.86-.66-1.12-1.17s-.39-1.1-.39-1.79.13-1.26.39-1.77c.26-.51.63-.9,1.1-1.19.48-.28,1.04-.43,1.68-.43.43,0,.83.07,1.21.21s.7.34.98.62c.28.28.5.62.66,1.04.16.41.24.9.24,1.46v.5h-5.53v-1.12h3.82c0-.26-.06-.49-.17-.69-.11-.2-.27-.36-.47-.47-.2-.12-.43-.17-.69-.17s-.52.06-.73.19c-.21.12-.38.29-.49.51-.12.21-.18.44-.18.7v1.07c0,.32.06.6.18.84s.29.42.52.55c.22.13.48.19.79.19.2,0,.39-.03.55-.09.17-.06.31-.14.43-.26.12-.11.21-.25.27-.42l1.68.11c-.08.4-.26.76-.52,1.06-.26.3-.6.53-1.01.7-.41.16-.89.25-1.43.25l-.03-.02ZM391.27,38v-6.55h1.76v1.14h.07c.12-.41.32-.71.6-.92.28-.21.6-.32.97-.32.09,0,.19,0,.29.02.1.01.2.03.28.05v1.61c-.09-.03-.2-.05-.35-.07s-.29-.03-.41-.03c-.27,0-.51.06-.72.17-.21.11-.37.27-.49.48-.12.2-.18.44-.18.71v3.7h-1.82ZM399.99,31.45v1.36h-3.94v-1.36h3.94ZM396.95,29.89h1.82v6.1c0,.17.02.3.08.39.05.09.12.15.21.19.09.04.2.06.32.06.09,0,.17,0,.26-.02.08-.02.15-.03.2-.04l.29,1.35c-.09.03-.22.06-.38.1-.16.04-.36.06-.6.07-.44.02-.82-.04-1.15-.17-.33-.13-.58-.34-.76-.62-.18-.28-.27-.64-.27-1.07v-6.34h-.02Z"/>
  <line class="st8" x1="323.01" y1="100.37" x2="316.4" y2="71.14"/>
  <path class="st9" d="M734.12,120.53c12.89,15.55,21.09,34.45,23.65,54.49s-.64,40.39-9.21,58.68-22.17,33.77-39.21,44.62c-17.03,10.85-36.81,16.64-57.01,16.68-20.2.04-39.99-5.66-57.07-16.45-17.08-10.78-30.74-26.2-39.39-44.46s-11.93-38.59-9.45-58.64c2.47-20.05,10.6-38.98,23.42-54.58l12.34,10.14c-10.9,13.26-17.81,29.35-19.91,46.4-2.1,17.04.68,34.33,8.03,49.84,7.35,15.52,18.96,28.62,33.48,37.79,14.52,9.17,31.35,14.01,48.51,13.98,17.17-.04,33.98-4.95,48.46-14.18,14.48-9.23,26.04-22.38,33.33-37.93,7.29-15.55,10-32.85,7.83-49.88s-9.15-33.09-20.1-46.31l12.3-10.19h0Z"/>
  <path class="st11" d="M569.64,121.14c9.96-12.2,22.5-22.03,36.72-28.8,14.22-6.77,29.76-10.3,45.5-10.34,15.75-.04,31.31,3.41,45.56,10.11,14.25,6.69,26.84,16.47,36.86,28.61l-12.32,10.17c-8.52-10.32-19.22-18.63-31.33-24.32-12.11-5.69-25.34-8.62-38.72-8.59s-26.59,3.04-38.68,8.79c-12.08,5.75-22.74,14.11-31.21,24.48l-12.38-10.1h0Z"/>
  <path class="st10" d="M569.82,120.91c6.41-7.8,13.89-14.65,22.22-20.34l9.01,13.19c-7.08,4.84-13.44,10.66-18.89,17.29l-12.35-10.14h.01Z"/>
  <path class="st12" d="M711.83,100.31c8.36,5.66,15.87,12.47,22.31,20.25l-12.3,10.19c-5.47-6.61-11.86-12.4-18.96-17.21l8.96-13.23h-.01Z"/>
  <path class="st13" d="M614.24,196v-8.73h5.78v1.52h-3.93v2.08h3.55v1.52h-3.55v3.6h-1.85ZM621.23,196v-6.54h1.82v6.54h-1.82ZM622.14,188.61c-.27,0-.5-.09-.69-.27-.19-.18-.29-.4-.29-.65s.1-.46.29-.64.42-.27.69-.27.5.09.69.27c.19.18.29.39.29.64s-.1.47-.29.65-.42.27-.69.27ZM626.31,192.22v3.78h-1.82v-6.54h1.73v1.15h.08c.15-.38.39-.68.73-.9.34-.22.75-.34,1.24-.34.45,0,.85.1,1.19.3s.6.48.79.85c.19.37.28.8.28,1.31v4.17h-1.82v-3.84c0-.4-.1-.71-.31-.94s-.49-.34-.86-.34c-.24,0-.46.05-.65.16-.18.11-.33.26-.43.46-.1.2-.16.44-.16.72h.01ZM633.83,196.12c-.42,0-.79-.07-1.12-.22s-.59-.37-.78-.65c-.19-.29-.28-.65-.28-1.08,0-.36.07-.67.2-.92s.32-.45.55-.6c.23-.15.49-.26.78-.34.3-.08.61-.13.93-.16.38-.04.69-.08.92-.11.23-.04.4-.09.51-.16s.16-.18.16-.32v-.02c0-.27-.09-.48-.26-.63-.17-.15-.41-.22-.71-.22-.33,0-.59.07-.78.22-.19.14-.32.32-.38.54l-1.68-.14c.09-.4.25-.74.5-1.03s.57-.52.97-.67c.4-.16.86-.24,1.38-.24.36,0,.71.04,1.04.13.33.09.63.22.89.4s.47.41.62.69.23.61.23,1v4.41h-1.72v-.91h-.05c-.1.21-.25.39-.42.54-.18.15-.39.27-.64.36-.25.08-.53.13-.86.13h0ZM634.35,194.87c.27,0,.5-.05.71-.16.2-.11.36-.25.48-.43s.17-.39.17-.62v-.69c-.06.04-.14.07-.23.1-.1.03-.21.06-.33.08s-.24.04-.37.06c-.12.02-.23.03-.33.05-.21.03-.4.08-.56.15-.16.07-.28.16-.37.28-.09.11-.13.26-.13.43,0,.25.09.44.27.57s.41.19.69.19h0ZM640.74,187.27v8.73h-1.82v-8.73h1.82ZM645,196v-8.73h3.44c.66,0,1.23.13,1.69.38.47.25.82.6,1.07,1.04.25.44.37.96.37,1.53s-.12,1.09-.38,1.53c-.25.44-.61.79-1.09,1.04-.47.25-1.04.37-1.71.37h-2.19v-1.48h1.9c.36,0,.65-.06.88-.18s.41-.3.52-.52c.12-.22.17-.48.17-.76s-.06-.54-.17-.76-.29-.39-.52-.51c-.23-.12-.53-.18-.89-.18h-1.24v7.22h-1.85ZM652.74,196v-6.54h1.76v1.14h.07c.12-.41.32-.71.6-.92.28-.21.6-.32.97-.32.09,0,.19,0,.29.02.1,0,.2.03.28.05v1.61c-.08-.03-.2-.05-.35-.07-.15-.02-.29-.03-.41-.03-.27,0-.51.06-.72.17-.21.11-.37.27-.49.48-.12.21-.18.44-.18.71v3.7h-1.82ZM660.3,196.13c-.66,0-1.23-.14-1.72-.42-.48-.28-.85-.68-1.11-1.18-.26-.51-.39-1.1-.39-1.77s.13-1.27.39-1.77c.26-.51.63-.9,1.11-1.18s1.05-.43,1.72-.43,1.23.14,1.71.43c.48.28.85.68,1.12,1.18.26.51.39,1.1.39,1.77s-.13,1.26-.39,1.77c-.26.51-.63.9-1.12,1.18-.48.28-1.05.42-1.71.42ZM660.31,194.72c.3,0,.55-.09.75-.26s.35-.41.46-.71c.11-.3.16-.64.16-1.02s-.05-.72-.16-1.02c-.1-.3-.25-.54-.46-.71-.2-.17-.45-.26-.75-.26s-.56.09-.77.26-.36.41-.46.71c-.1.3-.15.64-.15,1.02s.05.72.15,1.02c.1.3.26.53.46.71.21.17.46.26.77.26ZM667.11,196.11c-.5,0-.95-.13-1.35-.38-.4-.26-.72-.64-.95-1.14-.23-.5-.35-1.12-.35-1.85s.12-1.37.36-1.87.56-.87.96-1.12.85-.38,1.33-.38c.37,0,.67.06.92.19.25.12.45.27.6.46.15.18.27.36.35.54h.05v-3.28h1.81v8.73h-1.79v-1.05h-.08c-.08.18-.21.36-.36.54-.15.18-.35.32-.6.44-.24.12-.54.17-.9.17h0ZM667.69,194.66c.29,0,.54-.08.74-.24s.36-.39.47-.68.17-.63.17-1.02-.05-.73-.16-1.01c-.11-.29-.26-.51-.47-.66-.21-.16-.45-.23-.75-.23s-.55.08-.75.24c-.21.16-.36.39-.46.67-.11.29-.16.62-.16,1s.05.72.16,1.01.26.52.46.68c.21.16.46.24.75.24ZM676.53,193.21v-3.76h1.82v6.54h-1.74v-1.19h-.07c-.15.38-.39.69-.74.92-.34.23-.76.35-1.25.35-.44,0-.82-.1-1.15-.3s-.59-.48-.78-.85c-.18-.37-.28-.8-.28-1.32v-4.17h1.82v3.84c0,.39.11.69.31.92.2.22.48.34.82.34.22,0,.42-.05.61-.15.19-.1.34-.25.46-.45s.18-.44.17-.74v.02ZM682.75,196.13c-.67,0-1.25-.14-1.73-.43s-.85-.68-1.11-1.19c-.26-.51-.38-1.09-.38-1.76s.13-1.26.39-1.76c.26-.51.63-.9,1.11-1.19.48-.29,1.05-.43,1.71-.43.57,0,1.07.1,1.5.31.43.21.77.5,1.02.87s.39.82.41,1.32h-1.71c-.05-.33-.18-.59-.38-.79-.21-.2-.47-.3-.8-.3-.28,0-.53.08-.74.23-.21.15-.37.37-.48.66-.12.29-.17.64-.17,1.05s.06.77.17,1.07c.12.29.28.51.49.67.21.15.46.23.74.23.21,0,.39-.04.56-.13.17-.08.3-.21.41-.37.11-.16.18-.36.22-.59h1.71c-.03.5-.16.94-.41,1.32-.24.38-.58.67-1,.89-.43.21-.93.32-1.51.32h-.02ZM690.32,189.46v1.36h-3.94v-1.36h3.94ZM687.27,187.89h1.82v6.1c0,.17.03.3.08.39s.12.15.21.19c.09.04.2.06.32.06.09,0,.17,0,.26-.02s.15-.03.2-.04l.29,1.35c-.09.03-.22.06-.38.1-.17.04-.37.06-.6.07-.44.02-.82-.04-1.15-.17s-.58-.34-.76-.62-.27-.64-.27-1.07v-6.34h-.02Z"/>
  <path class="st13" d="M650.12,67.27v8.73h-1.85v-8.73s1.85,0,1.85,0ZM655.38,67.27v8.73h-1.84v-6.98h-.05l-2,1.25v-1.64l2.16-1.37h1.73Z"/>
  <path class="st9" d="M196.12,120.53c12.89,15.55,21.09,34.45,23.65,54.49,2.56,20.04-.64,40.39-9.21,58.68s-22.17,33.77-39.21,44.62c-17.04,10.85-36.81,16.64-57.01,16.68-20.2.04-39.99-5.66-57.08-16.45-17.08-10.78-30.74-26.2-39.39-44.46-8.63-18.25-11.91-38.59-9.44-58.63,2.47-20.05,10.6-38.98,23.43-54.58l12.34,10.14c-10.9,13.26-17.81,29.35-19.91,46.4s.68,34.33,8.03,49.84c7.35,15.52,18.96,28.62,33.48,37.79,14.52,9.17,31.34,14.01,48.51,13.98,17.17-.04,33.98-4.95,48.46-14.18,14.48-9.23,26.04-22.38,33.32-37.93,7.29-15.55,10-32.85,7.83-49.88s-9.15-33.09-20.1-46.31l12.3-10.19h0Z"/>
  <path class="st13" d="M84.1,189h-3.09v-8.73h3.12c.88,0,1.63.17,2.27.52.63.35,1.12.85,1.46,1.5s.52,1.43.52,2.34-.17,1.69-.52,2.34c-.34.65-.83,1.15-1.47,1.5s-1.4.52-2.28.52h-.01ZM82.85,187.42h1.17c.55,0,1-.1,1.38-.29.38-.2.66-.5.84-.91.19-.41.29-.94.29-1.59s-.1-1.17-.29-1.58-.47-.71-.84-.9c-.37-.19-.83-.29-1.38-.29h-1.18v5.57h.01ZM92.69,189.13c-.67,0-1.25-.14-1.74-.41-.48-.28-.86-.66-1.12-1.17s-.39-1.1-.39-1.79.13-1.26.39-1.77c.26-.51.63-.9,1.1-1.19.48-.28,1.04-.43,1.68-.43.43,0,.83.07,1.21.21s.7.34.98.62c.28.28.5.62.66,1.04s.23.9.23,1.46v.5h-5.53v-1.12h3.82c0-.26-.06-.49-.17-.7-.11-.2-.27-.36-.47-.47-.2-.12-.43-.18-.69-.18s-.52.06-.73.19c-.21.12-.38.29-.49.51-.12.21-.18.44-.18.7v1.07c0,.32.06.6.18.84.12.24.29.42.52.54.22.13.48.19.79.19.2,0,.39-.03.55-.08.17-.06.31-.14.43-.26.12-.11.21-.25.27-.42l1.68.11c-.09.4-.26.76-.52,1.06-.26.3-.6.53-1.01.7-.41.16-.89.25-1.43.25h-.02ZM102.32,184.32l-1.66.1c-.03-.14-.09-.27-.18-.38-.09-.12-.22-.21-.37-.28-.15-.07-.33-.11-.54-.11-.28,0-.52.06-.71.18s-.29.27-.29.47c0,.16.06.29.19.4s.34.2.64.26l1.18.24c.64.13,1.11.34,1.42.63.31.29.47.67.47,1.14,0,.43-.13.8-.38,1.13-.25.32-.59.58-1.03.76-.43.18-.94.27-1.5.27-.87,0-1.56-.18-2.07-.54s-.81-.86-.9-1.48l1.79-.09c.05.26.18.47.39.61s.47.21.8.21.57-.06.77-.18.3-.29.3-.48c0-.16-.07-.3-.21-.4-.14-.11-.35-.19-.63-.25l-1.13-.23c-.64-.13-1.12-.35-1.43-.66-.31-.32-.46-.72-.46-1.21,0-.42.11-.78.34-1.09.23-.3.55-.54.97-.7s.91-.25,1.47-.25c.83,0,1.48.18,1.95.52.48.35.76.83.84,1.43l-.03-.02ZM107.1,182.46v1.36h-3.94v-1.36h3.94ZM104.05,180.89h1.82v6.1c0,.17.03.3.08.39s.12.15.21.19c.09.04.2.06.32.06.09,0,.17,0,.26-.02.09-.02.15-.03.2-.04l.29,1.35c-.09.03-.22.06-.38.1-.16.04-.36.06-.6.07-.44.02-.82-.04-1.15-.17s-.58-.34-.76-.62-.27-.64-.27-1.07v-6.34h-.02ZM108.28,189v-6.54h1.82v6.54h-1.82ZM109.19,181.61c-.27,0-.5-.09-.69-.27-.19-.18-.29-.4-.29-.65s.1-.46.29-.64.42-.27.69-.27.5.09.69.27c.19.18.29.39.29.64s-.1.47-.29.65-.42.27-.69.27ZM113.37,185.22v3.78h-1.82v-6.54h1.73v1.15h.08c.14-.38.39-.68.73-.9.34-.22.75-.34,1.24-.34.46,0,.85.1,1.19.3.34.2.6.48.79.85.19.37.28.8.28,1.31v4.17h-1.82v-3.84c0-.4-.1-.71-.31-.94s-.49-.34-.86-.34c-.24,0-.46.05-.65.16-.18.11-.33.26-.43.46-.1.2-.15.44-.16.72h0ZM120.88,189.12c-.42,0-.79-.07-1.12-.22s-.59-.37-.78-.65c-.19-.29-.28-.65-.28-1.08,0-.36.07-.67.2-.92s.32-.45.55-.6c.23-.15.49-.26.78-.34s.6-.13.93-.16c.38-.04.69-.08.92-.11.23-.04.4-.09.51-.16s.16-.18.16-.32v-.02c0-.27-.08-.48-.26-.63-.17-.15-.41-.22-.72-.22-.33,0-.59.07-.78.22-.19.14-.32.32-.38.54l-1.68-.14c.08-.4.25-.74.5-1.03s.57-.52.97-.67c.4-.16.86-.24,1.38-.24.36,0,.71.04,1.04.13.33.09.63.22.89.4s.47.41.62.69.23.61.23,1v4.41h-1.72v-.91h-.05c-.11.21-.25.39-.42.54-.18.15-.39.27-.63.36-.25.08-.53.13-.86.13h0ZM121.4,187.87c.27,0,.5-.05.71-.16s.37-.25.48-.43c.12-.18.18-.39.18-.62v-.69c-.06.04-.14.07-.24.1s-.21.06-.33.08-.24.04-.37.06c-.12.02-.23.03-.33.05-.21.03-.4.08-.56.15-.16.07-.28.16-.37.28-.09.11-.13.26-.13.43,0,.25.09.44.27.57s.41.19.69.19h0ZM129.46,182.46v1.36h-3.94v-1.36h3.94ZM126.41,180.89h1.82v6.1c0,.17.03.3.08.39s.12.15.21.19c.09.04.2.06.32.06.08,0,.17,0,.26-.02.09-.02.15-.03.2-.04l.28,1.35c-.09.03-.22.06-.38.1-.17.04-.37.06-.6.07-.44.02-.82-.04-1.15-.17s-.58-.34-.76-.62-.27-.64-.27-1.07v-6.34h-.01ZM130.64,189v-6.54h1.81v6.54h-1.81ZM131.55,181.61c-.27,0-.5-.09-.69-.27-.19-.18-.29-.4-.29-.65s.1-.46.29-.64.43-.27.69-.27.5.09.69.27c.19.18.29.39.29.64s-.1.47-.29.65-.42.27-.69.27ZM136.87,189.13c-.66,0-1.24-.14-1.72-.42s-.85-.68-1.11-1.18c-.26-.51-.39-1.1-.39-1.77s.13-1.27.39-1.77c.26-.51.63-.9,1.11-1.18s1.06-.43,1.72-.43,1.23.14,1.71.43c.48.28.85.68,1.12,1.18.26.51.39,1.1.39,1.77s-.13,1.26-.39,1.77c-.26.51-.63.9-1.12,1.18-.48.28-1.05.42-1.71.42ZM136.87,187.72c.3,0,.55-.09.75-.26s.35-.41.46-.71c.1-.3.16-.64.16-1.02s-.05-.72-.16-1.02c-.1-.3-.25-.54-.46-.71-.2-.17-.45-.26-.75-.26s-.56.09-.77.26-.36.41-.46.71-.15.64-.15,1.02.05.72.15,1.02c.11.3.26.53.46.71.21.17.46.26.77.26ZM143.08,185.22v3.78h-1.82v-6.54h1.73v1.15h.08c.14-.38.39-.68.73-.9s.75-.34,1.24-.34c.46,0,.85.1,1.19.3s.6.48.79.85c.19.37.28.8.28,1.31v4.17h-1.82v-3.84c0-.4-.1-.71-.31-.94-.21-.23-.49-.34-.86-.34-.24,0-.46.05-.65.16-.18.11-.33.26-.43.46-.1.2-.15.44-.16.72h.01ZM96.81,195.27l2.11,6.63h.08l2.11-6.63h2.05l-3.01,8.73h-2.38l-3.01-8.73s2.05,0,2.05,0ZM106.42,204.13c-.67,0-1.25-.14-1.74-.41-.48-.28-.86-.66-1.12-1.17s-.39-1.1-.39-1.79.13-1.26.39-1.77c.26-.51.63-.9,1.1-1.19.48-.28,1.04-.43,1.68-.43.43,0,.83.07,1.21.21s.7.34.98.62c.28.28.5.62.66,1.04s.24.9.24,1.46v.5h-5.53v-1.12h3.82c0-.26-.06-.49-.17-.7-.11-.2-.27-.36-.47-.47-.2-.12-.43-.18-.69-.18s-.52.06-.73.19c-.21.12-.38.29-.49.51-.12.21-.18.44-.18.7v1.07c0,.32.06.6.18.84.12.24.29.42.52.54.22.13.48.19.79.19.2,0,.39-.03.55-.08.17-.06.31-.14.43-.26.12-.11.21-.25.27-.42l1.68.11c-.08.4-.26.76-.52,1.06-.26.3-.6.53-1.01.7-.41.16-.89.25-1.43.25h-.03ZM113.56,204.13c-.67,0-1.25-.14-1.73-.43s-.85-.68-1.11-1.19c-.26-.51-.38-1.09-.38-1.76s.13-1.26.39-1.76c.26-.51.63-.9,1.11-1.19.48-.29,1.05-.43,1.71-.43.57,0,1.07.1,1.5.31.43.21.77.5,1.02.87s.39.82.41,1.32h-1.71c-.05-.33-.18-.59-.38-.79s-.47-.3-.81-.3c-.28,0-.53.08-.74.23s-.37.37-.49.66c-.12.29-.18.64-.18,1.05s.06.77.17,1.07c.12.29.28.51.49.67.21.15.46.23.74.23.21,0,.39-.04.56-.13.17-.08.31-.21.41-.37.11-.16.18-.36.22-.59h1.71c-.03.5-.17.94-.41,1.32-.24.38-.57.67-1,.89-.43.21-.93.32-1.51.32h.01ZM121.13,197.46v1.36h-3.94v-1.36h3.94ZM118.08,195.89h1.81v6.1c0,.17.03.3.08.39s.12.15.21.19c.09.04.2.06.32.06.08,0,.17,0,.26-.02.08-.02.15-.03.2-.04l.29,1.35c-.09.03-.22.06-.38.1-.17.04-.36.06-.6.07-.44.02-.82-.04-1.15-.17s-.58-.34-.76-.62-.27-.64-.27-1.07v-6.34h-.01ZM125.2,204.13c-.66,0-1.23-.14-1.72-.42-.48-.28-.85-.68-1.11-1.18-.26-.51-.39-1.1-.39-1.77s.13-1.27.39-1.77c.26-.51.63-.9,1.11-1.18s1.06-.43,1.72-.43,1.23.14,1.71.43c.48.28.86.68,1.12,1.18.26.51.39,1.1.39,1.77s-.13,1.26-.39,1.77c-.26.51-.63.9-1.12,1.18-.48.28-1.05.42-1.71.42ZM125.21,202.72c.3,0,.55-.09.75-.26s.35-.41.46-.71c.1-.3.16-.64.16-1.02s-.05-.72-.16-1.02c-.1-.3-.25-.54-.46-.71-.2-.17-.45-.26-.75-.26s-.56.09-.77.26c-.2.17-.36.41-.46.71s-.15.64-.15,1.02.05.72.15,1.02c.11.3.26.53.46.71.21.17.46.26.77.26ZM129.6,204v-6.54h1.76v1.14h.07c.12-.41.32-.71.6-.92.28-.21.61-.32.97-.32.09,0,.19,0,.29.02.11,0,.2.03.28.05v1.61c-.08-.03-.2-.05-.35-.07s-.29-.03-.41-.03c-.27,0-.51.06-.72.17s-.37.27-.49.48c-.12.21-.18.44-.18.71v3.7h-1.82Z"/>
  <line class="st8" x1="442.83" y1="100.31" x2="443.43" y2="77.29"/>
  <path class="st9" d="M31.62,121.12c6.4-7.8,13.89-14.65,22.22-20.34l9.01,13.19c-7.08,4.84-13.44,10.66-18.89,17.29l-12.35-10.14h0Z"/>
  <path class="st9" d="M173.93,100.45c8.36,5.66,15.87,12.47,22.31,20.25l-12.3,10.19c-5.47-6.61-11.86-12.4-18.96-17.21l8.96-13.23h-.01Z"/>
  <g class="st1">
    <text class="st0" transform="translate(51.9 323.26)"><tspan x="0" y="0">Linearized Destination </tspan></text>
    <text class="st3" transform="translate(51.9 323.26)"><tspan x="0" y="0">Linearized Destination </tspan></text>
    <text class="st0" transform="translate(93.66 337.66)"><tspan x="0" y="0">Vector</tspan></text>
    <text class="st3" transform="translate(93.66 337.66)"><tspan x="0" y="0">Vector</tspan></text>
  </g>
  <g class="st1">
    <text class="st2" transform="translate(372.91 330.58)"><tspan x="0" y="0">Ligate</tspan></text>
    <text/>
    <text/>
  </g>
  <g class="st1">
    <text class="st0" transform="translate(603.83 330.46)"><tspan x="0" y="0">Assembled Plasmid</tspan></text>
    <text class="st3" transform="translate(603.83 330.46)"><tspan x="0" y="0">Assembled Plasmid</tspan></text>
  </g>
  <path class="st12" d="M438.81,85.23c-7.76-4.19-15.97-7.61-24.38-10.15l2.89-9.57c9.05,2.74,17.88,6.41,26.24,10.92l-4.75,8.8Z"/>
  <path class="st10" d="M321.44,79.88l-5.02-8.65c8.16-4.74,16.88-8.67,25.91-11.67l3.16,9.49c-8.39,2.79-16.48,6.44-24.04,10.83Z"/>
  <path class="st4" d="M355.54,64.97c5.97-1.25,12.12-2.08,18.41-2.48,15.64-.98,30.74.86,44.67,5.05"/>
  <path class="st4" d="M342.17,68.53c4.34-1.41,8.8-2.61,13.37-3.56"/>
  <path class="st10" d="M328.61,115.25l-5.51-8.35c7.88-5.19,16.35-9.61,25.2-13.13l3.7,9.29c-8.21,3.27-16.08,7.37-23.39,12.19Z"/>
  <path class="st12" d="M439.24,110.13c-7.1-5.24-14.75-9.77-22.72-13.46l4.21-9.07c8.58,3.98,16.81,8.85,24.45,14.48l-5.93,8.05Z"/>
  <path class="st9" d="M442.83,100.31c8.36,5.66,15.87,12.47,22.31,20.25l-12.3,10.19c-5.47-6.61-11.86-12.4-18.96-17.21l8.96-13.23h-.01Z"/>
  <path class="st9" d="M300.79,120.71c6.4-7.8,13.89-14.65,22.22-20.34l9.01,13.19c-7.08,4.84-13.44,10.66-18.89,17.29l-12.35-10.14h.01Z"/>
  <g>
    <line class="st7" x1="601.05" y1="113.76" x2="599.92" y2="112.11"/>
    <line class="st6" x1="599.27" y1="111.16" x2="597.66" y2="108.79"/>
    <polyline class="st7" points="597.33 108.32 596.2 106.67 594.73 108.02"/>
    <line class="st5" x1="593.36" y1="109.27" x2="577.65" y2="123.61"/>
    <polyline class="st7" points="576.97 124.23 575.49 125.58 573.96 124.3"/>
    <line class="st7" x1="571.38" y1="122.15" x2="569.85" y2="120.87"/>
  </g>
  <g>
    <line class="st7" x1="721.63" y1="130.68" x2="723.15" y2="129.38"/>
    <line class="st6" x1="724.03" y1="128.64" x2="726.21" y2="126.78"/>
    <polyline class="st7" points="726.64 126.4 728.16 125.11 726.67 123.78"/>
    <line class="st5" x1="725.28" y1="122.56" x2="709.35" y2="108.47"/>
    <polyline class="st7" points="708.65 107.85 707.16 106.53 708.26 104.87"/>
    <line class="st7" x1="710.12" y1="102.08" x2="711.23" y2="100.41"/>
  </g>
</svg>