<?xml version="1.0" encoding="UTF-8"?>
<svg id="Layer_1" xmlns="http://www.w3.org/2000/svg" version="1.1" viewBox="0 0 827 367">
  <!-- Generator: Adobe Illustrator 29.5.1, SVG Export Plug-In . SVG Version: 2.1.0 Build 141)  -->
  <defs>
    <style>
      .st0, .st1, .st2, .st3 {
        isolation: isolate;
      }

      .st0, .st2, .st3 {
        font-family: Arial-Mdm, Arial;
        font-size: 12px;
        font-weight: 500;
      }

      .st4 {
        fill: #e8a13b;
      }

      .st5 {
        fill: #dd514c;
      }

      .st6 {
        stroke-dasharray: 4.09 2.04;
      }

      .st6, .st7, .st8, .st3, .st9, .st10 {
        fill: none;
      }

      .st6, .st2, .st8, .st3, .st9, .st10 {
        stroke-miterlimit: 10;
      }

      .st6, .st8, .st9 {
        stroke: red;
      }

      .st11 {
        fill: #ffeb06;
      }

      .st7 {
        stroke: #71a2f3;
        stroke-dasharray: 2 2;
      }

      .st2 {
        stroke: #000;
      }

      .st2, .st3 {
        stroke-width: .25px;
      }

      .st12 {
        fill: #54b684;
      }

      .st13 {
        fill: #a8d8e8;
      }

      .st14 {
        fill: #4e80ed;
      }

      .st3 {
        stroke: #221f20;
      }

      .st15 {
        fill: #835eed;
      }

      .st16 {
        fill: #8a5cf5;
      }

      .st9 {
        stroke-dasharray: 2.15 1.07;
      }

      .st17 {
        fill: #3974ad;
      }

      .st18 {
        fill: #da5497;
      }

      .st19 {
        fill: #ec4799;
      }

      .st10 {
        stroke: #1b76b1;
        stroke-width: 17px;
      }

      .st20 {
        fill: #f49d0d;
      }

      .st21 {
        fill: #3c81f4;
      }

      .st22 {
        fill: #0b0755;
      }

      .st23 {
        fill: #0bb980;
      }
    </style>
  </defs>
  <path class="st22" d="M280.72,210.08l-10-5.77v11.55l10-5.77h0ZM239.22,210.08v1h32.5v-2h-32.5v1Z"/>
  <path class="st22" d="M551.62,210.09l-10-5.77v11.55l10-5.77h0ZM510.12,210.09v1h32.5v-2h-32.5v1Z"/>
  <path class="st22" d="M367.64,205.82h-3.09v-8.73h3.12c.88,0,1.63.17,2.27.52.63.35,1.12.85,1.46,1.49.34.65.52,1.43.52,2.34s-.17,1.69-.52,2.34c-.34.65-.83,1.15-1.47,1.51-.64.35-1.4.52-2.28.52h0ZM366.4,204.23h1.17c.54,0,1-.1,1.38-.29.38-.2.66-.5.84-.91.19-.41.29-.94.29-1.59s-.1-1.17-.29-1.58-.47-.71-.84-.9c-.37-.19-.83-.29-1.38-.29h-1.18v5.57h0ZM376.23,205.94c-.67,0-1.25-.14-1.74-.41-.48-.28-.86-.66-1.12-1.17s-.39-1.1-.39-1.79.13-1.26.39-1.77c.26-.51.63-.9,1.1-1.19.48-.28,1.04-.43,1.68-.43.43,0,.83.07,1.2.21.38.14.7.34.98.62.28.27.5.62.66,1.04.16.41.23.9.23,1.46v.5h-5.53v-1.12h3.82c0-.26-.06-.49-.17-.69-.11-.2-.27-.36-.47-.47-.2-.12-.43-.18-.7-.18s-.52.06-.73.19c-.21.12-.38.29-.49.51-.12.21-.18.45-.18.7v1.07c0,.32.06.6.18.84.12.24.29.42.51.55s.49.19.79.19c.2,0,.39-.03.55-.09.17-.06.31-.14.43-.26.12-.11.21-.25.27-.42l1.68.11c-.08.4-.26.75-.52,1.06-.26.3-.6.53-1.01.7s-.89.25-1.43.25h0ZM385.86,201.14l-1.66.1c-.03-.14-.09-.27-.18-.38-.09-.12-.22-.21-.37-.28-.15-.07-.33-.11-.54-.11-.28,0-.52.06-.71.18s-.29.27-.29.47c0,.16.06.29.19.4s.34.19.64.26l1.18.24c.64.13,1.11.34,1.42.63.31.29.47.67.47,1.14,0,.43-.13.81-.38,1.13s-.59.58-1.03.76-.94.27-1.51.27c-.87,0-1.56-.18-2.07-.54s-.81-.86-.9-1.48l1.79-.09c.05.26.18.47.39.6.21.14.47.2.8.2s.57-.06.77-.18c.2-.12.29-.29.3-.48,0-.17-.07-.3-.21-.4-.14-.11-.35-.19-.63-.25l-1.13-.23c-.64-.13-1.11-.35-1.43-.66-.31-.32-.46-.72-.46-1.21,0-.42.11-.78.34-1.09.23-.3.55-.54.97-.7.42-.17.91-.25,1.47-.25.83,0,1.48.17,1.95.52.48.35.76.83.83,1.43h-.01ZM390.64,199.27v1.36h-3.94v-1.36h3.94ZM387.59,197.7h1.82v6.1c0,.17.03.3.08.39s.12.15.21.19c.09.04.2.06.32.06.08,0,.17,0,.26-.02s.15-.03.2-.04l.29,1.35c-.09.03-.22.06-.38.1-.16.04-.36.06-.6.07-.44.02-.82-.04-1.15-.17s-.58-.34-.76-.62c-.18-.28-.27-.64-.27-1.07v-6.34h-.02ZM391.82,205.82v-6.55h1.82v6.55h-1.82ZM392.73,198.43c-.27,0-.5-.09-.69-.27-.19-.18-.29-.4-.29-.65s.1-.46.29-.64.42-.27.69-.27.5.09.69.27c.19.18.29.39.29.64s-.1.47-.29.65-.42.27-.69.27ZM396.9,202.03v3.78h-1.81v-6.55h1.73v1.15h.08c.14-.38.39-.68.73-.9s.76-.34,1.24-.34c.45,0,.85.1,1.19.3s.6.48.79.85c.19.37.28.8.28,1.31v4.17h-1.82v-3.84c0-.4-.1-.71-.31-.94s-.49-.34-.86-.34c-.24,0-.46.05-.65.16-.18.11-.33.26-.43.46-.1.2-.15.44-.16.72h0ZM404.42,205.94c-.42,0-.79-.07-1.12-.22s-.59-.36-.78-.65-.28-.65-.28-1.08c0-.36.07-.67.2-.92s.31-.45.55-.6c.23-.15.49-.26.78-.34.3-.08.61-.13.93-.16.38-.04.69-.08.92-.11.23-.04.4-.09.51-.16.11-.07.16-.18.16-.32v-.03c0-.27-.09-.48-.26-.63-.17-.15-.41-.22-.72-.22-.33,0-.59.07-.78.22-.19.14-.32.32-.38.54l-1.68-.14c.08-.4.25-.74.5-1.03s.57-.52.97-.67c.4-.16.86-.24,1.38-.24.36,0,.71.04,1.04.13.33.09.63.22.89.4s.47.41.62.69.23.61.23,1v4.42h-1.72v-.91h-.05c-.11.21-.24.38-.42.54-.18.15-.39.27-.64.36s-.53.13-.86.13h0ZM404.94,204.69c.27,0,.5-.05.71-.16s.36-.25.48-.43c.12-.18.18-.39.18-.62v-.69c-.06.04-.14.07-.24.1-.1.03-.21.06-.33.08s-.24.04-.37.06c-.12.02-.23.03-.33.05-.21.03-.4.08-.56.15s-.28.16-.37.28c-.09.11-.13.26-.13.43,0,.25.09.44.27.57s.41.19.69.19h0ZM413,199.27v1.36h-3.94v-1.36h3.94ZM409.95,197.7h1.82v6.1c0,.17.02.3.08.39.05.09.12.15.21.19.09.04.2.06.32.06.08,0,.17,0,.26-.02.08-.02.15-.03.2-.04l.29,1.35c-.09.03-.22.06-.38.1-.16.04-.36.06-.6.07-.44.02-.82-.04-1.15-.17s-.58-.34-.76-.62c-.18-.28-.27-.64-.27-1.07v-6.34h-.02ZM414.18,205.82v-6.55h1.82v6.55h-1.82ZM415.09,198.43c-.27,0-.5-.09-.7-.27-.19-.18-.29-.4-.29-.65s.1-.46.29-.64.43-.27.7-.27.5.09.69.27c.19.18.29.39.29.64s-.1.47-.29.65-.42.27-.69.27ZM420.41,205.94c-.66,0-1.23-.14-1.72-.42-.48-.28-.85-.68-1.11-1.18-.26-.51-.39-1.1-.39-1.77s.13-1.27.39-1.77c.26-.51.63-.9,1.11-1.18.48-.28,1.06-.43,1.72-.43s1.23.14,1.71.43c.48.28.85.68,1.12,1.18.26.51.39,1.1.39,1.77s-.13,1.26-.39,1.77c-.26.51-.63.9-1.12,1.18-.48.28-1.05.42-1.71.42ZM420.41,204.54c.3,0,.55-.08.75-.25s.35-.41.46-.71.16-.64.16-1.02-.05-.72-.16-1.02c-.1-.3-.25-.53-.46-.71-.2-.17-.45-.26-.75-.26s-.56.09-.77.26c-.2.17-.36.41-.46.71s-.15.64-.15,1.02.05.72.15,1.02c.11.3.26.53.46.71.21.17.46.25.77.25ZM426.62,202.03v3.78h-1.82v-6.55h1.73v1.15h.08c.14-.38.39-.68.73-.9s.75-.34,1.24-.34c.45,0,.85.1,1.19.3s.6.48.79.85c.19.37.28.8.28,1.31v4.17h-1.82v-3.84c0-.4-.1-.71-.31-.94s-.49-.34-.86-.34c-.24,0-.46.05-.65.16-.18.11-.33.26-.43.46-.1.2-.15.44-.16.72h0ZM380.35,212.09l2.11,6.63h.08l2.11-6.63h2.05l-3.01,8.73h-2.38l-3.01-8.73h2.05ZM389.96,220.94c-.67,0-1.25-.14-1.74-.41-.48-.28-.86-.66-1.12-1.17s-.39-1.1-.39-1.79.13-1.26.39-1.77c.26-.51.63-.9,1.1-1.19.48-.28,1.04-.43,1.68-.43.43,0,.83.07,1.21.21s.7.34.98.62c.28.27.5.62.66,1.04.16.41.23.9.23,1.46v.5h-5.53v-1.12h3.82c0-.26-.06-.49-.17-.69-.11-.2-.27-.36-.47-.47-.2-.12-.43-.18-.69-.18s-.52.06-.73.19c-.21.12-.38.29-.49.51-.12.21-.18.45-.18.7v1.07c0,.32.06.6.18.84.12.24.29.42.52.55.22.13.48.19.79.19.2,0,.39-.03.55-.09.17-.06.31-.14.43-.26.12-.11.21-.25.27-.42l1.68.11c-.08.4-.26.75-.52,1.06-.26.3-.6.53-1.01.7s-.89.25-1.43.25h-.02ZM397.1,220.94c-.67,0-1.25-.14-1.73-.43s-.85-.68-1.11-1.19c-.26-.51-.38-1.09-.38-1.76s.13-1.26.39-1.76c.26-.51.63-.9,1.11-1.19.48-.29,1.05-.43,1.71-.43.57,0,1.07.1,1.5.31.43.21.77.5,1.02.87s.39.82.41,1.32h-1.71c-.05-.33-.18-.59-.38-.79s-.47-.3-.81-.3c-.28,0-.53.08-.74.23s-.37.37-.49.66c-.12.29-.17.64-.17,1.05s.06.77.17,1.07c.12.29.28.52.49.67s.46.23.74.23c.21,0,.39-.04.56-.13.17-.09.31-.21.41-.37.11-.16.18-.36.22-.59h1.71c-.03.5-.17.94-.41,1.32s-.58.67-1,.89c-.43.21-.93.32-1.51.32h0ZM404.67,214.27v1.36h-3.94v-1.36h3.94ZM401.62,212.7h1.82v6.1c0,.17.03.3.08.39s.12.15.21.19c.09.04.2.06.32.06.08,0,.17,0,.26-.02.08-.02.15-.03.2-.04l.29,1.35c-.09.03-.22.06-.38.1-.17.04-.36.06-.6.07-.44.02-.82-.04-1.15-.17s-.58-.34-.76-.62c-.18-.28-.27-.64-.27-1.07v-6.34h-.02ZM408.74,220.94c-.66,0-1.23-.14-1.72-.42-.48-.28-.85-.68-1.11-1.18-.26-.51-.39-1.1-.39-1.77s.13-1.27.39-1.77c.26-.51.63-.9,1.11-1.18.48-.28,1.06-.43,1.72-.43s1.23.14,1.71.43c.48.28.86.68,1.12,1.18.26.51.39,1.1.39,1.77s-.13,1.26-.39,1.77c-.26.51-.63.9-1.12,1.18-.48.28-1.05.42-1.71.42ZM408.75,219.54c.3,0,.55-.08.75-.25s.35-.41.46-.71.16-.64.16-1.02-.05-.72-.16-1.02c-.1-.3-.25-.53-.46-.71-.2-.17-.45-.26-.75-.26s-.56.09-.77.26-.36.41-.47.71c-.1.3-.15.64-.15,1.02s.05.72.15,1.02c.11.3.26.53.47.71.21.17.46.25.77.25ZM413.14,220.82v-6.55h1.76v1.14h.07c.12-.41.32-.71.6-.92.28-.21.61-.32.97-.32.09,0,.19,0,.29.02.11,0,.2.03.28.05v1.61c-.08-.02-.2-.05-.35-.07s-.29-.03-.41-.03c-.27,0-.51.06-.72.18-.21.11-.37.27-.49.48-.12.21-.18.44-.18.71v3.7h-1.82Z"/>
  <path class="st22" d="M321.84,148.04l6.97,5.25-1.11,1.47-6.97-5.25,1.11-1.47ZM327.76,148.38l3.02,2.28-1.09,1.45-5.23-3.94,1.04-1.38.92.7.05-.06c-.22-.34-.32-.72-.28-1.13.03-.41.19-.81.48-1.19.28-.37.59-.62.95-.77s.75-.19,1.16-.12.81.26,1.21.57l3.33,2.51-1.09,1.45-3.07-2.31c-.32-.24-.63-.35-.93-.32-.31.03-.57.19-.79.48-.15.2-.23.4-.27.61-.03.21,0,.41.1.62.1.2.25.39.48.56h-.01ZM333.73,138.98l-.92,1.39c-.13-.06-.27-.09-.42-.09-.15,0-.3.05-.45.13-.15.07-.28.2-.41.37-.17.23-.26.45-.29.67-.03.23.04.4.2.51.13.09.26.12.43.08.16-.02.36-.16.59-.36l.91-.8c.49-.43.94-.69,1.36-.76.42-.07.82.03,1.19.31.34.26.57.59.67.99.11.4.1.82-.01,1.28-.12.45-.35.91-.69,1.36-.52.69-1.08,1.13-1.68,1.33-.6.19-1.17.13-1.73-.17l1-1.48c.24.11.49.14.72.05.23-.09.45-.25.64-.52.19-.25.3-.49.31-.73.01-.23-.05-.41-.2-.52-.14-.1-.28-.13-.45-.08-.16.05-.36.16-.57.35l-.86.77c-.49.43-.95.68-1.39.74-.44.06-.85-.06-1.24-.35-.33-.25-.55-.56-.66-.93-.11-.37-.1-.76.02-1.2.12-.43.35-.87.68-1.32.49-.65,1.03-1.07,1.6-1.24s1.12-.1,1.64.2v.02ZM340.14,138.46c-.4.54-.87.92-1.37,1.15-.51.22-1.05.29-1.6.19-.56-.09-1.12-.35-1.67-.77-.54-.4-.94-.87-1.18-1.38-.25-.52-.35-1.05-.28-1.6.05-.56.28-1.09.67-1.59.26-.34.56-.62.89-.84.33-.21.69-.35,1.08-.41s.8-.02,1.22.1c.42.13.86.35,1.3.69l.4.3-3.32,4.41-.9-.68,2.29-3.04c-.21-.16-.42-.25-.66-.28-.23-.03-.46,0-.66.09-.21.08-.4.23-.56.45-.17.22-.26.46-.28.7-.02.25.01.47.11.7.1.22.25.41.45.57l.85.65c.26.19.52.31.78.36.26.04.51.02.75-.09.24-.1.44-.27.63-.51.12-.16.21-.33.27-.5s.07-.33.05-.49c-.02-.16-.07-.32-.17-.47l1.1-1.28c.27.31.45.66.53,1.05s.07.8-.05,1.23-.34.86-.66,1.29h0ZM342.56,135.04l-5.23-3.94,1.06-1.4.91.69.04-.06c-.26-.33-.38-.68-.38-1.03s.12-.68.33-.96c.05-.07.12-.15.19-.22.07-.07.14-.14.2-.19l1.29.97c-.07.05-.16.14-.27.24s-.2.21-.27.32c-.16.22-.26.44-.29.67s0,.46.09.68c.1.22.25.41.45.57l2.95,2.23-1.09,1.45h0ZM342.58,124.13l1.09.82-2.37,3.15-1.09-.82,2.37-3.15ZM339.5,125.62l1.09-1.45,4.87,3.68c.14.1.26.16.36.18.1.01.2,0,.28-.05s.16-.13.24-.23c.05-.07.1-.14.14-.21.04-.08.07-.14.08-.18l1.25.58c-.04.09-.09.22-.15.37s-.17.33-.3.52c-.25.36-.53.63-.83.81-.31.18-.63.26-.96.23-.34-.03-.67-.17-1.01-.43l-5.07-3.82h0ZM345.49,116.64l6.97,5.25-1.11,1.47-5.57-4.2-.03.05-.21,2.35-1.31-.99.21-2.55,1.05-1.39h.01Z"/>
  <path class="st22" d="M308.4,83.43l3.74,7.89-1.67.79-3.74-7.89s1.67-.79,1.67-.79ZM313.5,86.48l1.62,3.42-1.64.77-2.81-5.92,1.57-.74.5,1.04.07-.04c-.04-.4.06-.78.27-1.13s.54-.63.98-.83c.41-.2.81-.27,1.2-.24.39.03.75.18,1.08.44.33.25.59.61.82,1.06l1.79,3.76-1.64.77-1.64-3.47c-.17-.36-.39-.6-.68-.71-.28-.12-.6-.1-.91.06-.22.11-.4.25-.52.42-.12.17-.18.38-.2.6s.05.46.17.72h-.01ZM323.15,80.92l-1.46.8c-.08-.12-.2-.2-.33-.27s-.28-.1-.46-.09c-.17,0-.34.05-.53.14-.26.12-.45.27-.57.47-.12.19-.14.37-.06.55.07.14.18.23.34.28.16.04.39.02.69-.04l1.17-.29c.63-.15,1.15-.17,1.55-.04.4.12.71.4.91.83.19.39.23.79.14,1.18-.08.4-.29.77-.61,1.13-.31.35-.73.65-1.25.89-.78.37-1.48.5-2.11.39-.61-.11-1.1-.43-1.45-.96l1.57-.85c.16.22.37.34.61.38.25.03.51-.02.81-.15.29-.13.49-.3.61-.49.12-.19.14-.38.06-.57-.07-.14-.2-.24-.36-.27-.17-.04-.39-.02-.67.05l-1.12.28c-.63.16-1.16.16-1.57.02-.41-.15-.72-.44-.94-.89-.18-.38-.24-.76-.15-1.13.07-.38.26-.73.57-1.05.31-.33.72-.61,1.22-.85.75-.36,1.41-.48,1.99-.36.58.12,1.04.42,1.37.93v-.02ZM329.07,83.43c-.61.28-1.19.41-1.75.38s-1.06-.23-1.51-.58c-.45-.35-.83-.83-1.13-1.45-.29-.61-.42-1.2-.4-1.77.01-.57.19-1.09.48-1.54.31-.46.75-.83,1.34-1.1.39-.19.78-.29,1.18-.33.39-.04.78,0,1.15.14s.72.34,1.04.65.6.72.84,1.21l.21.45-4.99,2.37-.48-1.02,3.45-1.64c-.12-.24-.27-.42-.45-.56-.19-.13-.4-.2-.63-.23-.23-.01-.46.02-.7.14-.25.12-.45.28-.58.49s-.22.43-.23.67.03.48.14.71l.45.97c.14.29.31.52.52.68s.45.25.69.27.52-.04.79-.16c.19-.09.34-.19.47-.31.13-.12.22-.26.28-.41s.08-.32.07-.5l1.56-.62c.1.4.09.8-.02,1.18-.1.38-.31.73-.61,1.07-.3.32-.7.6-1.18.83l-.02.02ZM332.8,81.52l-2.8-5.92,1.59-.76.49,1.03.06-.03c-.07-.41-.01-.78.15-1.09.16-.31.41-.55.74-.7.08-.04.18-.08.28-.11.1-.03.19-.06.26-.07l.69,1.45c-.09.01-.2.05-.35.09-.14.05-.28.09-.39.15-.24.12-.43.26-.57.47-.14.19-.21.41-.24.65-.01.24.03.47.14.72l1.58,3.34-1.64.77h0ZM337.87,71.87l.59,1.23-3.56,1.69-.59-1.23,3.56-1.69ZM334.45,71.76l1.64-.77,2.61,5.52c.07.15.15.26.24.33s.17.09.28.09c.1,0,.2-.04.32-.09.08-.04.16-.08.22-.13.07-.06.13-.09.16-.12l.84,1.1c-.07.07-.17.15-.31.25-.13.1-.3.21-.51.32-.38.21-.76.32-1.11.33s-.67-.06-.96-.24-.51-.46-.7-.84l-2.72-5.73h.01ZM344.23,76.1l-.57-1.21,1.57-3.93c.13-.34.23-.65.31-.91s.12-.5.11-.72c0-.22-.05-.43-.15-.64-.11-.23-.26-.41-.44-.52-.18-.12-.39-.18-.62-.19-.23-.01-.45.04-.68.16-.24.12-.43.26-.56.45s-.2.39-.22.62.04.47.16.72l-1.58.75c-.24-.52-.34-1.02-.29-1.51s.24-.94.56-1.35c.33-.41.76-.75,1.31-1,.57-.27,1.11-.4,1.62-.4s.97.12,1.37.36c.4.24.71.58.92,1.05.14.3.22.62.24.97.02.34-.04.77-.17,1.26s-.35,1.11-.65,1.86l-.62,1.68.03.05,3.31-1.57.65,1.36-5.62,2.67h0Z"/>
  <path class="st22" d="M364.26,104.75l.45,8.72-1.84.1-.45-8.72,1.84-.1ZM367.81,109.51l.19,3.78-1.81.1-.33-6.54,1.72-.09.06,1.15h.08c.12-.39.35-.71.68-.94.33-.24.73-.38,1.22-.4.45-.02.86.05,1.2.23.35.18.62.45.83.81s.33.79.35,1.29l.21,4.16-1.81.1-.2-3.84c-.02-.4-.13-.7-.35-.92s-.51-.31-.87-.29c-.24,0-.46.07-.64.19-.18.12-.31.27-.41.48-.09.2-.13.45-.12.72h-.01ZM378.84,108.05l-1.65.19c-.04-.14-.11-.27-.2-.38-.1-.11-.22-.2-.38-.25-.16-.06-.33-.09-.55-.08-.28.02-.52.09-.7.21-.19.12-.28.29-.26.48,0,.15.08.29.21.39.13.1.35.18.65.23l1.2.18c.64.09,1.13.29,1.46.55s.5.64.53,1.12c.02.43-.09.82-.32,1.15s-.56.61-.99.81-.92.31-1.48.35c-.87.05-1.57-.1-2.1-.44s-.85-.81-.97-1.44l1.78-.18c.07.26.21.46.42.59s.49.18.81.17.57-.09.76-.23.28-.3.27-.5c0-.16-.09-.3-.23-.39-.14-.1-.36-.17-.64-.21l-1.14-.17c-.64-.09-1.13-.3-1.46-.59-.33-.3-.5-.69-.52-1.18-.02-.42.07-.79.28-1.1s.52-.57.93-.76c.41-.19.89-.3,1.45-.32.83-.04,1.49.09,1.97.43.49.32.8.79.91,1.38h-.04ZM383.37,112.62c-.68.03-1.26-.08-1.76-.32-.5-.25-.89-.62-1.17-1.11-.29-.5-.45-1.08-.48-1.77-.03-.68.07-1.27.3-1.79s.58-.93,1.04-1.25,1.01-.48,1.66-.51c.43-.02.84.03,1.21.14.38.11.72.3,1.01.57.3.27.53.6.71,1,.18.41.28.89.31,1.44l.03.49-5.52.29-.06-1.12,3.81-.2c0-.26-.08-.49-.2-.69-.12-.19-.29-.35-.49-.44-.2-.11-.44-.15-.7-.14-.27.02-.52.09-.72.23-.2.13-.36.31-.47.53-.11.21-.16.45-.15.71l.05,1.07c.01.32.09.6.22.83s.32.4.54.52c.23.12.5.16.8.15.2-.01.39-.05.55-.11s.3-.16.41-.28.19-.26.25-.43l1.68.02c-.06.41-.22.76-.47,1.08-.25.31-.57.56-.98.75s-.88.29-1.41.32h0ZM387.54,112.28l-.33-6.54,1.75-.09.05,1.14h.07c.1-.42.28-.73.55-.95.27-.23.59-.34.95-.36.09,0,.19,0,.29,0l.28.02.09,1.61c-.09-.02-.21-.04-.36-.05s-.29-.02-.41,0c-.26.02-.5.09-.71.21-.2.12-.36.29-.47.5-.11.21-.16.45-.14.72l.19,3.7-1.81.1h.01ZM395.91,105.3l.07,1.36-3.94.2-.07-1.36,3.94-.2ZM392.79,103.88l1.81-.1.31,6.1c0,.17.05.29.1.39.05.08.13.15.23.18.1.03.21.05.33.04.08,0,.17-.02.25-.04s.15-.04.19-.04l.36,1.33c-.09.03-.22.07-.38.12-.16.05-.36.08-.6.1-.44.04-.82,0-1.15-.12s-.6-.31-.79-.58-.3-.62-.32-1.05l-.33-6.33h0ZM403.41,111.58c-.64.04-1.21-.05-1.72-.24-.51-.19-.91-.48-1.21-.85s-.47-.81-.51-1.32l1.85-.1c.02.21.11.4.23.55.14.15.32.27.54.35.22.08.46.11.73.09.28-.02.53-.08.74-.19s.37-.26.49-.44.16-.39.15-.62c-.01-.23-.08-.44-.23-.61-.14-.17-.33-.31-.58-.4-.24-.09-.53-.12-.86-.11l-.82.04-.07-1.35.82-.04c.28-.02.52-.08.73-.18.21-.1.37-.25.48-.42.11-.18.16-.39.15-.61s-.08-.41-.18-.57c-.11-.16-.27-.28-.45-.37-.19-.09-.41-.12-.65-.11-.25,0-.48.07-.68.17s-.36.23-.48.4-.17.37-.17.59l-1.76.09c-.02-.5.1-.95.36-1.35.25-.4.62-.72,1.07-.95.46-.24,1-.38,1.59-.41.6-.03,1.13.05,1.6.24.46.2.82.47,1.09.83.27.35.42.77.44,1.22.03.48-.11.9-.4,1.24-.29.34-.67.57-1.15.69v.07c.65.06,1.15.25,1.5.59.35.34.55.79.57,1.32.03.49-.09.95-.36,1.34-.26.4-.64.73-1.14.97-.49.25-1.07.39-1.72.42v.02Z"/>
  <path class="st22" d="M408.67,52.13l-2.13,8.46-1.79-.46,2.13-8.46,1.79.46ZM410.65,57.73l-.92,3.66-1.76-.44,1.61-6.35,1.67.42-.29,1.12.07.02c.23-.33.54-.57.93-.7s.82-.15,1.28-.03c.45.11.8.3,1.08.58s.46.62.56,1.02c.09.4.07.84-.06,1.34l-1.02,4.04-1.76-.44.94-3.72c.1-.39.08-.72-.07-.98-.15-.27-.39-.45-.75-.54-.24-.06-.46-.06-.67,0-.2.06-.39.17-.53.34-.15.16-.26.39-.33.66l.03.02ZM421.64,59.57l-1.64-.31c0-.14-.02-.28-.08-.41s-.16-.26-.3-.36c-.13-.11-.29-.18-.5-.23-.28-.07-.52-.07-.73,0-.21.06-.35.2-.4.38-.04.15-.01.3.08.43s.28.27.56.41l1.09.53c.59.28,1,.6,1.22.96.24.36.29.76.18,1.22-.11.42-.32.75-.64,1s-.72.41-1.18.48-.97.03-1.53-.1c-.84-.22-1.47-.55-1.88-1.03-.41-.48-.58-1.03-.51-1.66l1.76.34c-.01.27.07.49.23.68.17.19.41.32.72.39.31.08.57.08.79.01s.36-.21.41-.39c.04-.16,0-.31-.1-.44-.1-.13-.29-.27-.55-.39l-1.04-.49c-.59-.28-1-.61-1.22-.99-.22-.38-.28-.81-.16-1.29.1-.41.3-.73.59-.97.3-.24.67-.38,1.11-.44s.94-.02,1.49.12c.8.2,1.39.53,1.76.98.38.46.53.98.46,1.59v-.02ZM424.6,65.28c-.65-.17-1.18-.44-1.59-.83-.4-.39-.66-.86-.79-1.4-.13-.56-.11-1.17.06-1.84.17-.65.44-1.19.82-1.63.38-.42.83-.73,1.36-.88.53-.16,1.11-.16,1.73,0,.42.11.79.27,1.12.5.33.22.6.51.8.83.21.34.33.72.38,1.17.05.44.01.93-.13,1.47l-.12.49-5.36-1.35.28-1.09,3.7.94c.06-.26.07-.49,0-.71-.06-.22-.17-.42-.35-.57-.16-.16-.38-.28-.63-.34-.27-.07-.52-.06-.76,0-.23.07-.44.19-.61.38-.17.17-.29.39-.35.64l-.26,1.04c-.08.32-.09.6-.04.86.06.26.18.48.36.66s.42.31.71.38c.2.05.38.07.56.05s.33-.07.48-.14c.14-.08.27-.19.36-.34l1.6.52c-.19.37-.44.67-.77.9s-.72.37-1.16.43c-.44.06-.92.02-1.45-.11h.02ZM428.7,66.18l1.61-6.35,1.7.43-.28,1.11h.07c.21-.35.49-.6.81-.72.33-.14.67-.16,1.02-.07.09.02.18.05.28.09.1.03.19.08.26.11l-.4,1.56c-.08-.04-.19-.1-.32-.15-.14-.06-.28-.1-.4-.13-.26-.06-.51-.07-.74-.01-.23.06-.43.17-.59.35-.17.17-.29.38-.35.65l-.91,3.6-1.76-.44v-.02ZM438.75,61.97l-.34,1.32-3.82-.96.34-1.32,3.82.96ZM436.18,59.7l1.76.44-1.5,5.91c-.04.16-.05.3-.02.4.03.1.08.18.16.24.09.06.19.11.3.13.08.02.17.04.26.04h.2s-.06,1.39-.06,1.39c-.09,0-.22.01-.39,0s-.37-.03-.6-.07c-.43-.09-.79-.24-1.07-.46s-.48-.47-.59-.79c-.11-.31-.11-.69,0-1.1l1.56-6.15h-.02ZM441.22,67.77l.36-1.41,4.94-4.68,1.22.31-.49,1.95-.72-.18-3.12,2.96v.07s5,1.27,5,1.27l-.36,1.44-6.82-1.73h0ZM444.9,70.27l.48-1.92.19-.61,1.5-5.92,1.67.42-2.13,8.46-1.71-.43h0Z"/>
  <path class="st22" d="M430.94,103.54l-5.36,6.89-1.46-1.13,5.36-6.89,1.45,1.13h.01ZM430.51,109.47l-2.32,2.99-1.43-1.11,4.02-5.17,1.37,1.06-.71.92.06.05c.35-.21.72-.3,1.13-.26s.8.2,1.18.49c.36.28.61.6.76.97s.17.75.1,1.15-.27.81-.58,1.21l-2.55,3.3-1.43-1.11,2.35-3.03c.25-.31.36-.63.33-.93-.02-.31-.18-.58-.46-.8-.2-.15-.39-.24-.61-.27-.21-.03-.42,0-.62.1-.2.09-.39.25-.57.47v-.03ZM439.83,115.57l-1.38-.94c.06-.13.1-.27.09-.42,0-.15-.04-.3-.13-.44-.07-.15-.2-.29-.37-.41-.22-.17-.44-.28-.67-.29-.23-.03-.39.04-.52.19-.09.13-.13.27-.09.43s.15.37.35.6l.79.92c.42.49.67.95.73,1.38s-.04.82-.33,1.19c-.26.34-.59.56-.99.66-.39.11-.82.09-1.28-.04-.46-.13-.91-.36-1.36-.71-.68-.53-1.12-1.1-1.3-1.7-.18-.6-.11-1.17.2-1.72l1.47,1.02c-.12.25-.14.49-.06.72.08.23.24.45.51.65.25.2.49.31.72.32s.41-.05.53-.2c.09-.14.13-.29.09-.45-.04-.17-.16-.37-.35-.58l-.76-.88c-.42-.49-.67-.96-.72-1.41-.06-.44.07-.85.37-1.24.26-.33.57-.55.93-.65.36-.1.76-.08,1.2.04s.87.36,1.31.7c.65.5,1.06,1.05,1.22,1.61s.09,1.11-.22,1.64h.03ZM440.25,121.98c-.53-.41-.9-.88-1.12-1.39-.21-.52-.26-1.05-.17-1.61s.37-1.11.79-1.65c.42-.54.88-.92,1.4-1.16.52-.24,1.05-.32,1.6-.27.55.07,1.08.3,1.59.69.34.26.61.57.82.91.21.34.35.7.39,1.09.06.39.01.8-.12,1.23s-.37.86-.71,1.3l-.3.39-4.37-3.39.69-.89,3.01,2.34c.16-.2.25-.42.29-.65s.02-.45-.09-.66c-.08-.21-.24-.4-.44-.57-.21-.17-.45-.27-.7-.29-.24-.03-.48,0-.7.1-.22.09-.42.24-.58.44l-.66.85c-.2.25-.33.51-.38.77s-.02.51.07.74c.09.23.26.45.51.64.16.13.32.21.49.28.17.06.33.08.5.07.16-.01.32-.07.48-.16l1.26,1.11c-.32.27-.67.44-1.06.51-.39.08-.8.05-1.23-.07-.43-.12-.85-.35-1.28-.68h.01ZM443.64,124.45l4.02-5.17,1.39,1.08-.7.91.06.04c.34-.25.69-.37,1.04-.35s.68.12.96.34c.07.05.15.13.22.2.08.07.14.14.19.21l-.99,1.27c-.05-.07-.13-.16-.24-.27s-.21-.2-.31-.28c-.21-.17-.43-.26-.67-.3-.23-.04-.46-.02-.68.08s-.41.24-.58.45l-2.27,2.92-1.43-1.11h0ZM454.54,124.63l-.84,1.07-3.11-2.42.84-1.07,3.11,2.42ZM453.09,121.52l1.43,1.11-3.74,4.82c-.1.14-.16.25-.18.35-.01.1,0,.2.05.28.05.08.12.16.22.24.07.05.14.09.22.14s.14.06.18.09l-.6,1.24c-.09-.03-.21-.09-.36-.16-.16-.07-.32-.17-.52-.31-.35-.25-.62-.53-.8-.85-.18-.31-.25-.63-.22-.96.03-.33.17-.66.44-1.01l3.89-5.01v.03ZM456.08,134.27c-.48-.37-.83-.79-1.07-1.25-.23-.46-.34-.93-.32-1.41s.18-.91.49-1.32l1.41,1.1c-.19.28-.25.58-.17.91s.26.6.55.83c.22.18.47.29.72.31.26.04.51,0,.74-.1.24-.1.46-.27.65-.52s.3-.5.35-.76c.04-.26.02-.52-.08-.75-.1-.24-.26-.46-.49-.64-.2-.16-.43-.26-.69-.33-.25-.06-.49-.07-.7,0l-1.12-1.24,3.15-3.39,4.21,3.27-.92,1.19-3.01-2.34-1.52,1.59.04.03c.25-.07.54-.07.88,0,.33.08.65.23.95.47.42.32.71.7.88,1.15s.22.92.14,1.41c-.08.49-.28.95-.63,1.39-.36.47-.79.79-1.28.99-.5.19-1.02.24-1.57.15-.55-.1-1.07-.35-1.59-.74h0Z"/>
  <path class="st22" d="M502.02,88.27l-7.6,4.31-.91-1.61,7.6-4.31.91,1.61ZM499.34,93.58l-3.29,1.86-.9-1.58,5.7-3.23.85,1.5-1.01.57.04.06c.4-.07.78,0,1.15.19.36.18.66.49.91.92.23.39.33.79.33,1.18,0,.39-.13.76-.35,1.11-.23.35-.56.64-1.01.89l-3.62,2.05-.9-1.58,3.34-1.9c.35-.2.57-.44.67-.73.1-.29.06-.6-.13-.91-.12-.21-.27-.38-.45-.49s-.39-.16-.61-.15c-.22,0-.46.08-.7.22h-.02ZM505.59,102.78l-.91-1.4c.11-.09.19-.21.24-.35.06-.14.08-.3.06-.46-.01-.16-.07-.34-.18-.52-.14-.25-.31-.42-.51-.53-.19-.11-.38-.11-.55-.02-.14.08-.22.2-.25.36-.03.16,0,.39.09.69l.38,1.15c.2.61.25,1.14.16,1.55-.1.41-.36.74-.76.98-.37.21-.76.28-1.17.23s-.8-.23-1.17-.52-.7-.68-.98-1.17c-.42-.76-.61-1.44-.56-2.07.07-.63.35-1.13.84-1.51l.96,1.51c-.2.18-.31.39-.33.64s.06.51.21.79.33.47.54.57c.2.11.39.11.57.02.15-.08.22-.21.25-.39.03-.17,0-.39-.1-.67l-.36-1.09c-.2-.62-.25-1.15-.13-1.57s.4-.76.82-1c.36-.21.74-.29,1.12-.24.38.05.74.22,1.09.5s.66.66.94,1.15c.41.72.58,1.37.5,1.95-.07.59-.34,1.06-.83,1.43h0ZM503.52,108.88c-.34-.58-.5-1.15-.5-1.71s.16-1.07.46-1.54.77-.89,1.37-1.23c.58-.34,1.16-.51,1.74-.54s1.1.1,1.58.38.88.69,1.2,1.25c.22.37.35.76.41,1.15.07.39.05.77-.05,1.16-.1.38-.3.74-.58,1.09s-.67.65-1.15.92l-.44.24-2.72-4.8.98-.55,1.88,3.32c.23-.13.4-.3.52-.49.12-.2.18-.41.18-.64s-.06-.46-.19-.69c-.14-.24-.32-.42-.53-.54s-.44-.18-.68-.18-.47.06-.7.19l-.93.52c-.28.16-.49.35-.65.57-.14.22-.22.46-.22.72s.07.52.22.78c.1.18.21.32.34.44s.28.2.44.25c.16.05.33.06.5.03l.73,1.52c-.39.13-.78.14-1.18.07-.39-.08-.76-.26-1.11-.54-.34-.28-.65-.65-.92-1.12v-.02ZM505.7,112.46l5.7-3.23.87,1.54-1,.56.04.06c.42-.09.78-.07,1.1.07.32.14.57.38.75.69.05.08.09.17.13.27.04.09.08.19.09.27l-1.4.8c-.02-.09-.06-.2-.12-.34-.05-.14-.11-.27-.18-.37-.14-.23-.3-.41-.51-.53-.2-.12-.42-.19-.66-.19s-.47.06-.7.2l-3.23,1.83-.9-1.58v-.03ZM515.69,116.81l-1.18.67-1.95-3.42,1.18-.67,1.95,3.42ZM515.56,113.39l.9,1.58-5.31,3.01c-.15.08-.25.17-.31.26-.06.09-.07.19-.06.28.01.1.05.2.11.31.05.07.09.15.15.21s.1.12.13.15l-1.04.92c-.07-.06-.16-.16-.27-.29-.11-.13-.23-.28-.36-.48-.23-.37-.37-.73-.41-1.09s.01-.67.17-.97c.16-.3.42-.55.8-.76l5.52-3.13h-.01ZM513.49,126.44c-.22-.39-.37-.8-.45-1.24-.07-.44-.05-.87.08-1.33s.39-.9.76-1.34c.39-.44.92-.86,1.62-1.24.64-.36,1.25-.61,1.83-.75.59-.14,1.13-.17,1.64-.1s.96.25,1.35.52c.4.27.73.65,1,1.11.29.51.44,1.01.46,1.51s-.06.96-.26,1.39-.5.78-.89,1.07l-.9-1.59c.23-.21.37-.46.41-.74s-.03-.57-.19-.86c-.28-.5-.71-.74-1.29-.76-.57-.01-1.23.2-1.97.6l.03.05c.29-.01.57.03.83.13.27.11.52.25.74.46s.42.44.58.72c.25.45.38.91.36,1.38,0,.47-.15.91-.4,1.32-.26.42-.62.75-1.09,1.03-.52.29-1.04.43-1.58.42-.53-.01-1.04-.16-1.5-.46-.46-.3-.86-.73-1.17-1.29h0ZM514.75,125.72c.14.25.32.43.56.56.23.12.48.19.74.19.26,0,.53-.08.77-.22.25-.15.45-.32.58-.56.13-.22.21-.47.22-.72s-.06-.51-.19-.76c-.11-.19-.24-.34-.39-.45s-.33-.2-.53-.25c-.19-.04-.39-.05-.59-.04-.2.03-.39.09-.57.2-.25.14-.44.32-.57.55-.13.23-.21.48-.23.74s.06.52.19.76h0Z"/>
  <path class="st13" d="M210.21,135.43c12.89,15.55,21.09,34.45,23.65,54.49,2.56,20.04-.64,40.39-9.21,58.68s-22.17,33.77-39.21,44.62c-17.04,10.85-36.81,16.64-57.01,16.68-20.2.04-39.99-5.66-57.08-16.45-17.08-10.78-30.74-26.2-39.39-44.46-8.63-18.25-11.91-38.59-9.44-58.63,2.47-20.05,10.6-38.98,23.43-54.58l12.34,10.14c-10.9,13.26-17.81,29.35-19.91,46.4s.68,34.33,8.03,49.84c7.35,15.52,18.96,28.62,33.48,37.79,14.52,9.17,31.34,14.01,48.51,13.98,17.17-.04,33.98-4.95,48.46-14.18,14.48-9.23,26.04-22.38,33.32-37.93,7.29-15.55,10-32.85,7.83-49.88s-9.15-33.09-20.1-46.31l12.3-10.19h0Z"/>
  <path class="st22" d="M98.19,203.9h-3.09v-8.73h3.12c.88,0,1.63.17,2.27.52.63.35,1.12.85,1.46,1.5s.52,1.43.52,2.34-.17,1.69-.52,2.34c-.34.65-.83,1.15-1.47,1.5s-1.4.52-2.28.52h-.01ZM96.94,202.32h1.17c.55,0,1-.1,1.38-.29.38-.2.66-.5.84-.91.19-.41.29-.94.29-1.59s-.1-1.17-.29-1.58-.47-.71-.84-.9c-.37-.19-.83-.29-1.38-.29h-1.18v5.57h.01ZM106.78,204.03c-.67,0-1.25-.14-1.74-.41-.48-.28-.86-.66-1.12-1.17s-.39-1.1-.39-1.79.13-1.26.39-1.77c.26-.51.63-.9,1.1-1.19.48-.28,1.04-.43,1.68-.43.43,0,.83.07,1.21.21s.7.34.98.62c.28.28.5.62.66,1.04s.23.9.23,1.46v.5h-5.53v-1.12h3.82c0-.26-.06-.49-.17-.7-.11-.2-.27-.36-.47-.47-.2-.12-.43-.18-.69-.18s-.52.06-.73.19c-.21.12-.38.29-.49.51-.12.21-.18.44-.18.7v1.07c0,.32.06.6.18.84.12.24.29.42.52.54.22.13.48.19.79.19.2,0,.39-.03.55-.08.17-.06.31-.14.43-.26.12-.11.21-.25.27-.42l1.68.11c-.09.4-.26.76-.52,1.06-.26.3-.6.53-1.01.7-.41.16-.89.25-1.43.25h-.02ZM116.41,199.22l-1.66.1c-.03-.14-.09-.27-.18-.38-.09-.12-.22-.21-.37-.28-.15-.07-.33-.11-.54-.11-.28,0-.52.06-.71.18s-.29.27-.29.47c0,.16.06.29.19.4s.34.2.64.26l1.18.24c.64.13,1.11.34,1.42.63.31.29.47.67.47,1.14,0,.43-.13.8-.38,1.13-.25.32-.59.58-1.03.76-.43.18-.94.27-1.5.27-.87,0-1.56-.18-2.07-.54s-.81-.86-.9-1.48l1.79-.09c.05.26.18.47.39.61s.47.21.8.21.57-.06.77-.18.3-.29.3-.48c0-.16-.07-.3-.21-.4-.14-.11-.35-.19-.63-.25l-1.13-.23c-.64-.13-1.12-.35-1.43-.66-.31-.32-.46-.72-.46-1.21,0-.42.11-.78.34-1.09.23-.3.55-.54.97-.7s.91-.25,1.47-.25c.83,0,1.48.18,1.95.52.48.35.76.83.84,1.43l-.03-.02ZM121.19,197.36v1.36h-3.94v-1.36h3.94ZM118.14,195.79h1.82v6.1c0,.17.03.3.08.39s.12.15.21.19c.09.04.2.06.32.06.09,0,.17,0,.26-.02.09-.02.15-.03.2-.04l.29,1.35c-.09.03-.22.06-.38.1-.16.04-.37.06-.6.07-.44.02-.82-.04-1.15-.17s-.58-.34-.76-.62-.27-.64-.27-1.07v-6.34h-.02ZM122.37,203.9v-6.54h1.82v6.54h-1.82ZM123.28,196.51c-.27,0-.5-.09-.69-.27-.19-.18-.29-.4-.29-.65s.1-.46.29-.64.42-.27.69-.27.5.09.69.27c.19.18.29.39.29.64s-.1.47-.29.65-.42.27-.69.27ZM127.46,200.12v3.78h-1.82v-6.54h1.73v1.15h.08c.14-.38.39-.68.73-.9.34-.22.75-.34,1.24-.34.46,0,.85.1,1.19.3.34.2.6.48.79.85.19.37.28.8.28,1.31v4.17h-1.82v-3.84c0-.4-.1-.71-.31-.94s-.49-.34-.86-.34c-.24,0-.46.05-.65.16-.18.11-.33.26-.43.46-.1.2-.15.44-.16.72h0ZM134.97,204.02c-.42,0-.79-.07-1.12-.22s-.59-.37-.78-.65c-.19-.29-.28-.65-.28-1.08,0-.36.07-.67.2-.92s.32-.45.55-.6c.23-.15.49-.26.78-.34s.6-.13.93-.16c.38-.04.69-.08.92-.11.23-.04.4-.09.51-.16s.16-.18.16-.32v-.02c0-.27-.08-.48-.26-.63-.17-.15-.41-.22-.72-.22-.33,0-.59.07-.78.22-.19.14-.32.32-.38.54l-1.68-.14c.08-.4.25-.74.5-1.03s.57-.52.97-.67c.4-.16.86-.24,1.38-.24.36,0,.71.04,1.04.13.33.09.63.22.89.4s.47.41.62.69.23.61.23,1v4.41h-1.72v-.91h-.05c-.11.21-.25.39-.42.54-.18.15-.39.27-.63.36-.25.08-.53.13-.86.13h0ZM135.49,202.77c.27,0,.5-.05.71-.16s.37-.25.48-.43c.12-.18.18-.39.18-.62v-.69c-.06.04-.14.07-.24.1s-.21.06-.33.08-.24.04-.37.06c-.12.02-.23.03-.33.05-.21.03-.4.08-.56.15-.16.07-.28.16-.37.28-.09.11-.13.26-.13.43,0,.25.09.44.27.57s.41.19.69.19h0ZM143.55,197.36v1.36h-3.94v-1.36h3.94ZM140.5,195.79h1.82v6.1c0,.17.03.3.08.39s.12.15.21.19c.09.04.2.06.32.06.08,0,.17,0,.26-.02.09-.02.15-.03.2-.04l.28,1.35c-.09.03-.22.06-.38.1-.17.04-.37.06-.6.07-.44.02-.82-.04-1.15-.17s-.58-.34-.76-.62-.27-.64-.27-1.07v-6.34h-.01ZM144.73,203.9v-6.54h1.81v6.54h-1.81ZM145.64,196.51c-.27,0-.5-.09-.69-.27-.19-.18-.29-.4-.29-.65s.1-.46.29-.64.43-.27.69-.27.5.09.69.27c.19.18.29.39.29.64s-.1.47-.29.65-.42.27-.69.27ZM150.96,204.03c-.66,0-1.24-.14-1.72-.42-.48-.28-.85-.68-1.11-1.18-.26-.51-.39-1.1-.39-1.77s.13-1.27.39-1.77c.26-.51.63-.9,1.11-1.18.48-.28,1.06-.43,1.72-.43s1.23.14,1.71.43c.48.28.85.68,1.12,1.18.26.51.39,1.1.39,1.77s-.13,1.26-.39,1.77c-.26.51-.63.9-1.12,1.18-.48.28-1.05.42-1.71.42ZM150.96,202.62c.3,0,.55-.09.75-.26s.35-.41.46-.71c.1-.3.16-.64.16-1.02s-.05-.72-.16-1.02c-.1-.3-.25-.54-.46-.71-.2-.17-.45-.26-.75-.26s-.56.09-.77.26-.36.41-.46.71c-.1.3-.15.64-.15,1.02s.05.72.15,1.02c.11.3.26.53.46.71.21.17.46.26.77.26ZM157.17,200.12v3.78h-1.82v-6.54h1.73v1.15h.08c.14-.38.39-.68.73-.9s.75-.34,1.24-.34c.46,0,.85.1,1.19.3s.6.48.79.85c.19.37.28.8.28,1.31v4.17h-1.82v-3.84c0-.4-.1-.71-.31-.94-.21-.23-.49-.34-.86-.34-.24,0-.46.05-.65.16-.18.11-.33.26-.43.46-.1.2-.15.44-.16.72h.01ZM110.9,210.17l2.11,6.63h.08l2.11-6.63h2.05l-3.01,8.73h-2.38l-3.01-8.73s2.05,0,2.05,0ZM120.51,219.03c-.67,0-1.25-.14-1.74-.41-.48-.28-.86-.66-1.12-1.17s-.39-1.1-.39-1.79.13-1.26.39-1.77c.26-.51.63-.9,1.1-1.19.48-.28,1.04-.43,1.68-.43.43,0,.83.07,1.21.21s.7.34.98.62c.28.28.5.62.66,1.04s.24.9.24,1.46v.5h-5.53v-1.12h3.82c0-.26-.06-.49-.17-.7-.11-.2-.27-.36-.47-.47-.2-.12-.43-.18-.69-.18s-.52.06-.73.19c-.21.12-.38.29-.49.51-.12.21-.18.44-.18.7v1.07c0,.32.06.6.18.84.12.24.29.42.52.54.22.13.48.19.79.19.2,0,.39-.03.55-.08.17-.06.31-.14.43-.26.12-.11.21-.25.27-.42l1.68.11c-.08.4-.26.76-.52,1.06-.26.3-.6.53-1.01.7-.41.16-.89.25-1.43.25h-.03ZM127.65,219.03c-.67,0-1.25-.14-1.73-.43s-.85-.68-1.11-1.19c-.26-.51-.38-1.09-.38-1.76s.13-1.26.39-1.76c.26-.51.63-.9,1.11-1.19.48-.29,1.05-.43,1.71-.43.57,0,1.07.1,1.5.31.43.21.77.5,1.02.87s.39.82.41,1.32h-1.71c-.05-.33-.18-.59-.38-.79s-.47-.3-.81-.3c-.28,0-.53.08-.74.23s-.37.37-.49.66c-.12.29-.18.64-.18,1.05s.06.77.17,1.07c.12.29.28.51.49.67.21.15.46.23.74.23.21,0,.39-.04.56-.13.17-.08.31-.21.41-.37.11-.16.18-.36.22-.59h1.71c-.03.5-.17.94-.41,1.32-.24.38-.57.67-1,.89-.43.21-.93.32-1.51.32h.01ZM135.22,212.36v1.36h-3.94v-1.36h3.94ZM132.17,210.79h1.81v6.1c0,.17.03.3.08.39s.12.15.21.19c.09.04.2.06.32.06.08,0,.17,0,.26-.02.08-.02.15-.03.2-.04l.29,1.35c-.09.03-.22.06-.38.1-.17.04-.36.06-.6.07-.44.02-.82-.04-1.15-.17s-.58-.34-.76-.62-.27-.64-.27-1.07v-6.34h-.01ZM139.29,219.03c-.66,0-1.23-.14-1.72-.42-.48-.28-.85-.68-1.11-1.18-.26-.51-.39-1.1-.39-1.77s.13-1.27.39-1.77c.26-.51.63-.9,1.11-1.18s1.06-.43,1.72-.43,1.23.14,1.71.43c.48.28.86.68,1.12,1.18.26.51.39,1.1.39,1.77s-.13,1.26-.39,1.77c-.26.51-.63.9-1.12,1.18-.48.28-1.05.42-1.71.42ZM139.3,217.62c.3,0,.55-.09.75-.26s.35-.41.46-.71c.1-.3.16-.64.16-1.02s-.05-.72-.16-1.02c-.1-.3-.25-.54-.46-.71-.2-.17-.45-.26-.75-.26s-.56.09-.77.26c-.2.17-.36.41-.46.71s-.15.64-.15,1.02.05.72.15,1.02c.11.3.26.53.46.71.21.17.46.26.77.26ZM143.69,218.9v-6.54h1.76v1.14h.07c.12-.41.32-.71.6-.92.28-.21.61-.32.97-.32.09,0,.19,0,.29.02.11,0,.2.03.28.05v1.61c-.08-.03-.2-.05-.35-.07s-.29-.03-.41-.03c-.27,0-.51.06-.72.17s-.37.27-.49.48c-.12.21-.18.44-.18.71v3.7h-1.82Z"/>
  <path class="st13" d="M774.68,253.43c-9.13,17.39-22.89,31.92-39.76,41.97-16.87,10.06-36.19,15.25-55.83,15.02-19.64-.24-38.83-5.9-55.45-16.37s-30.02-25.32-38.73-42.93l14.32-7.08c7.4,14.97,18.79,27.6,32.92,36.49,14.13,8.9,30.44,13.71,47.13,13.92,16.69.2,33.12-4.21,47.46-12.76,14.34-8.55,26.04-20.9,33.8-35.68l14.14,7.43h0Z"/>
  <path class="st17" d="M577.97,233.15c-4.8-16.81-5.38-34.55-1.7-51.64l15.62,3.36c-3.13,14.53-2.63,29.61,1.44,43.9l-15.36,4.38Z"/>
  <path class="st17" d="M582.27,162.5c6.8-16.11,17.46-30.29,31.05-41.31l10.06,12.41c-11.55,9.36-20.61,21.42-26.39,35.11l-14.72-6.21Z"/>
  <path class="st17" d="M629.26,110.5c15.34-8.39,32.51-12.88,49.99-13.07l.17,15.97c-14.86.16-29.46,3.97-42.49,11.11l-7.67-14.01Z"/>
  <path class="st17" d="M688.04,97.71c17.44,1.26,34.3,6.79,49.1,16.11l-8.51,13.52c-12.58-7.92-26.91-12.62-41.73-13.69l1.15-15.93h-.01Z"/>
  <path class="st17" d="M750.22,123.53c13.2,11.47,23.37,26.01,29.62,42.34l-14.92,5.71c-5.31-13.88-13.96-26.24-25.18-35.99,0,0,10.48-12.06,10.48-12.06Z"/>
  <path class="st17" d="M784.8,182.99c3.44,17.14,2.6,34.87-2.43,51.62l-15.3-4.6c4.28-14.23,4.99-29.3,2.07-43.87l15.66-3.14h0Z"/>
  <path class="st14" d="M584.97,251.26c-2.98-6-5.38-12.26-7.18-18.71l15.39-4.29c1.53,5.48,3.57,10.81,6.1,15.91l-14.31,7.1h0Z"/>
  <path class="st18" d="M576.24,181.62c1.4-6.55,3.42-12.95,6.03-19.12l14.72,6.21c-2.21,5.24-3.93,10.68-5.12,16.25l-15.62-3.35h-.01Z"/>
  <path class="st12" d="M612.99,121.46c5.19-4.24,10.76-7.97,16.65-11.17l7.61,14.05c-5,2.71-9.74,5.89-14.15,9.49,0,0-10.11-12.37-10.11-12.37Z"/>
  <path class="st15" d="M734.41,112.15c5.77,3.4,11.21,7.33,16.24,11.75l-10.54,12c-4.28-3.76-8.9-7.1-13.8-9.99l8.1-13.77h0Z"/>
  <path class="st5" d="M779.8,165.76c2.4,6.25,4.21,12.72,5.39,19.31l-15.72,2.83c-1.01-5.6-2.54-11.1-4.58-16.41l14.91-5.73Z"/>
  <path class="st11" d="M782.36,234.63c-1.93,6.41-4.46,12.63-7.56,18.57l-14.16-7.39c2.63-5.05,4.78-10.33,6.42-15.78l15.3,4.6Z"/>
  <path class="st4" d="M670.24,97.91c6.67-.64,13.38-.64,20.05-.02l-1.49,15.91c-5.67-.53-11.37-.52-17.04.02l-1.52-15.9h0Z"/>
  <path class="st22" d="M642.49,211.43v-8.73h5.78v1.52h-3.93v2.08h3.55v1.52h-3.55v3.6h-1.85ZM649.48,211.43v-6.54h1.82v6.54h-1.82ZM650.39,204.04c-.27,0-.5-.09-.69-.27-.19-.18-.29-.4-.29-.65s.1-.46.29-.64.42-.27.69-.27.5.09.69.27c.19.18.29.39.29.64s-.1.47-.29.65-.42.27-.69.27ZM654.56,207.65v3.78h-1.82v-6.54h1.73v1.15h.08c.15-.38.39-.68.73-.9.34-.22.75-.34,1.24-.34.45,0,.85.1,1.19.3s.6.48.79.85c.19.37.28.8.28,1.31v4.17h-1.82v-3.84c0-.4-.1-.71-.31-.94s-.49-.34-.86-.34c-.24,0-.46.05-.65.16-.18.11-.33.26-.43.46-.1.2-.16.44-.16.72h.01ZM662.08,211.55c-.42,0-.79-.07-1.12-.22s-.59-.37-.78-.65c-.19-.29-.28-.65-.28-1.08,0-.36.07-.67.2-.92s.32-.45.55-.6c.23-.15.49-.26.78-.34.3-.08.61-.13.93-.16.38-.04.69-.08.92-.11.23-.04.4-.09.51-.16s.16-.18.16-.32v-.02c0-.27-.09-.48-.26-.63-.17-.15-.41-.22-.71-.22-.33,0-.59.07-.78.22-.19.14-.32.32-.38.54l-1.68-.14c.09-.4.25-.74.5-1.03s.57-.52.97-.67c.4-.16.86-.24,1.38-.24.36,0,.71.04,1.04.13.33.09.63.22.89.4s.47.41.62.69.23.61.23,1v4.41h-1.72v-.91h-.05c-.1.21-.25.39-.42.54-.18.15-.39.27-.64.36-.25.08-.53.13-.86.13h0ZM662.6,210.3c.27,0,.5-.05.71-.16.2-.11.36-.25.48-.43s.17-.39.17-.62v-.69c-.06.04-.14.07-.23.1-.1.03-.21.06-.33.08s-.24.04-.37.06c-.12.02-.23.03-.33.05-.21.03-.4.08-.56.15-.16.07-.28.16-.37.28-.09.11-.13.26-.13.43,0,.25.09.44.27.57s.41.19.69.19h0ZM668.99,202.7v8.73h-1.82v-8.73h1.82ZM673.25,211.43v-8.73h3.44c.66,0,1.23.13,1.69.38.47.25.82.6,1.07,1.04.25.44.37.96.37,1.53s-.12,1.09-.38,1.53c-.25.44-.61.79-1.09,1.04-.47.25-1.04.37-1.71.37h-2.19v-1.48h1.9c.36,0,.65-.06.88-.18s.41-.3.52-.52c.12-.22.17-.48.17-.76s-.06-.54-.17-.76-.29-.39-.52-.51c-.23-.12-.53-.18-.89-.18h-1.24v7.22h-1.85ZM680.99,211.43v-6.54h1.76v1.14h.07c.12-.41.32-.71.6-.92.28-.21.6-.32.97-.32.09,0,.19,0,.29.02.1,0,.2.03.28.05v1.61c-.08-.03-.2-.05-.35-.07-.15-.02-.29-.03-.41-.03-.27,0-.51.06-.72.17-.21.11-.37.27-.49.48-.12.21-.18.44-.18.71v3.7h-1.82ZM688.55,211.56c-.66,0-1.23-.14-1.72-.42-.48-.28-.85-.68-1.11-1.18-.26-.51-.39-1.1-.39-1.77s.13-1.27.39-1.77c.26-.51.63-.9,1.11-1.18s1.05-.43,1.72-.43,1.23.14,1.71.43c.48.28.85.68,1.12,1.18.26.51.39,1.1.39,1.77s-.13,1.26-.39,1.77c-.26.51-.63.9-1.12,1.18-.48.28-1.05.42-1.71.42ZM688.56,210.15c.3,0,.55-.09.75-.26s.35-.41.46-.71c.11-.3.16-.64.16-1.02s-.05-.72-.16-1.02c-.1-.3-.25-.54-.46-.71-.2-.17-.45-.26-.75-.26s-.56.09-.77.26-.36.41-.46.71c-.1.3-.15.64-.15,1.02s.05.72.15,1.02c.1.3.26.53.46.71.21.17.46.26.77.26ZM695.36,211.54c-.5,0-.95-.13-1.35-.38-.4-.26-.72-.64-.95-1.14-.23-.5-.35-1.12-.35-1.85s.12-1.37.36-1.87.56-.87.96-1.12.85-.38,1.33-.38c.37,0,.67.06.92.19.25.12.45.27.6.46.15.18.27.36.35.54h.05v-3.28h1.81v8.73h-1.79v-1.05h-.08c-.08.18-.21.36-.36.54-.15.18-.35.32-.6.44-.24.12-.54.17-.9.17h0ZM695.94,210.09c.29,0,.54-.08.74-.24s.36-.39.47-.68.17-.63.17-1.02-.05-.73-.16-1.01c-.11-.29-.26-.51-.47-.66-.21-.16-.45-.23-.75-.23s-.55.08-.75.24c-.21.16-.36.39-.46.67-.11.29-.16.62-.16,1s.05.72.16,1.01.26.52.46.68c.21.16.46.24.75.24ZM704.78,208.64v-3.76h1.82v6.54h-1.74v-1.19h-.07c-.15.38-.39.69-.74.92-.34.23-.76.35-1.25.35-.44,0-.82-.1-1.15-.3s-.59-.48-.78-.85c-.18-.37-.28-.8-.28-1.32v-4.17h1.82v3.84c0,.39.11.69.31.92.2.22.48.34.82.34.22,0,.42-.05.61-.15.19-.1.34-.25.46-.45s.18-.44.17-.74v.02ZM711,211.56c-.67,0-1.25-.14-1.73-.43s-.85-.68-1.11-1.19c-.26-.51-.38-1.09-.38-1.76s.13-1.26.39-1.76c.26-.51.63-.9,1.11-1.19.48-.29,1.05-.43,1.71-.43.57,0,1.07.1,1.5.31.43.21.77.5,1.02.87s.39.82.41,1.32h-1.71c-.05-.33-.18-.59-.38-.79-.21-.2-.47-.3-.8-.3-.28,0-.53.08-.74.23-.21.15-.37.37-.48.66-.12.29-.17.64-.17,1.05s.06.77.17,1.07c.12.29.28.51.49.67.21.15.46.23.74.23.21,0,.39-.04.56-.13.17-.08.3-.21.41-.37.11-.16.18-.36.22-.59h1.71c-.03.5-.16.94-.41,1.32-.24.38-.58.67-1,.89-.43.21-.93.32-1.51.32h-.02ZM718.57,204.89v1.36h-3.94v-1.36h3.94ZM715.52,203.32h1.82v6.1c0,.17.03.3.08.39s.12.15.21.19c.09.04.2.06.32.06.09,0,.17,0,.26-.02s.15-.03.2-.04l.29,1.35c-.09.03-.22.06-.38.1-.17.04-.37.06-.6.07-.44.02-.82-.04-1.15-.17s-.58-.34-.76-.62-.27-.64-.27-1.07v-6.34h-.02Z"/>
  <path class="st22" d="M565.37,203.7v8.73h-1.85v-8.73h1.85ZM570.63,203.7v8.73h-1.84v-6.98h-.05l-2,1.25v-1.64l2.16-1.37h1.73Z"/>
  <path class="st22" d="M583.52,131.7v8.73h-1.85v-8.73h1.85ZM584.99,140.43v-1.33l3.11-2.88c.26-.26.49-.49.66-.69.18-.21.32-.4.41-.6.09-.2.14-.41.14-.64,0-.25-.06-.47-.17-.66-.12-.19-.28-.33-.48-.43-.2-.1-.43-.15-.69-.15s-.5.05-.7.16-.35.26-.46.46c-.11.2-.16.44-.16.72h-1.75c0-.57.13-1.07.39-1.49s.62-.74,1.09-.98c.47-.23,1-.35,1.61-.35s1.17.11,1.63.33c.47.22.83.52,1.09.91s.39.84.39,1.34c0,.33-.07.66-.2.98-.13.32-.36.68-.69,1.07-.33.39-.79.86-1.39,1.4l-1.27,1.25v.06h3.66v1.51h-6.22Z"/>
  <path class="st22" d="M638.35,92.7v8.73h-1.84v-8.73s1.84,0,1.84,0ZM643.04,101.55c-.64,0-1.2-.11-1.7-.33-.49-.22-.89-.53-1.17-.91-.28-.39-.43-.84-.44-1.35h1.86c.01.21.08.4.21.56.13.16.3.28.52.37.22.09.46.13.73.13s.53-.05.75-.15.39-.24.51-.41c.12-.18.18-.38.18-.61s-.07-.44-.2-.62-.31-.32-.55-.43c-.24-.1-.52-.15-.85-.15h-.81v-1.36h.81c.28,0,.52-.05.74-.14.22-.1.38-.23.5-.4s.18-.38.18-.61-.05-.41-.16-.58c-.1-.17-.25-.3-.43-.39s-.4-.14-.65-.14-.48.05-.69.14-.37.21-.5.38-.19.36-.2.58h-1.77c0-.5.15-.95.43-1.33.28-.38.65-.68,1.12-.9s1.01-.33,1.61-.33,1.13.11,1.58.33.8.51,1.05.89c.25.37.38.78.38,1.24,0,.49-.15.9-.46,1.22-.3.33-.7.53-1.19.62v.07c.64.08,1.13.31,1.47.67.34.36.51.81.5,1.36,0,.5-.14.94-.43,1.33s-.68.69-1.19.91-1.09.33-1.74.33h0Z"/>
  <path class="st22" d="M716.24,92.7v8.73h-1.85v-8.73s1.85,0,1.85,0ZM717.57,99.9v-1.45l3.64-5.74h1.25v2.01h-.74l-2.3,3.63v.07h5.18v1.48h-7.04,0ZM721.76,101.43v-1.98l.03-.64v-6.11h1.73v8.73h-1.76Z"/>
  <path class="st22" d="M772.43,131.7v8.73h-1.84v-8.73h1.84ZM777.09,140.55c-.6,0-1.14-.11-1.61-.33s-.84-.53-1.12-.92c-.28-.39-.42-.84-.43-1.34h1.79c.02.34.16.61.43.82.26.21.58.32.94.32.29,0,.55-.06.77-.19.22-.13.4-.31.52-.54.13-.23.19-.5.19-.8s-.07-.58-.2-.81-.3-.41-.53-.55c-.23-.13-.49-.2-.78-.2-.26,0-.5.05-.75.16-.24.1-.42.25-.56.43l-1.64-.29.41-4.6h5.33v1.51h-3.81l-.23,2.19h.05c.15-.22.38-.39.69-.54.31-.14.66-.21,1.04-.21.53,0,1,.12,1.41.37s.74.59.98,1.02c.24.43.36.92.35,1.48,0,.59-.13,1.11-.41,1.57-.27.45-.65.81-1.15,1.07-.49.26-1.06.39-1.71.39h.03Z"/>
  <path class="st22" d="M793.34,203.7v8.73h-1.84v-8.73h1.84ZM798.16,212.55c-.45,0-.88-.08-1.3-.23s-.79-.39-1.12-.72-.59-.77-.78-1.32-.29-1.22-.29-2.02c0-.73.09-1.39.25-1.96.17-.58.41-1.07.72-1.47s.69-.71,1.12-.92c.43-.21.92-.32,1.46-.32.58,0,1.1.11,1.54.34.45.22.8.53,1.07.92s.44.82.49,1.3h-1.82c-.07-.3-.22-.54-.45-.72-.23-.17-.51-.26-.84-.26-.57,0-1,.25-1.29.74s-.44,1.17-.45,2.01h.06c.13-.26.31-.48.53-.66.22-.18.48-.32.76-.42.29-.1.59-.15.91-.15.52,0,.98.12,1.38.37.4.24.72.57.95,1,.23.42.35.91.35,1.45,0,.59-.14,1.12-.41,1.58-.27.46-.65.82-1.15,1.08-.49.26-1.06.39-1.7.38h.01ZM798.15,211.1c.28,0,.54-.07.76-.2.22-.14.4-.32.53-.55s.19-.49.19-.78-.06-.55-.19-.78c-.12-.23-.3-.41-.52-.55-.22-.14-.47-.2-.76-.2-.21,0-.41.04-.59.12-.18.08-.34.19-.47.33-.13.14-.24.31-.32.49-.08.18-.11.38-.11.59,0,.28.06.54.19.77.13.23.31.42.53.56.23.14.48.21.76.21h0Z"/>
  <line class="st7" x1="294.17" y1="144.66" x2="302.72" y2="155.07"/>
  <line class="st7" x1="504.91" y1="133.38" x2="492.51" y2="154.86"/>
  <g class="st1">
    <text class="st0" transform="translate(69.06 327.77)"><tspan x="0" y="0">Linearized Destination </tspan></text>
    <text class="st3" transform="translate(69.06 327.77)"><tspan x="0" y="0">Linearized Destination </tspan></text>
    <text class="st0" transform="translate(110.82 342.17)"><tspan x="0" y="0">Vector</tspan></text>
    <text class="st3" transform="translate(110.82 342.17)"><tspan x="0" y="0">Vector</tspan></text>
  </g>
  <g class="st1">
    <text class="st0" transform="translate(636.52 334.71)"><tspan x="0" y="0">Assembled Plasmid</tspan></text>
    <text class="st3" transform="translate(636.52 334.71)"><tspan x="0" y="0">Assembled Plasmid</tspan></text>
  </g>
  <g class="st1">
    <text class="st2" transform="translate(388.23 336.63)"><tspan x="0" y="0">Ligate</tspan></text>
    <text/>
    <text/>
  </g>
  <path class="st19" d="M333.17,120.84c-4.91,4.15-9.38,8.7-13.28,13.51l-6.14-3.28c4.19-5.18,9-10.07,14.29-14.53l5.13,4.31Z"/>
  <path class="st21" d="M301.05,146.79l-6.87-2.13c2.59-5.72,5.87-11.28,9.75-16.52l6.17,3.32c-3.61,4.86-6.65,10.02-9.05,15.33Z"/>
  <path class="st10" d="M304.45,143.17c1.34-2.61,2.84-5.23,4.52-7.84,4.16-6.49,8.97-12.33,14.12-17.35"/>
  <path class="st23" d="M364.49,99.92c-6.53,1.34-12.9,3.25-18.95,5.69l-3.27-6.01c6.51-2.62,13.37-4.68,20.39-6.12l1.83,6.45Z"/>
  <path class="st19" d="M318.93,110.01l-4.25-5c5.54-4.03,11.54-7.61,17.84-10.62l2.97,5.76c-5.84,2.8-11.42,6.12-16.55,9.86Z"/>
  <path class="st10" d="M325.19,107.94c2.65-1.77,5.45-3.47,8.37-5.09,7.27-4.03,14.68-7.17,21.86-9.43"/>
  <path class="st20" d="M402.37,91.89c-6.31-1.11-12.77-1.62-19.21-1.51l.13-6.89c6.93-.11,13.88.43,20.67,1.63l-1.59,6.78Z"/>
  <path class="st23" d="M355.57,84.7l-1.22-6.28c6.79-1.8,13.74-3,20.68-3.57l-.27,6.54c-6.44.52-12.9,1.64-19.2,3.31Z"/>
  <path class="st10" d="M363.17,85.2c3.17-.71,6.43-1.3,9.76-1.77,8.28-1.17,16.25-1.45,23.58-.97"/>
  <path class="st16" d="M439.11,97.46c-5.13-3.12-10.66-5.71-16.44-7.7l3.15-6.59c6.22,2.14,12.17,4.93,17.69,8.28l-4.4,6.01Z"/>
  <path class="st20" d="M399.84,75.83l1.68-6.45c6.83.47,13.56,1.57,19.98,3.28l-3.12,6.21c-5.96-1.59-12.2-2.61-18.54-3.05Z"/>
  <path class="st10" d="M406.09,78.33c3.13.35,6.29.83,9.47,1.46,7.88,1.57,15.1,3.88,21.41,6.72"/>
  <path class="st5" d="M470.58,115.49c-3.64-4.57-7.85-8.76-12.51-12.46l5.37-5.24c5.02,3.98,9.55,8.5,13.47,13.41l-6.33,4.3Z"/>
  <path class="st15" d="M442.94,84.33l3.95-5.57c6.21,2.6,12.08,5.76,17.45,9.4l-5.2,4.89c-4.99-3.38-10.44-6.32-16.2-8.73Z"/>
  <path class="st10" d="M448.02,88.23c2.8,1.32,5.57,2.77,8.3,4.37,6.79,3.97,12.68,8.43,17.52,13.11"/>
  <path class="st11" d="M491.28,143.84c-1.28-5.61-3.25-11.11-5.84-16.34l7.19-2.6c2.79,5.63,4.9,11.55,6.28,17.58l-7.63,1.35Z"/>
  <path class="st5" d="M479.98,104.44l6.04-3.46c4.48,4.86,8.41,10.09,11.67,15.56l-6.88,2.35c-3.03-5.07-6.67-9.93-10.83-14.44Z"/>
  <path class="st10" d="M482.86,110.03c1.95,2.32,3.82,4.76,5.6,7.31,4.4,6.33,7.77,12.75,10.09,18.95"/>
  <path class="st21" d="M308.82,176.56l-8.28-3.5c3.59-7.81,8.01-15.33,13.15-22.36l7.33,5.11c-4.78,6.53-8.88,13.52-12.21,20.76Z"/>
  <path class="st11" d="M490.69,173.9c-2.42-7.6-5.61-15.06-9.48-22.15l7.86-3.52c4.17,7.64,7.6,15.66,10.2,23.84l-8.58,1.84Z"/>
  <path class="st13" d="M492.51,154.86c8.29,16.23,12.28,34.31,11.58,52.52s-6.05,35.93-15.55,51.48-22.84,28.4-38.73,37.32-33.8,13.62-52.02,13.64c-18.22.02-36.15-4.64-52.05-13.52-15.91-8.89-29.27-21.71-38.81-37.23-9.54-15.53-14.93-33.24-15.67-51.45-.74-18.21,3.21-36.3,11.47-52.54l14.24,7.24c-7.02,13.81-10.37,29.19-9.75,44.66.62,15.48,5.21,30.53,13.32,43.73,8.11,13.2,19.47,24.09,32.99,31.65s28.76,11.51,44.24,11.49c15.49-.02,30.71-4.01,44.22-11.59s24.84-18.5,32.92-31.72c8.08-13.22,12.63-28.28,13.22-43.76s-2.8-30.85-9.85-44.64l14.23-7.27h0Z"/>
  <g>
    <line class="st8" x1="592.96" y1="228.57" x2="591.01" y2="229.02"/>
    <line class="st9" x1="589.96" y1="229.26" x2="587.35" y2="229.87"/>
    <polyline class="st8" points="586.83 229.99 584.88 230.45 585.58 232.32"/>
    <line class="st6" x1="586.29" y1="234.24" x2="590.19" y2="244.78"/>
    <polyline class="st8" points="590.55 245.74 591.24 247.61 589.41 248.42"/>
    <line class="st8" x1="586.61" y1="249.66" x2="584.78" y2="250.47"/>
  </g>
  <g>
    <line class="st8" x1="596.38" y1="168.74" x2="594.53" y2="167.98"/>
    <line class="st9" x1="593.54" y1="167.57" x2="591.05" y2="166.56"/>
    <polyline class="st8" points="590.56 166.36 588.71 165.6 588.19 167.53"/>
    <line class="st6" x1="587.66" y1="169.5" x2="584.74" y2="180.36"/>
    <polyline class="st8" points="584.47 181.34 583.96 183.28 582 182.88"/>
    <line class="st8" x1="579" y1="182.26" x2="577.04" y2="181.86"/>
  </g>
  <g>
    <line class="st8" x1="636.77" y1="123.04" x2="635.8" y2="121.29"/>
    <line class="st9" x1="635.28" y1="120.35" x2="633.98" y2="118.01"/>
    <polyline class="st8" points="633.72 117.54 632.75 115.79 631.13 116.97"/>
    <line class="st6" x1="629.49" y1="118.18" x2="620.41" y2="124.81"/>
    <polyline class="st8" points="619.59 125.42 617.97 126.6 616.7 125.06"/>
    <line class="st8" x1="614.74" y1="122.7" x2="613.47" y2="121.16"/>
  </g>
  <g>
    <line class="st8" x1="688.98" y1="112.82" x2="689.13" y2="110.83"/>
    <line class="st9" x1="689.22" y1="109.76" x2="689.42" y2="107.09"/>
    <polyline class="st8" points="689.46 106.55 689.62 104.56 687.62 104.66"/>
    <line class="st6" x1="685.58" y1="104.75" x2="674.35" y2="105.3"/>
    <polyline class="st8" points="673.33 105.35 671.33 105.45 671.11 103.46"/>
    <line class="st8" x1="670.78" y1="100.42" x2="670.56" y2="98.43"/>
  </g>
  <g>
    <line class="st8" x1="741.33" y1="135.08" x2="742.55" y2="133.49"/>
    <line class="st9" x1="743.2" y1="132.64" x2="744.83" y2="130.52"/>
    <polyline class="st8" points="745.16 130.09 746.38 128.5 744.65 127.49"/>
    <line class="st6" x1="742.89" y1="126.46" x2="733.18" y2="120.79"/>
    <polyline class="st8" points="732.3 120.28 730.57 119.27 731.48 117.48"/>
    <line class="st8" x1="732.85" y1="114.75" x2="733.76" y2="112.97"/>
  </g>
  <g>
    <line class="st8" x1="770.32" y1="187.53" x2="772.29" y2="187.19"/>
    <line class="st9" x1="773.35" y1="187" x2="775.99" y2="186.55"/>
    <polyline class="st8" points="776.52 186.46 778.49 186.12 777.9 184.2"/>
    <line class="st6" x1="777.31" y1="182.25" x2="774.02" y2="171.5"/>
    <polyline class="st8" points="773.72 170.52 773.14 168.61 775.01 167.91"/>
    <line class="st8" x1="777.88" y1="166.84" x2="779.75" y2="166.14"/>
  </g>
  <g>
    <line class="st8" x1="761.44" y1="246.67" x2="763.24" y2="247.54"/>
    <line class="st9" x1="764.21" y1="248" x2="766.63" y2="249.16"/>
    <polyline class="st8" points="767.11 249.39 768.91 250.26 769.55 248.36"/>
    <line class="st6" x1="770.19" y1="246.42" x2="773.74" y2="235.76"/>
    <polyline class="st8" points="774.06 234.79 774.7 232.89 776.63 233.41"/>
    <line class="st8" x1="779.59" y1="234.19" x2="781.52" y2="234.71"/>
  </g>
</svg>