<svg width="411" height="310" viewBox="0 0 411 310" fill="none" xmlns="http://www.w3.org/2000/svg">
<path d="M203.31 16.8473C219.635 15.0137 233.652 25.0278 242.269 38.1035C259.072 35.5993 275.365 37.3825 285.533 52.8178C291.012 61.1385 292.31 73.1043 290.17 82.7183C304.278 90.6335 315.133 102.648 314.565 119.689C314.053 135.08 303.73 146.656 291.013 154.031C292.25 159.27 291.768 168.275 290.497 173.561C285.36 194.946 263.832 203.467 243.481 198.434C236.425 208.989 224.515 218.685 211.442 219.819C198.566 222.048 185.46 215.343 176.791 206.25C174.555 203.905 172.591 201.122 170.555 198.583C154.449 201.055 138.556 199.401 128.191 185.283C121.107 175.633 120.667 164.168 122.497 152.803C121.27 152.168 120.217 151.41 119.066 150.678C96.7818 136.5 92.7538 108.595 112.782 90.392C115.858 87.5963 119.345 85.4178 122.64 82.884C121.314 77.0118 121.409 70.404 122.649 64.515C127.253 42.648 148.994 33.6238 169.639 38.1233C170.377 37.1323 171.128 36.1513 171.892 35.1798C179.885 25.0978 190.454 18.3351 203.31 16.8473ZM151.408 141.672C153.703 141.734 155.964 142.123 158.247 142.225C159.878 142.272 161.531 142.475 162.962 141.531C163.227 141.08 163.383 140.942 163.255 140.401C162.828 138.605 158.515 135.36 156.952 134.137C155.081 136.631 153.1 139.051 151.408 141.672ZM191.379 75.4508C188.607 72.84 182.877 67.4918 179.41 66.0545C178.907 69.96 178.616 72.4975 178.661 76.4625C181.637 77.7315 184.642 78.8688 187.316 80.6905L188.544 79.115L191.379 75.4508ZM233.978 116.784C233.685 115.891 233.083 114.707 232.165 114.309C231.981 114.23 231.8 114.203 231.604 114.172C231.614 114.972 231.876 115.626 232.472 116.181C232.935 116.612 233.363 116.733 233.978 116.784ZM233.821 160.898C230.049 159.438 225.751 158.023 222.297 155.932C221.491 156.76 220.696 157.56 220.04 158.515C223.348 162.487 227.939 167.12 232.633 169.433L233.017 169.594C233.871 168.037 233.722 162.882 233.821 160.898ZM252.825 103.081L255.617 100.163C256.735 98.8533 257.945 97.4903 258.96 96.1105C253.755 95.05 251.605 95.863 247.027 95.5088C246.571 96.2358 246.476 96.2953 246.495 97.1125C247.36 99.399 250.988 101.247 252.825 103.081ZM159.674 164.588C153.811 164.085 149.992 163.656 144.235 162.415C145.335 168.942 145.483 171.257 151.248 175.195C155.544 176.524 156.605 176.608 161.183 176.681C160.111 173.561 159.55 167.854 159.674 164.588ZM252.845 130.851C251.878 132.512 252.663 134.24 253.125 136.012C253.633 137.963 254.178 139.786 254.298 141.818C256.535 141.777 258.785 141.799 260.997 141.418L261.457 141.257C261.475 139.785 256.808 134.181 255.508 132.846C254.685 132.002 253.932 131.325 252.845 130.851ZM208.1 57.082C212.302 53.297 216.528 50.1883 221.638 47.7663C216.409 42.498 211.474 38.193 203.39 39.3125C198.711 40.0883 193.99 42.7725 191.092 46.548C197.744 50.8048 200.655 53.2255 206.397 58.8195L208.1 57.082ZM231.841 118.284C231.229 117.728 230.302 116.657 229.538 116.41C228.598 117.256 227.687 117.909 227.665 119.286C227.658 119.686 227.836 120.03 228.018 120.374L228.458 120.64C228.569 120.537 228.811 120.353 228.885 120.225C229.851 119.537 230.822 118.891 231.841 118.284ZM221.011 76.4475C223.85 75.7658 227.177 75.1268 229.894 74.4238C229.89 73.2575 229.934 69.239 229.23 68.5068C226.88 69.7438 221.221 73.017 220.342 75.513C220.514 76.223 220.361 75.9653 221.011 76.4475ZM151.941 95.7555C153.36 97.792 155.294 100.748 156.835 102.596C157.377 103.218 158.002 103.904 158.518 104.535L161.148 102.739C160.578 100.618 159.988 97.455 159.357 95.5998C159.168 95.5133 158.974 95.386 158.803 95.3958C156.513 95.4483 154.224 95.568 151.941 95.7555ZM190.032 162.316C187.296 163.026 184.428 163.618 181.605 163.808C181.814 165.235 181.919 166.793 182.314 168.177C184.073 167.233 189.439 164.284 190.265 162.6L190.032 162.316ZM222.446 189.888C219.349 187.914 216.393 185.727 213.599 183.342C211.976 181.96 208.401 177.964 206.811 177.199C202.014 181.927 196.826 185.683 191.157 189.281C195.657 194.084 200.323 197.345 207.167 197.757C212.91 197.579 217.268 195.478 221.233 191.303C221.659 190.85 222.064 190.378 222.446 189.888ZM140.839 119.09C137.385 116.09 134.791 112.294 132.202 108.558C131.425 107.438 130.653 105.925 129.738 104.961C125.701 109.008 122.3 112.776 122.258 118.949C122.229 123.236 123.999 126.837 127.053 129.768C127.861 130.542 129.384 132.085 130.361 132.426C131.098 132.005 131.398 131.215 131.782 130.488C134.346 126.481 137.288 122.293 140.839 119.09ZM157.408 60.0648C153.19 60.6908 150.6 61.6165 147.684 65.1113C146.167 66.9303 144.67 71.9253 144.953 74.0505C145.448 74.4103 145.177 74.3348 145.798 74.2683C149.045 73.776 153.093 73.2898 156.369 73.2348C156.412 72.2425 156.663 70.1178 156.646 69.29C156.614 67.6753 158.514 60.8 158.002 60.0525L157.408 60.0648ZM252.195 73.4595C257.508 73.508 262.875 73.739 268.017 75.204C267.847 73.0388 267.707 71.4993 267.12 69.3985C266.98 68.9058 266.173 66.5998 266.16 66.4678C265.808 65.9945 265.448 65.5293 265.075 65.0725C261.42 60.6163 256.537 60.0885 251.277 59.5795C251.607 64.001 252.655 69.124 252.195 73.4595ZM267.94 162.621C266.1 162.835 257.815 163.232 256.7 163.926C256.525 164.036 256.323 164.307 256.17 164.46C255.825 165.814 256.06 167.307 255.955 168.699C255.77 171.141 255.205 173.652 254.57 176.013L254.82 176.375L255.182 176.372C259.005 176.13 263.018 175.05 265.638 172.063C267.603 169.827 268.95 165.826 268.805 162.849L268.517 162.554L267.94 162.621ZM281.725 102.878C278.09 108.159 275.685 111.513 271.177 116.164C275.332 120.008 280.133 125.997 283.073 130.836L283.73 131.615C284.328 131.659 284.435 131.708 284.913 131.257C295.463 121.269 294.07 110.334 281.725 102.878Z" fill="#FFFFFF"/>
<path d="M152.13 177.698C154.656 178.841 158.278 179.244 161.003 178.605C161.683 179.078 161.552 178.847 161.816 179.525C160.463 181.155 152.837 180.178 151.009 179.4C131.315 171.017 142.378 142.521 153.102 131.536C163.589 120.795 175.705 114.511 186.84 104.758C188.971 102.891 190.884 101.168 192.928 99.2428C194.729 97.585 199.705 91.5513 201.409 90.8018L201.669 90.9745C201.618 94.7488 193.86 101.551 191.215 104.768C190.847 105.444 190.718 105.725 190.463 106.451L191.111 106.776L190.523 106.569L191.145 106.861L191.021 106.409C191.327 106.832 191.21 106.594 191.273 107.194C193.527 109.643 194.532 110.448 195.616 113.618C192.761 115.431 189.592 117.959 186.954 120.11C176.293 128.804 170.042 137.732 167.043 151.284C163.934 165.65 166.624 180.662 174.528 193.055C180.486 202.398 190.013 210.381 200.986 213.001C213.717 216.042 230.186 207.56 236.982 196.785C238.621 197.536 239.136 197.673 240.909 197.962C234.997 207.076 225.053 215.097 214.296 217.376C204.966 219.358 195.231 217.525 187.26 212.287C174.607 203.965 167.061 191.26 163.154 176.89C162.338 176.862 161.984 176.832 161.183 176.681C160.111 173.561 159.55 167.854 159.674 164.588C153.811 164.085 149.992 163.656 144.235 162.415C145.335 168.942 145.483 171.257 151.248 175.195C152.849 177.538 158.474 176.524 160.728 177.549L160.82 177.892C158.356 179.825 154.331 177.36 152.13 177.698ZM151.408 141.672C153.703 141.734 155.964 142.123 158.247 142.225C159.878 142.272 161.531 142.475 162.962 141.531C163.227 141.079 163.383 140.942 163.255 140.401C162.828 138.605 158.515 135.36 156.952 134.137C155.081 136.631 153.1 139.051 151.408 141.672Z" fill="#FFFFFF"/>
<path d="M191.273 107.194C193.527 109.643 194.532 110.448 195.616 113.618C192.761 115.431 189.592 117.959 186.954 120.11C176.293 128.804 170.042 137.732 167.043 151.284C163.934 165.65 166.624 180.662 174.527 193.055C180.485 202.398 190.013 210.381 200.986 213.001C213.717 216.042 230.186 207.56 236.982 196.785C238.621 197.536 239.136 197.673 240.909 197.962C234.997 207.076 225.053 215.097 214.296 217.376C204.966 219.358 195.23 217.525 187.26 212.287C174.606 203.965 167.061 191.26 163.154 176.89C161.095 166.091 160.784 158.384 163.606 147.514C166.489 136.41 173.921 126.004 182.804 118.865C185.671 116.561 189.062 114.628 192.245 112.77C191.376 111.624 189.975 110.499 189.842 109.164C189.974 108.304 190.642 107.804 191.273 107.194Z" fill="#44BACF"/>
<path d="M152.13 177.698C154.656 178.841 158.278 179.244 161.003 178.605C161.683 179.078 161.552 178.847 161.816 179.525C160.463 181.155 152.837 180.178 151.009 179.4C131.315 171.017 142.378 142.521 153.102 131.536C163.589 120.795 175.705 114.511 186.84 104.758C188.971 102.891 190.884 101.168 192.928 99.2428C194.729 97.585 199.705 91.5513 201.409 90.8018L201.669 90.9745C201.618 94.7488 193.86 101.551 191.215 104.768C188.145 107.167 184.936 109.638 181.837 111.912C168.301 121.848 153.489 130.062 146.234 146.138C142.452 154.518 139.816 165.467 146.023 173.578C147.55 175.584 149.629 177.153 152.13 177.698Z" fill="#6C2E99"/>
<path d="M147.038 150.642C151.342 151.871 155.595 152.272 160.003 152.926C160.072 153.093 160.13 153.206 160.165 153.378C160.307 154.064 160.051 154.96 159.694 155.536C154.74 155.388 150.559 154.814 145.837 153.273C146.298 152.424 146.662 151.531 147.038 150.642Z" fill="#2F9EB4"/>
<path d="M145.253 156.714C146.568 156.856 158.68 158.436 159.195 158.859C159.49 159.536 159.298 160.112 159.157 160.805C155.385 160.46 151.683 160.811 147.888 160.163C146.94 160.001 145.615 159.795 145.046 158.988C144.977 158.169 145.084 157.505 145.253 156.714Z" fill="#3C89AC"/>
<path d="M148.666 145.782C151.056 145.621 159.108 145.89 160.941 147.024C161.054 147.417 161.062 147.443 160.923 147.826L160.269 147.871C158.93 148.165 157.577 148.52 156.202 148.551C154.248 148.595 150.42 148.511 149.012 147.059C148.557 146.591 148.646 146.4 148.666 145.782Z" fill="#3C89AC"/>
<path d="M160.296 130.595C162.426 131.714 164.386 133.869 166.176 135.484C165.814 136.569 165.46 137.572 164.875 138.557C162.979 136.967 159.637 134.837 159.079 132.26C159.208 131.475 159.739 131.106 160.296 130.595Z" fill="#834AAC"/>
<path d="M163.404 127.892C165.426 128.006 167.587 130.326 169.041 131.649C168.474 132.413 167.818 133.105 167.181 133.811C166.88 133.777 166.696 133.763 166.423 133.622C164.818 132.792 162.952 130.936 162.296 129.253C162.446 128.522 162.854 128.346 163.404 127.892Z" fill="#834AAC"/>
<path d="M166.013 125.714C166.218 125.718 166.422 125.725 166.626 125.749C167.56 125.858 168.487 126.575 169.047 127.312C169.692 128.16 169.898 128.983 169.757 130.033C168.733 129.263 166.296 127.793 165.862 126.654C165.717 126.273 165.88 126.076 166.013 125.714Z" fill="#6C2E99"/>
<path d="M170.551 122.357C171 122.374 171.383 122.416 171.764 122.676C172.563 123.222 172.815 124.122 173.018 125.009C172.963 124.992 172.908 124.978 172.854 124.958C171.727 124.543 171.055 123.372 170.551 122.357Z" fill="#56187F"/>
<path d="M189.85 142.494C189.164 141.662 189.016 140.617 189.684 139.686C191.252 139.103 193.463 142.453 194.423 143.631C198.103 148.148 201.168 153.144 204.531 157.891C213.307 170.686 224.597 180.289 239.412 185.485C246.997 188.145 256.083 188.859 263.878 186.297C269.678 184.426 274.46 180.268 277.12 174.786C279.127 170.73 279.535 167.728 280.02 163.306L279.935 159.642C281.445 159.177 282.105 158.483 283.508 157.879L283.8 158.17C284.2 156.826 284.315 156.907 285.617 156.73C286.635 156.612 288.155 155.825 289.14 155.378C289.203 155.967 289.325 157.425 289.445 157.929C289.828 161.486 289.785 165.076 289.318 168.624C288.205 177.172 283.95 186.009 276.943 190.96C251.06 209.246 216.258 188.635 200.521 166.139C196.618 160.559 193.426 155.229 189.351 149.872C188.196 148.547 187.064 147.11 185.953 145.741C186.262 144.858 186.481 144.018 187.08 143.304C187.888 143.065 187.534 143.051 188.45 143.502C188.908 142.811 189.047 142.896 189.85 142.494Z" fill="#A36ACD"/>
<path d="M189.85 142.494C189.164 141.662 189.016 140.617 189.685 139.686C191.252 139.103 193.463 142.453 194.423 143.631C198.103 148.148 201.169 153.144 204.532 157.891C213.308 170.686 224.597 180.289 239.412 185.485C246.997 188.145 256.083 188.859 263.878 186.297C269.678 184.426 274.46 180.268 277.12 174.786C279.128 170.73 279.535 167.728 280.02 163.306C281.383 162.981 282.163 162.7 283.41 163.218C283.898 163.874 283.775 164.425 283.763 165.274C283.76 165.606 283.745 165.939 283.718 166.27C282.133 184.742 267.405 193.704 249.995 191.76C230.315 189.563 215.16 177.332 203.587 161.902C198.787 155.501 194.945 148.63 189.85 142.494Z" fill="#A36ACD"/>
<path d="M188.45 143.503C188.908 142.812 189.047 142.896 189.85 142.494C194.945 148.63 198.787 155.501 203.587 161.902C215.16 177.332 230.315 189.563 249.995 191.76C267.405 193.704 282.132 184.743 283.717 166.27C283.745 165.939 283.76 165.606 283.763 165.274C283.775 164.425 283.898 163.874 283.41 163.218C282.163 162.7 281.382 162.981 280.02 163.306L279.935 159.642C281.445 159.178 282.105 158.483 283.508 157.879L283.8 158.17C284.2 156.826 284.315 156.907 285.617 156.73C285.55 158.45 285.425 160.374 285.522 162.077C285.2 183.41 269.527 196.102 248.52 193.154C230.969 190.69 216.589 179.925 205.623 166.506C200.723 160.51 196.774 154.11 192.114 147.99C191.506 148.416 189.648 149.514 189.351 149.872C188.196 148.547 187.064 147.11 185.953 145.741C186.262 144.858 186.481 144.018 187.08 143.305C187.888 143.065 187.534 143.051 188.45 143.503Z" fill="#FFFFFF"/>
<path d="M185.953 145.741C186.262 144.858 186.481 144.018 187.08 143.305C187.888 143.065 187.534 143.051 188.45 143.503C189.419 144.505 191.367 146.802 192.114 147.99C191.506 148.416 189.648 149.515 189.351 149.873C188.196 148.547 187.064 147.11 185.953 145.741Z" fill="#834AAC"/>
<path d="M279.935 159.642C281.445 159.178 282.105 158.483 283.508 157.879L283.8 158.17C283.6 160.631 284.37 162.959 283.763 165.274C283.775 164.425 283.898 163.874 283.41 163.218C282.163 162.7 281.382 162.981 280.02 163.306L279.935 159.642Z" fill="#834AAC"/>
<path d="M289.14 155.378C289.203 155.967 289.325 157.425 289.445 157.929C286.595 158.62 285.84 159.369 285.522 162.077C285.425 160.374 285.55 158.45 285.617 156.73C286.635 156.612 288.155 155.825 289.14 155.378Z" fill="#834AAC"/>
<path d="M204.782 31.8533C211.533 31.168 219.141 34.7315 223.919 39.4738C232.397 47.888 236.621 58.7453 237.081 70.4785C237.944 92.5373 222.967 106.159 205.028 115.91C197.673 120.177 190.342 124.352 184.325 130.428C165.567 149.373 168.656 180.908 187.031 198.942C192.276 204.089 200.398 208.005 207.951 207.674C217.753 207.244 224.829 201.506 231.242 194.629C232.132 195.018 233.189 195.404 234.104 195.765C230.978 201.592 225.413 206.135 219.589 209.094C194.259 221.408 171.357 194.701 168.392 171.519C166.157 158.067 169.437 145.167 177.106 133.944C189.407 115.94 212.376 110.449 225.333 92.8923C232.271 83.5998 233.493 72.6715 230.681 61.7817C226.084 43.9845 211.103 29.835 192.704 40.9375C191.285 41.7935 188.179 43.9855 186.653 44.222L186.369 43.6835C186.808 42.5737 188.472 40.522 189.309 39.584C193.486 34.9017 198.511 32.2715 204.782 31.8533Z" fill="url(#paint1_linear_1_396)"/>
<path d="M182.702 36.2763C183.328 35.9218 185.771 33.3647 186.41 32.767C195.519 24.2474 207.894 22.847 219.004 27.5313C219.864 27.978 220.749 28.4278 221.585 28.9128C243.138 41.4143 249.674 71.82 238.504 93.1937C235.214 99.4495 230.746 105.009 225.344 109.568C208.93 123.568 186.733 129.717 180.828 153.304C175.904 172.968 189.015 204.779 213.292 198.95C215.902 198.324 219.91 194.901 221.609 196.848C222.964 196.671 224.227 193.928 226.104 193.856C226.245 194.538 226.065 194.826 225.65 195.398C217.82 206.198 203.175 208.293 192.488 200.209C173.211 185.628 168.778 156.069 182.954 136.509C198.469 115.101 232.312 112.107 238.704 83.2247C242.737 65.4735 237.09 45.4933 222.094 34.6328C207.527 24.0839 193.447 30.2253 182.504 41.9308L179.171 40.7245C180.323 38.9583 181.317 37.8613 182.702 36.2763Z" fill="url(#paint2_linear_1_396)"/>
<path d="M122.817 150.378C122.251 150.062 121.695 149.728 121.149 149.379C112.43 143.781 104.49 135.1 102.579 124.679C96.626 92.2235 136.034 72.535 163.52 75.644C170.72 76.4585 179.308 78.3083 185.486 82.3275L182.819 85.0043C181.701 84.3245 178.679 83.23 177.394 82.7838C167.488 79.3435 155.546 78.4933 145.304 80.858L145.616 81.15C144.108 81.6438 142.034 81.773 141.381 82.6498C142.607 83.094 144.036 81.8483 146.057 82.3668C148.266 82.1365 150.877 81.7208 152.981 81.5563C160.696 80.952 175.055 82.2245 181.432 86.8985C180.449 87.79 179.459 88.6703 178.524 89.612C167.318 83.95 152.458 84.303 140.773 88.194C131.408 91.3125 119.784 98.513 115.207 107.636C112.545 112.94 111.764 119.333 113.664 125.003C116.067 132.171 120.473 136.167 125.989 140.928C125.664 141.688 125.367 142.707 124.73 143.122C122.017 142.939 116.061 136.932 114.198 134.804C114.038 134.622 113.579 134.059 113.444 133.961C112.175 133.587 110.783 130.737 110.269 129.576C108.161 124.807 107.373 119.779 107.712 114.587C107.799 113.271 108.785 111.522 108.634 110.136C108.588 109.716 108.547 109.326 108.728 108.953L108.843 109.487L109.093 108.884L108.793 108.879L108.602 109.22L108.75 109.571C106.659 111.621 107.062 120.357 107.301 123.357C107.483 125.644 111.722 133.734 111.672 134.732C114.17 139.171 119.587 143.599 123.709 146.441C123.394 147.749 123.096 149.062 122.817 150.378Z" fill="#44BACF"/>
<path d="M146.057 82.3667C148.266 82.1365 150.877 81.7207 152.98 81.5562C160.695 80.952 175.055 82.2245 181.432 86.8985C180.449 87.79 179.459 88.6702 178.524 89.612C167.318 83.95 152.458 84.303 140.773 88.194C131.408 91.3125 119.784 98.513 115.206 107.636C112.545 112.94 111.764 119.333 113.664 125.003C116.067 132.171 120.473 136.167 125.989 140.928C125.664 141.688 125.366 142.707 124.73 143.122C122.017 142.939 116.061 136.932 114.198 134.804C114.038 134.622 113.579 134.059 113.444 133.961C111.255 129.938 109.582 128.01 108.649 123.179C104.37 101.025 127.263 86.2335 146.057 82.3667Z" fill="#2F9EB4"/>
<path d="M145.303 80.858L145.616 81.15C144.107 81.6438 142.034 81.773 141.381 82.6497C142.607 83.094 144.036 81.8483 146.057 82.3668C127.263 86.2335 104.37 101.025 108.649 123.179C109.582 128.011 111.255 129.938 113.444 133.961C112.175 133.587 110.782 130.737 110.269 129.576C108.16 124.807 107.373 119.779 107.711 114.587C107.799 113.271 108.784 111.522 108.634 110.136C108.588 109.716 108.547 109.326 108.727 108.953L108.843 109.487L109.093 108.883L108.793 108.879L108.601 109.22L108.75 109.571C106.658 111.621 107.062 120.357 107.301 123.357C107.483 125.644 111.722 133.734 111.672 134.732C109.599 131.995 107.54 126.922 106.954 123.534C103.073 101.1 125.814 84.5363 145.303 80.858Z" fill="#FFFFFF"/>
<path d="M196.599 132.443C199.407 132.316 206.264 142.457 207.899 144.96C215.395 156.435 222.206 167.476 235.231 173.414C239.089 175.277 244.372 177.733 248.749 178.07C249.238 177.686 254.76 178.292 256.545 177.951C260.163 177.36 264.28 176.564 266.575 173.401C268.445 170.824 271.013 166.168 270.878 162.938L270.855 162.369C271.405 161.774 274.473 161.139 275.32 161.517C276.313 161.382 276.733 161.302 277.738 161.379C278.36 162.373 277.758 165.919 277.573 167.152C274.188 189.87 251.275 188.968 235.066 182.236C212.758 172.971 204.838 155.298 191.593 137.497C192.278 136.488 192.565 136.162 193.416 135.283C193.586 135.165 194.54 134.019 194.803 133.744C195.436 133.081 195.819 133.035 196.495 132.523L196.599 132.443Z" fill="#FFFFFF"/>
<path d="M193.416 135.283L193.535 135.364C199.073 139.203 204.687 149.447 208.652 155.209C219.603 171.123 238.654 184.708 258.85 181.97C263.58 181.329 268.215 178.653 270.975 174.734C272.14 173.058 273.035 171.21 273.63 169.258C274.238 167.286 274.605 162.03 275.32 161.517C276.313 161.382 276.733 161.302 277.738 161.379C278.36 162.373 277.758 165.919 277.573 167.152C274.188 189.869 251.275 188.968 235.066 182.236C212.758 172.971 204.838 155.298 191.593 137.497C192.278 136.488 192.565 136.162 193.416 135.283Z" fill="#6C2E99"/>
<path d="M196.599 132.443C199.407 132.316 206.264 142.457 207.898 144.96C215.395 156.435 222.206 167.476 235.231 173.414C239.089 175.277 244.372 177.733 248.749 178.07C249.277 178.327 251.26 178.547 251.935 178.563C260.987 178.767 267.308 176.618 270.388 167.46C270.798 166.237 271.472 163.025 272.28 162.322C272.37 162.424 272.525 162.577 272.538 162.723C273.883 178.424 258.422 182.844 245.835 179.569C239.998 178.049 236.338 176.502 230.977 173.388C218.171 165.949 210.859 153.778 202.789 141.868C201.502 139.968 197.077 134.358 196.599 132.443Z" fill="#6C2E99"/>
<path d="M172.528 38.5788C174.952 34.2835 180.236 29.3015 184.141 26.4745C208.441 8.87981 235.504 23.415 245.781 49.1185C254.725 71.49 249.904 96.2863 231.336 112.155C227.801 115.177 223.734 117.293 220.016 119.979C221.36 121.337 222.68 122.716 223.977 124.119C222.682 124.871 222.266 125.176 221.137 126.162C220.295 124.672 217.404 120.596 216.318 119.328C242.524 103.462 254.033 75.003 239.816 46.3588C236.552 39.781 229.43 31.3743 222.753 28.0853C222.197 28.17 216.683 25.891 215.325 25.302C211.4 23.6008 197.796 23.4886 194.988 26.171C195.626 26.3875 199.271 25.101 200.326 24.8886C204.16 24.1166 216.546 24.1612 219.004 27.5313C207.894 22.847 195.519 24.2474 186.41 32.767C185.771 33.3648 183.328 35.9218 182.702 36.2763L182.422 35.858C184.491 33.6678 186.389 31.869 188.873 30.1373C189.829 29.4708 193.033 27.642 193.503 26.9525C190.432 26.7478 184.394 33.179 182.003 33.614C180.531 34.6595 177.608 38.1935 176.306 39.7205C175.068 39.3208 173.778 38.9528 172.528 38.5788Z" fill="url(#paint4_linear_1_396)"/>
<path d="M182.003 33.614C192.271 23.3957 210.295 19.6634 222.753 28.0853C222.197 28.17 216.683 25.891 215.324 25.302C211.4 23.6008 197.795 23.4886 194.988 26.171C195.625 26.3875 199.271 25.101 200.326 24.8886C204.16 24.1166 216.546 24.1612 219.004 27.5313C207.894 22.847 195.519 24.2474 186.41 32.767C185.77 33.3648 183.328 35.9218 182.702 36.2763L182.422 35.858C184.491 33.6678 186.389 31.869 188.873 30.1373C189.829 29.4708 193.033 27.642 193.503 26.9525C190.432 26.7478 184.394 33.179 182.003 33.614Z" fill="#FFFFFF"/>
<path d="M188.975 81.4488C189.85 80.4288 192.484 76.8933 193.906 78.296C194.075 80.0545 192.994 81.1173 191.954 82.5168C190.242 84.9755 187.715 87.6383 185.616 89.827C170.936 105.118 150.162 113.074 138.195 131.271C134.545 136.821 132.481 140.705 130.342 146.918C125.387 161.313 127.095 178.618 140.428 187.928C147.873 193.126 156.555 193.889 165.509 193.475C167.748 192.859 169.509 194.337 168.509 196.547C167.838 197.103 166.999 197.095 166.127 197.186C162.474 197.895 157.848 197.856 154.173 197.509C146.119 196.783 135.459 191.917 130.657 185.15C113.822 161.427 128.909 131.054 148.642 114.529C157.069 107.471 165.866 102.291 174.066 95.7863C177.37 93.1175 180.508 90.2503 183.464 87.2005C184.667 85.9478 187.826 82.3538 188.975 81.4488Z" fill="#A36ACD"/>
<path d="M188.975 81.4488C189.85 80.4288 192.484 76.8933 193.906 78.296C194.075 80.0545 192.994 81.1173 191.954 82.5168C191.842 81.7248 191.731 81.6378 191.173 81.0503C190.069 80.7735 190.146 80.8555 188.975 81.4488Z" fill="#834AAC"/>
<path d="M165.509 193.475C167.748 192.859 169.509 194.337 168.509 196.547C167.838 197.103 166.999 197.094 166.127 197.186C165.948 195.866 165.779 194.777 165.509 193.475Z" fill="#6C2E99"/>
<path d="M247.167 39.7677C254.955 37.8552 266.278 39.8022 273.158 43.9525C293.507 56.2295 292.305 82.2438 280.915 100.301C270.323 117.101 256.813 126.267 240.64 136.74C233.144 141.593 224.678 149.678 218.813 156.4C217.949 155.529 217.689 155.312 216.669 154.631C218.597 152.17 220.51 149.6 222.641 147.327C230.344 139.114 239.694 133.283 249.045 127.204C267.548 115.175 287.382 92.9187 284.517 69.1572C283.572 61.4127 279.563 54.3702 273.385 49.6062C267.375 44.8977 259.07 43.296 251.6 43.2335C249.421 43.2877 248.105 43.413 245.942 43.711C245.211 42.4902 244.498 41.259 243.804 40.017C244.84 40.0027 246.203 40.049 247.167 39.7677Z" fill="#A36ACD"/>
<path d="M243.804 40.017C244.84 40.0027 246.203 40.049 247.167 39.7677C247.339 40.954 248.355 42.034 249.124 42.9925C249.865 43.0572 250.893 43.119 251.6 43.2335C249.421 43.2877 248.105 43.413 245.942 43.711C245.211 42.4902 244.498 41.259 243.804 40.017Z" fill="#6C2E99"/>
<path d="M289.64 85.3057C296.963 87.8115 306.625 98.3455 309.775 105.485C319.162 126.773 303.67 146.594 284.568 155.172C265.928 163.542 247.64 163.804 228.674 156.532C227.172 155.82 224.624 154.783 225.027 152.695C226.602 151.358 232.435 153.573 234.568 154.386C261.763 164.752 310.68 149.483 307.582 114.46C306.577 103.069 297.808 95.671 288.91 89.0173C289.325 87.5443 289.448 86.8285 289.64 85.3057Z" fill="url(#paint5_linear_1_396)"/>
<path d="M124.016 75.3512C123.186 50.3452 141.308 36.9525 165.268 39.4048C189.51 41.886 206.066 59.4845 219.522 78.2545C221.603 81.1583 223.878 84.3113 226.133 87.0565C225.86 87.715 225.09 89.8543 224.612 90.1308C223.831 89.3495 222.915 88.297 222.271 87.4153C207.3 66.9125 190.873 45.841 163.488 43.3593C149.686 42.1085 134.784 48.6745 129.997 62.573C128.535 66.82 128.296 69.8928 127.983 74.4033L128.1 79.812C126.931 80.2885 125.717 80.8065 124.535 81.2365C124.226 79.128 123.935 77.4825 124.016 75.3512Z" fill="#A36ACD"/>
<path d="M124.017 75.3513C124.245 76.0643 124.311 77.2478 124.591 78.2525L125.241 78.4598C126.971 77.942 127.714 75.979 127.984 74.4033L128.1 79.812C126.931 80.2885 125.717 80.8065 124.536 81.2365C124.227 79.128 123.935 77.4825 124.017 75.3513Z" fill="#834AAC"/>
<path d="M163.539 191.484C153.748 192.142 144.175 190.76 136.868 183.374C131.564 177.83 128.883 169.242 129.062 161.762C129.812 130.563 156.105 114.342 178.498 97.9847C184.32 93.7322 189.474 87.3595 194.443 82.1762C195.063 81.5295 195.547 80.9492 196.414 80.971C197.794 82.3065 195.021 85.383 194.087 86.6065C182.983 101.162 166.302 109.245 152.962 121.356C141.63 131.721 134.239 144.857 133.289 160.429C132.476 173.758 140.615 185.039 154.062 187.337C156.601 187.771 159.957 187.604 162.633 187.712C163.475 187.462 163.619 187.396 164.462 187.603C165.722 188.461 166.353 189.379 165.706 190.867C165.044 191.396 164.447 191.494 163.539 191.484Z" fill="#A36ACD"/>
<path d="M162.633 187.712C163.475 187.462 163.619 187.396 164.462 187.603C165.721 188.461 166.353 189.379 165.706 190.867C165.044 191.396 164.447 191.495 163.539 191.484C163.778 190.638 162.938 188.587 162.633 187.712Z" fill="#6C2E99"/>
<path d="M248.943 50.7348C257.317 50.576 263.335 51.1723 270.63 56.4918C274.578 59.3695 277.398 66.256 277.73 71.2235C278.733 83.6348 273.135 96.1713 265.133 105.517C258.793 112.921 249.145 120.605 241.062 126.073C234.437 130.554 227.753 134.892 221.96 140.507C219.455 142.935 216.917 146.16 214.632 148.853L213.968 149.755C213.388 149.742 213.602 149.838 213.184 149.481C211.047 147.654 213.473 144.483 214.598 142.889C224.939 128.24 242.919 121.618 255.712 109.647C262.302 103.479 268.123 96.776 271.015 88.1403C272.785 83.1838 273.668 81.3705 273.813 75.7563C273.958 70.1043 272.558 64.0655 268.375 59.982C263.18 54.9105 256.175 54.2973 249.449 54.2468C249.269 53.0775 249.101 51.9068 248.943 50.7348Z" fill="#6C2E99"/>
<path d="M199.053 83.0027L199.724 85.8725C197.976 89.714 195.269 93.381 192.408 96.3603C173.868 115.665 145.242 124.553 139.089 153.838C136.336 166.937 140.003 179.311 154.878 182.264C156.22 182.098 161.395 181.934 162.715 182.26C163.46 182.921 163.774 184.642 163.971 185.635L163.74 186.077C162.546 186.414 157.194 186.722 156.268 186.184C141.128 183.457 134.095 175.223 134.536 159.654C134.632 154.745 136.121 150.601 137.636 146.003C146.154 120.144 173.392 110.522 190.728 92.1022C193.51 89.1462 196.093 85.7165 199.053 83.0027Z" fill="#6C2E99"/>
<path d="M154.878 182.264C156.22 182.098 161.395 181.934 162.715 182.26C163.46 182.921 163.774 184.642 163.971 185.635L163.74 186.077C162.546 186.414 157.194 186.722 156.268 186.184C157.716 185.796 161.291 186.136 161.437 186.081C161.596 185.417 161.382 183.612 161.454 182.456C159.474 182.656 156.821 182.756 154.878 182.264Z" fill="#56187F"/>
<path d="M249.993 45.2222C257.22 44.0417 266.625 46.1235 272.44 50.4942C290.262 63.8922 283.477 88.9297 272.035 104.153C263.49 115.519 253.49 122.792 241.735 130.423C237.409 133.276 232.644 136.501 228.771 139.85C226.207 142.05 223.757 144.379 221.43 146.829C220.285 148.051 216.957 152.159 215.595 152.503L215.073 152.181C214.855 150.909 215.518 149.996 216.249 148.98C224.128 138.017 235.327 131.131 246.321 123.702C263.317 112.218 282.48 91.454 278.675 69.0457C277.607 62.7527 274.075 57.1445 268.862 53.4615C264.592 50.4467 260.215 49.3917 255.08 48.9912C252.69 49.0097 250.602 49.0225 248.228 49.2292C247.53 48.0837 247.02 46.7147 246.506 45.4655C247.633 45.4915 248.965 45.617 249.993 45.2222Z" fill="#A36ACD"/>
<path d="M246.506 45.4655C247.634 45.4915 248.965 45.617 249.993 45.2223C250.277 46.3813 250.54 47.5453 250.783 48.7138C252.058 48.735 253.888 48.69 255.08 48.9913C252.69 49.0098 250.603 49.0225 248.228 49.2293C247.531 48.0838 247.02 46.7148 246.506 45.4655Z" fill="#6C2E99"/>
<path d="M129.826 78.4288C128.032 63.976 134.879 50.032 149.585 46.0495C166.334 41.5138 183.805 48.9883 196.679 59.5393C204.797 66.1923 211.403 75.582 217.761 83.8438C218.891 85.315 223.072 90.5835 223.44 91.9173C223.252 92.7583 222.669 93.24 222.068 93.8983C220.138 91.3338 217.374 88.8058 215.214 85.9693C211.605 81.0535 207.907 76.2343 204.06 71.5068C191.477 56.0428 163.119 40.8918 143.963 53.6768L144.905 54.4633C143.509 55.483 142.725 56.1498 141.461 57.293C136.179 63.6713 134.797 68.7248 135.497 76.9083C134.658 76.896 134.168 77.1838 133.458 77.6535L129.826 78.4288Z" fill="#A36ACD"/>
<path d="M140.367 56.7083C141.151 56.9278 140.95 56.76 141.462 57.293C136.18 63.6713 134.797 68.7248 135.497 76.9083C134.658 76.896 134.168 77.1838 133.458 77.6535C133.997 68.9498 134.13 63.4283 140.367 56.7083Z" fill="#FFFFFF"/>
<path d="M143.963 53.6768L144.906 54.4633C143.509 55.483 142.725 56.1498 141.462 57.293C140.95 56.76 141.151 56.9278 140.367 56.7083C141.319 55.6428 142.8 54.475 143.963 53.6768Z" fill="#FFFFFF"/>
<path d="M287.612 91.91C287.76 91.9603 288.025 92.0522 288.155 92.1237C295.817 96.3157 301.47 101.085 304.595 109.176C307.122 115.863 306.877 123.282 303.92 129.79C299.567 139.568 289.045 147.212 279.282 151.021C265.31 156.473 246.48 157.746 232.506 151.484L229.185 149.527C229.846 148.709 230.667 147.989 231.437 147.268C244.364 152.854 258.407 153.114 271.977 149.128C295.127 142.33 314.753 118.386 291.202 98.352C290.307 97.591 286.83 95.183 286.532 94.2763C286.532 93.3843 287.12 92.6695 287.612 91.91Z" fill="#2F9EB4"/>
<path d="M144.906 54.4633C152.996 49.4555 161.522 49.4708 170.448 51.524C190.092 56.0423 201.747 69.169 213.095 84.808C215.352 87.9183 219.041 92.042 220.962 94.8895C220.206 95.868 219.439 96.8925 218.638 97.8298C211.573 90.2658 206.108 81.6348 199.417 73.809C196.092 69.92 190.759 66.1578 186.657 63.04C170.528 50.7825 139.622 47.487 138.986 75.496L138.979 75.8725C137.943 76.0732 135.726 76.886 135.497 76.9083C134.797 68.7248 136.18 63.6713 141.462 57.293C142.725 56.1498 143.509 55.483 144.906 54.4633Z" fill="#6C2E99"/>
<path d="M291.898 103.064C293.278 104.261 294.475 105.321 295.57 106.818C301.448 114.865 299.703 126.028 293.093 133.228C280.173 147.3 257.533 152.093 239.456 146.901C237.591 146.365 235.43 145.46 233.632 144.719C235.093 143.478 236.546 142.227 237.991 140.967C248.98 145.513 262.893 144.496 273.808 140.181C284.988 135.761 298.455 124.924 292.748 111.335C292.095 109.78 291.268 108.305 290.438 106.831C291.513 105.03 289.605 105.388 291.898 103.064Z" fill="#44BACF"/>
<path d="M120.906 132.034C119.21 130.803 117.619 128.232 116.776 126.355C114.62 121.456 114.514 115.898 116.482 110.921C119.693 102.771 127.885 96.59 135.692 93.1615C148.754 87.4242 162.584 86.6257 175.93 91.8735C174.268 93.3192 173.207 94.2447 171.382 95.459C160.373 92.4855 150.149 92.584 139.434 96.9992C132.489 99.8615 124.123 105.473 121.338 112.725C118.971 118.887 120.25 123.092 122.704 128.755C122.027 129.838 122.189 129.256 120.622 129.855C120.87 130.673 121.085 131.203 120.906 132.034Z" fill="#44BACF"/>
<path d="M250.952 57.7015C250.737 56.972 250.71 57.2502 250.95 56.5967C252.642 55.7337 259.038 56.9862 260.948 57.5347C273.718 61.1972 273.518 75.359 269.983 85.6807C268.635 89.6155 266.257 93.2155 263.908 96.648C257.51 106.647 247.599 114.008 237.718 120.3C233.77 122.815 230.442 124.99 226.564 127.729C220.134 132.271 215.738 137.509 210.008 142.455L209.561 142.516C208.959 140.945 213.807 135.859 214.966 134.639C228.335 120.562 248.193 114.312 259.932 98.3175C260.827 97.0985 261.697 96.052 262.68 94.6857C269.412 85.3197 274.997 66.6367 261.97 59.8797C261.768 59.7742 261.52 59.68 261.293 59.617C259.17 58.0605 253.655 57.8417 250.952 57.7015Z" fill="#6C2E99"/>
<path d="M156.193 56.086C162.778 55.5845 167.556 55.7075 173.708 58.123C189.21 64.0657 199.779 76.819 209.134 89.9542C210.181 91.4235 216.117 98.7603 215.505 100.199C212.261 98.8425 203.478 86.1015 200.953 82.66C189.448 67.873 169.848 52.1222 150.098 60.1687C144.731 62.3555 143.462 70.1607 142.205 74.8712C141.48 75.102 141.84 75.0987 141.09 74.8382C140.933 74.6142 140.662 74.1592 140.667 73.8897C140.881 63.4875 145.926 57.6005 156.193 56.086Z" fill="#6C2E99"/>
<path d="M222.004 55.5588C223.019 54.9288 224.015 54.226 225.224 54.331C226.016 54.8448 225.746 54.6125 226.231 55.6403C226.716 56.0975 226.805 56.1263 226.95 56.7445C227.416 57.892 227.859 59.049 228.277 60.2145C223.121 62.3615 220.121 65.5775 215.643 68.5563C215.087 68.075 214.263 67.4013 213.769 66.8988C215.639 64.9323 217.281 63.347 219.392 61.6225L218.951 60.7978C217.874 61.554 216.61 62.4933 215.511 63.1788C214.561 64.045 213.892 64.9 212.516 64.659C211.925 64.136 212.088 64.4198 211.988 63.5323C212.225 62.6253 213.068 62.018 213.779 61.3735C215.973 59.4538 217.72 58.0365 220.23 56.5553C220.612 56.2533 221.532 55.8078 222.004 55.5588Z" fill="#6C2E99"/>
<path d="M222.004 55.5587C222.862 56.2955 222.428 56.5877 223.265 57.5535L221.731 58.5425L218.951 60.7977C217.874 61.554 216.61 62.4932 215.511 63.1787C214.561 64.045 213.892 64.9 212.516 64.659C211.925 64.136 212.088 64.4197 211.988 63.5322C212.225 62.6252 213.068 62.018 213.779 61.3735C215.973 59.4537 217.72 58.0365 220.23 56.5552C220.612 56.2532 221.532 55.8077 222.004 55.5587Z" fill="#A36ACD"/>
<path d="M213.779 61.3735C214.183 62.4978 214.247 62.831 215.511 63.1788C214.561 64.045 213.892 64.9 212.516 64.659C211.925 64.136 212.088 64.4198 211.988 63.5323C212.225 62.6253 213.068 62.018 213.779 61.3735Z" fill="#834AAC"/>
<path d="M222.004 55.5587C222.862 56.2955 222.428 56.5877 223.265 57.5535L221.731 58.5425C221.267 57.7157 221.012 57.0587 220.23 56.5552C220.612 56.2532 221.532 55.8077 222.004 55.5587Z" fill="#834AAC"/>
<path d="M222.004 55.5588C223.019 54.9288 224.015 54.226 225.224 54.331C226.016 54.8448 225.746 54.6125 226.231 55.6403C226.716 56.0975 226.805 56.1263 226.95 56.7445C224.831 58.6303 221.66 59.5635 219.392 61.6225L218.951 60.7978L221.731 58.5425L223.265 57.5535C222.428 56.5878 222.862 56.2955 222.004 55.5588Z" fill="#FFFFFF"/>
<path d="M222.004 55.5588C223.019 54.9288 224.016 54.226 225.225 54.331C226.016 54.8448 225.746 54.6125 226.232 55.6403C225.367 56.2373 224.173 57.1193 223.265 57.5535C222.428 56.5878 222.862 56.2955 222.004 55.5588Z" fill="#6C2E99"/>
<path d="M269.785 122.335C269.693 122.218 269.59 121.756 269.54 121.58C268.16 120.885 267.883 120.105 268.255 118.687C270.133 117.571 271.015 118.745 272.082 120.06C276.247 124.105 279.15 128.354 282.358 133.154C281.57 133.497 279.45 134.735 279.065 134.631C275.853 129.983 273.53 126.678 269.785 122.335Z" fill="#A36ACD"/>
<path d="M269.785 122.335C269.693 122.218 269.59 121.756 269.54 121.58C268.16 120.885 267.883 120.105 268.255 118.687C270.133 117.571 271.015 118.745 272.082 120.06C271.35 120.406 269.993 121.52 269.785 122.335Z" fill="#6C2E99"/>
<path d="M134.185 101.774C134.799 102.611 135.341 103.351 135.896 104.229C138.282 107.513 140.732 110.75 143.245 113.938C143.776 114.493 144.305 115.038 144.816 115.611C143.985 116.019 142.683 116.828 141.892 116.775C138.036 113.8 135.406 109.61 132.767 105.596L131.642 104.061L134.185 101.774Z" fill="#A36ACD"/>
<path d="M134.185 101.774C134.799 102.611 135.341 103.351 135.896 104.229C134.111 105.439 135.293 105.793 132.767 105.596L131.642 104.061L134.185 101.774Z" fill="#6C2E99"/>
<path d="M143.245 113.938C143.776 114.493 144.305 115.038 144.816 115.611C143.985 116.019 142.683 116.828 141.892 116.775C141.912 114.991 141.891 115.08 143.245 113.938Z" fill="#834AAC"/>
<path d="M200.441 175.553C201.122 176.445 201.747 177.282 202.5 178.115C198.4 182.213 194.575 184.507 189.671 187.522C189.137 186.392 188.474 185.342 187.827 184.273C188.465 183.82 189.212 183.362 189.893 182.967C193.644 180.794 196.923 178.068 200.441 175.553Z" fill="url(#paint7_linear_1_396)"/>
<path d="M138.605 99.2455C139.045 99.8097 139.324 100.354 139.673 100.975C140.749 103.456 145.707 109.659 147.722 111.643C148.32 112.998 146.777 114.489 145.599 114.21L145.282 113.731C142.446 111.343 138.743 106.047 136.783 102.957C136.545 102.023 135.874 102.067 136.06 100.702C136.51 100.05 137.807 99.6002 138.605 99.2455Z" fill="#A36ACD"/>
<path d="M138.605 99.2455C139.045 99.8097 139.324 100.354 139.673 100.975C138.682 101.192 137.226 102.018 136.783 102.957C136.545 102.023 135.874 102.067 136.06 100.702C136.51 100.05 137.807 99.6002 138.605 99.2455Z" fill="#6C2E99"/>
<path d="M147.722 111.643C148.32 112.998 146.777 114.489 145.599 114.21L145.282 113.731C146.279 112.093 146.437 112.669 147.722 111.643Z" fill="#834AAC"/>
<path d="M200.509 169.129C200.882 169.945 201.255 170.864 201.752 171.599L199.165 174.154C197.684 175.927 188.552 182.907 186.806 182.568C186.529 181.824 186.293 181.421 185.916 180.736C186.034 179.77 188.149 178.718 189.088 178.109C192.26 176.053 195.111 173.771 197.985 171.328C198.756 170.647 199.719 169.747 200.509 169.129Z" fill="#A36ACD"/>
<path d="M200.509 169.129C200.881 169.945 201.255 170.864 201.752 171.599L199.165 174.154C198.936 172.801 198.877 172.183 197.985 171.328C198.755 170.647 199.719 169.747 200.509 169.129Z" fill="#6C2E99"/>
<path d="M197.504 165.904C197.906 166.063 198.426 166.231 198.727 166.55C199.05 166.894 199.155 167.238 199.075 167.711C198.556 170.778 188.634 176.638 185.806 178.288C185.508 178.274 185.217 178.183 184.927 178.113C184.414 177.584 184.13 177.232 183.968 176.505C184.172 175.915 184.258 175.815 184.729 175.413C185.972 174.351 187.546 173.507 188.911 172.58C191.886 170.559 194.9 168.391 197.504 165.904Z" fill="#6C2E99"/>
<path d="M267.943 123.039C269.215 124.253 278.272 133.188 276.957 136.256C276.885 136.425 275.302 137.202 274.935 137.385C272.067 133.274 269.182 128.958 265.75 125.316C266.115 124.581 267.15 124.513 267.943 123.039Z" fill="#A36ACD"/>
<path d="M261.097 124.127C263.367 124.366 265.885 127.387 267.342 129.047C268.9 130.82 273.122 135.511 272.975 137.834L272.407 138.254C271.725 138.557 271.087 138.91 270.322 138.893C268.785 136.842 267.462 134.603 265.985 132.503C264.432 130.3 262.55 128.061 261.222 125.742C260.812 125.027 260.895 124.889 261.097 124.127Z" fill="#6C2E99"/>
<path d="M143.266 98.0068C143.269 98.0085 151.087 107.932 152.33 109.248C151.254 109.961 150.504 110.505 149.499 111.312C147.875 109.375 140.646 101.268 140.427 98.9187C141.603 98.79 142.361 98.8308 143.266 98.0068Z" fill="#6C2E99"/>
<path d="M219.181 51.3605C219.613 51.9683 220.961 53.5683 221.059 54.1158C219.149 55.0848 212.42 60.4255 210.24 62.1003L208.06 60.2C213.121 55.6865 213.155 55.2948 219.181 51.3605Z" fill="#A36ACD"/>
<path d="M251.413 82.4255C257.678 82.5305 259.675 82.3717 265.902 83.9025L265.003 86.5965C260.085 86.403 256.85 84.7905 250.693 85.5257C250.953 84.5252 251.18 83.4395 251.413 82.4255Z" fill="#2F9EB4"/>
<path d="M252.175 76.7288C255.21 76.57 264.998 76.8905 267.158 78.646C267.43 79.4875 267.152 80.1488 266.932 81.036C264.772 80.5573 252.55 79.2095 252.277 79.072C251.84 78.2965 252.05 77.6493 252.175 76.7288Z" fill="#2F9EB4"/>
<path d="M161.438 60.2303C162.329 60.2923 162.587 60.2795 163.415 60.6608C163.707 61.4365 161.713 71.6593 161.521 73.4965C160.659 73.633 160.053 73.8655 159.373 73.3175C158.632 70.5273 160.462 63.0933 161.438 60.2303Z" fill="#2F9EB4"/>
<path d="M194.089 163.195C194.422 163.545 194.403 163.623 194.473 164.109C194.098 165.08 193.407 165.822 192.681 166.55C190.667 168.568 186.082 172.82 183.173 172.825C182.794 172.224 182.638 172.031 182.595 171.334C183.91 169.163 191.573 164.797 194.089 163.195Z" fill="#6C2E99"/>
<path d="M167.543 60.9668C168.301 61.0158 168.347 61.0063 169.024 61.3223C169.441 62.018 167.37 72.3138 167.161 74.1858C166.322 74.1165 165.946 74.1323 165.153 73.813C164.122 71.65 166.404 63.1723 167.543 60.9668Z" fill="#44BACF"/>
<path d="M250.89 163.449C251.725 163.483 252.223 163.405 252.94 163.85C253.658 166.176 252.488 173.406 251.525 175.71C250.71 175.736 249.825 175.892 249.123 175.415C248.775 173.698 250.675 165.952 250.89 163.449Z" fill="#2F9EB4"/>
<path d="M195.879 103.208C197.034 103.475 200.466 108.267 201.963 109.719L199.416 111.725C198.373 111.42 194.348 106.339 193.37 105.161C194.083 104.508 195.087 103.8 195.879 103.208Z" fill="#2F9EB4"/>
<path d="M244.498 162.949C245.333 162.97 246.255 162.891 247.016 163.268C247.845 165.798 246.266 171.955 245.319 174.555C244.671 174.806 244.025 174.962 243.39 174.685C243.023 172.71 244.386 165.77 244.498 162.949Z" fill="#2F9EB4"/>
<path d="M213.127 121.191C215.103 121.779 217.748 126.139 219.214 127.791L216.883 129.796C215.663 129.207 211.655 124.111 210.511 122.877C211.422 122.386 212.27 121.771 213.127 121.191Z" fill="#2F9EB4"/>
<path d="M228.818 63.223L229.052 63.32L229.251 63.8607C229.184 64.3027 228.934 65.6525 228.565 65.8347C224.503 67.8375 221.595 70.3192 218.259 73.35C217.693 72.5905 217.454 72.5432 217.605 71.6437C220.716 68.087 224.535 65.219 228.818 63.223Z" fill="#6C2E99"/>
<path d="M207.601 124.975C209.157 125.22 213.243 130.613 214.434 132.076L212.496 133.799C210.963 133.096 206.964 127.907 205.637 126.326C206.209 125.796 206.945 125.396 207.601 124.975Z" fill="#2F9EB4"/>
<path d="M244.278 99.3675C245.814 100.22 250.18 103.263 251.238 104.603C251.03 105.517 250.77 105.531 250.025 106.29C249.584 106.499 249.095 106.862 248.691 106.635C246.718 105.525 244.816 104.034 243.817 101.955C243.387 101.061 243.912 100.203 244.278 99.3675Z" fill="#6C2E99"/>
<path d="M200.175 98.925C201.634 100.508 205.486 104.593 206.314 106.313C206.057 107.039 205.344 107.34 204.645 107.781C203.499 107.428 198.927 101.946 198.575 100.67C198.835 99.8505 199.475 99.4863 200.175 98.925Z" fill="#2F9EB4"/>
<path d="M147.503 96.353C147.586 96.3627 147.67 96.371 147.754 96.3828C149.628 96.6418 154.933 103.945 156.374 105.773L156.222 106.245C155.888 106.498 154.908 107.274 154.497 106.965C151.735 104.887 148.481 99.5677 147.503 96.353Z" fill="#6C2E99"/>
<path d="M258.73 132.542C259.285 131.907 259.9 131.819 260.725 131.564C263.418 134.835 264.968 136.479 267.42 140.089L264.362 140.671C263.422 138.756 260.2 134.109 258.73 132.542Z" fill="#6C2E99"/>
<path d="M189.188 157.334C190.626 157.064 192.11 157.78 193.452 158.252C190.488 159.587 187.766 160.396 184.558 160.885C183.728 161.146 182.675 161.195 181.805 161.331C181.85 160.666 181.938 160.037 182.07 159.384C183.22 157.845 187.377 157.663 189.188 157.334Z" fill="#2F9EB4"/>
<path d="M241.784 103.939C243.9 104.154 246.568 106.199 247.085 108.346C246.79 109.268 246.68 109.142 245.857 109.874C245.434 109.998 245.35 109.95 244.902 109.928C243.398 108.844 241.326 107.54 240.897 105.635C240.979 104.789 241.24 104.6 241.784 103.939Z" fill="#6C2E99"/>
<path d="M122.704 128.755C123.678 130.431 124.745 132.334 126.111 133.717C126.977 134.71 127.929 135.726 128.598 136.853C127.102 136.117 125.631 135.439 124.238 134.52C123.037 133.708 121.971 133.033 120.906 132.034C121.085 131.203 120.87 130.674 120.621 129.855C122.189 129.256 122.027 129.838 122.704 128.755Z" fill="#2F9EB4"/>
<path d="M124.238 134.52C125.018 134.251 125.375 134.139 126.112 133.717C126.977 134.71 127.93 135.726 128.598 136.853C127.102 136.117 125.631 135.439 124.238 134.52Z" fill="#2F9EB4"/>
<path d="M290.437 106.831C289.462 105.211 284.665 100.573 285.2 99.486C286.993 99.5018 290.39 101.914 291.897 103.064C289.605 105.388 291.512 105.03 290.437 106.831Z" fill="#3C89AC"/>
<path d="M250.953 57.7015C253.655 57.8418 259.17 58.0605 261.293 59.617C259.395 59.3668 257.588 58.575 255.665 58.5465L255.828 58.9393L256.398 59.1545L256.435 59.7233C259.333 60.4225 265.968 62.966 266.16 66.4678C265.808 65.9945 265.448 65.5293 265.075 65.0725C261.42 60.6163 256.538 60.0885 251.278 59.5795L250.953 57.7015Z" fill="#FFFFFF"/>
<path d="M248.411 133.578C248.744 133.656 249.057 133.774 249.379 133.888C250.832 135.823 251.48 139.684 251.595 142.067C250.915 142.053 250.31 142.005 249.648 141.837C248.744 140.153 247.978 135.41 248.411 133.578Z" fill="#3C89AC"/>
<path d="M187.001 151.566C187.066 151.573 187.131 151.579 187.195 151.588C187.921 151.688 188.74 152.142 189.188 152.71L189.118 153.298C187.925 154.61 186.2 154.722 184.553 154.988C183.822 155.118 183.371 155.225 182.663 154.906L182.491 154.439C182.731 153.668 183.191 153.28 183.762 152.75C184.665 151.912 185.833 151.791 187.001 151.566Z" fill="#2F9EB4"/>
<path d="M174.018 63.8425C174.57 63.8752 174.536 63.854 174.994 64.1592C175.41 65.866 173.644 71.7937 173.387 74.3695L172.95 74.3562C171.633 72.749 172.925 65.708 174.018 63.8425Z" fill="#3C89AC"/>
<path d="M253.74 89.801C255.208 89.7363 260.183 90.426 261.41 91.1592L261.26 91.503L260.312 91.7538C258.655 91.8513 252.505 92.4618 252.03 90.801C252.467 90.1633 252.99 90.0773 253.74 89.801Z" fill="#2F9EB4"/>
<path d="M226.099 77.5095C227.044 77.433 227.746 77.3263 228.679 77.5205C229.419 78.0828 229.229 77.787 229.459 78.6107C228.88 80.1485 228.043 80.089 226.556 80.3508C225.949 80.5743 224.763 80.5517 224.111 80.3025C223.71 79.7422 223.801 80.009 223.875 79.2187C224.28 78.2782 225.162 77.985 226.099 77.5095Z" fill="#3C89AC"/>
<path d="M219.181 51.3605C220.739 50.2678 222.311 49.0203 223.888 50.787C224.165 52.6608 222.677 53.4925 221.059 54.1158C220.961 53.5683 219.613 51.9683 219.181 51.3605Z" fill="#6C2E99"/>
<path d="M203.6 172.806C204.155 173.638 204.809 174.675 205.415 175.443C204.775 176.054 203.152 177.726 202.5 178.115C201.747 177.282 201.122 176.445 200.441 175.553C201.411 174.739 202.739 173.69 203.6 172.806Z" fill="#6C2E99"/>
<path d="M237.884 166.463C238.621 165.877 238.315 166.059 239.436 165.921C239.753 167.718 239.88 171.289 237.981 172.281C236.134 171.732 237.535 167.749 237.884 166.463Z" fill="#3C89AC"/>
<path d="M265.75 125.316C264.898 124.796 263.847 123.666 263.71 122.655C263.967 121.688 263.763 122.019 264.445 121.357C266.178 120.779 266.935 121.801 267.943 123.039C267.15 124.513 266.115 124.581 265.75 125.316Z" fill="#6C2E99"/>
<path d="M161.792 95.5165C165.073 95.6528 165.452 98.2847 164.41 100.886L163.49 100.988C162.203 100.051 162.087 97.255 161.792 95.5165Z" fill="#3C89AC"/>
<path d="M202.325 127.941C202.552 127.96 202.78 127.97 202.995 128.056C203.663 128.323 203.983 128.537 204.256 129.19C204.09 129.77 203.904 130.105 203.49 130.544C203.054 131.007 202.629 131.479 202.199 131.947C201.187 131.718 200.327 130.859 199.535 130.217C200.394 129.34 201.325 128.649 202.325 127.941Z" fill="#3C89AC"/>
<path d="M208.525 97.2055C209.169 97.2667 209.419 97.5595 209.76 98.043C209.601 99.6267 208.237 100.297 206.913 101.382C206.038 100.905 205.771 100.611 205.762 99.674C206.237 98.7438 207.638 97.8632 208.525 97.2055Z" fill="#3C89AC"/>
<path d="M258.73 132.542C257.69 131.755 255.4 130.434 256.27 128.966C257.94 128.479 259.623 130.478 260.725 131.565C259.9 131.82 259.285 131.907 258.73 132.542Z" fill="#56187F"/>
<path d="M243.773 136.622C244.058 136.817 244.24 136.96 244.411 137.268C245.087 138.481 245.784 140.143 245.417 141.503C244.831 141.36 244.334 141.171 243.794 140.903C243.456 140.47 243.149 140.024 243.053 139.471C242.87 138.406 243.202 137.497 243.773 136.622Z" fill="#4671A3"/>
<path d="M238.924 107.081C239.036 107.1 239.237 107.126 239.354 107.172C240.539 107.631 243.516 110.318 243.979 111.471C243.885 111.471 243.791 111.473 243.697 111.47C242.213 111.424 240.817 110.443 239.843 109.379C239.079 108.545 238.874 108.232 238.924 107.081Z" fill="#6C2E99"/>
<path d="M205.153 133.829C205.706 132.887 205.569 132.73 206.419 132.454C207.78 132.828 209.01 134.253 209.102 135.639L208.916 135.992C207.092 135.699 206.983 134.09 205.153 133.829Z" fill="#3C89AC"/>
<path d="M212.042 101.636C212.677 101.622 212.644 101.633 213.203 101.959L213.214 102.492C212.552 103.41 211.372 104.139 210.425 104.805C209.642 104.945 209.903 105.016 209.311 104.681C209.538 103.33 210.944 102.467 212.042 101.636Z" fill="#3C89AC"/>
<path d="M239.295 161.812C239.462 163.449 239.567 164.259 239.435 165.921C238.315 166.059 238.62 165.877 237.884 166.463C237.489 163.821 237.759 163.959 239.295 161.812Z" fill="#FFFFFF"/>
<path d="M231.604 114.172C231.8 114.203 231.981 114.23 232.165 114.309C233.083 114.707 233.685 115.891 233.978 116.784C233.363 116.732 232.935 116.612 232.472 116.181C231.876 115.626 231.614 114.971 231.604 114.172Z" fill="#56187F" fill-opacity="0.988235"/>
<path d="M211.488 281.55C214.116 273.135 215.471 264.158 218.551 255.875C218.889 254.965 219.343 254.015 220.321 253.655C221.274 253.305 223.921 253.457 224.82 253.885C225.407 254.162 225.76 254.583 226.026 255.17C227.201 257.763 227.764 260.863 228.512 263.625C230.108 269.528 231.613 275.555 233.527 281.36C234.199 276.92 237.958 256.823 239.8 254.098C241.37 253.073 244.861 253.54 246.747 253.572L244.339 264.19C243.224 268.158 238.86 288.755 237.578 290.522C237.41 290.752 237.17 290.92 236.892 290.98C235.661 291.248 231.098 291.303 230.061 290.653C228.142 287.63 223.494 267.88 222.546 263.185C221.422 268.528 219.845 273.663 218.367 278.91C217.239 282.915 216.285 287.09 214.693 290.935C212.875 291.222 209.306 291.568 207.642 290.855C206.175 288.603 198.89 258.737 198.169 254.275C198.564 253.772 199.169 253.698 199.759 253.538C201.34 253.513 203.306 253.258 204.788 253.828C206.604 256.005 211.164 277.805 211.488 281.55Z" fill="#4CC6DA"/>
<path d="M31.126 253.59C38.2715 253.71 49.1243 252.108 54.731 257.015C57.1708 259.15 58.4325 262.045 58.6013 265.26C58.7828 268.71 57.7865 272.25 55.417 274.825C52.4898 278.005 49.1038 278.687 44.9963 278.895C42.382 279.035 39.5665 279.077 36.9633 278.81C37.0483 282.775 36.9863 286.75 36.9775 290.715C34.596 290.7 32.2148 290.67 29.8338 290.62C29.3408 285.195 29.732 279.157 29.735 273.675C29.7388 267.297 29.4045 260.775 29.7743 254.415C30.1923 253.797 30.4355 253.82 31.126 253.59ZM36.983 272.73C40.8648 272.59 46.3953 273.45 49.5883 270.888C51.1028 268.878 51.6418 267.4 51.2833 264.877C51.0748 263.41 50.4543 262.137 49.2505 261.237C45.9388 258.76 40.8073 260.18 36.9915 259.612C37.0195 263.985 37.0168 268.358 36.983 272.73Z" fill="#C084FC"/>
<path d="M122.605 267.1C123.366 265.937 124.24 264.82 125.311 263.925C127.454 262.13 130.019 261.642 132.752 261.88C135.292 262.102 137.671 263.022 139.326 265.03C140.378 266.307 140.987 267.882 141.322 269.49C142.187 273.635 142.013 286.232 141.611 290.685C139.34 290.677 137.069 290.7 134.798 290.747C134.579 286.662 135.344 273.358 133.867 270.42C132.962 268.623 131.383 268.188 129.585 267.668C128.19 267.938 126.909 268.252 125.871 269.29C122.824 272.332 123.944 281.632 123.988 285.937L123.991 290.885C121.654 290.815 119.341 290.737 117.008 290.93C116.723 286.05 118.199 272.647 115.124 269.372C114.206 268.392 112.952 267.957 111.629 267.94C110.224 267.92 108.933 268.312 107.918 269.315C107.04 270.182 106.494 271.397 106.225 272.59C105.356 276.435 105.966 286.452 105.998 290.897C103.682 290.825 101.381 290.745 99.067 290.89C98.9478 284.405 98.9083 277.917 98.9488 271.432C98.9485 268.927 98.5913 265.74 99.0673 263.293C99.1085 263.08 99.1382 262.812 99.3347 262.705C100.802 261.895 103.546 262.068 105.122 262.483C105.954 263.563 105.491 265.637 105.371 266.955C105.675 266.51 105.995 266.077 106.332 265.657C108.393 263.045 109.957 262.222 113.239 261.84C114.372 261.762 115.63 261.905 116.721 262.22C119.375 262.982 121.298 264.702 122.605 267.1Z" fill="#C084FC"/>
<path d="M261.265 261.84C261.753 261.76 262.248 261.745 262.743 261.742C266.113 261.722 269.348 263.075 271.698 265.487C275.385 269.237 275.775 274.02 275.745 278.987C272.993 279.16 270.178 278.845 267.42 278.77C263.288 278.68 259.155 278.748 255.028 278.975C255.805 280.978 256.488 282.805 258.165 284.253C259.623 285.508 261.593 286.058 263.498 285.873C266.19 285.61 267.7 284.028 269.348 282.065L271.848 282.59L275.348 284.02C274.805 284.807 274.263 285.597 273.688 286.36C271.515 289.232 268.705 290.837 265.133 291.305C261.12 291.83 256.71 291.072 253.458 288.555C250.575 286.325 248.97 282.913 248.515 279.348C247.959 274.993 248.758 270.31 251.525 266.802C254.073 263.577 257.323 262.323 261.265 261.84ZM255.145 274.11C258.285 274.17 261.423 274.205 264.563 274.218C266.165 274.15 267.815 274.163 269.408 273.968C268.545 271.618 267.605 269.273 265.188 268.14C263.533 267.365 261.885 267.453 260.11 267.595C257.253 268.97 256.205 271.078 255.19 273.978L255.145 274.11Z" fill="#4CC6DA"/>
<path d="M349.062 261.842C351.885 261.532 354.635 262.235 357.013 263.765C360.518 266.023 362.463 269.58 363.325 273.578C363.678 275.215 364.115 277.143 363.152 278.64C362.652 279.043 362.25 279.1 361.63 279.13C359.332 279.245 356.915 278.902 354.602 278.845C350.635 278.75 346.668 278.867 342.703 278.972C343.02 280.172 343.385 281.387 344.032 282.457C345.097 284.21 346.822 285.53 348.83 285.98C353.722 287.078 354.232 283.962 357.03 282.332C357.67 281.96 358.77 282.432 359.437 282.625C360.037 282.842 360.67 283.05 361.245 283.33C361.827 283.617 362.063 283.94 362.265 284.547C362.28 285.405 362.067 285.967 361.547 286.645C359.397 289.432 356.512 290.822 353.065 291.282C349.07 291.815 344.392 291 341.157 288.48C338.26 286.223 336.54 282.695 336.095 279.092C335.572 274.885 336.522 270.185 339.212 266.832C341.765 263.65 345.127 262.302 349.062 261.842ZM342.91 274.25C345.96 274.137 349.012 274.202 352.062 274.237C353.712 274.202 355.37 274.197 357.015 274.032C356.158 271.695 355.252 269.307 352.842 268.157C351.342 267.44 350.04 267.453 348.415 267.578C346.34 268.345 345.03 269.287 344.067 271.337C343.625 272.28 343.272 273.277 342.91 274.25Z" fill="#4CC6DA"/>
<path d="M159.909 261.845C160.523 261.778 161.158 261.82 161.775 261.845C165.252 261.988 168.226 263.22 170.584 265.825C173.886 269.473 174.418 273.933 174.227 278.638C170.069 278.738 165.909 278.782 161.749 278.767C159.116 278.775 156.404 278.915 153.787 278.61C154.041 279.487 154.289 280.383 154.607 281.238C155.266 283.008 156.78 284.703 158.509 285.475C160.191 286.23 161.824 286.1 163.52 285.48C165.354 284.808 166.179 282.995 167.872 282.267C168.888 282.145 169.718 282.592 170.628 282.985C171.497 283.3 172.457 283.462 172.985 284.235C173.018 285.057 172.666 285.685 172.181 286.32C169.815 289.42 166.704 290.838 162.931 291.285C159.087 291.74 154.959 290.945 151.889 288.49C149.017 286.193 147.523 282.885 147.113 279.283C146.601 274.8 147.395 270.33 150.291 266.763C152.876 263.578 155.928 262.248 159.909 261.845ZM153.887 274.125C156.404 274.09 158.921 274.093 161.437 274.135C163.481 274.148 165.503 274.138 167.542 273.988C166.854 271.675 166.147 269.385 163.857 268.172C162.724 267.575 161.517 267.403 160.252 267.328C158.294 267.678 156.907 268.31 155.729 269.983C154.849 271.23 154.362 272.688 153.887 274.125Z" fill="#C084FC"/>
<path d="M289.105 262.16C293.018 261.765 297.388 261.838 300.568 264.48C302.075 265.735 303.075 267.408 303.583 269.295C304.813 273.863 303.83 285.078 304.345 290.743C302.995 290.665 301.643 290.645 300.29 290.685C299.185 290.728 298.405 290.638 297.553 289.848C297.043 289.013 297.253 287.845 297.298 286.903C296.735 287.623 296.155 288.348 295.473 288.958C293.423 290.793 290.248 291.55 287.555 291.405C284.743 291.255 282.448 290.243 280.568 288.153C280.028 287.175 279.57 286.223 279.338 285.12C278.888 282.988 278.98 280.838 280.203 278.97C283.615 273.763 291.78 274.253 297.243 273.075C296.925 271.585 296.48 270.238 295.853 268.85C294.4 268.025 292.985 267.465 291.278 267.573C288.735 267.733 287.12 269.623 285.56 271.39C284.028 270.86 282.42 270.735 280.895 270.14C280.628 269.825 280.408 269.54 280.363 269.118C280.265 268.195 280.883 267.313 281.443 266.633C283.395 264.245 286.018 262.488 289.105 262.16ZM289.14 285.985C291.175 286.338 292.853 285.97 294.78 285.255C296.108 283.773 297.383 281.148 297.178 279.098C297.12 278.505 297.035 278.338 296.575 277.99C295.818 277.99 295.123 278.045 294.373 278.153C292.123 278.39 288.57 278.403 286.958 280.26C286.3 281.018 286.125 281.988 286.24 282.963C286.338 283.8 286.59 284.608 287.293 285.14C287.815 285.54 288.528 285.76 289.14 285.985Z" fill="#4CC6DA"/>
<path d="M328.26 262.235C329.93 262.277 333.075 261.73 334.358 262.807C334.678 264.247 333.477 266.565 332.962 267.948C330.105 275.395 327.515 282.982 324.742 290.467C322.242 290.797 319.657 290.66 317.15 290.513C315.617 287.528 306.745 264.85 307.02 262.328C309.28 262.268 311.55 262.3 313.81 262.293C316.015 266.795 320.083 280.21 320.943 285.182C322.58 278.16 324.51 268.387 328.26 262.235Z" fill="#4CC6DA"/>
<path d="M382.342 261.818C383.382 261.67 384.17 261.628 385.07 262.2C386.105 263.818 385.285 266.698 385.128 268.575C383.325 268.498 381.192 268.185 379.462 268.78C371.992 271.35 377.533 285.835 375.138 290.582C374.008 291.52 371.037 291.413 369.62 291.195C368.997 291.098 368.885 290.748 368.58 290.265C368.43 280.968 368.62 271.683 368.258 262.388C369.933 262.333 372.05 261.947 373.69 262.175C374.198 262.245 374.652 262.483 374.957 262.89C375.787 264 375.3 265.788 375.138 267.078C375.575 266.378 375.983 265.648 376.473 264.98C377.968 262.935 379.925 262.205 382.342 261.818Z" fill="#4CC6DA"/>
<path d="M77.5908 261.805C78.4425 261.765 79.4303 261.588 80.1528 262.125C81.3325 263.613 80.5563 266.74 80.4368 268.573C79.3718 268.533 78.3018 268.487 77.236 268.492C75.5108 268.5 73.808 268.837 72.5665 270.12C69.3345 273.46 70.5458 286.025 70.611 290.772C68.933 290.75 67.2538 290.815 65.5753 290.81C64.672 290.805 64.1743 290.848 63.5263 290.2C63.5748 284.363 63.5753 278.525 63.5275 272.685C63.5165 269.585 63.179 266.083 63.7485 263.043C63.8915 262.88 64.011 262.745 64.203 262.64C65.6498 261.853 68.6728 262.177 70.154 262.737C70.9515 263.95 70.358 266.313 70.1975 267.725C70.6923 266.798 71.2425 265.903 71.8455 265.045C73.3903 262.875 75.0423 262.22 77.5908 261.805Z" fill="#C084FC"/>
<path d="M192.954 261.812C193.796 261.742 194.824 261.6 195.535 262.127C196.696 263.597 195.997 266.775 195.983 268.638C194.928 268.508 193.828 268.355 192.764 268.38C191.032 268.42 189.239 268.89 188.034 270.207C187.184 271.135 186.756 272.317 186.519 273.535C185.871 276.862 186.241 286.755 186.368 290.557C184.319 290.64 181.629 291.038 179.648 290.573L179.324 289.953C179.125 280.77 179.596 271.557 179.255 262.382C181.513 262.19 183.729 262.32 185.969 262.62C186.145 264.205 186.049 265.855 186.043 267.45C186.604 266.628 187.048 265.727 187.619 264.912C189.001 262.932 190.632 262.207 192.954 261.812Z" fill="#C084FC"/>
<path d="M85.2835 262.283C87.5215 262.203 89.734 262.245 91.9515 262.57L91.9755 281.497C91.9847 284.482 92.3267 287.822 91.8682 290.742C89.6102 290.622 87.3015 290.768 85.0395 290.818C84.8685 287.26 84.6537 264.53 85.2835 262.283Z" fill="#C084FC"/>
<path d="M87.028 250.7C88.3972 250.205 89.9262 250.487 91.0292 251.437C92.1322 252.387 92.6387 253.857 92.3547 255.285C92.0707 256.712 91.0402 257.875 89.6575 258.33C87.5607 259.02 85.2985 257.9 84.5792 255.812C83.8602 253.725 84.951 251.447 87.028 250.7Z" fill="#C084FC"/>
<defs>
<linearGradient id="paint0_linear_1_396" x1="157.519" y1="130.635" x2="182.813" y2="153.745" gradientUnits="userSpaceOnUse">
<stop stop-color="#260D5A"/>
<stop offset="1" stop-color="#142460"/>
</linearGradient>
<linearGradient id="paint1_linear_1_396" x1="167.784" y1="122.061" x2="236.761" y2="121.718" gradientUnits="userSpaceOnUse">
<stop stop-color="#31A2BC"/>
<stop offset="1" stop-color="#48C4D6"/>
</linearGradient>
<linearGradient id="paint2_linear_1_396" x1="239.147" y1="117.93" x2="173.451" y2="111.724" gradientUnits="userSpaceOnUse">
<stop stop-color="#32A3BC"/>
<stop offset="1" stop-color="#4CC6DA"/>
</linearGradient>
<linearGradient id="paint3_linear_1_396" x1="122.627" y1="87.7683" x2="127.212" y2="103.029" gradientUnits="userSpaceOnUse">
<stop stop-color="#001A3D"/>
<stop offset="1" stop-color="#003157"/>
</linearGradient>
<linearGradient id="paint4_linear_1_396" x1="185.445" y1="99.0435" x2="234.632" y2="31.195" gradientUnits="userSpaceOnUse">
<stop stop-color="#3AA2BF"/>
<stop offset="1" stop-color="#4DC4DA"/>
</linearGradient>
<linearGradient id="paint5_linear_1_396" x1="245.222" y1="113.853" x2="303.385" y2="142.969" gradientUnits="userSpaceOnUse">
<stop stop-color="#36A5C0"/>
<stop offset="1" stop-color="#4CC4D9"/>
</linearGradient>
<linearGradient id="paint6_linear_1_396" x1="134.993" y1="65.187" x2="139.484" y2="67.6625" gradientUnits="userSpaceOnUse">
<stop stop-color="#100041"/>
<stop offset="1" stop-color="#39005F"/>
</linearGradient>
<linearGradient id="paint7_linear_1_396" x1="188.148" y1="183.308" x2="201.94" y2="179.24" gradientUnits="userSpaceOnUse">
<stop stop-color="#7A48AB"/>
<stop offset="1" stop-color="#A264CD"/>
</linearGradient>
</defs>
</svg>
